<svg width="22" height="21" viewBox="0 0 22 21" fill="none" xmlns="http://www.w3.org/2000/svg">
<path d="M13.834 5.48462H7.68973C6.70902 5.48462 5.91113 6.28251 5.91113 7.26321V13.4074C5.91113 14.3882 6.70902 15.1863 7.68973 15.1863H13.834C14.8147 15.1863 15.6128 14.3884 15.6128 13.4074V7.26321C15.6128 6.28251 14.8149 5.48462 13.834 5.48462ZM10.7618 13.5292C9.00094 13.5292 7.56823 12.0965 7.56823 10.3353C7.56823 8.57442 9.00094 7.14172 10.7618 7.14172C12.523 7.14172 13.9557 8.57442 13.9557 10.3353C13.9557 12.0962 12.5228 13.5292 10.7618 13.5292ZM14.0584 7.80203C13.6415 7.80203 13.3025 7.46303 13.3025 7.0464C13.3025 6.62977 13.6415 6.29077 14.0584 6.29077C14.475 6.29077 14.814 6.62977 14.814 7.0464C14.814 7.46303 14.475 7.80203 14.0584 7.80203Z" fill="#14ACB7"/>
<path d="M10.7618 8.49127C9.74523 8.49127 8.91748 9.31856 8.91748 10.3351C8.91748 11.3521 9.74523 12.1796 10.7618 12.1796C11.7788 12.1796 12.6058 11.3521 12.6058 10.3351C12.6058 9.31879 11.7785 8.49127 10.7618 8.49127Z" fill="#14ACB7"/>
<path d="M10.7616 0C5.06917 0 0.454102 4.61507 0.454102 10.3075C0.454102 16 5.06917 20.6151 10.7616 20.6151C16.4541 20.6151 21.0692 16 21.0692 10.3075C21.0692 4.61507 16.4541 0 10.7616 0ZM16.9619 13.4074C16.9619 15.1325 15.5588 16.5356 13.8337 16.5356H7.68952C5.96467 16.5356 4.56136 15.1325 4.56136 13.4074V7.26321C4.56136 5.53835 5.96467 4.13505 7.68952 4.13505H13.8337C15.5588 4.13505 16.9619 5.53835 16.9619 7.26321V13.4074Z" fill="#14ACB7"/>
</svg>
