<svg width="21" height="21" viewBox="0 0 21 21" fill="none" xmlns="http://www.w3.org/2000/svg">
<path d="M10.3075 20.6151C16.0002 20.6151 20.6151 16.0002 20.6151 10.3075C20.6151 4.61484 16.0002 0 10.3075 0C4.61484 0 0 4.61484 0 10.3075C0 16.0002 4.61484 20.6151 10.3075 20.6151Z" fill="#14ACB7"/>
<path d="M16.4663 11.1372V15.3868H14.0025V11.422C14.0025 10.4265 13.6468 9.74664 12.7547 9.74664C12.074 9.74664 11.6695 10.2043 11.4909 10.6475C11.4261 10.8059 11.4094 11.0259 11.4094 11.248V15.3866H8.94539C8.94539 15.3866 8.97846 8.67157 8.94539 7.97648H11.4095V9.02656C11.4046 9.03483 11.3976 9.04291 11.3932 9.05081H11.4095V9.02656C11.737 8.52274 12.3209 7.80247 13.6301 7.80247C15.251 7.80247 16.4663 8.86156 16.4663 11.1372ZM6.36786 4.40454C5.52504 4.40454 4.97363 4.95779 4.97363 5.68467C4.97363 6.39612 5.50906 6.96535 6.33552 6.96535H6.35151C7.21087 6.96535 7.74519 6.39612 7.74519 5.68467C7.72884 4.95779 7.21087 4.40454 6.36786 4.40454ZM5.12007 15.3868H7.58313V7.97648H5.12007V15.3868Z" fill="white"/>
</svg>
