<svg  viewBox="0 0 114 83" fill="none" xmlns="http://www.w3.org/2000/svg">
<path d="M84.4714 30.4564C84.4749 34.0828 83.7619 37.6742 82.3735 41.0244C80.985 44.3745 78.9485 47.4173 76.3807 49.9781C75.6059 50.7686 74.7825 51.5099 73.9152 52.1978L73.7345 52.3424L73.5465 52.4798C73.0187 52.8847 72.4691 53.2679 71.9124 53.6294L71.5437 53.868C67.1809 56.6048 62.1398 58.0673 56.9896 58.0903C51.8395 58.1133 46.7856 56.6959 42.3985 53.9981C42.2828 53.9258 42.1599 53.8535 42.037 53.7668C41.2889 53.2948 40.565 52.7856 39.8679 52.2412L39.6872 52.0965L39.5064 51.952C35.8715 49.0219 33.0384 45.2183 31.2718 40.8966C29.5052 36.5749 28.8627 31.8759 29.4043 27.2386C29.9458 22.6013 31.6538 18.1768 34.3687 14.3784C37.0836 10.5801 40.7168 7.53172 44.9291 5.51804C49.1414 3.50435 53.7953 2.59104 58.4562 2.8634C63.1171 3.13575 67.6329 4.58488 71.582 7.07547C75.5311 9.56606 78.7845 13.0168 81.0385 17.1056C83.2925 21.1943 84.4736 25.7875 84.4714 30.4564Z" fill="white"/>
<path d="M78.4268 8.89589C75.4976 5.97604 72.005 3.68266 68.1614 2.15528C64.3179 0.627908 60.2037 -0.101527 56.0694 0.0113602C51.935 0.124248 47.8668 1.0771 44.1123 2.81194C40.3579 4.54677 36.9956 7.02732 34.2301 10.1027C31.4646 13.178 29.3537 16.7839 28.0258 20.7008C26.6979 24.6177 26.1808 28.7639 26.506 32.887C26.8311 37.0101 27.9917 41.024 29.9172 44.6843C31.8426 48.3447 34.4926 51.5751 37.706 54.179L37.9084 54.338L38.1037 54.4971C38.8773 55.0972 39.6726 55.6612 40.4969 56.189C40.627 56.2757 40.7644 56.3625 40.8945 56.4348C45.7374 59.4137 51.3169 60.9788 57.0025 60.9533C62.6881 60.9277 68.2533 59.3125 73.0691 56.2902C73.2084 56.2102 73.3435 56.1234 73.474 56.0299C74.0886 55.6322 74.696 55.2129 75.2816 54.7646L75.4841 54.6128L75.6865 54.4537C76.6501 53.6997 77.5653 52.8859 78.4268 52.0171C81.2601 49.1868 83.5077 45.8258 85.0412 42.1263C86.5747 38.4268 87.364 34.4613 87.364 30.4565C87.364 26.4517 86.5747 22.4862 85.0412 18.7867C83.5077 15.0872 81.2601 11.7262 78.4268 8.89589ZM74.2477 47.8597C73.5499 48.5563 72.8111 49.2106 72.0352 49.8191L71.8689 49.942L71.7027 50.0722C71.2399 50.4265 70.7483 50.7952 70.2566 51.0916L69.924 51.3013C66.043 53.7358 61.559 55.0372 56.9777 55.0589C52.3964 55.0807 47.9002 53.8218 43.9963 51.4242L43.671 51.2146C43.0058 50.788 42.3695 50.3325 41.7477 49.8553L41.5814 49.7251L41.4296 49.595C37.5599 46.4704 34.7291 42.2455 33.3109 37.4783C31.8927 32.7111 31.9539 27.6258 33.4864 22.8941C35.0189 18.1625 37.9507 14.0069 41.8945 10.9764C45.8382 7.94584 50.6085 6.18285 55.5752 5.92023C60.5419 5.65761 65.4715 6.90773 69.7129 9.50549C73.9542 12.1032 77.3078 15.9264 79.3308 20.4701C81.3538 25.0138 81.9509 30.0642 81.0433 34.9544C80.1358 39.8446 77.7663 44.3445 74.2477 47.8597Z" fill="#14ACB7"/>
<path d="M79.981 30.4566C79.9851 33.4919 79.3894 36.498 78.228 39.3022C77.0666 42.1064 75.3624 44.6535 73.2135 46.797C72.5593 47.4552 71.8638 48.0711 71.1312 48.6407L70.9794 48.7636L70.8203 48.8793C70.3792 49.2192 69.9237 49.5373 69.4538 49.8409L69.1501 50.0434C65.4984 52.3306 61.2805 53.5526 56.9717 53.5718C52.6629 53.5909 48.4344 52.4065 44.7625 50.1519C44.6613 50.0868 44.56 50.0289 44.4588 49.9566C43.8346 49.5615 43.2312 49.1344 42.6512 48.6769C42.5952 48.64 42.542 48.5989 42.4922 48.554L42.3476 48.4383C39.2905 45.9906 36.9048 42.8071 35.4138 39.1858C33.9228 35.5645 33.3754 31.6241 33.8229 27.7335C34.2704 23.843 35.6981 20.1297 37.9722 16.9415C40.2464 13.7533 43.2926 11.1945 46.8256 9.50479C50.3585 7.81511 54.2625 7.04983 58.1719 7.28064C62.0812 7.51146 65.8681 8.7308 69.1776 10.8245C72.4871 12.9182 75.2111 15.8176 77.0943 19.2513C78.9775 22.685 79.9583 26.5405 79.9449 30.4566H79.981Z" fill="#14ACB7"/>
<path d="M59.0204 22.1199C58.2119 21.1724 57.7683 19.9673 57.7695 18.7217V12.1639H58.1383V18.7217C58.1386 19.8798 58.5512 20.9999 59.3023 21.8813L59.0204 22.1199Z" fill="white"/>
<path d="M67.7908 17.0661C67.7331 16.4172 67.4347 15.8134 66.9545 15.3732C66.4742 14.9331 65.8466 14.6884 65.1952 14.6874H63.5684V14.3114H65.1952C65.9403 14.314 66.6575 14.595 67.206 15.0994C67.7545 15.6037 68.0946 16.2949 68.1596 17.0372L67.7908 17.0661Z" fill="white"/>
<path d="M67.35 31.5846L67.3066 31.2159C68.0837 31.1206 68.7993 30.7447 69.3186 30.1588C69.8379 29.5729 70.1252 28.8174 70.1264 28.0345V23.6385H70.4952V28.0345C70.4869 28.906 70.164 29.7451 69.5861 30.3974C69.0082 31.0497 68.2141 31.4713 67.35 31.5846Z" fill="white"/>
<path d="M58.6446 37.2456H55.0873C54.6425 37.2499 54.1986 37.2038 53.7642 37.1083C51.6969 36.6501 49.8685 35.4517 48.6234 33.739L47.4521 32.1483L47.7558 31.9314L48.9199 33.5221C50.1177 35.1565 51.8668 36.3019 53.8437 36.7467C54.2522 36.8359 54.6692 36.8796 55.0873 36.8769H58.6446C59.0627 36.8803 59.4799 36.8367 59.8882 36.7467C61.8667 36.3056 63.6169 35.1594 64.812 33.5221L65.9761 31.9314L66.2798 32.1483L65.1157 33.739C63.8656 35.4498 62.0358 36.6473 59.9677 37.1083C59.5333 37.2038 59.0894 37.2499 58.6446 37.2456Z" fill="white"/>
<path d="M70.495 22.1274H70.1262V20.1319C70.122 19.6868 69.981 19.2539 69.7223 18.8917C69.4636 18.5296 69.0998 18.2557 68.6802 18.1074L68.7959 17.7531C69.2921 17.9223 69.7229 18.2428 70.0277 18.6695C70.3324 19.0961 70.4958 19.6075 70.495 20.1319V22.1274Z" fill="white"/>
<path d="M62.5415 13.7909C62.3804 13.1668 62.0154 12.6144 61.5046 12.2215C60.9937 11.8285 60.3662 11.6174 59.7217 11.6218H58.7095V11.2458H59.7217C60.4515 11.2506 61.1589 11.4975 61.7333 11.9476C62.3077 12.3977 62.7166 13.0256 62.8958 13.733L62.5415 13.7909Z" fill="white"/>
<path d="M70.3142 26.6678H67.0967V27.0366H70.3142V26.6678Z" fill="white"/>
<path d="M65.7953 22.1201L65.7158 21.7513C66.3052 21.6245 66.8337 21.3002 67.2136 20.8321C67.5936 20.3641 67.8024 19.7802 67.8054 19.1774V18.5628H68.1741V19.1774C68.1718 19.8654 67.9348 20.532 67.5022 21.0671C67.0697 21.6021 66.4676 21.9736 65.7953 22.1201Z" fill="white"/>
<path d="M61.8623 25.7352L61.508 25.634L61.696 24.9544C62.0728 23.5942 62.0927 22.1599 61.7538 20.7898L61.4863 19.6908L61.8478 19.604L62.1154 20.6958C62.4662 22.1234 62.4438 23.6174 62.0503 25.0339L61.8623 25.7352Z" fill="white"/>
<path d="M55.7815 10.4649C55.5936 10.4635 55.4094 10.518 55.2526 10.6215C55.0957 10.7251 54.9732 10.8729 54.9006 11.0463C54.8281 11.2196 54.8087 11.4107 54.845 11.5951C54.8813 11.7795 54.9717 11.9489 55.1046 12.0818C55.2375 12.2147 55.4069 12.3051 55.5913 12.3414C55.7757 12.3777 55.9668 12.3583 56.1401 12.2858C56.3135 12.2132 56.4613 12.0906 56.5648 11.9338C56.6684 11.7769 56.7229 11.5928 56.7214 11.4049C56.7196 11.1562 56.6199 10.9182 56.444 10.7423C56.2682 10.5665 56.0302 10.4668 55.7815 10.4649Z" fill="white"/>
<path d="M50.9229 15.4392C51.1108 15.4407 51.2949 15.3861 51.4518 15.2826C51.6087 15.1791 51.7312 15.0312 51.8038 14.8579C51.8764 14.6845 51.8957 14.4935 51.8594 14.3091C51.8231 14.1247 51.7327 13.9552 51.5998 13.8223C51.4669 13.6894 51.2975 13.5991 51.1131 13.5628C50.9287 13.5265 50.7377 13.5458 50.5643 13.6184C50.3909 13.691 50.2431 13.8135 50.1396 13.9704C50.036 14.1272 49.9815 14.3113 49.9829 14.4993C49.9848 14.748 50.0845 14.986 50.2603 15.1618C50.4362 15.3377 50.6742 15.4373 50.9229 15.4392Z" fill="white"/>
<path d="M43.425 21.9394C43.2371 21.9379 43.053 21.9925 42.8961 22.096C42.7393 22.1995 42.6167 22.3473 42.5442 22.5207C42.4716 22.6941 42.4522 22.8851 42.4886 23.0695C42.5249 23.2539 42.6152 23.4233 42.7481 23.5562C42.881 23.6891 43.0504 23.7795 43.2348 23.8158C43.4192 23.8521 43.6103 23.8328 43.7836 23.7602C43.957 23.6876 44.1049 23.5651 44.2084 23.4082C44.3119 23.2514 44.3664 23.0672 44.365 22.8793C44.3631 22.6306 44.2635 22.3926 44.0876 22.2168C43.9117 22.0409 43.6737 21.9412 43.425 21.9394Z" fill="white"/>
<path d="M46.6855 17.8036C46.6841 17.618 46.6277 17.437 46.5236 17.2834C46.4194 17.1298 46.2722 17.0104 46.1003 16.9404C45.9284 16.8704 45.7396 16.8528 45.5578 16.8899C45.3759 16.9269 45.2091 17.017 45.0784 17.1488C44.9477 17.2805 44.8589 17.448 44.8232 17.6301C44.7875 17.8122 44.8065 18.0009 44.8779 18.1722C44.9492 18.3435 45.0697 18.4899 45.2241 18.5929C45.3785 18.6958 45.56 18.7508 45.7456 18.7508C45.8696 18.7508 45.9924 18.7262 46.1069 18.6786C46.2215 18.6309 46.3254 18.561 46.4128 18.4729C46.5001 18.3849 46.5692 18.2804 46.616 18.1655C46.6628 18.0507 46.6864 17.9277 46.6855 17.8036Z" fill="white"/>
<path d="M47.3944 25.9086C47.2078 25.9045 47.0241 25.9556 46.8664 26.0555C46.7088 26.1554 46.5841 26.2997 46.5082 26.4703C46.4323 26.6408 46.4084 26.8299 46.4396 27.014C46.4708 27.198 46.5558 27.3688 46.6837 27.5047C46.8116 27.6406 46.9769 27.7357 47.1587 27.7781C47.3405 27.8204 47.5308 27.808 47.7056 27.7425C47.8804 27.6771 48.032 27.5614 48.1413 27.4101C48.2506 27.2587 48.3127 27.0785 48.3199 26.8919C48.3247 26.7663 48.3045 26.641 48.2605 26.5233C48.2164 26.4057 48.1493 26.2979 48.0632 26.2064C47.977 26.1149 47.8736 26.0414 47.7587 25.9903C47.6439 25.9392 47.5201 25.9114 47.3944 25.9086Z" fill="white"/>
<path d="M47.1631 30.5072C46.9138 30.5072 46.6747 30.6062 46.4985 30.7825C46.3222 30.9588 46.2231 31.1978 46.2231 31.4471C46.2231 31.6964 46.3222 31.9355 46.4985 32.1118C46.6747 32.288 46.9138 32.3871 47.1631 32.3871C47.36 32.3887 47.5523 32.3279 47.7126 32.2135C47.8335 32.1257 47.932 32.0104 47.9998 31.8772C48.0677 31.744 48.1031 31.5966 48.103 31.4471C48.103 31.1978 48.004 30.9588 47.8277 30.7825C47.6514 30.6062 47.4124 30.5072 47.1631 30.5072Z" fill="white"/>
<path d="M51.3057 26.4147C51.3057 26.6024 51.3614 26.7858 51.4658 26.9417C51.5702 27.0976 51.7186 27.219 51.8921 27.2905C52.0656 27.3619 52.2564 27.3803 52.4403 27.3431C52.6242 27.306 52.793 27.2151 52.9252 27.0819C53.0573 26.9487 53.1469 26.7792 53.1827 26.595C53.2184 26.4108 53.1986 26.2202 53.1258 26.0472C53.053 25.8743 52.9305 25.7269 52.7738 25.6237C52.6171 25.5205 52.4332 25.4661 52.2456 25.4676C52.1216 25.4676 51.9987 25.4921 51.8842 25.5398C51.7697 25.5875 51.6658 25.6574 51.5784 25.7454C51.491 25.8334 51.422 25.9379 51.3752 26.0528C51.3283 26.1677 51.3047 26.2907 51.3057 26.4147Z" fill="white"/>
<path d="M51.3057 18.9387C51.3043 19.1267 51.3588 19.3108 51.4623 19.4677C51.5658 19.6245 51.7137 19.747 51.887 19.8196C52.0604 19.8922 52.2515 19.9116 52.4359 19.8753C52.6203 19.8389 52.7897 19.7486 52.9226 19.6157C53.0555 19.4828 53.1458 19.3134 53.1821 19.129C53.2185 18.9446 53.1991 18.7535 53.1265 18.5802C53.0539 18.4068 52.9314 18.2589 52.7746 18.1554C52.6177 18.0519 52.4336 17.9974 52.2456 17.9988C51.9963 17.9988 51.7572 18.0978 51.581 18.2741C51.4047 18.4504 51.3057 18.6894 51.3057 18.9387Z" fill="white"/>
<path d="M54.1547 32.2856C54.0732 32.2735 53.9904 32.2735 53.9089 32.2856C53.6974 32.2873 53.4924 32.3592 53.3262 32.4901C53.16 32.621 53.042 32.8034 52.9907 33.0086C52.6247 32.9669 52.276 32.8302 51.9792 32.612C51.6824 32.3939 51.4478 32.1019 51.2988 31.765C51.5117 31.6714 51.6823 31.5022 51.7776 31.29C51.873 31.0779 51.8864 30.838 51.8151 30.6166C51.7439 30.3952 51.593 30.2081 51.3919 30.0915C51.1907 29.9748 50.9534 29.9369 50.7258 29.985C50.4983 30.0331 50.2967 30.1639 50.16 30.3521C50.0233 30.5402 49.9612 30.7723 49.9857 31.0036C50.0102 31.2349 50.1195 31.4489 50.2926 31.6042C50.4657 31.7595 50.6902 31.8451 50.9228 31.8445C51.0934 32.2632 51.3746 32.6277 51.7362 32.8989C52.0979 33.1702 52.5265 33.3381 52.9762 33.3846C53.015 33.6023 53.1288 33.7996 53.2979 33.9422C53.4669 34.0848 53.6805 34.1638 53.9017 34.1654C54.026 34.1664 54.1493 34.1425 54.2642 34.0952C54.3792 34.0478 54.4835 33.978 54.5711 33.8898C54.6586 33.8015 54.7277 33.6967 54.7742 33.5813C54.8206 33.466 54.8436 33.3426 54.8416 33.2183C54.849 33.0082 54.7852 32.8017 54.6605 32.6324C54.5358 32.4631 54.3576 32.3409 54.1547 32.2856Z" fill="white"/>
<path d="M54.0388 21.5923C53.8509 21.5909 53.6668 21.6454 53.5099 21.7489C53.3531 21.8524 53.2305 22.0003 53.1579 22.1737C53.0854 22.347 53.066 22.5381 53.1023 22.7225C53.1386 22.9069 53.229 23.0763 53.3619 23.2092C53.4948 23.3421 53.6642 23.4324 53.8486 23.4688C54.033 23.5051 54.224 23.4857 54.3974 23.4131C54.5708 23.3405 54.7186 23.218 54.8222 23.0612C54.9257 22.9043 54.9802 22.7202 54.9788 22.5322C54.9769 22.2835 54.8772 22.0456 54.7014 21.8697C54.5255 21.6938 54.2875 21.5942 54.0388 21.5923Z" fill="white"/>
<path d="M48.7322 21.0571C48.5443 21.0557 48.3601 21.1102 48.2033 21.2137C48.0464 21.3172 47.9239 21.4651 47.8513 21.6384C47.7787 21.8118 47.7594 22.0028 47.7957 22.1872C47.832 22.3716 47.9224 22.5411 48.0553 22.674C48.1881 22.8069 48.3576 22.8972 48.542 22.9335C48.7264 22.9699 48.9174 22.9505 49.0908 22.8779C49.2642 22.8053 49.412 22.6828 49.5155 22.526C49.619 22.3691 49.6736 22.185 49.6721 21.997C49.6702 21.7483 49.5706 21.5104 49.3947 21.3345C49.2189 21.1586 48.9809 21.059 48.7322 21.0571Z" fill="white"/>
<path d="M57.9578 10.4649C57.7699 10.4635 57.5857 10.518 57.4288 10.6215C57.272 10.7251 57.1495 10.8729 57.0769 11.0463C57.0043 11.2196 56.9849 11.4107 57.0213 11.5951C57.0576 11.7795 57.1479 11.9489 57.2808 12.0818C57.4137 12.2147 57.5831 12.3051 57.7675 12.3414C57.9519 12.3777 58.143 12.3583 58.3163 12.2858C58.4897 12.2132 58.6376 12.0906 58.7411 11.9338C58.8446 11.7769 58.8991 11.5928 58.8977 11.4049C58.8958 11.1562 58.7962 10.9182 58.6203 10.7423C58.4445 10.5665 58.2065 10.4668 57.9578 10.4649Z" fill="white"/>
<path d="M62.7803 15.4392C62.9682 15.4407 63.1523 15.3861 63.3092 15.2826C63.466 15.1791 63.5886 15.0312 63.6612 14.8579C63.7337 14.6845 63.7531 14.4935 63.7168 14.3091C63.6805 14.1247 63.5901 13.9552 63.4572 13.8223C63.3243 13.6894 63.1549 13.5991 62.9705 13.5628C62.7861 13.5265 62.595 13.5458 62.4217 13.6184C62.2483 13.691 62.1005 13.8135 61.997 13.9704C61.8935 14.1272 61.8389 14.3113 61.8404 14.4993C61.8404 14.7486 61.9394 14.9876 62.1156 15.1639C62.2919 15.3402 62.531 15.4392 62.7803 15.4392Z" fill="white"/>
<path d="M70.3142 21.9394C70.1263 21.9379 69.9422 21.9925 69.7853 22.096C69.6284 22.1995 69.5059 22.3473 69.4333 22.5207C69.3607 22.6941 69.3414 22.8851 69.3777 23.0695C69.414 23.2539 69.5044 23.4233 69.6372 23.5562C69.7701 23.6891 69.9396 23.7795 70.124 23.8158C70.3084 23.8521 70.4994 23.8328 70.6728 23.7602C70.8462 23.6876 70.994 23.5651 71.0976 23.4082C71.2011 23.2514 71.2556 23.0672 71.2541 22.8793C71.2522 22.6306 71.1526 22.3926 70.9768 22.2168C70.8009 22.0409 70.5629 21.9412 70.3142 21.9394Z" fill="white"/>
<path d="M67.9862 16.8636C67.7986 16.8637 67.6152 16.9194 67.4593 17.0238C67.3033 17.1282 67.1819 17.2765 67.1105 17.45C67.039 17.6235 67.0207 17.8143 67.0578 17.9983C67.0949 18.1822 67.1859 18.3509 67.3191 18.4831C67.4522 18.6153 67.6217 18.7049 67.8059 18.7406C67.9901 18.7764 68.1808 18.7566 68.3537 18.6838C68.5267 18.611 68.6741 18.4884 68.7773 18.3317C68.8805 18.175 68.9348 17.9912 68.9334 17.8036C68.9315 17.5536 68.8308 17.3146 68.6534 17.1385C68.476 16.9624 68.2362 16.8636 67.9862 16.8636Z" fill="white"/>
<path d="M66.3374 27.7957C66.5254 27.7971 66.7095 27.7426 66.8664 27.6391C67.0232 27.5355 67.1457 27.3877 67.2183 27.2143C67.2909 27.041 67.3103 26.8499 67.2739 26.6655C67.2376 26.4811 67.1473 26.3117 67.0144 26.1788C66.8815 26.0459 66.7121 25.9555 66.5277 25.9192C66.3433 25.8829 66.1522 25.9023 65.9789 25.9748C65.8055 26.0474 65.6576 26.17 65.5541 26.3268C65.4506 26.4837 65.3961 26.6678 65.3975 26.8557C65.3994 27.1044 65.499 27.3424 65.6749 27.5183C65.8508 27.6941 66.0887 27.7938 66.3374 27.7957Z" fill="white"/>
<path d="M66.5689 30.5072C66.3834 30.5087 66.2024 30.565 66.0487 30.6691C65.8951 30.7733 65.7757 30.9206 65.7057 31.0924C65.6357 31.2643 65.6181 31.4531 65.6552 31.6349C65.6923 31.8168 65.7824 31.9836 65.9141 32.1143C66.0458 32.245 66.2133 32.3339 66.3955 32.3695C66.5776 32.4052 66.7662 32.3862 66.9375 32.3148C67.1088 32.2435 67.2552 32.123 67.3582 31.9686C67.4612 31.8142 67.5161 31.6327 67.5161 31.4472C67.5161 31.3231 67.4915 31.2003 67.4439 31.0858C67.3962 30.9713 67.3263 30.8673 67.2383 30.78C67.1502 30.6926 67.0457 30.6235 66.9308 30.5767C66.816 30.5299 66.693 30.5063 66.5689 30.5072Z" fill="white"/>
<path d="M61.4862 25.446C61.2985 25.4445 61.1147 25.4989 60.958 25.6021C60.8013 25.7053 60.6787 25.8527 60.6059 26.0256C60.5331 26.1986 60.5133 26.3892 60.5491 26.5734C60.5848 26.7576 60.6744 26.9271 60.8066 27.0603C60.9388 27.1935 61.1075 27.2844 61.2915 27.3215C61.4754 27.3587 61.6662 27.3403 61.8397 27.2688C62.0132 27.1974 62.1615 27.076 62.2659 26.9201C62.3703 26.7642 62.4261 26.5807 62.4261 26.3931C62.4261 26.1432 62.3273 25.9033 62.1512 25.7259C61.9751 25.5485 61.7361 25.4479 61.4862 25.446Z" fill="white"/>
<path d="M61.4859 19.8497C61.6718 19.8497 61.8535 19.7946 62.0081 19.6913C62.1626 19.588 62.2831 19.4412 62.3543 19.2695C62.4254 19.0977 62.444 18.9088 62.4077 18.7264C62.3715 18.5441 62.2819 18.3766 62.1505 18.2452C62.019 18.1137 61.8516 18.0242 61.6692 17.9879C61.4869 17.9516 61.2979 17.9703 61.1262 18.0414C60.9544 18.1125 60.8076 18.233 60.7043 18.3876C60.601 18.5422 60.5459 18.7239 60.5459 18.9098C60.5459 19.1591 60.645 19.3982 60.8212 19.5744C60.9975 19.7507 61.2366 19.8497 61.4859 19.8497Z" fill="white"/>
<path d="M62.7804 29.9289C62.5661 29.9333 62.3597 30.0103 62.1948 30.1473C62.0299 30.2843 61.9164 30.4731 61.8727 30.683C61.8291 30.8928 61.8579 31.1113 61.9545 31.3026C62.0511 31.494 62.2097 31.6469 62.4045 31.7365C62.2548 32.0729 62.0201 32.3645 61.7234 32.5826C61.4268 32.8007 61.0784 32.9377 60.7126 32.9801C60.6625 32.7742 60.5447 32.5911 60.3783 32.46C60.2118 32.329 60.0062 32.2575 59.7943 32.257C59.715 32.2491 59.6351 32.2491 59.5557 32.257C59.4238 32.2933 59.3013 32.3575 59.1964 32.4453C59.0915 32.5331 59.0067 32.6424 58.9478 32.7658C58.8888 32.8892 58.857 33.0239 58.8546 33.1606C58.8523 33.2974 58.8793 33.4331 58.9339 33.5585C59.0096 33.7235 59.1307 33.8635 59.2831 33.9621C59.4355 34.0607 59.6128 34.1138 59.7943 34.1152C60.0155 34.1136 60.2291 34.0346 60.3982 33.892C60.5672 33.7493 60.681 33.5521 60.7198 33.3343C61.1693 33.2871 61.5975 33.1189 61.9591 32.8477C62.3206 32.5766 62.602 32.2125 62.7732 31.7943C62.8969 31.7953 63.0196 31.7716 63.1341 31.7247C63.2485 31.6778 63.3525 31.6086 63.44 31.5211C63.5275 31.4337 63.5966 31.3297 63.6435 31.2152C63.6904 31.1007 63.7141 30.9781 63.7131 30.8544C63.7094 30.6088 63.6097 30.3745 63.4354 30.2016C63.2611 30.0286 63.026 29.9308 62.7804 29.9289Z" fill="white"/>
<path d="M59.6929 23.4794C59.8805 23.4809 60.0643 23.4266 60.221 23.3234C60.3778 23.2202 60.5003 23.0727 60.5731 22.8998C60.6459 22.7268 60.6657 22.5362 60.63 22.352C60.5942 22.1678 60.5046 21.9983 60.3724 21.8651C60.2402 21.7319 60.0715 21.641 59.8876 21.6039C59.7036 21.5667 59.5128 21.5851 59.3393 21.6565C59.1658 21.728 59.0175 21.8494 58.9131 22.0053C58.8087 22.1612 58.7529 22.3446 58.7529 22.5323C58.7529 22.7822 58.8517 23.0221 59.0278 23.1995C59.2038 23.3769 59.4429 23.4775 59.6929 23.4794Z" fill="white"/>
<path d="M65.9471 21.997C65.9471 21.8094 65.8913 21.6259 65.7869 21.47C65.6825 21.3141 65.5342 21.1927 65.3607 21.1213C65.1872 21.0498 64.9964 21.0315 64.8125 21.0686C64.6285 21.1057 64.4598 21.1967 64.3276 21.3299C64.1954 21.463 64.1058 21.6325 64.0701 21.8167C64.0343 22.0009 64.0541 22.1916 64.1269 22.3645C64.1997 22.5374 64.3223 22.6849 64.479 22.7881C64.6357 22.8913 64.8195 22.9456 65.0072 22.9442C65.1312 22.9442 65.254 22.9196 65.3685 22.8719C65.483 22.8242 65.587 22.7544 65.6744 22.6663C65.7617 22.5783 65.8308 22.4738 65.8776 22.3589C65.9244 22.244 65.948 22.121 65.9471 21.997Z" fill="white"/>
<path d="M59.498 45.3799L59.3389 45.0328C58.3085 42.8254 57.7731 40.4194 57.77 37.9833V33.3198H59.216C59.2911 33.3196 59.3648 33.2986 59.4286 33.259C59.4924 33.2194 59.544 33.1629 59.5775 33.0956C59.6131 33.0298 59.6286 32.9551 59.6222 32.8806C59.6158 32.8061 59.5877 32.735 59.5414 32.6763L59.0064 31.9533C58.9621 31.8835 58.9113 31.8181 58.8545 31.7581L58.7099 31.5918L58.5798 31.4544L58.3701 31.2592L57.929 30.8832L57.8567 30.8253C57.6048 30.6064 57.4038 30.3351 57.2677 30.0304C57.1316 29.7256 57.0636 29.3949 57.0686 29.0612V26.6318C57.0686 25.3593 57.9652 24.0578 58.9413 22.8431L59.2305 23.0745C58.2978 24.2386 57.4446 25.475 57.4446 26.6318V29.0612C57.4409 29.309 57.4877 29.555 57.582 29.7842C57.6994 30.0648 57.883 30.3129 58.117 30.5072C58.2978 30.6446 58.4568 30.7747 58.6087 30.9121L58.8328 31.1218L58.9702 31.2664C59.0136 31.317 59.0642 31.3676 59.1076 31.4254C59.1509 31.4833 59.2377 31.5918 59.2955 31.6641L59.8306 32.3871C59.9148 32.5027 59.9654 32.6395 59.9766 32.7821C59.9877 32.9247 59.9591 33.0677 59.8939 33.195C59.8288 33.3224 59.7296 33.4292 59.6073 33.5035C59.4851 33.5779 59.3446 33.6169 59.2016 33.6162H58.1098V37.911C58.1156 40.2917 58.6386 42.6427 59.6426 44.8014L59.8017 45.1485L59.498 45.3799Z" fill="white"/>
<path d="M54.2629 45.322H53.887V45.2786L54.0605 44.8954C55.0645 42.7367 55.5875 40.3857 55.5933 38.005V33.6885H54.5015C54.3595 33.6866 54.2207 33.6461 54.1 33.5712C53.9794 33.4963 53.8814 33.3899 53.8167 33.2635C53.752 33.137 53.723 32.9954 53.7328 32.8537C53.7427 32.712 53.791 32.5757 53.8725 32.4594L54.4075 31.7364C54.4262 31.7053 54.4481 31.6762 54.4726 31.6496C54.5977 31.4848 54.7355 31.3301 54.8848 31.1869C54.959 31.1067 55.0387 31.0318 55.1233 30.9627C55.2101 30.8832 55.2896 30.8109 55.3764 30.7458L55.4776 30.659L55.5716 30.5867C55.8155 30.3969 56.0071 30.148 56.1283 29.8637C56.2342 29.6099 56.2836 29.336 56.273 29.0612V26.6318C56.273 25.475 55.4126 24.2386 54.4871 23.0745L54.7763 22.8431C55.7451 24.0578 56.6489 25.3593 56.6489 26.6318V29.0612C56.6506 29.3754 56.584 29.6862 56.4537 29.9722C56.3067 30.3177 56.0725 30.6192 55.7741 30.847L55.6945 30.9121L55.5933 30.9989L55.3547 31.2013L55.1306 31.411C54.9888 31.5499 54.8583 31.6998 54.7401 31.8593L54.6968 31.9099L54.1617 32.6329C54.111 32.7022 54.0832 32.7856 54.0822 32.8715C54.0822 32.9789 54.1249 33.0819 54.2008 33.1578C54.2767 33.2337 54.3797 33.2764 54.4871 33.2764H55.9331V37.9327C55.9238 40.3704 55.3886 42.7774 54.3642 44.9894L54.2629 45.322Z" fill="white"/>
<path d="M54.7112 22.1199L54.4292 21.8813C55.1803 20.9999 55.593 19.8798 55.5933 18.7217V12.1639H55.962V18.7217C55.9632 19.9673 55.5197 21.1724 54.7112 22.1199Z" fill="white"/>
<path d="M45.941 17.0661H45.5723C45.6372 16.3238 45.9773 15.6326 46.5258 15.1283C47.0743 14.6239 47.7915 14.3429 48.5367 14.3403H50.1707V14.7163H48.5367C47.8897 14.7167 47.266 14.9572 46.7864 15.3914C46.3068 15.8256 46.0055 16.4224 45.941 17.0661Z" fill="white"/>
<path d="M46.382 31.5846C45.5179 31.4713 44.7238 31.0497 44.1459 30.3974C43.568 29.7451 43.2451 28.906 43.2368 28.0345V23.6385H43.6056V28.0345C43.6068 28.8174 43.8941 29.5729 44.4135 30.1588C44.9328 30.7447 45.6483 31.1206 46.4254 31.2159L46.382 31.5846Z" fill="white"/>
<path d="M43.6058 22.1274H43.2588V20.1319C43.2579 19.6075 43.4214 19.0961 43.7261 18.6695C44.0309 18.2428 44.4616 17.9223 44.9579 17.7531L45.0808 18.1074C44.6612 18.2557 44.2974 18.5296 44.0387 18.8917C43.78 19.2539 43.639 19.6868 43.6348 20.1319L43.6058 22.1274Z" fill="white"/>
<path d="M51.2121 13.791L50.8506 13.7042C51.0264 12.995 51.4343 12.3649 52.0095 11.9143C52.5846 11.4636 53.294 11.2182 54.0247 11.217H55.0369V11.593H54.0247C53.3814 11.5903 52.7556 11.8021 52.2462 12.1949C51.7368 12.5878 51.3729 13.1392 51.2121 13.7621V13.791Z" fill="white"/>
<path d="M46.6423 26.6678H43.4248V27.0366H46.6423V26.6678Z" fill="white"/>
<path d="M47.9368 22.1201C47.2652 21.9724 46.6639 21.6006 46.2316 21.0658C45.7993 20.531 45.5618 19.865 45.5581 19.1774V18.5628H45.9341V19.1774C45.9354 19.7796 46.1426 20.3633 46.5214 20.8315C46.9002 21.2997 47.4277 21.6243 48.0164 21.7513L47.9368 22.1201Z" fill="white"/>
<path d="M51.8696 25.735L51.6817 25.0554C51.2955 23.6378 51.2731 22.1457 51.6166 20.7172L51.8841 19.6255L52.2456 19.7122L51.9781 20.8112C51.6428 22.1818 51.6627 23.6152 52.036 24.9759L52.224 25.6555L51.8696 25.735Z" fill="white"/>
<path d="M62.9826 30.1746L62.6283 30.0589L63.2863 28.0272C63.3403 27.8625 63.354 27.6873 63.3263 27.5162C63.2986 27.3451 63.2303 27.1832 63.1272 27.0439C63.0254 26.9054 62.8927 26.7927 62.7395 26.7149C62.5863 26.637 62.417 26.5962 62.2451 26.5956V26.2269C62.4751 26.226 62.7021 26.2799 62.907 26.3843C63.112 26.4887 63.2891 26.6405 63.4237 26.827C63.5628 27.0128 63.6551 27.2294 63.6928 27.4585C63.7306 27.6875 63.7127 27.9223 63.6406 28.1429L62.9826 30.1746Z" fill="white"/>
<path d="M65.188 21.245H64.8192C64.8192 20.6698 64.5907 20.118 64.1839 19.7113C63.7772 19.3045 63.2254 19.076 62.6502 19.076H62.2163V18.7H62.6502C62.9846 18.6981 63.316 18.7626 63.6253 18.8899C63.9345 19.0172 64.2154 19.2047 64.4515 19.4416C64.6877 19.6784 64.8743 19.9598 65.0008 20.2694C65.1272 20.579 65.1909 20.9106 65.188 21.245Z" fill="white"/>
<path d="M61.3343 18.2158L60.6908 16.2347C60.6189 16.0156 60.6004 15.7826 60.6369 15.5549C60.6733 15.3273 60.7637 15.1116 60.9005 14.926C61.0343 14.7381 61.211 14.585 61.416 14.4793C61.621 14.3737 61.8484 14.3186 62.079 14.3187V14.6947C61.9078 14.6928 61.7386 14.7326 61.5862 14.8107C61.4338 14.8888 61.3027 15.0028 61.2042 15.1429C61.1011 15.2808 61.0328 15.4416 61.0051 15.6115C60.9774 15.7814 60.9911 15.9555 61.0451 16.119L61.6886 18.1001L61.3343 18.2158Z" fill="white"/>
<path d="M63.5684 31.0638V30.6878C63.8995 30.6859 64.2166 30.5535 64.4507 30.3194C64.6849 30.0852 64.8173 29.7681 64.8192 29.437V22.7562H65.1879V29.437C65.1889 29.6503 65.1477 29.8617 65.0667 30.059C64.9857 30.2563 64.8666 30.4357 64.7161 30.5869C64.5656 30.738 64.3868 30.858 64.1898 30.9398C63.9928 31.0217 63.7817 31.0638 63.5684 31.0638Z" fill="white"/>
<path d="M48.9054 21.2451H48.5366C48.5366 20.5771 48.8015 19.9364 49.2732 19.4634C49.7448 18.9904 50.3848 18.7237 51.0528 18.7217H51.4866V19.0977H51.0528C50.485 19.1034 49.9421 19.3314 49.5406 19.7329C49.1391 20.1344 48.911 20.6773 48.9054 21.2451Z" fill="white"/>
<path d="M52.4196 18.2158L52.0653 18.1001L52.716 16.1118C52.7725 15.9473 52.7888 15.7717 52.7636 15.5996C52.7385 15.4275 52.6726 15.2639 52.5715 15.1225C52.4703 14.981 52.3368 14.8658 52.1821 14.7863C52.0274 14.7069 51.856 14.6655 51.6821 14.6657V14.2897C51.9121 14.2888 52.139 14.3428 52.344 14.4472C52.549 14.5515 52.7261 14.7033 52.8607 14.8898C52.9962 15.0761 53.0852 15.292 53.1205 15.5196C53.1557 15.7473 53.136 15.98 53.0631 16.1985L52.4196 18.2158Z" fill="white"/>
<path d="M50.1707 31.0638C49.7385 31.0638 49.324 30.8926 49.0178 30.5878C48.7115 30.2829 48.5385 29.8691 48.5366 29.437V22.7562H48.9126V29.437C48.9126 29.7687 49.0444 30.0869 49.279 30.3214C49.5136 30.556 49.8317 30.6878 50.1634 30.6878L50.1707 31.0638Z" fill="white"/>
<path d="M59.8232 35.1201H59.6353V28.0779C59.6345 27.7326 59.7311 27.3941 59.914 27.1012C60.0969 26.8084 60.3586 26.573 60.6692 26.4221C60.9218 26.2922 61.2021 26.2252 61.4862 26.2269V26.5956C61.2594 26.5932 61.0356 26.6479 60.8355 26.7547C60.586 26.8735 60.3758 27.0612 60.2298 27.2957C60.0837 27.5302 60.0078 27.8016 60.0112 28.0779V34.7441C60.719 34.6965 61.3823 34.3818 61.8669 33.8636C62.3514 33.3455 62.6211 32.6627 62.6214 31.9533V30.8687H62.9973V31.9533C62.9954 32.7938 62.6601 33.5993 62.0651 34.193C61.47 34.7867 60.6638 35.1201 59.8232 35.1201Z" fill="white"/>
<path d="M54.1039 35.1201H53.9159C53.076 35.1201 52.2705 34.7865 51.6766 34.1926C51.0827 33.5987 50.749 32.7932 50.749 31.9533V30.8687H51.1178V31.9533C51.1181 32.6638 51.3888 33.3477 51.8749 33.866C52.361 34.3843 53.026 34.6982 53.7351 34.7441V28.0706C53.7371 27.7956 53.6606 27.5257 53.5146 27.2927C53.3686 27.0596 53.1592 26.873 52.9109 26.7547C52.7078 26.6488 52.4819 26.5942 52.2529 26.5956V26.2269C52.537 26.2252 52.8173 26.2922 53.07 26.4221C53.3805 26.5711 53.6424 26.805 53.8254 27.0968C54.0084 27.3886 54.105 27.7262 54.1039 28.0706V35.1201Z" fill="white"/>
<path d="M59.9964 45.0182C59.983 44.9318 59.9443 44.8513 59.885 44.7869C59.8258 44.7225 59.7488 44.6772 59.6638 44.6567C59.6231 44.6493 59.5815 44.6493 59.5409 44.6567C59.4528 44.6577 59.367 44.6854 59.295 44.7362C59.2284 44.7772 59.1734 44.8347 59.1355 44.9031C59.0975 44.9714 59.0777 45.0485 59.0781 45.1267C59.0781 45.2501 59.1266 45.3685 59.2132 45.4565C59.2998 45.5444 59.4175 45.5948 59.5409 45.5967C59.6181 45.5959 59.6939 45.5764 59.7619 45.5399C59.8299 45.5034 59.888 45.4509 59.9313 45.387C59.9554 45.352 59.9726 45.3127 59.9819 45.2713V45.2207V45.1267C59.9922 45.0915 59.9971 45.0549 59.9964 45.0182ZM59.5409 45.2207C59.5115 45.2188 59.4838 45.2058 59.4637 45.1843C59.4435 45.1628 59.4323 45.1345 59.4324 45.105C59.4324 45.0762 59.4438 45.0486 59.4642 45.0283C59.4845 45.008 59.5121 44.9965 59.5409 44.9965C59.5703 44.9965 59.5987 45.0077 59.6202 45.0278C59.6417 45.048 59.6547 45.0756 59.6565 45.105C59.6565 45.1202 59.6536 45.1352 59.6478 45.1493C59.6419 45.1633 59.6334 45.1761 59.6227 45.1868C59.6119 45.1975 59.5992 45.2061 59.5851 45.2119C59.5711 45.2177 59.5561 45.2207 59.5409 45.2207Z" fill="white"/>
<path d="M54.4367 44.7145C54.3647 44.6636 54.2789 44.6359 54.1908 44.6349C54.1502 44.6275 54.1085 44.6275 54.0679 44.6349C53.9952 44.6532 53.928 44.6892 53.8725 44.7396C53.817 44.7901 53.7749 44.8535 53.7498 44.9241C53.7423 44.9769 53.7423 45.0305 53.7498 45.0832V45.1483V45.2206C53.7916 45.3205 53.8671 45.4026 53.9633 45.4526C54.0594 45.5026 54.17 45.5172 54.2759 45.494C54.3817 45.4707 54.476 45.4111 54.5424 45.3255C54.6088 45.2399 54.643 45.1336 54.6391 45.0254C54.629 44.9622 54.6058 44.9019 54.5709 44.8484C54.5361 44.7948 54.4903 44.7492 54.4367 44.7145ZM54.0751 45.1049C54.077 45.0755 54.09 45.0479 54.1115 45.0277C54.133 45.0076 54.1613 44.9964 54.1908 44.9964C54.2196 44.9964 54.2472 45.0079 54.2675 45.0282C54.2878 45.0485 54.2993 45.0761 54.2993 45.1049C54.2993 45.1344 54.2881 45.1627 54.268 45.1842C54.2478 45.2057 54.2202 45.2187 54.1908 45.2206C54.1654 45.214 54.1429 45.199 54.1271 45.178C54.1114 45.1569 54.1032 45.1312 54.1041 45.1049H54.0751Z" fill="white"/>
<path d="M71.1313 48.6406L71.0663 48.6045C67.6616 46.6872 63.9077 45.4703 60.0257 45.0255C59.9703 45.0215 59.9147 45.0215 59.8594 45.0255V45.2063V45.3798H59.9823H60.0257C63.8373 45.8192 67.5237 47.0111 70.871 48.8865L71.1313 48.6406Z" fill="white"/>
<path d="M53.9016 44.9676V45.3219H53.7643C49.8697 45.6843 46.0892 46.833 42.6513 48.6984C42.5953 48.6615 42.5421 48.6204 42.4923 48.5755L42.3477 48.4598L42.4127 48.4237C45.9022 46.5135 49.7456 45.3374 53.7064 44.9676H53.9016Z" fill="white"/>
<path d="M37.4743 8.41882L37.4309 8.49836C37.4008 8.55357 37.3882 8.61659 37.3947 8.67911C37.4003 8.74303 37.4256 8.80365 37.467 8.85264L38.5733 10.1758C38.6594 10.2771 38.7235 10.3953 38.7613 10.5228C38.8264 10.7639 38.8033 11.0203 38.6962 11.2458C38.6352 11.3624 38.5516 11.4656 38.4503 11.5495L38.2334 11.7303C38.1311 11.815 38.0132 11.8788 37.8864 11.9183C37.7647 11.9553 37.6369 11.9675 37.5104 11.9544C37.3818 11.9465 37.2562 11.912 37.1416 11.8532C37.0251 11.7922 36.9219 11.7086 36.838 11.6074L35.7318 10.2842C35.6916 10.2337 35.6355 10.198 35.5727 10.183C35.5113 10.1649 35.4461 10.1649 35.3847 10.183H35.3052L36.0282 9.55398L35.9848 9.62627C35.9671 9.68769 35.9671 9.75285 35.9848 9.81427C35.9871 9.87895 36.0128 9.9406 36.0571 9.98779L37.1634 11.3109C37.2266 11.3876 37.2995 11.4556 37.3803 11.5134C37.4542 11.5671 37.5376 11.6064 37.6261 11.6291C37.7095 11.6473 37.7958 11.6473 37.8791 11.6291C37.9713 11.6029 38.0573 11.5586 38.1322 11.4989L38.3057 11.3471C38.3858 11.2829 38.4501 11.2013 38.4937 11.1085C38.5418 11.022 38.569 10.9254 38.5733 10.8265C38.5912 10.7285 38.5912 10.6281 38.5733 10.5301C38.5426 10.4325 38.4935 10.3417 38.4287 10.2625L37.3224 8.9394C37.2808 8.89036 37.2254 8.85507 37.1634 8.83818C37.102 8.8201 37.0367 8.8201 36.9754 8.83818H36.8886L37.4743 8.41882Z" fill="white"/>
<path d="M46.4615 4.91943L46.7724 4.97003C46.8728 4.98354 46.9704 5.01283 47.0616 5.0568C47.155 5.10635 47.2403 5.16973 47.3147 5.24479C47.4041 5.33945 47.4708 5.45318 47.5099 5.57738C47.5384 5.68396 47.5384 5.79616 47.5099 5.90274C47.4873 6.01047 47.4457 6.1133 47.387 6.20641C47.3206 6.30663 47.2374 6.39467 47.1412 6.4667C47.0394 6.54233 46.9274 6.60319 46.8086 6.64746C46.696 6.68477 46.5796 6.70904 46.4615 6.71976C46.3088 6.72718 46.1569 6.69478 46.0205 6.62577L45.9843 6.75591L45.7819 6.20641C45.8638 6.28416 45.9563 6.34989 46.0566 6.40163C46.1496 6.44762 46.25 6.47698 46.3531 6.48839C46.4905 6.50678 46.6302 6.48759 46.7575 6.43284C46.8849 6.37809 46.995 6.28985 47.0761 6.1775C47.1088 6.10475 47.1257 6.02589 47.1257 5.94612C47.1257 5.86636 47.1088 5.7875 47.0761 5.71476C47.0528 5.6588 47.0182 5.60815 46.9747 5.5659C46.9312 5.52364 46.8796 5.49065 46.823 5.46892C46.6708 5.40215 46.5103 5.35595 46.3459 5.33155L46.0421 5.28094C45.9464 5.26775 45.8521 5.24597 45.7602 5.21587C45.6729 5.18184 45.5922 5.13291 45.5216 5.07127C45.4436 5.00118 45.3861 4.91121 45.3553 4.81098C45.3148 4.71427 45.2982 4.60919 45.307 4.5047C45.3158 4.40022 45.3497 4.29941 45.4059 4.21087C45.5296 4.01276 45.719 3.86436 45.941 3.79151C46.0396 3.76049 46.1415 3.74108 46.2446 3.73367C46.3474 3.71541 46.4527 3.71541 46.5555 3.73367V3.60352L46.823 4.11687C46.7552 4.057 46.6767 4.0104 46.5917 3.97949C46.5097 3.95219 46.4247 3.9352 46.3386 3.92889C46.22 3.92151 46.1014 3.9413 45.9916 3.98673C45.9305 4.00545 45.8721 4.03219 45.818 4.06625L45.6662 4.1964C45.6254 4.24592 45.5936 4.3022 45.5722 4.36269C45.5543 4.42654 45.5543 4.49407 45.5722 4.55791C45.5962 4.62212 45.639 4.67757 45.6951 4.71698C45.7506 4.76094 45.8146 4.79295 45.8831 4.81098C45.9603 4.83872 46.0403 4.8581 46.1217 4.86881L46.3892 4.9122L46.4615 4.91943Z" fill="white"/>
<path d="M58.0302 2.45363L57.7988 2.20058C57.7689 2.16527 57.731 2.13765 57.6882 2.12004C57.6455 2.10243 57.5991 2.09534 57.553 2.09935H56.895L56.9384 4.49256C56.9397 4.55716 56.9598 4.61997 56.9963 4.67332C57.0339 4.72487 57.0872 4.76291 57.1481 4.78177L57.2276 4.81792H56.2371V4.78177H56.3166C56.3762 4.7601 56.427 4.71945 56.4612 4.66608C56.4977 4.61273 56.5178 4.54992 56.5191 4.48533L56.4757 2.09212H55.825C55.78 2.0935 55.7357 2.1038 55.6948 2.12242C55.6538 2.14104 55.617 2.1676 55.5864 2.20058L55.3622 2.46809H55.3188L55.3912 1.88967L57.9796 1.85352L58.0302 2.45363Z" fill="white"/>
<path d="M69.179 4.52879C69.1253 4.56259 69.0845 4.61354 69.0634 4.67339L68.2752 6.77739C68.2545 6.83915 68.2523 6.90566 68.2691 6.96865C68.2858 7.03163 68.3206 7.08832 68.3692 7.13167L68.4271 7.18229L67.4944 6.83523H67.5812C67.6451 6.83106 67.7066 6.80927 67.759 6.77226C67.8113 6.73525 67.8523 6.68447 67.8776 6.62556L68.2463 5.62778L66.8003 5.07828L66.4315 6.07606C66.4135 6.13742 66.4135 6.20269 66.4315 6.26404C66.4484 6.32608 66.4837 6.38154 66.5328 6.42311L66.5979 6.48095V6.51711L65.6724 6.17005H65.7519C65.8168 6.1711 65.8804 6.15077 65.9326 6.1122C65.9886 6.07754 66.0298 6.02349 66.0484 5.96038L66.8364 3.8636C66.8545 3.80224 66.8545 3.73697 66.8364 3.67561C66.8243 3.61133 66.7912 3.55286 66.7424 3.50932L66.6774 3.45148L67.6028 3.7913V3.82745H67.5161C67.4521 3.83241 67.3902 3.85221 67.3353 3.88529C67.283 3.92381 67.2429 3.9765 67.2196 4.03713L66.8798 4.94813L68.3259 5.49764L68.6657 4.58662C68.6838 4.52526 68.6838 4.46 68.6657 4.39864C68.6488 4.33661 68.6135 4.28115 68.5645 4.23957L68.5066 4.18173L69.4321 4.52879V4.47817H69.3453C69.2863 4.47928 69.2287 4.49681 69.179 4.52879Z" fill="white"/>
<path d="M77.3563 11.1155C77.464 11.2709 77.5243 11.4543 77.5298 11.6433C77.5212 11.82 77.4523 11.9884 77.3346 12.1205C77.2586 12.2157 77.1597 12.2901 77.0472 12.3369C76.9347 12.3837 76.8122 12.4013 76.6911 12.388C76.3942 12.3429 76.1188 12.2064 75.903 11.9976L74.9775 11.1878H75.0571C75.1179 11.2093 75.1842 11.2093 75.2451 11.1878C75.3067 11.1701 75.362 11.135 75.4041 11.0866L76.8502 9.3947C76.8916 9.3457 76.9169 9.28508 76.9225 9.22117C76.9434 9.16025 76.9434 9.0941 76.9225 9.03318L76.8863 8.96088L77.725 9.6839C77.83 9.76869 77.9268 9.8631 78.0143 9.96588C78.0892 10.0509 78.148 10.149 78.1878 10.2551C78.2169 10.3567 78.2169 10.4644 78.1878 10.566C78.1541 10.6967 78.0868 10.8164 77.9925 10.913C77.9147 11.0088 77.8083 11.0773 77.6889 11.1083C77.5658 11.1414 77.436 11.1414 77.3129 11.1083L77.3563 11.1155ZM76.0476 11.8385C76.1127 11.8955 76.1829 11.9463 76.2573 11.9904C76.3317 12.0319 76.4122 12.0612 76.4959 12.0771C76.5819 12.0866 76.669 12.0742 76.749 12.041C76.8502 11.9944 76.9392 11.9251 77.0092 11.8385C77.075 11.7799 77.1268 11.7072 77.1606 11.6259C77.1944 11.5445 77.2094 11.4565 77.2045 11.3686C77.1515 11.1722 77.0312 11.0008 76.8646 10.8841L76.4742 10.5443L75.6499 11.4915L76.0476 11.8313V11.8385ZM76.6188 10.3925L76.9225 10.66C76.9737 10.7042 77.0294 10.743 77.0888 10.7757C77.1489 10.8115 77.215 10.836 77.284 10.848C77.3528 10.8651 77.4248 10.8651 77.4937 10.848C77.5814 10.8094 77.6584 10.7498 77.7178 10.6745C77.7822 10.6044 77.8293 10.5202 77.8552 10.4286C77.8769 10.358 77.8769 10.2824 77.8552 10.2117C77.8341 10.1466 77.8023 10.0856 77.7612 10.031C77.7185 9.97747 77.6701 9.92897 77.6166 9.88635L77.3129 9.61883L76.6188 10.3925Z" fill="white"/>
<path d="M31.1337 32.3074C31.1484 32.5217 31.1264 32.7369 31.0687 32.9437C31.0167 33.145 30.9258 33.3341 30.8012 33.5004C30.6711 33.6709 30.5058 33.8115 30.3167 33.9126C30.0931 34.0292 29.8458 34.0935 29.5937 34.1005C29.3486 34.1262 29.101 34.094 28.8706 34.0065C28.6694 33.9342 28.4866 33.8182 28.3356 33.6667C28.1893 33.5184 28.0717 33.3444 27.9886 33.1534C27.9075 32.9577 27.8586 32.7501 27.844 32.5388C27.8305 32.325 27.85 32.1104 27.9018 31.9025C27.9548 31.7003 28.0483 31.5109 28.1766 31.3458C28.3034 31.175 28.4663 31.0343 28.6537 30.9337C28.8629 30.8198 29.0954 30.7555 29.3334 30.7457C29.5779 30.7186 29.8253 30.7483 30.0564 30.8325C30.2569 30.9065 30.4393 31.0223 30.5915 31.1723C30.7437 31.3184 30.8622 31.4961 30.9385 31.6929C31.0404 31.8842 31.1065 32.0924 31.1337 32.3074ZM28.1332 32.5244C28.1461 32.6966 28.1954 32.8642 28.2778 33.016C28.3624 33.1581 28.4727 33.2831 28.6031 33.3848C28.7411 33.4832 28.8953 33.5566 29.0586 33.6017C29.2359 33.6454 29.419 33.66 29.6009 33.645C29.7855 33.6386 29.9671 33.5969 30.1359 33.5221C30.2896 33.4537 30.4312 33.3609 30.5553 33.2474C30.6713 33.1294 30.7623 32.9892 30.8228 32.8353C30.8875 32.6749 30.9123 32.5012 30.8952 32.3291C30.8867 32.1538 30.8371 31.9829 30.7505 31.8302C30.6703 31.685 30.5593 31.5592 30.4252 31.4615C30.2904 31.3622 30.1384 31.2887 29.9769 31.2446C29.7977 31.1981 29.6121 31.1811 29.4274 31.194C29.2452 31.2065 29.0667 31.2505 28.8996 31.3241C28.6584 31.4132 28.453 31.5787 28.3146 31.7954C28.1762 32.0121 28.1125 32.2681 28.1332 32.5244Z" fill="white"/>
<path d="M30.8514 35.3947C30.8749 35.5408 30.8749 35.6897 30.8514 35.8358C30.8433 35.9383 30.8111 36.0374 30.7574 36.125C30.7136 36.2004 30.6481 36.2609 30.5694 36.2985C30.4934 36.3421 30.4101 36.3715 30.3235 36.3853C30.2347 36.3959 30.1449 36.3959 30.056 36.3853C29.9723 36.3738 29.8927 36.3415 29.8247 36.2913C29.7452 36.2247 29.679 36.1438 29.6295 36.0527C29.5628 35.9187 29.5188 35.7745 29.4993 35.6261L29.4342 35.2863L28.5449 35.4526C28.4921 35.4646 28.4442 35.4923 28.4076 35.5321C28.3661 35.5704 28.3381 35.6212 28.328 35.6767V35.749L28.1689 34.9175L28.2123 34.9826C28.2427 35.0275 28.2854 35.0626 28.3352 35.0838C28.3867 35.102 28.4429 35.102 28.4943 35.0838L30.3959 34.7295C30.4506 34.7172 30.5007 34.6896 30.5404 34.65C30.5801 34.6103 30.6077 34.5602 30.62 34.5054V34.4331L30.7935 35.3803L30.8514 35.3947ZM29.7018 35.6116C29.7153 35.668 29.7322 35.7236 29.7524 35.7779C29.775 35.8352 29.8095 35.8869 29.8536 35.9298C29.9011 35.9735 29.958 36.0056 30.0199 36.0238C30.1057 36.0424 30.1944 36.0424 30.2802 36.0238C30.3696 36.0122 30.4544 35.9773 30.526 35.9225C30.5788 35.8827 30.621 35.8306 30.6489 35.7707C30.6728 35.716 30.6851 35.6569 30.6851 35.5972C30.6886 35.5394 30.6886 35.4814 30.6851 35.4236L30.62 35.0838L29.6584 35.2646L29.7235 35.6044L29.7018 35.6116Z" fill="white"/>
<path d="M29.6804 39.234L29.1815 39.299L28.6826 37.5349L28.726 37.5927C28.7591 37.6363 28.8044 37.669 28.8561 37.6867C28.9101 37.7049 28.9685 37.7049 29.0224 37.6867L30.8806 37.1517C30.9347 37.1386 30.983 37.1081 31.018 37.0649C31.054 37.0217 31.0766 36.9689 31.083 36.913V36.8408L31.5458 38.4676L31.0903 38.67L31.2493 38.4169C31.2651 38.3817 31.2732 38.3435 31.2732 38.3049C31.2732 38.2663 31.2651 38.2281 31.2493 38.1928L31.0541 37.5059L30.2443 37.7373L30.3456 38.1061C30.364 38.1556 30.3937 38.2001 30.4323 38.2362C30.4755 38.2722 30.5283 38.2948 30.5841 38.3013L30.0563 38.4531C30.1019 38.4188 30.1349 38.3706 30.1503 38.3157C30.1685 38.2643 30.1685 38.2081 30.1503 38.1566L30.0419 37.7879L29.0079 38.0771L29.2466 38.9086C29.2556 38.9476 29.2733 38.9842 29.2983 39.0154C29.3233 39.0467 29.3551 39.072 29.3912 39.0894L29.6587 39.2123L29.6804 39.234Z" fill="white"/>
<path d="M30.331 42.1912L30.1068 41.6345L30.2008 41.5477L30.331 41.4103L30.5262 41.2079L30.7142 41.0127L30.8732 40.8391C30.913 40.7902 30.947 40.7368 30.9745 40.6801C30.9888 40.6354 30.9888 40.5874 30.9745 40.5427L30.8587 40.2607L30.0201 40.5933C29.9682 40.6148 29.925 40.653 29.8972 40.7018C29.8622 40.7444 29.8442 40.7985 29.8465 40.8536V40.9259L29.5356 40.1306L29.5863 40.1812C29.6225 40.223 29.6703 40.2531 29.7236 40.268C29.7781 40.2824 29.8354 40.2824 29.8899 40.268L31.683 39.5449C31.736 39.5257 31.7815 39.4903 31.8131 39.4437C31.8417 39.3955 31.8566 39.3406 31.8565 39.2846V39.2123L32.2108 40.1089C32.2733 40.2435 32.3124 40.3877 32.3265 40.5355C32.3505 40.6353 32.3505 40.7393 32.3265 40.8391C32.298 40.9227 32.2451 40.9957 32.1747 41.0488C32.1062 41.1021 32.0308 41.1459 31.9505 41.179C31.8873 41.2039 31.822 41.2232 31.7553 41.2368H31.5601C31.4934 41.221 31.4299 41.1941 31.3721 41.1573C31.3032 41.1092 31.2422 41.0506 31.1914 40.9837C31.1385 41.0754 31.0781 41.1625 31.0106 41.244L30.7865 41.4899L30.6202 41.6489C30.5696 41.6995 30.5262 41.7502 30.4828 41.7863C30.3951 41.8807 30.3461 42.0045 30.3454 42.1333L30.331 42.1912ZM31.242 40.7452C31.2975 40.8115 31.3699 40.8614 31.4516 40.8897C31.5634 40.9152 31.6805 40.9025 31.7842 40.8536C31.8672 40.8238 31.9417 40.7741 32.0011 40.709C32.0446 40.6614 32.0768 40.6045 32.0951 40.5427C32.1096 40.4833 32.1096 40.4213 32.0951 40.3619C32.0816 40.3032 32.0647 40.2453 32.0445 40.1884L31.9144 39.8703L31.0106 40.2318L31.1407 40.5499L31.1841 40.6512C31.2005 40.688 31.2225 40.7221 31.2492 40.7524L31.242 40.7452Z" fill="white"/>
<path d="M31.7555 45.011L31.3217 44.1795L31.4446 44.288C31.4568 44.3018 31.4718 44.3129 31.4887 44.3205C31.5055 44.3281 31.5237 44.332 31.5422 44.332C31.5606 44.332 31.5789 44.3281 31.5958 44.3205C31.6126 44.3129 31.6276 44.3018 31.6398 44.288L32.1387 43.724L31.741 42.9648L30.9746 43.0444C30.9404 43.0497 30.9094 43.0678 30.8879 43.095C30.8796 43.1106 30.8753 43.128 30.8753 43.1456C30.8753 43.1632 30.8796 43.1806 30.8879 43.1962V43.3408L30.5625 42.7262C30.6105 42.7735 30.6687 42.8092 30.7326 42.8305C30.7965 42.8518 30.8645 42.8582 30.9312 42.8492L33.3172 42.5744L33.404 42.7552L31.8423 44.5338C31.7942 44.5826 31.7586 44.6422 31.7385 44.7076C31.7183 44.7731 31.7143 44.8424 31.7266 44.9098L31.7555 45.011ZM32.2688 43.5649L32.9196 42.8419L31.9363 42.9504L32.2688 43.5649Z" fill="white"/>
<path d="M34.785 45.9871L34.8646 45.7051C34.877 45.6676 34.8802 45.6277 34.8739 45.5886C34.8676 45.5496 34.852 45.5127 34.8284 45.481L34.5247 45.0038L32.7895 46.1172C32.7407 46.1451 32.7025 46.1883 32.681 46.2402C32.6669 46.2923 32.6669 46.3472 32.681 46.3992V46.4788L32.2183 45.7557L32.2761 45.7991C32.32 45.8329 32.3728 45.853 32.428 45.857C32.4839 45.8571 32.5389 45.8421 32.587 45.8136L34.3223 44.6929L34.0186 44.2229C33.9981 44.1893 33.9708 44.1604 33.9384 44.138C33.906 44.1155 33.8693 44.1001 33.8306 44.0928L33.5342 44.0494L33.9897 43.8397L35.1971 45.7124L34.785 45.9871Z" fill="white"/>
<path d="M35.8333 46.7897C35.7774 46.79 35.7235 46.8105 35.6815 46.8475L34.1415 48.0188C34.0979 48.0519 34.0651 48.0972 34.0475 48.149C34.0293 48.2029 34.0293 48.2613 34.0475 48.3153V48.3876L33.5269 47.7079L33.5919 47.7513C33.6416 47.7656 33.6942 47.7656 33.7438 47.7513C33.7997 47.751 33.8537 47.7305 33.8956 47.6935L35.4357 46.5222C35.4812 46.4879 35.5142 46.4396 35.5296 46.3848C35.5478 46.3333 35.5478 46.2772 35.5296 46.2257V46.1534L36.0503 46.8331L35.9924 46.7897C35.9407 46.7731 35.885 46.7731 35.8333 46.7897Z" fill="white"/>
<path d="M37.3153 48.3008C37.4306 48.4235 37.5235 48.5654 37.59 48.7202C37.661 48.8718 37.698 49.0371 37.6985 49.2046C37.6982 49.3729 37.6663 49.5397 37.6045 49.6962C37.5256 49.867 37.4124 50.0196 37.2719 50.1445C37.1341 50.276 36.9685 50.3748 36.7875 50.4337C36.6299 50.4893 36.4614 50.5066 36.2958 50.4843C36.1308 50.4695 35.9707 50.4202 35.8258 50.3397C35.6784 50.2567 35.5444 50.1519 35.4282 50.0288C35.3128 49.9035 35.2198 49.7592 35.1534 49.6023C35.0824 49.4506 35.0454 49.2853 35.045 49.1178C35.0376 48.9488 35.0698 48.7805 35.139 48.6262C35.2156 48.4555 35.3273 48.3029 35.4668 48.1783C35.6063 48.0537 35.7706 47.96 35.9488 47.9031C36.1088 47.8473 36.2797 47.8299 36.4477 47.8525C36.6125 47.8684 36.7724 47.9176 36.9176 47.9971C37.0658 48.076 37.2002 48.1786 37.3153 48.3008ZM35.5656 49.8987C35.6564 50.003 35.7703 50.0847 35.8982 50.1373C36.0169 50.1873 36.1455 50.2096 36.2741 50.2024C36.4085 50.1979 36.5409 50.1685 36.6646 50.1156C36.7975 50.0567 36.9197 49.9761 37.0261 49.877C37.1331 49.7818 37.2236 49.6694 37.2936 49.5444C37.3572 49.4251 37.3988 49.2953 37.4165 49.1612C37.4453 49.0351 37.4453 48.9041 37.4165 48.778C37.3792 48.645 37.3097 48.5233 37.2141 48.4237C37.1219 48.3209 37.0084 48.2395 36.8815 48.1851C36.7602 48.135 36.6293 48.1127 36.4983 48.12C36.3635 48.1211 36.2304 48.1506 36.1078 48.2068C35.9775 48.2675 35.856 48.3453 35.7463 48.4382C35.6413 48.5362 35.5533 48.6511 35.486 48.778C35.4162 48.8951 35.3718 49.0257 35.3559 49.1612C35.3424 49.2901 35.3547 49.4203 35.392 49.5444C35.4242 49.6734 35.4833 49.7942 35.5656 49.8987Z" fill="white"/>
<path d="M40.1643 51.1928C40.1102 51.2058 40.062 51.2363 40.027 51.2796L38.7472 52.7256C38.7114 52.7661 38.6887 52.8165 38.6821 52.8702C38.6794 52.9255 38.6919 52.9805 38.7182 53.0293V53.0943L38.4001 52.8124L38.6604 50.0287L37.3734 51.4748C37.3374 51.518 37.3148 51.5707 37.3084 51.6266C37.2913 51.6782 37.2913 51.734 37.3084 51.7857V51.8507L36.8022 51.4169H36.8745C36.9285 51.4351 36.9869 51.4351 37.0409 51.4169C37.0934 51.4004 37.1407 51.3705 37.1782 51.3302L38.4507 49.8841C38.4878 49.8444 38.5107 49.7936 38.5158 49.7395C38.5303 49.6875 38.5303 49.6325 38.5158 49.5805V49.5154L39.0219 49.9564L38.7978 52.3207L39.8606 51.106C39.8966 51.0628 39.9193 51.0101 39.9257 50.9542C39.9428 50.9026 39.9428 50.8468 39.9257 50.7951V50.7301L40.4318 51.1639H40.3595C40.2931 51.1509 40.2241 51.1611 40.1643 51.1928Z" fill="white"/>
<path d="M41.0315 52.921C41.0677 53.0005 41.1038 53.0873 41.1472 53.1668C41.1846 53.2474 41.2113 53.3324 41.2267 53.4199C41.2411 53.5085 41.2411 53.5988 41.2267 53.6874C41.202 53.796 41.1525 53.8975 41.0821 53.9838C41.0301 54.0649 40.9544 54.128 40.8652 54.1646C40.7788 54.2041 40.6855 54.2262 40.5905 54.2296C40.4871 54.2306 40.3843 54.2134 40.2868 54.179C40.1818 54.1415 40.0821 54.0905 39.9904 54.0272C39.9093 53.967 39.8364 53.8965 39.7735 53.8175C39.6905 53.7133 39.638 53.5882 39.6216 53.456L39.5132 53.4994L39.8024 53.0945C39.7916 53.1882 39.7916 53.2828 39.8024 53.3765C39.8181 53.4671 39.8474 53.5548 39.8892 53.6368C39.9417 53.7342 40.0159 53.8183 40.1061 53.8826C40.2068 53.9618 40.3323 54.0028 40.4603 53.9983C40.5286 53.9868 40.5936 53.9609 40.6509 53.9222C40.7083 53.8836 40.7567 53.8331 40.793 53.7741C40.8215 53.7296 40.8407 53.6797 40.8494 53.6275C40.8581 53.5753 40.8561 53.5219 40.8435 53.4705C40.8163 53.3299 40.7701 53.1937 40.7061 53.0656L40.5977 52.827C40.5571 52.7514 40.5256 52.6713 40.5037 52.5884C40.4925 52.5093 40.4925 52.4289 40.5037 52.3498C40.516 52.2592 40.5536 52.174 40.6122 52.1039C40.6619 52.0291 40.7282 51.9667 40.806 51.9215C40.8837 51.8764 40.9708 51.8497 41.0605 51.8437C41.2624 51.8384 41.4597 51.905 41.6172 52.0316C41.6923 52.0801 41.7584 52.1412 41.8124 52.2124C41.8689 52.284 41.9174 52.3616 41.957 52.4438L42.051 52.3859L41.8196 52.8342C41.8338 52.7577 41.8338 52.6793 41.8196 52.6028C41.7994 52.5297 41.7703 52.4592 41.7329 52.3932C41.6768 52.3087 41.6057 52.2352 41.5232 52.1763C41.4782 52.1443 41.4297 52.1176 41.3786 52.0967C41.3251 52.0757 41.2692 52.0611 41.2123 52.0533C41.1578 52.0389 41.1005 52.0389 41.046 52.0533C40.9942 52.071 40.9489 52.1037 40.9159 52.1473C40.881 52.196 40.8609 52.2538 40.858 52.3136C40.8482 52.3735 40.8482 52.4345 40.858 52.4944C40.8768 52.5637 40.901 52.6313 40.9303 52.6968C40.9684 52.7646 41.0022 52.8346 41.0315 52.9065V52.921Z" fill="white"/>
<path d="M45.247 57.064L44.5746 56.7241C44.5716 56.6712 44.5716 56.6181 44.5746 56.5651C44.5746 56.5072 44.5746 56.4277 44.5746 56.3337C44.5746 56.2397 44.5746 56.1168 44.5746 55.9722C44.5746 55.8276 44.5746 55.7408 44.5746 55.6324C44.5746 55.5239 44.5746 55.4227 44.5746 55.3287C44.5692 55.2525 44.5546 55.1772 44.5312 55.1046C44.5159 55.0495 44.4795 55.0028 44.43 54.9744L44.0829 54.8081L43.5768 55.8204C43.5553 55.8861 43.5553 55.957 43.5768 56.0228C43.5847 56.0918 43.6123 56.1571 43.6563 56.2108L43.7214 56.2759V56.3193L42.7598 55.8348V55.7987H42.8465C42.9169 55.8066 42.988 55.7914 43.049 55.7553C43.107 55.7203 43.1544 55.6704 43.1864 55.6107L44.2781 53.4416C44.2996 53.3758 44.2996 53.3049 44.2781 53.2392C44.2687 53.1706 44.2413 53.1057 44.1986 53.0512L44.1335 52.9861V52.95L45.2108 53.485C45.3827 53.5636 45.5412 53.6685 45.6808 53.7959C45.7803 53.8807 45.8595 53.987 45.9121 54.1068C45.9358 54.2115 45.9358 54.3202 45.9121 54.4249C45.895 54.5355 45.8609 54.6429 45.811 54.743C45.7711 54.8189 45.7251 54.8915 45.6736 54.96C45.6196 55.0225 45.5562 55.0762 45.4856 55.119C45.4123 55.1628 45.3313 55.1923 45.247 55.2058C45.142 55.2268 45.0338 55.2268 44.9288 55.2058C44.9639 55.3379 44.9809 55.4741 44.9795 55.6107C44.9795 55.7553 44.9795 55.8926 44.9795 56.03C44.9795 56.1674 44.9795 56.2253 44.9795 56.3193C44.9795 56.4132 44.9795 56.4855 44.9795 56.5578C44.9736 56.6395 44.9847 56.7215 45.0121 56.7986C45.0394 56.8758 45.0825 56.9464 45.1385 57.0061L45.247 57.064ZM44.871 54.8949C44.9759 54.915 45.0844 54.9024 45.1819 54.8587C45.3085 54.7868 45.4077 54.6749 45.4639 54.5406C45.5169 54.4426 45.5466 54.3338 45.5506 54.2225C45.5522 54.1393 45.5323 54.0571 45.4928 53.9839C45.4562 53.9171 45.4041 53.8601 45.341 53.8176C45.2817 53.7716 45.2189 53.7305 45.153 53.6947L44.7626 53.4994L44.2131 54.6057L44.6035 54.8009C44.6879 54.8428 44.778 54.872 44.871 54.8877V54.8949Z" fill="white"/>
<path d="M47.8571 57.5627L47.5968 57.982L45.876 57.3457H45.9483C45.9863 57.347 46.0241 57.3398 46.0591 57.3248C46.0941 57.3098 46.1254 57.2874 46.1507 57.259C46.1957 57.2305 46.229 57.1869 46.2447 57.1361L46.9171 55.314C46.9353 55.2626 46.9353 55.2064 46.9171 55.155C46.9083 55.101 46.88 55.0522 46.8376 55.0176L46.7798 54.967L48.3559 55.5527L48.2475 56.0443L48.139 55.7623C48.1254 55.7248 48.1033 55.691 48.0744 55.6634C48.0456 55.6358 48.0108 55.6152 47.9728 55.6032L47.3076 55.3574L46.9894 56.2323L47.3509 56.3624C47.403 56.3769 47.458 56.3769 47.51 56.3624C47.5633 56.3476 47.6111 56.3174 47.6474 56.2757L47.4594 56.789C47.4605 56.7341 47.4426 56.6805 47.4088 56.6372C47.3784 56.5923 47.3357 56.5572 47.2859 56.536L46.9244 56.4058L46.5484 57.4108L47.3582 57.7073C47.3941 57.7251 47.4337 57.7344 47.4739 57.7344C47.514 57.7344 47.5536 57.7251 47.5895 57.7073L47.8498 57.5627H47.8571Z" fill="white"/>
<path d="M49.7656 57.0566L49.9609 57.2446C50.0263 57.3041 50.0802 57.3752 50.1199 57.4542C50.1643 57.5324 50.1937 57.6183 50.2067 57.7073C50.2303 57.8169 50.2303 57.9303 50.2067 58.0399C50.18 58.1327 50.1303 58.2173 50.0621 58.2857C49.9942 58.3527 49.9129 58.4044 49.8235 58.4376C49.7282 58.472 49.6282 58.4915 49.527 58.4954C49.3143 58.4955 49.1051 58.4407 48.9197 58.3363C48.8097 58.2615 48.7182 58.1626 48.6522 58.0471L48.5654 58.1267L48.6956 57.6422H48.7317C48.751 57.7352 48.7826 57.8252 48.8257 57.9097C48.8718 57.9888 48.9276 58.0617 48.992 58.1267C49.0755 58.1987 49.1745 58.2506 49.2812 58.2785C49.4026 58.3227 49.5357 58.3227 49.6572 58.2785C49.7174 58.2465 49.7695 58.2013 49.8096 58.1462C49.8497 58.091 49.8767 58.0275 49.8885 57.9604C49.8997 57.9084 49.9003 57.8548 49.8903 57.8027C49.8804 57.7505 49.8601 57.7009 49.8307 57.6567C49.7588 57.5349 49.6713 57.4231 49.5704 57.3241L49.3752 57.1433C49.3179 57.0819 49.2647 57.0167 49.2161 56.9481C49.1682 56.8833 49.1337 56.8096 49.1149 56.7312C49.0902 56.6437 49.0902 56.5511 49.1149 56.4637C49.1345 56.3756 49.1749 56.2936 49.2328 56.2244C49.2907 56.1552 49.3643 56.1009 49.4475 56.066C49.6359 55.993 49.8448 55.993 50.0331 56.066C50.1191 56.0891 50.2018 56.1231 50.279 56.1672C50.3562 56.2127 50.4268 56.2687 50.4887 56.3335L50.5609 56.254H50.5971L50.532 56.7529C50.5098 56.6816 50.4782 56.6135 50.438 56.5504C50.3968 56.4848 50.3428 56.4282 50.279 56.3842C50.1997 56.3213 50.1088 56.2746 50.0115 56.2468C49.9561 56.2423 49.9005 56.2423 49.8452 56.2468C49.7903 56.2357 49.7337 56.2357 49.6789 56.2468C49.6249 56.2596 49.5735 56.2816 49.527 56.3119C49.4835 56.351 49.4511 56.4008 49.433 56.4565C49.4148 56.5129 49.4148 56.5736 49.433 56.63C49.4504 56.6885 49.48 56.7427 49.5198 56.7891C49.5595 56.847 49.6056 56.9004 49.6572 56.9481L49.8307 57.1072L49.7656 57.0566Z" fill="white"/>
<path d="M52.7376 58.705L52.5713 59.175L50.771 58.8569V58.8207H50.8505C50.9028 58.8116 50.9508 58.7863 50.9879 58.7484C51.0279 58.709 51.0555 58.6587 51.0674 58.6038L51.4073 56.695C51.4218 56.643 51.4218 56.588 51.4073 56.536C51.3857 56.4841 51.3476 56.4408 51.2988 56.413L51.2409 56.3769L52.9039 56.6733V57.1795L52.7448 56.9192C52.7243 56.8863 52.6969 56.8582 52.6644 56.837C52.6319 56.8158 52.5952 56.8019 52.5568 56.7962L51.8338 56.6733L51.6675 57.5844L52.0435 57.6494C52.095 57.6676 52.1511 57.6676 52.2026 57.6494C52.2544 57.6279 52.2977 57.5898 52.3255 57.541L52.2243 58.076C52.2158 58.0199 52.1876 57.9686 52.1447 57.9314C52.1076 57.8935 52.0596 57.8682 52.0073 57.8591L51.6242 57.7868L51.4362 58.8424L52.2893 58.9942C52.3268 59.0047 52.3664 59.0056 52.4043 58.9968C52.4422 58.9879 52.4773 58.9696 52.5062 58.9436L52.7448 58.7557L52.7376 58.705Z" fill="white"/>
<path d="M56.0776 59.4643L55.1377 59.3993L55.2967 59.3487C55.3146 59.3459 55.3314 59.3384 55.3454 59.327C55.3594 59.3155 55.37 59.3006 55.3763 59.2836C55.3835 59.2677 55.3872 59.2505 55.3872 59.233C55.3872 59.2155 55.3835 59.1983 55.3763 59.1824L55.1521 58.4594L54.299 58.3943L53.9664 59.1173C53.959 59.1344 53.9552 59.1529 53.9552 59.1715C53.9552 59.1902 53.959 59.2086 53.9664 59.2258C53.9725 59.2423 53.9822 59.2573 53.9946 59.2698C54.0071 59.2823 54.0221 59.2919 54.0386 59.2981L54.1688 59.3631V59.3993L53.4458 59.3487V59.3125C53.512 59.2975 53.5736 59.2666 53.6252 59.2225C53.6768 59.1784 53.717 59.1225 53.7422 59.0595L54.7689 56.8904H54.9641L55.6872 59.1535C55.7022 59.2197 55.7331 59.2812 55.7771 59.3329C55.8212 59.3845 55.8772 59.4247 55.9402 59.4499L56.0776 59.4643ZM55.1088 58.2641L54.8123 57.3242L54.393 58.2135L55.1088 58.2641Z" fill="white"/>
<path d="M58.9917 59.3849V59.4283H58.3916L58.3338 59.3126C58.3102 59.2582 58.2837 59.2051 58.2542 59.1536L58.1313 58.8933C58.088 58.8138 58.0446 58.727 58.0084 58.6475C57.9723 58.5679 57.9289 58.4956 57.9 58.4378C57.8669 58.3855 57.8281 58.337 57.7843 58.2932C57.7486 58.2608 57.7023 58.2428 57.6541 58.2425H57.3505V59.1391C57.3529 59.1957 57.3703 59.2506 57.4011 59.2982C57.4361 59.3397 57.4808 59.3719 57.5312 59.3922H57.6035V59.4283H56.7503V59.3922H56.8227C56.8725 59.3709 56.9152 59.3358 56.9456 59.2909C56.9741 59.2428 56.9891 59.1878 56.9889 59.1319L56.9167 57.1942C56.9167 57.1394 56.8989 57.0862 56.866 57.0423C56.831 57.0009 56.7863 56.9686 56.7359 56.9483H56.6636V56.9122L57.6252 56.876C57.7735 56.8692 57.9221 56.8838 58.0662 56.9194C58.1685 56.9396 58.2635 56.9871 58.341 57.0568C58.4058 57.1136 58.4555 57.1857 58.4856 57.2665C58.5159 57.3499 58.5306 57.4381 58.529 57.5268C58.5401 57.5938 58.5401 57.6622 58.529 57.7292C58.5216 57.7937 58.4993 57.8556 58.4639 57.91C58.4325 57.9719 58.3851 58.0243 58.3266 58.0618C58.2587 58.1106 58.1829 58.1473 58.1024 58.1703C58.1731 58.2509 58.236 58.3381 58.2904 58.4305L58.4422 58.727C58.4784 58.7993 58.5073 58.8716 58.5435 58.9294C58.5796 58.9873 58.6013 59.0596 58.6302 59.1102C58.6567 59.1678 58.6948 59.2194 58.7421 59.2616C58.7893 59.3039 58.8448 59.3361 58.905 59.356L58.9917 59.3849ZM57.9144 58.0329C57.9949 58.0024 58.0651 57.9498 58.1169 57.881C58.1801 57.7877 58.2083 57.675 58.1964 57.5629C58.1951 57.4746 58.1728 57.3879 58.1313 57.3099C58.0997 57.2502 58.0553 57.1984 58.0012 57.158C57.9506 57.127 57.8938 57.1073 57.8349 57.1002H57.6614H57.3143V58.0763H57.6614H57.7698H57.8783L57.9144 58.0329Z" fill="white"/>
<path d="M60.8573 56.8181C60.7163 56.8387 60.581 56.8879 60.4596 56.9626C60.3472 57.0331 60.2511 57.1268 60.1777 57.2374C60.1039 57.3521 60.0524 57.4796 60.0258 57.6134C60.0005 57.7544 60.0005 57.8989 60.0258 58.0399C60.045 58.1838 60.089 58.3233 60.156 58.4521C60.2171 58.5727 60.3005 58.6807 60.4018 58.7702C60.5023 58.8577 60.6208 58.9219 60.7489 58.9582C60.8871 58.9875 61.03 58.9875 61.1682 58.9582C61.4254 58.924 61.6616 58.7982 61.8334 58.6039L61.9635 58.7268C61.8645 58.8377 61.7471 58.9306 61.6165 59.0016C61.4853 59.0762 61.34 59.123 61.1899 59.139C60.9992 59.1791 60.8022 59.1791 60.6115 59.139C60.4439 59.0995 60.2863 59.0256 60.1487 58.922C60.0128 58.8273 59.8993 58.7039 59.8162 58.5605C59.7323 58.4109 59.6782 58.2464 59.6571 58.0761C59.6208 57.9118 59.6208 57.7415 59.6571 57.5772C59.6995 57.4151 59.7732 57.2628 59.874 57.129C59.9802 56.9946 60.1132 56.8838 60.2645 56.8036C60.4336 56.7069 60.6205 56.6455 60.814 56.6228C61.0604 56.5857 61.3123 56.6235 61.537 56.7313L61.5804 56.6011L61.7177 57.0783C61.5765 56.9449 61.4015 56.8524 61.2116 56.8108C61.0876 56.7849 60.9596 56.7849 60.8356 56.8108L60.8573 56.8181Z" fill="white"/>
<path d="M64.5881 55.9722C64.5699 56.0262 64.5699 56.0846 64.5881 56.1385L65.0725 58.0111C65.0856 58.0652 65.1161 58.1135 65.1593 58.1485C65.199 58.1856 65.2498 58.2085 65.3039 58.2136H65.3762L64.5447 58.4233L64.6098 58.3799C64.6513 58.3448 64.6835 58.3001 64.7038 58.2497C64.722 58.1983 64.722 58.1421 64.7038 58.0907L64.4796 57.2014L63.1565 57.5412L63.3879 58.4305C63.4027 58.4838 63.4329 58.5316 63.4747 58.5679C63.5159 58.6026 63.5659 58.6251 63.6192 58.6329H63.6988L62.8673 58.8499L62.9324 58.8137C62.976 58.7806 63.0087 58.7353 63.0264 58.6836C63.0446 58.6296 63.0446 58.5712 63.0264 58.5173L62.5492 56.6446C62.5361 56.5905 62.5057 56.5423 62.4624 56.5072C62.4192 56.4713 62.3664 56.4486 62.3106 56.4422H62.2383L63.0625 56.2325L63.0047 56.2759C62.9612 56.3107 62.9265 56.3553 62.9035 56.406C62.889 56.4581 62.889 56.5131 62.9035 56.5651L63.1132 57.3749L64.4291 57.0351L64.2194 56.2253C64.2074 56.1725 64.1796 56.1246 64.1398 56.0879C64.0966 56.0519 64.0439 56.0293 63.988 56.0228H63.9157L64.74 55.8059L64.6821 55.8493C64.6402 55.881 64.6077 55.9235 64.5881 55.9722Z" fill="white"/>
<path d="M67.9936 55.1842L68.3406 55.2204C68.4512 55.2341 68.5601 55.2583 68.666 55.2927C68.7697 55.3364 68.865 55.3975 68.948 55.4734C69.0487 55.5758 69.1296 55.6959 69.1866 55.8277C69.2356 55.9364 69.2532 56.0566 69.2372 56.1748C69.2221 56.2937 69.1853 56.4089 69.1288 56.5146C69.0617 56.627 68.9789 56.7293 68.8829 56.8183C68.7747 56.9056 68.6556 56.9785 68.5286 57.0352C68.4121 57.0903 68.2877 57.1269 68.1599 57.1436C67.9914 57.1689 67.8192 57.1489 67.661 57.0858V57.2232H67.6176L67.3646 56.6447H67.4007C67.4956 56.7209 67.6001 56.7841 67.7116 56.8327C67.8184 56.8728 67.9304 56.8972 68.0442 56.905C68.1839 56.9153 68.3237 56.8878 68.4491 56.8255C68.6035 56.7686 68.7303 56.6548 68.8034 56.5074C68.8421 56.4312 68.8623 56.347 68.8623 56.2615C68.8623 56.1761 68.8421 56.0919 68.8034 56.0157C68.775 55.956 68.7347 55.9028 68.6849 55.8593C68.6352 55.8157 68.5771 55.7829 68.5142 55.7626C68.343 55.7062 68.1659 55.6698 67.9864 55.6542H67.6465C67.5407 55.6496 67.436 55.6301 67.3356 55.5964C67.2394 55.5693 67.1488 55.5252 67.0681 55.4662C66.9763 55.3953 66.9062 55.3001 66.8657 55.1915C66.8143 55.0858 66.7895 54.9691 66.7934 54.8516C66.7962 54.7434 66.8234 54.6371 66.8729 54.5407C66.9274 54.4343 67.001 54.3388 67.0898 54.2588C67.1916 54.1717 67.3062 54.101 67.4296 54.0491C67.5302 54.0016 67.6375 53.9699 67.7478 53.9551C67.863 53.9406 67.9796 53.9406 68.0948 53.9551V53.8105H68.131L68.4708 54.3528C68.3953 54.294 68.3095 54.2498 68.2177 54.2226C68.1234 54.1976 68.0261 54.1854 67.9285 54.1865C67.8011 54.1908 67.6758 54.2203 67.5598 54.2732C67.4964 54.304 67.4359 54.3402 67.379 54.3817C67.3233 54.4242 67.2724 54.4727 67.2272 54.5263C67.186 54.5809 67.1543 54.642 67.1332 54.707C67.1089 54.7748 67.1089 54.8489 67.1332 54.9167C67.1606 54.9873 67.2117 55.0461 67.2778 55.083C67.3412 55.1271 67.4124 55.159 67.4875 55.177L67.755 55.2132H68.0587L67.9936 55.1842Z" fill="white"/>
<path d="M70.1624 53.3475C70.3081 53.262 70.4669 53.2009 70.6323 53.1667C70.7964 53.1338 70.9654 53.1341 71.1293 53.1676C71.2933 53.2011 71.4488 53.2672 71.5867 53.3619C71.8111 53.5202 71.98 53.745 72.0695 54.0045C72.159 54.264 72.1647 54.5451 72.0856 54.808C72.0324 54.9649 71.9489 55.1098 71.8398 55.2346C71.727 55.3623 71.5954 55.472 71.4494 55.5599C71.3036 55.6454 71.1449 55.7065 70.9794 55.7407C70.8147 55.7732 70.6452 55.7732 70.4805 55.7407C70.3163 55.7095 70.1609 55.6429 70.025 55.5455C69.8695 55.4361 69.7409 55.2926 69.649 55.1261C69.5473 54.9645 69.4854 54.7812 69.4683 54.5911C69.4504 54.4249 69.4702 54.2569 69.5261 54.0994C69.5764 53.939 69.6602 53.7911 69.7719 53.6656C69.8817 53.5367 70.014 53.4289 70.1624 53.3475ZM71.3554 55.4008C71.4727 55.3288 71.5757 55.2357 71.6591 55.1261C71.7324 55.0172 71.7816 54.894 71.8036 54.7646C71.8288 54.6332 71.8288 54.4983 71.8036 54.3669C71.7736 54.2251 71.7225 54.0886 71.6518 53.962C71.5806 53.8358 71.4876 53.7233 71.3771 53.6295C71.2735 53.5431 71.1562 53.4746 71.03 53.427C70.9072 53.3837 70.7762 53.3689 70.6468 53.3836C70.5111 53.3935 70.3797 53.4356 70.2636 53.5065C70.1417 53.5723 70.0376 53.6666 69.9599 53.7813C69.8845 53.8898 69.8327 54.013 69.8081 54.1428C69.7829 54.2741 69.7829 54.4091 69.8081 54.5404C69.8381 54.6823 69.8893 54.8187 69.9599 54.9453C70.0334 55.07 70.1262 55.1822 70.2347 55.2779C70.3383 55.3643 70.4556 55.4328 70.5817 55.4804C70.7045 55.5237 70.8356 55.5385 70.965 55.5238C71.1029 55.514 71.2367 55.4719 71.3554 55.4008Z" fill="white"/>
<path d="M72.982 51.6703C72.8684 51.7522 72.7746 51.8584 72.7073 51.9812C72.6407 52.0961 72.6011 52.2247 72.5916 52.3572C72.5849 52.4936 72.5995 52.6302 72.635 52.7621C72.6806 52.8988 72.7464 53.028 72.8302 53.1453C72.9192 53.2584 73.0238 53.3583 73.1411 53.4417C73.2558 53.517 73.3832 53.5709 73.5171 53.6008C73.6456 53.6297 73.779 53.6297 73.9075 53.6008C74.0474 53.5707 74.1785 53.5089 74.2907 53.42C74.4964 53.2671 74.6422 53.0472 74.7028 52.7982L74.8764 52.8416C74.8474 52.9872 74.7883 53.1251 74.7028 53.2465C74.6234 53.3754 74.5204 53.4882 74.3992 53.5791C74.2437 53.6963 74.0669 53.7823 73.8786 53.8321C73.7143 53.8795 73.5419 53.8918 73.3725 53.8683C73.2088 53.8482 73.0512 53.794 72.9098 53.7092C72.7629 53.6193 72.6352 53.5013 72.5338 53.3622C72.4274 53.2291 72.3531 53.0732 72.3169 52.9067C72.2843 52.7444 72.2843 52.5773 72.3169 52.415C72.3506 52.246 72.4143 52.0844 72.5049 51.9378C72.6092 51.776 72.7414 51.634 72.8953 51.5185C73.1052 51.3631 73.3573 51.2749 73.6183 51.2654V51.1353L73.9653 51.4895C73.8717 51.478 73.777 51.478 73.6834 51.4895C73.5855 51.4913 73.4883 51.5059 73.3942 51.5329C73.2718 51.5673 73.1566 51.6236 73.0544 51.6992L72.982 51.6703Z" fill="white"/>
<path d="M74.5943 50.3037C74.6007 50.3595 74.6233 50.4123 74.6593 50.4555L75.9319 51.9015C75.9681 51.9433 76.0159 51.9735 76.0692 51.9883C76.1232 52.0065 76.1816 52.0065 76.2355 51.9883H76.3078L75.6716 52.5523V52.4872C75.6861 52.4352 75.6861 52.3802 75.6716 52.3281C75.6651 52.2723 75.6425 52.2195 75.6065 52.1763L74.3267 50.7302C74.2917 50.687 74.2435 50.6565 74.1894 50.6435C74.1349 50.6291 74.0776 50.6291 74.0231 50.6435H73.958L74.6015 50.0795V50.1446C74.582 50.1955 74.5795 50.2512 74.5943 50.3037Z" fill="white"/>
<path d="M77.899 49.7757L78.2027 50.1733L76.9157 51.4748V51.4097C76.9333 51.3557 76.9333 51.2974 76.9157 51.2434C76.9065 51.1912 76.8813 51.1431 76.8434 51.106L75.4552 49.7467C75.4162 49.7075 75.3654 49.6821 75.3106 49.6744C75.2596 49.6535 75.2024 49.6535 75.1515 49.6744H75.0864L76.265 48.467L76.6699 48.7634H76.3734C76.334 48.76 76.2944 48.7661 76.2579 48.7812C76.2214 48.7963 76.1891 48.8199 76.1637 48.8502L75.6648 49.3563L76.33 50.007L76.5975 49.7323C76.6356 49.6924 76.6608 49.642 76.6699 49.5877C76.688 49.5362 76.688 49.4801 76.6699 49.4286L77.0603 49.8118C77.0082 49.7973 76.9533 49.7973 76.9012 49.8118C76.8463 49.8237 76.7961 49.8513 76.7566 49.8913L76.4891 50.1661L77.2555 50.8891L77.8628 50.2673C77.8909 50.2405 77.9126 50.2078 77.9263 50.1715C77.9401 50.1352 77.9455 50.0963 77.9423 50.0576V49.7612L77.899 49.7757Z" fill="white"/>
<path d="M78.687 46.3631H78.3834C78.3451 46.363 78.3074 46.3722 78.2734 46.3898C78.2394 46.4075 78.2102 46.433 78.1882 46.4643L77.8339 46.9053L79.4462 48.1995C79.4901 48.2333 79.5429 48.2534 79.5981 48.2574C79.6533 48.2594 79.7081 48.2469 79.7571 48.2212L79.8222 48.1851L79.2872 48.8575V48.7852C79.3016 48.7307 79.3016 48.6734 79.2872 48.6189C79.2724 48.5657 79.239 48.5195 79.1932 48.4888L77.5808 47.2018L77.2338 47.6428C77.2077 47.672 77.1884 47.7066 77.1771 47.744C77.1659 47.7815 77.163 47.821 77.1687 47.8597L77.2265 48.1562L76.8867 47.7874L78.2749 46.0449L78.687 46.3631Z" fill="white"/>
<path d="M79.8074 43.7386V43.811C79.7749 43.9071 79.7749 44.0113 79.8074 44.1074L80.328 45.2787L81.0945 45.7776C81.1426 45.8061 81.1975 45.8211 81.2535 45.821C81.3084 45.8158 81.3609 45.7958 81.4053 45.7631L81.4632 45.7198L81.0005 46.4428V46.3632C81.0146 46.3112 81.0146 46.2562 81.0005 46.2042C80.9818 46.1528 80.946 46.1094 80.8992 46.0813L80.1762 45.6185H78.8024C78.7011 45.6209 78.603 45.6537 78.5205 45.7125L78.4409 45.7776L78.9398 45.0039V45.0907C78.9314 45.1088 78.9271 45.1286 78.9271 45.1486C78.9271 45.1685 78.9314 45.1883 78.9398 45.2064C78.9514 45.2223 78.9666 45.2352 78.9842 45.2441C79.0019 45.2529 79.0213 45.2573 79.041 45.257H80.0967L79.6701 44.2882C79.6636 44.2693 79.6521 44.2526 79.6368 44.2398C79.6215 44.2271 79.603 44.2188 79.5833 44.2158C79.5657 44.2057 79.5458 44.2004 79.5255 44.2004C79.5051 44.2004 79.4852 44.2057 79.4676 44.2158L79.3953 44.2665L79.8074 43.7386Z" fill="white"/>
<path d="M81.4778 40.7307C81.4215 40.8609 81.392 41.001 81.391 41.1428C81.3965 41.2756 81.4285 41.4058 81.485 41.526C81.5464 41.6467 81.627 41.7566 81.7236 41.8514C81.9394 42.0464 82.2144 42.1635 82.5045 42.184C82.6391 42.193 82.7741 42.1758 82.9022 42.1334C83.0298 42.0974 83.1466 42.0303 83.242 41.9382C83.3454 41.8393 83.4289 41.7215 83.4878 41.5911C83.5387 41.4744 83.5681 41.3495 83.5746 41.2224C83.5821 41.0955 83.5674 40.9682 83.5312 40.8464L83.7047 40.7958C83.7895 41.0845 83.7716 41.3936 83.6541 41.6706C83.5818 41.8519 83.4736 42.0167 83.336 42.1551C83.2162 42.2777 83.0738 42.376 82.9166 42.4443C82.7629 42.5073 82.5983 42.5392 82.4322 42.5383C82.2632 42.5312 82.0968 42.4944 81.9405 42.4298C81.7823 42.3634 81.6395 42.2649 81.5212 42.1406C81.4004 42.0265 81.3087 41.8852 81.2536 41.7285C81.1935 41.5668 81.1665 41.3947 81.1741 41.2224C81.1774 41.0273 81.2217 40.8352 81.3043 40.6584C81.4021 40.4283 81.5656 40.2322 81.7743 40.0945L81.6875 39.9932L82.1647 40.1234L81.9044 40.2318C81.8218 40.2874 81.7443 40.3503 81.673 40.4198C81.5852 40.5087 81.5164 40.6145 81.4705 40.7307H81.4778Z" fill="white"/>
<path d="M84.3987 38.0484L84.8542 38.2653L84.2757 40.0946V40.0223C84.2754 39.9663 84.2549 39.9124 84.2179 39.8704C84.1863 39.8254 84.1404 39.7923 84.0877 39.7764L82.2368 39.198C82.1847 39.1835 82.1298 39.1835 82.0777 39.198C82.0226 39.213 81.9742 39.2461 81.9404 39.292L81.897 39.3499L82.15 38.5401V38.6124C82.154 38.6676 82.1741 38.7204 82.2079 38.7642C82.2409 38.8078 82.2862 38.8405 82.338 38.8582L84.3119 39.4728L84.5938 38.5762C84.6232 38.5044 84.6232 38.4239 84.5938 38.3521L84.4348 38.0918L84.3987 38.0484Z" fill="white"/>
<path d="M83.0614 34.4836H83.0975V34.5559C83.1021 34.6117 83.128 34.6635 83.1699 34.7005C83.2065 34.7403 83.2544 34.7681 83.3072 34.7801L84.7533 35.0693C84.8635 35.0949 84.9686 35.1389 85.0642 35.1994C85.2474 35.3294 85.3762 35.5225 85.4257 35.7417C85.4473 35.8515 85.4473 35.9645 85.4257 36.0743L85.3751 36.3201C85.3546 36.4319 85.3102 36.538 85.2449 36.631C85.179 36.7186 85.1011 36.7965 85.0136 36.8624C84.9204 36.9211 84.8176 36.9627 84.7099 36.9853C84.5977 37.007 84.4823 37.007 84.3701 36.9853L82.924 36.6961C82.8724 36.6785 82.8165 36.6785 82.765 36.6961C82.7131 36.7176 82.6698 36.7558 82.642 36.8045L82.5986 36.8624L82.765 36.0309V36.1032C82.7783 36.1576 82.8057 36.2075 82.8445 36.2478C82.8806 36.287 82.9291 36.3126 82.9819 36.3201L84.4279 36.6166C84.5144 36.6268 84.6017 36.6268 84.6882 36.6166C84.7661 36.6128 84.8423 36.5931 84.9123 36.5587C84.9811 36.5323 85.0412 36.4872 85.0858 36.4286C85.1365 36.3627 85.1712 36.286 85.1871 36.2044L85.2232 36.0092C85.2449 35.9238 85.2449 35.8343 85.2232 35.7489C85.2231 35.6875 85.2134 35.6265 85.1943 35.5682C85.15 35.4963 85.0909 35.4346 85.0208 35.3874C84.9463 35.3362 84.8629 35.2994 84.7749 35.279L83.3289 34.9898C83.2773 34.9721 83.2214 34.9721 83.1699 34.9898C83.118 35.0113 83.0748 35.0494 83.0469 35.0982L83.0035 35.1633L83.0614 34.4836Z" fill="white"/>
<path d="M84.4708 32.6762C84.5231 32.5225 84.6216 32.3886 84.7528 32.293C84.8788 32.2041 85.0344 32.1678 85.1866 32.1918C85.2914 32.1959 85.3933 32.2275 85.4821 32.2833C85.5709 32.3392 85.6436 32.4173 85.6928 32.5099C85.8059 32.7329 85.8488 32.985 85.8157 33.2329L85.7144 34.2958V34.2235C85.6996 34.1702 85.6694 34.1224 85.6277 34.0861C85.5857 34.0491 85.5318 34.0285 85.4759 34.0283L83.5526 33.8403C83.5006 33.8258 83.4456 33.8258 83.3935 33.8403C83.3446 33.8701 83.3046 33.9125 83.2778 33.9632V34.0283L83.3718 33.0739C83.3835 32.9594 83.4028 32.8459 83.4297 32.734C83.4522 32.6387 83.4913 32.5482 83.5453 32.4665C83.5993 32.3905 83.6749 32.3326 83.7623 32.3002C83.8734 32.2687 83.991 32.2687 84.1021 32.3002C84.2088 32.3048 84.3109 32.3456 84.3913 32.4159C84.4753 32.4867 84.5421 32.5757 84.5865 32.6762H84.4708ZM84.3118 33.5655V33.2257C84.3194 33.1657 84.3194 33.105 84.3118 33.0449C84.3086 32.9872 84.2938 32.9306 84.2684 32.8786C84.2389 32.8215 84.1937 32.7738 84.1382 32.7413C84.068 32.699 83.9886 32.6742 83.9069 32.669C83.8257 32.653 83.7422 32.653 83.6611 32.669C83.6028 32.693 83.5509 32.7301 83.5092 32.7774C83.4756 32.8266 83.4489 32.8801 83.4297 32.9365C83.4239 32.9942 83.4239 33.0523 83.4297 33.11V33.4571L84.3118 33.5655ZM85.6277 33.2402C85.6349 33.1656 85.6349 33.0906 85.6277 33.016C85.6204 32.9434 85.6009 32.8724 85.5699 32.8063C85.5313 32.741 85.4796 32.6844 85.418 32.6401C85.3335 32.5935 85.2396 32.5663 85.1432 32.5605C85.0691 32.5453 84.9925 32.5465 84.9188 32.564C84.8451 32.5815 84.7762 32.6149 84.7167 32.6617C84.6031 32.7946 84.5414 32.9641 84.5431 33.1389L84.4997 33.5872L85.5771 33.6884L85.6205 33.2474L85.6277 33.2402Z" fill="white"/>
<g opacity="0.75">
<path opacity="0.75" d="M34.4523 68.1407C34.4812 68.8972 34.2831 69.6451 33.8836 70.2883C33.4841 70.9314 32.9014 71.4403 32.2104 71.7497C31.5194 72.0591 30.7517 72.1548 30.0059 72.0245C29.2601 71.8942 28.5702 71.5439 28.0251 71.0185C27.4799 70.4931 27.1044 69.8167 26.9466 69.0762C26.7888 68.3357 26.8561 67.565 27.1398 66.863C27.4235 66.1611 27.9106 65.56 28.5385 65.137C29.1665 64.714 29.9066 64.4885 30.6637 64.4894C31.1559 64.4657 31.6477 64.5429 32.109 64.7162C32.5702 64.8896 32.9912 65.1554 33.3461 65.4973C33.7009 65.8393 33.982 66.2501 34.1723 66.7047C34.3625 67.1593 34.4578 67.6479 34.4523 68.1407ZM33.4328 68.1407C33.4328 66.4271 32.3339 65.0317 30.6637 65.0317C28.9935 65.0317 27.8872 66.4271 27.8872 68.1407C27.8872 69.8542 28.9935 71.2569 30.6637 71.2569C32.3339 71.2569 33.4328 69.8615 33.4328 68.1407Z" fill="black"/>
<path opacity="0.75" d="M37.8792 66.0004C39.4988 66.0004 39.8748 66.7234 39.8748 67.5332C39.8748 68.343 39.4988 69.0443 37.8792 69.0443H37.0983V71.076C37.0986 71.2012 37.1368 71.3235 37.2078 71.4267C37.2787 71.5299 37.3792 71.6093 37.496 71.6544L37.6478 71.7123V71.7846H35.7246V71.7195L35.8837 71.6617C35.9994 71.6149 36.0988 71.5351 36.1695 71.4322C36.2402 71.3294 36.2791 71.208 36.2813 71.0832V66.7451C36.2795 66.6211 36.2407 66.5004 36.1699 66.3986C36.099 66.2969 35.9993 66.2186 35.8837 66.1739L35.7246 66.1088V66.0365H37.8937L37.8792 66.0004ZM37.8792 68.6322C38.3853 68.6322 39.0433 68.4876 39.0433 67.5332C39.0433 66.5788 38.3853 66.4269 37.8792 66.4269H37.0983V68.596H37.8792V68.6322Z" fill="black"/>
<path opacity="0.75" d="M45.7605 70.6641L45.5942 71.7848H41.4585V71.7197L41.6175 71.6619C41.7332 71.6151 41.8327 71.5353 41.9034 71.4324C41.9741 71.3296 42.013 71.2082 42.0152 71.0834V66.7453C42.0135 66.6213 41.9746 66.5006 41.9038 66.3989C41.8329 66.2971 41.7332 66.2188 41.6175 66.1741L41.4585 66.109V66.0367H45.2544L45.4134 67.1574H45.3411L44.8929 66.6513C44.8345 66.5867 44.763 66.5353 44.6832 66.5004C44.6035 66.4654 44.5172 66.4479 44.4301 66.4489H42.8322V68.5456H43.6926C43.817 68.5459 43.9387 68.5088 44.0418 68.4392C44.1449 68.3696 44.2248 68.2707 44.2711 68.1552H44.3434V69.3771H44.2711C44.2251 69.2609 44.1455 69.1609 44.0425 69.0901C43.9395 69.0193 43.8176 68.9807 43.6926 68.9794H42.8322V71.3943H44.7772C44.8652 71.395 44.9525 71.3773 45.0334 71.3424C45.1143 71.3076 45.1871 71.2563 45.2471 71.1919L45.6882 70.6858L45.7605 70.6641Z" fill="black"/>
<path opacity="0.75" d="M52.3111 71.6616V71.7338H50.9662C50.9662 71.7338 50.8361 71.4374 50.4095 70.5119C50.0625 69.7311 49.8022 69.008 49.4045 69.008H48.6815V71.0397C48.6837 71.1645 48.7226 71.2859 48.7933 71.3887C48.864 71.4916 48.9634 71.5714 49.0791 71.6181L49.2382 71.676V71.7483H47.3149V71.676L47.4668 71.6181C47.5836 71.573 47.6841 71.4936 47.755 71.3904C47.826 71.2872 47.8641 71.165 47.8644 71.0397V66.7016C47.8651 66.5761 47.8274 66.4534 47.7563 66.35C47.6852 66.2466 47.5842 66.1675 47.4668 66.1232L47.3149 66.0581V65.9352H49.484C51.1036 65.9352 51.4796 66.6221 51.4796 67.468C51.5205 67.797 51.435 68.1293 51.2404 68.3977C51.0458 68.6661 50.7566 68.8506 50.4312 68.914C50.731 69.302 50.9744 69.7304 51.1542 70.1866C51.2988 70.5192 51.429 70.8228 51.5374 71.0614C51.6575 71.3229 51.8718 71.5295 52.1376 71.6399L52.3111 71.6616ZM49.9901 68.5236C50.2075 68.4628 50.3954 68.3252 50.519 68.1364C50.6426 67.9477 50.6936 67.7204 50.6626 67.4969C50.6626 66.5353 50.0046 66.3907 49.4985 66.3907H48.7176V68.5598H49.4985C49.6695 68.5626 49.8399 68.5407 50.0046 68.4947L49.9901 68.5236Z" fill="black"/>
<path opacity="0.75" d="M59.1655 71.6763V71.7486H56.9964V71.6763L57.3435 71.5462C57.4186 71.5155 57.4793 71.4572 57.5129 71.3833C57.5465 71.3094 57.5505 71.2253 57.5242 71.1485L56.9097 69.5579H54.972L54.3502 71.1702C54.322 71.2469 54.3251 71.3317 54.3589 71.4061C54.3927 71.4806 54.4546 71.5387 54.5309 71.5679L54.8346 71.6908V71.7631H53.2656V71.7197H53.3379C53.481 71.6669 53.6112 71.5841 53.7197 71.4768C53.8282 71.3696 53.9125 71.2404 53.9669 71.0979L55.9119 66.0367H56.3602L58.2834 71.0256C58.335 71.1694 58.4173 71.3002 58.5247 71.4089C58.6321 71.5176 58.762 71.6014 58.9052 71.6546L59.1655 71.6763ZM56.7868 69.1385L55.977 67.0634L55.1744 69.1385H56.7868Z" fill="black"/>
<path opacity="0.75" d="M64.4507 67.1211H64.3784L63.9373 66.615C63.8773 66.5505 63.8045 66.4993 63.7236 66.4644C63.6427 66.4296 63.5555 66.4119 63.4674 66.4125H62.1948V71.0616C62.1956 71.1858 62.233 71.307 62.3025 71.4099C62.372 71.5128 62.4703 71.5929 62.5853 71.64L62.7443 71.6978V71.7702H60.8211V71.7195L60.9802 71.6617C61.0959 71.6149 61.1952 71.5351 61.2659 71.4323C61.3367 71.3294 61.3756 71.2081 61.3778 71.0833V66.4342H60.098C60.01 66.4336 59.9227 66.4513 59.8418 66.4861C59.7609 66.521 59.6882 66.5722 59.6281 66.6367L59.1871 67.1428H59.1147L59.2738 66.0221H64.2916L64.4507 67.1211Z" fill="black"/>
<path opacity="0.75" d="M67.3929 66.7092V71.0473C67.3951 71.1721 67.4341 71.2935 67.5048 71.3963C67.5755 71.4992 67.6748 71.5789 67.7906 71.6257L67.9496 71.6836V71.7559H66.0264V71.7197L66.1782 71.6619C66.295 71.6167 66.3955 71.5374 66.4665 71.4341C66.5374 71.3309 66.5756 71.2087 66.5759 71.0834V66.7453C66.5751 66.621 66.5367 66.5 66.4657 66.398C66.3947 66.296 66.2945 66.2179 66.1782 66.1741L66.0264 66.109V66.0367H67.9496V66.109L67.7906 66.1741C67.6803 66.2163 67.5844 66.2891 67.5139 66.3838C67.4435 66.4786 67.4016 66.5914 67.3929 66.7092Z" fill="black"/>
<path opacity="0.75" d="M75.5344 68.8853C75.5589 69.4866 75.403 70.0814 75.0866 70.5933C74.7702 71.1052 74.308 71.5107 73.7592 71.7577C73.2105 72.0046 72.6004 72.0817 72.0075 71.9791C71.4146 71.8764 70.8659 71.5987 70.4321 71.1816C69.9984 70.7645 69.6993 70.2272 69.5735 69.6387C69.4477 69.0503 69.5008 68.4376 69.726 67.8796C69.9513 67.3216 70.3384 66.8438 70.8375 66.5076C71.3366 66.1714 71.9248 65.9923 72.5266 65.9932C72.9178 65.9702 73.3095 66.0284 73.6772 66.1641C74.0448 66.2997 74.3804 66.51 74.6629 66.7816C74.9454 67.0532 75.1686 67.3803 75.3186 67.7424C75.4686 68.1044 75.542 68.4935 75.5344 68.8853ZM74.7174 68.8853C74.6684 68.4602 74.4971 68.0583 74.2243 67.7285C73.9515 67.3987 73.5889 67.1551 73.1805 67.0272C72.772 66.8993 72.3352 66.8927 71.9231 67.008C71.5109 67.1234 71.141 67.3559 70.8583 67.6772C70.5756 67.9986 70.3922 68.395 70.3303 68.8185C70.2684 69.242 70.3306 69.6744 70.5094 70.0632C70.6883 70.4521 70.9761 70.7807 71.338 71.0092C71.6999 71.2378 72.1203 71.3564 72.5483 71.3509C72.855 71.3383 73.156 71.2637 73.433 71.1316C73.7101 70.9995 73.9574 70.8125 74.1602 70.5821C74.3629 70.3516 74.5168 70.0824 74.6126 69.7908C74.7084 69.4992 74.744 69.1911 74.7174 68.8853Z" fill="black"/>
<path opacity="0.75" d="M81.8536 66.7089V71.047C81.8558 71.1718 81.8947 71.2932 81.9654 71.396C82.0361 71.4989 82.1355 71.5787 82.2512 71.6254L82.4031 71.6833V71.7556H81.4414L77.7685 66.6583V71.0615C77.7678 71.187 77.8055 71.3096 77.8766 71.413C77.9477 71.5164 78.0487 71.5956 78.1661 71.6399L78.318 71.705V71.7773H76.8213V71.7194L76.9731 71.6544C77.0894 71.6084 77.1893 71.5288 77.2602 71.4258C77.331 71.3228 77.3695 71.201 77.3708 71.0759V66.7378C77.3685 66.613 77.3297 66.4916 77.259 66.3888C77.1883 66.2859 77.0888 66.2062 76.9731 66.1594L76.8213 66.1015V66.0292H78.3324L81.4559 70.3674V66.7523C81.4541 66.6283 81.4153 66.5076 81.3445 66.4058C81.2736 66.304 81.1739 66.2258 81.0583 66.1811L80.9064 66.116V66.0437H82.4031V66.116L82.2512 66.1811C82.142 66.2228 82.0468 66.2944 81.9765 66.3878C81.9061 66.4811 81.8635 66.5924 81.8536 66.7089Z" fill="black"/>
<path opacity="0.75" d="M86.1052 68.3719C86.8282 68.7768 87.5512 69.0949 87.5512 70.2662C87.5512 71.1556 86.6258 71.7702 85.6063 71.7702C85.3393 71.7822 85.0727 71.7383 84.8236 71.6412C84.5746 71.544 84.3486 71.3959 84.1603 71.2062L84.0156 71.4231H83.9434V70.2735H84.0156C84.1554 70.5777 84.3766 70.8373 84.6548 71.0236C84.933 71.2099 85.2573 71.3157 85.5918 71.3291C85.7405 71.3472 85.8914 71.3317 86.0333 71.2836C86.1751 71.2354 86.3043 71.156 86.4112 71.0511C86.5182 70.9462 86.6002 70.8186 86.6511 70.6778C86.702 70.5369 86.7205 70.3864 86.7053 70.2373C86.7053 69.7891 86.2715 69.4058 85.6352 69.0443C84.999 68.6828 84.1892 68.3647 84.1892 67.4392C84.1892 66.5137 84.9122 65.9932 85.9461 65.9932C86.3535 65.9988 86.7523 66.111 87.103 66.3185L87.2114 66.0872H87.2837L87.4355 67.2079H87.3633C87.2212 66.9529 87.0102 66.7431 86.7545 66.6024C86.4988 66.4618 86.2086 66.396 85.9172 66.4125C85.4617 66.4125 84.7893 66.6294 84.7893 67.1789C84.7893 67.7284 85.4255 68.0104 86.0546 68.3719H86.1052Z" fill="black"/>
<path opacity="0.75" d="M6.29033 82.4422V82.5651H4.59847L3.87545 81.0178C3.42717 80.0273 3.10181 79.1163 2.61015 79.1163H1.74252V81.6758C1.74547 81.832 1.79435 81.9838 1.88307 82.1124C1.97179 82.241 2.09643 82.3406 2.2414 82.3988L2.4294 82.4711V82.5651H0V82.4711L0.195231 82.3988C0.339404 82.3403 0.463027 82.2404 0.550521 82.1117C0.638015 81.9831 0.68546 81.8314 0.686883 81.6758V76.1302C0.687408 75.9741 0.640737 75.8216 0.552993 75.6925C0.465248 75.5635 0.340539 75.464 0.195231 75.4071L0 75.3348V75.2408H2.7692C4.82259 75.2408 5.29255 76.094 5.29255 77.1496C5.3347 77.5596 5.22246 77.9705 4.97777 78.3021C4.73309 78.6337 4.37354 78.8621 3.9694 78.9427C4.34714 79.4322 4.65385 79.9726 4.88042 80.5478C5.07564 80.9672 5.24193 81.3432 5.37207 81.6396C5.52926 81.9698 5.8057 82.2281 6.14571 82.3626L6.29033 82.4422ZM3.39823 78.4872C3.67166 78.4066 3.90659 78.2295 4.05947 77.9889C4.21236 77.7483 4.27286 77.4604 4.22972 77.1785C4.22972 75.9639 3.39825 75.7831 2.78367 75.7831H1.80033V78.5595H2.7692C2.97969 78.5627 3.1894 78.5334 3.39099 78.4728L3.39823 78.4872Z" fill="black"/>
<path opacity="0.75" d="M11.1707 81.4225L11.0044 82.5359H6.86865V82.4636L7.02774 82.4058C7.144 82.3598 7.24393 82.2802 7.31476 82.1772C7.38559 82.0742 7.4241 81.9524 7.4254 81.8274V77.4892C7.4241 77.3642 7.38559 77.2424 7.31476 77.1394C7.24393 77.0363 7.144 76.9568 7.02774 76.9108L6.86865 76.8529V76.7806H10.6645L10.8236 77.8941H10.7513L10.3103 77.388C10.2502 77.3235 10.1774 77.2723 10.0965 77.2374C10.0156 77.2026 9.9284 77.1849 9.84032 77.1855H8.24242V79.2895H9.10282C9.22784 79.2882 9.34961 79.2497 9.45264 79.1789C9.55566 79.1081 9.63525 79.0081 9.68123 78.8919H9.75352V80.121H9.68123C9.63525 80.0048 9.55566 79.9048 9.45264 79.834C9.34961 79.7632 9.22784 79.7247 9.10282 79.7234H8.24242V82.1383H10.1874C10.2754 82.1389 10.3627 82.1212 10.4436 82.0864C10.5245 82.0515 10.5972 82.0003 10.6573 81.9358L11.0984 81.4297L11.1707 81.4225Z" fill="black"/>
<path opacity="0.75" d="M14.1785 79.1234C14.9015 79.5355 15.6245 79.8464 15.6245 81.025C15.6245 81.9143 14.6991 82.5216 13.6796 82.5216C13.4124 82.5355 13.1452 82.4924 12.8959 82.3952C12.6466 82.298 12.4208 82.1488 12.2335 81.9577L12.0889 82.1746H12.0166V81.0467H12.0889C12.2287 81.3509 12.4499 81.6105 12.7281 81.7968C13.0063 81.9831 13.3306 82.0888 13.6651 82.1023C13.8144 82.1216 13.966 82.1069 14.1088 82.0593C14.2516 82.0117 14.3818 81.9325 14.4896 81.8275C14.5974 81.7225 14.68 81.5944 14.7313 81.4529C14.7826 81.3115 14.8012 81.1602 14.7858 81.0105C14.7858 80.5695 14.352 80.179 13.7157 79.8247C13.0795 79.4705 12.2697 79.1379 12.2697 78.2124C12.2697 77.2869 12.9927 76.7664 14.0266 76.7664C14.4314 76.7746 14.8272 76.8866 15.1762 77.0917L15.2847 76.8603H15.357L15.5161 77.9738H15.4438C15.3004 77.72 15.0892 77.5111 14.8338 77.3707C14.5784 77.2302 14.2889 77.1636 13.9977 77.1785C13.5422 77.1785 12.8698 77.3954 12.8698 77.9521C12.8698 78.5088 13.5061 78.7764 14.1279 79.1379L14.1785 79.1234Z" fill="black"/>
<path opacity="0.75" d="M20.8016 81.4225L20.6281 82.5648H16.5068V82.4925L16.6587 82.4347C16.7761 82.3904 16.8771 82.3113 16.9482 82.2079C17.0193 82.1045 17.057 81.9817 17.0563 81.8563V77.5181C17.057 77.3926 17.0193 77.27 16.9482 77.1666C16.8771 77.0632 16.7761 76.984 16.6587 76.9397L16.5068 76.8819V76.7806H20.3027L20.4546 77.8941H20.3895L19.9412 77.388C19.8812 77.3235 19.8084 77.2723 19.7275 77.2374C19.6466 77.2026 19.5593 77.1849 19.4712 77.1855H17.8734V79.2895H18.741C18.8658 79.2873 18.9871 79.2484 19.09 79.1777C19.1928 79.107 19.2726 79.0076 19.3194 78.8919H19.3917V80.121H19.3194C19.2726 80.0053 19.1928 79.9059 19.09 79.8352C18.9871 79.7645 18.8658 79.7256 18.741 79.7234H17.8734V82.1383H19.8183C19.9065 82.1393 19.9938 82.1219 20.0748 82.087C20.1557 82.0521 20.2285 82.0006 20.2882 81.9358L20.7365 81.4297L20.8016 81.4225Z" fill="black"/>
<path opacity="0.75" d="M27.5328 82.4276V82.5H25.3637V82.4276L25.718 82.2975C25.7558 82.2831 25.7903 82.2614 25.8196 82.2335C25.8488 82.2056 25.8722 82.1722 25.8884 82.1351C25.9045 82.0981 25.9131 82.0582 25.9137 82.0178C25.9142 81.9774 25.9067 81.9373 25.8915 81.8998L25.2842 80.3164H23.3465L22.7247 81.9215C22.7097 81.9594 22.7025 82 22.7036 82.0407C22.7046 82.0815 22.7138 82.1216 22.7307 82.1587C22.7475 82.1958 22.7717 82.2292 22.8018 82.2567C22.8318 82.2843 22.867 82.3055 22.9054 82.3192L23.2019 82.4421V82.5144H21.6401V82.4421H21.7125C21.8561 82.3881 21.9865 82.304 22.0949 82.1955C22.2034 82.0871 22.2875 81.9567 22.3415 81.8131L24.2864 76.7519H24.7275L26.6507 81.7408C26.706 81.8828 26.7906 82.0116 26.899 82.1187C27.0074 82.2259 27.1371 82.3089 27.2798 82.3626L27.5328 82.4276ZM25.1468 79.8971L24.3443 77.8147L23.5417 79.8971H25.1468Z" fill="black"/>
<path opacity="0.75" d="M33.0713 82.4204V82.4927H31.7265L31.1698 81.2636C30.8227 80.4827 30.5552 79.7597 30.1647 79.7597H29.4779V81.7914C29.4772 81.9168 29.5149 82.0395 29.586 82.1429C29.6571 82.2463 29.7581 82.3255 29.8755 82.3698L30.0274 82.4276V82.4999H28.0752V82.4276L28.2342 82.3698C28.3505 82.3238 28.4504 82.2442 28.5213 82.1412C28.5921 82.0382 28.6306 81.9164 28.6319 81.7914V77.4532C28.6306 77.3282 28.5921 77.2064 28.5213 77.1034C28.4504 77.0003 28.3505 76.9208 28.2342 76.8748L28.0752 76.7808V76.7085H30.2443C31.8638 76.7085 32.2326 77.3882 32.2326 78.2341C32.2755 78.5623 32.1917 78.8946 31.9983 79.1632C31.8049 79.4319 31.5163 79.6167 31.1914 79.6801C31.4845 80.0725 31.7274 80.5 31.9145 80.9527C32.0591 81.2925 32.1892 81.5889 32.2977 81.8275C32.4134 82.0921 32.6291 82.3001 32.8978 82.4059L33.0713 82.4204ZM30.7504 79.2825C30.9683 79.2201 31.1563 79.0812 31.2799 78.8912C31.4034 78.7012 31.4542 78.473 31.4228 78.2485C31.4228 77.2869 30.7649 77.1423 30.2587 77.1423H29.4779V79.3114H30.2443C30.4147 79.3128 30.5847 79.2934 30.7504 79.2536V79.2825Z" fill="black"/>
<path opacity="0.75" d="M37.0331 77.193C36.42 77.2506 35.8505 77.5349 35.436 77.9902C35.0214 78.4455 34.7917 79.0391 34.7917 79.6549C34.7917 80.2707 35.0214 80.8643 35.436 81.3196C35.8505 81.7749 36.42 82.0592 37.0331 82.1168C37.6148 82.1171 38.1781 81.9123 38.6237 81.5384L38.884 81.8493C38.4746 82.1976 37.9761 82.4248 37.4447 82.5055C36.9132 82.5863 36.3698 82.5173 35.8754 82.3064C35.3809 82.0954 34.9551 81.7509 34.6456 81.3114C34.3361 80.8719 34.1552 80.3548 34.1233 79.8182C34.0913 79.2816 34.2095 78.7467 34.4647 78.2736C34.7198 77.8005 35.1018 77.4078 35.5677 77.1397C36.0335 76.8715 36.5649 76.7385 37.1022 76.7556C37.6395 76.7727 38.1614 76.9392 38.6093 77.2364L38.7394 76.9616H38.8117L38.9708 78.0823H38.8985C38.6817 77.7925 38.3984 77.5591 38.0725 77.4018C37.7466 77.2445 37.3876 77.1679 37.0258 77.1785L37.0331 77.193Z" fill="black"/>
<path opacity="0.75" d="M45.1026 77.5037V81.8418C45.1019 81.9673 45.1396 82.09 45.2107 82.1934C45.2818 82.2968 45.3828 82.3759 45.5002 82.4202L45.6521 82.4781V82.5504H43.7288V82.4781L43.8879 82.4202C44.0041 82.3742 44.1041 82.2947 44.1749 82.1917C44.2457 82.0886 44.2842 81.9668 44.2855 81.8418V79.774H41.2199V81.8418C41.2192 81.9673 41.2569 82.09 41.328 82.1934C41.3991 82.2968 41.5002 82.3759 41.6176 82.4202L41.7694 82.4781V82.5504H39.8462V82.4781L40.0052 82.4202C40.1215 82.3742 40.2214 82.2947 40.2923 82.1917C40.3631 82.0886 40.4016 81.9668 40.4029 81.8418V77.5037C40.4016 77.3786 40.3631 77.2568 40.2923 77.1538C40.2214 77.0508 40.1215 76.9712 40.0052 76.9253L39.8462 76.8674V76.7806H41.7694V76.8529L41.6176 76.9108C41.5002 76.9551 41.3991 77.0342 41.328 77.1376C41.2569 77.241 41.2192 77.3637 41.2199 77.4892V79.3763H44.2855V77.5037C44.2842 77.3786 44.2457 77.2568 44.1749 77.1538C44.1041 77.0508 44.0041 76.9712 43.8879 76.9253L43.7288 76.8674V76.7806H45.6521V76.8529L45.5002 76.9108C45.3804 76.9559 45.2778 77.0373 45.2065 77.1436C45.1352 77.2498 45.0989 77.3757 45.1026 77.5037Z" fill="black"/>
<path opacity="0.75" d="M52.0359 78.2268C52.9324 78.7474 53.894 79.1306 53.894 80.6345C53.894 81.7479 52.73 82.5288 51.443 82.5288C51.106 82.5389 50.7706 82.4799 50.4573 82.3556C50.1439 82.2312 49.8593 82.0441 49.6209 81.8058L49.4402 82.0661H49.3462V80.62H49.4402C49.6182 81.0039 49.8987 81.3313 50.2508 81.566C50.6029 81.8008 51.0129 81.9338 51.4357 81.9504C51.6225 81.9742 51.8122 81.9556 51.9907 81.8958C52.1692 81.8361 52.3319 81.7369 52.4668 81.6055C52.6016 81.4742 52.705 81.3141 52.7694 81.1372C52.8337 80.9603 52.8573 80.7712 52.8384 80.5839C52.8384 80.0272 52.2889 79.55 51.4791 79.0872C50.6693 78.6245 49.6209 78.2268 49.6209 77.0483C49.6209 75.8698 50.5464 75.2118 51.8406 75.2118C52.3481 75.2226 52.845 75.3592 53.2867 75.6095L53.4313 75.3058H53.5253L53.735 76.7518H53.6337C53.4551 76.4355 53.1923 76.1748 52.8746 75.9986C52.5568 75.8225 52.1964 75.7378 51.8334 75.7541C51.2694 75.7541 50.4235 76.0216 50.4235 76.7157C50.4235 77.4098 51.2333 77.7713 52.0286 78.2341L52.0359 78.2268Z" fill="black"/>
<path opacity="0.75" d="M60.7848 79.6728C60.8094 80.274 60.6534 80.8689 60.3371 81.3808C60.0207 81.8926 59.5584 82.2982 59.0097 82.5451C58.461 82.7921 57.8509 82.8692 57.2579 82.7665C56.665 82.6639 56.1164 82.3861 55.6826 81.969C55.2489 81.5519 54.9498 81.0146 54.824 80.4262C54.6981 79.8377 54.7513 79.2251 54.9765 78.6671C55.2018 78.1091 55.5889 77.6312 56.0879 77.2951C56.587 76.9589 57.1753 76.7797 57.7771 76.7807C58.1685 76.7566 58.5607 76.814 58.9289 76.9492C59.297 77.0845 59.633 77.2947 59.9157 77.5666C60.1984 77.8384 60.4216 78.166 60.5712 78.5285C60.7208 78.891 60.7936 79.2807 60.7848 79.6728ZM59.9678 79.6728C59.9189 79.2493 59.7482 78.8492 59.4766 78.5206C59.205 78.1921 58.8439 77.9494 58.4372 77.8218C58.0305 77.6942 57.5955 77.6873 57.1849 77.8018C56.7743 77.9163 56.4056 78.1473 56.1236 78.4669C55.8416 78.7866 55.6582 79.1811 55.5958 79.6028C55.5333 80.0244 55.5943 80.4552 55.7716 80.8429C55.9488 81.2305 56.2346 81.5585 56.5944 81.7871C56.9542 82.0158 57.3725 82.1352 57.7987 82.1311C58.1048 82.1185 58.4051 82.0441 58.6816 81.9124C58.9582 81.7807 59.2052 81.5944 59.4078 81.3648C59.6105 81.1351 59.7646 80.8668 59.8608 80.576C59.957 80.2852 59.9934 79.978 59.9678 79.6728Z" fill="black"/>
<path opacity="0.75" d="M64.7541 77.193C64.1411 77.2506 63.5716 77.5349 63.157 77.9902C62.7425 78.4455 62.5127 79.0391 62.5127 79.6549C62.5127 80.2707 62.7425 80.8643 63.157 81.3196C63.5716 81.7749 64.1411 82.0592 64.7541 82.1168C65.3334 82.1154 65.8938 81.9107 66.3376 81.5384L66.5979 81.8493C66.1884 82.1976 65.69 82.4248 65.1585 82.5055C64.6271 82.5863 64.0837 82.5173 63.5892 82.3064C63.0948 82.0954 62.669 81.7509 62.3595 81.3114C62.05 80.8719 61.8691 80.3548 61.8371 79.8182C61.8052 79.2816 61.9234 78.7467 62.1785 78.2736C62.4337 77.8005 62.8156 77.4078 63.2815 77.1397C63.7474 76.8715 64.2788 76.7385 64.8161 76.7556C65.3533 76.7727 65.8752 76.9392 66.3231 77.2364L66.4605 76.9616H66.5256L66.6846 78.0823H66.6123C66.3956 77.7925 66.1123 77.5591 65.7863 77.4018C65.4604 77.2445 65.1015 77.1679 64.7397 77.1785L64.7541 77.193Z" fill="black"/>
<path opacity="0.75" d="M68.9188 77.5037V81.8418C68.9201 81.9668 68.9586 82.0886 69.0295 82.1917C69.1003 82.2947 69.2002 82.3742 69.3164 82.4202L69.4755 82.4781V82.5504H67.5522V82.4781L67.7041 82.4202C67.8215 82.3759 67.9225 82.2968 67.9936 82.1934C68.0647 82.09 68.1024 81.9673 68.1018 81.8418V77.5037C68.1024 77.3782 68.0647 77.2555 67.9936 77.1521C67.9225 77.0487 67.8215 76.9695 67.7041 76.9253L67.5522 76.8674V76.7806H69.4755V76.8529L69.3164 76.9108C69.1979 76.9577 69.0964 77.0395 69.0253 77.1454C68.9543 77.2512 68.9172 77.3762 68.9188 77.5037Z" fill="black"/>
<path opacity="0.75" d="M74.6452 81.4225L74.4717 82.5359H70.3433V82.4636L70.4951 82.4058C70.6113 82.3598 70.7113 82.2802 70.7821 82.1772C70.8529 82.0742 70.8914 81.9524 70.8927 81.8274V77.4892C70.8914 77.3642 70.8529 77.2424 70.7821 77.1394C70.7113 77.0363 70.6113 76.9568 70.4951 76.9108L70.3433 76.8529V76.7806H74.1391L74.291 77.8941H74.2187L73.7776 77.388C73.7176 77.3235 73.6448 77.2723 73.5639 77.2374C73.483 77.2026 73.3957 77.1849 73.3076 77.1855H71.7097V79.2895H72.5774C72.7016 79.2888 72.8227 79.2503 72.9247 79.1793C73.0267 79.1084 73.1048 79.0081 73.1486 78.8919H73.2209V80.121H73.1486C73.1048 80.0048 73.0267 79.9045 72.9247 79.8335C72.8227 79.7625 72.7016 79.7241 72.5774 79.7234H71.7097V82.1383H73.6258C73.7139 82.1389 73.8011 82.1212 73.882 82.0864C73.9629 82.0515 74.0357 82.0003 74.0958 81.9358L74.544 81.4297L74.6452 81.4225Z" fill="black"/>
<path opacity="0.75" d="M80.8561 77.8726H80.7838L80.3356 77.3665C80.2772 77.3019 80.2057 77.2505 80.1259 77.2156C80.0462 77.1806 79.9599 77.1631 79.8728 77.1641H78.5931V81.842C78.5943 81.967 78.6329 82.0888 78.7037 82.1919C78.7745 82.2949 78.8744 82.3745 78.9907 82.4204L79.1498 82.4783V82.5506H77.241V82.4783L77.4 82.4204C77.5155 82.3741 77.6145 82.2943 77.6841 82.1912C77.7537 82.0881 77.7908 81.9664 77.7905 81.842V77.193H76.518C76.4299 77.1924 76.3427 77.21 76.2618 77.2449C76.1809 77.2797 76.108 77.331 76.048 77.3954L75.607 77.9015H75.5347L75.6937 76.7881H80.7115L80.8561 77.8726Z" fill="black"/>
<path opacity="0.75" d="M86.6404 76.7806V76.8529L86.4885 76.918C86.2731 76.9958 86.0899 77.1434 85.968 77.3374L84.3846 79.7378V79.7884V81.8418C84.3859 81.9668 84.4244 82.0886 84.4952 82.1917C84.566 82.2947 84.666 82.3742 84.7822 82.4202L84.9341 82.4781V82.5504H83.0253V82.4781L83.1771 82.4202C83.2934 82.3742 83.3933 82.2947 83.4641 82.1917C83.5349 82.0886 83.5735 81.9668 83.5748 81.8418V79.933L81.8684 77.3446C81.7423 77.1545 81.5605 77.008 81.3478 76.9253L81.1382 76.8457V76.7806H83.2133V76.8529L83.0325 76.9253C82.9903 76.9425 82.9523 76.9687 82.9214 77.0022C82.8904 77.0357 82.8672 77.0756 82.8534 77.1191C82.8396 77.1626 82.8356 77.2085 82.8415 77.2538C82.8475 77.299 82.8633 77.3423 82.8879 77.3807L84.1966 79.3618L85.5125 77.3807C85.5371 77.3423 85.5529 77.299 85.5589 77.2538C85.5648 77.2085 85.5607 77.1626 85.5469 77.1191C85.5331 77.0756 85.5099 77.0357 85.479 77.0022C85.448 76.9687 85.4101 76.9425 85.3679 76.9253L85.1871 76.8529V76.7806H86.6404Z" fill="black"/>
<path opacity="0.75" d="M94.3404 75.7686C93.5597 75.8338 92.8321 76.19 92.3017 76.7665C91.7713 77.343 91.477 78.0978 91.477 78.8812C91.477 79.6646 91.7713 80.4194 92.3017 80.9959C92.8321 81.5724 93.5597 81.9286 94.3404 81.9938C95.0739 81.9929 95.7843 81.7373 96.3504 81.2708L96.683 81.6685C96.0258 82.2178 95.197 82.5197 94.3404 82.5216C91.9399 82.5216 90.436 80.8876 90.436 78.9065C90.436 76.9254 91.9399 75.2914 94.3404 75.2914C95.0494 75.2958 95.7421 75.5041 96.3359 75.8915L96.5022 75.5444H96.5962L96.8059 76.9905H96.7047C96.4272 76.625 96.0668 76.3308 95.6532 76.1322C95.2395 75.9336 94.7846 75.8362 94.3259 75.8481L94.3404 75.7686Z" fill="black"/>
<path opacity="0.75" d="M102.142 81.408L101.983 82.5215H97.6445V82.4564L97.7964 82.3913C97.9138 82.347 98.0148 82.2679 98.0859 82.1645C98.157 82.0611 98.1947 81.9384 98.194 81.8129V77.4747C98.1937 77.3495 98.1556 77.2273 98.0846 77.1241C98.0137 77.0208 97.9132 76.9415 97.7964 76.8963L97.6445 76.8385V76.7806H99.5678V76.8529L99.4087 76.9108C99.293 76.9576 99.1936 77.0373 99.1229 77.1402C99.0522 77.243 99.0133 77.3644 99.0111 77.4892V82.1383H101.137C101.225 82.1393 101.312 82.1219 101.393 82.087C101.474 82.0521 101.547 82.0006 101.607 81.9358L102.055 81.4297L102.142 81.408Z" fill="black"/>
<path opacity="0.75" d="M108.519 76.7806V76.8529L108.367 76.9108C108.25 76.9551 108.149 77.0342 108.077 77.1376C108.006 77.241 107.969 77.3637 107.969 77.4892V80.844C107.967 81.3529 107.764 81.8402 107.403 82.1993C107.043 82.5584 106.555 82.7601 106.046 82.7601H105.497C104.988 82.7601 104.5 82.5584 104.139 82.1993C103.779 81.8402 103.575 81.3529 103.573 80.844V77.5037C103.572 77.3786 103.533 77.2568 103.463 77.1538C103.392 77.0508 103.292 76.9712 103.176 76.9253L103.017 76.8674V76.7806H104.94V76.8529L104.781 76.9108C104.665 76.9571 104.566 77.0369 104.497 77.1401C104.427 77.2432 104.39 77.3648 104.39 77.4892V80.844C104.39 81.6683 104.759 82.3407 105.591 82.3407H106.032C106.429 82.3407 106.811 82.1833 107.092 81.9028C107.374 81.6223 107.534 81.2416 107.536 80.844V77.5037C107.534 77.3786 107.496 77.2568 107.425 77.1538C107.354 77.0508 107.254 76.9712 107.138 76.9253L106.986 76.8674V76.7806H108.519Z" fill="black"/>
<path opacity="0.75" d="M112.452 79.4125C112.803 79.4782 113.12 79.6644 113.348 79.9389C113.577 80.2135 113.702 80.5592 113.703 80.9163C113.703 81.9358 112.85 82.5504 111.44 82.5504H109.054V82.4781L109.206 82.4202C109.321 82.3734 109.421 82.2937 109.491 82.1908C109.562 82.088 109.601 81.9666 109.603 81.8418V77.5037C109.601 77.3797 109.563 77.259 109.492 77.1572C109.421 77.0554 109.321 76.9772 109.206 76.9325L109.054 76.8674V76.7806H111.223C112.329 76.7806 113.204 76.9903 113.204 78.2267C113.202 78.4684 113.133 78.7049 113.006 78.9103C112.878 79.1156 112.697 79.2818 112.481 79.3908L112.452 79.4125ZM110.42 79.2678H111.223C111.729 79.2678 112.38 79.1377 112.38 78.2339C112.38 77.3301 111.729 77.2 111.223 77.2H110.442L110.42 79.2678ZM111.44 82.1599C112.105 82.1599 112.886 81.9503 112.886 80.9308C112.886 80.0559 112.495 79.7089 111.44 79.7089H110.427V82.1455H111.44V82.1599Z" fill="black"/>
</g>
</svg>
