<svg  viewBox="0 0 161 69" fill="none" xmlns="http://www.w3.org/2000/svg">
<path d="M65.4283 34.5091C65.4315 38.5906 64.6286 42.6325 63.0656 46.4028C61.5027 50.1732 59.2105 53.5978 56.3206 56.4799C55.4376 57.3602 54.5036 58.1876 53.5232 58.958L53.3162 59.1176C53.2453 59.1709 53.1802 59.23 53.1033 59.2773C52.5119 59.7327 51.9205 60.1585 51.27 60.5666C51.1339 60.6612 50.992 60.7499 50.856 60.8327C45.9487 63.9106 40.2787 65.5554 34.4861 65.5815C28.6936 65.6076 23.009 64.014 18.0741 60.9806C17.944 60.9037 17.8021 60.815 17.672 60.7263C16.8262 60.1881 16.0219 59.6144 15.2354 59.0053L15.0284 58.8397L14.8273 58.68C10.7445 55.3811 7.56385 51.1018 5.58226 46.2412C3.60068 41.3806 2.8827 36.0973 3.49533 30.8841C4.10795 25.671 6.03121 20.698 9.08565 16.4293C12.1401 12.1605 16.2261 8.73509 20.9625 6.47264C25.6989 4.21018 30.9312 3.18444 36.1712 3.49114C41.4112 3.79784 46.4882 5.42698 50.9283 8.22653C55.3683 11.0261 59.0269 14.9048 61.5625 19.5008C64.098 24.0967 65.428 29.2601 65.4283 34.5091Z" fill="white"/>
<path d="M58.6092 10.2613C55.3186 6.9564 51.3887 4.35724 47.0595 2.62268C42.7304 0.88811 38.093 0.0545667 33.4308 0.172987C28.7686 0.291407 24.1795 1.3593 19.944 3.31141C15.7084 5.26352 11.9155 8.05883 8.79692 11.5265C5.67835 14.9942 3.29967 19.0614 1.80624 23.4795C0.312819 27.8977 -0.26397 32.5739 0.111129 37.2225C0.486227 41.8712 1.80533 46.3944 3.98782 50.516C6.17032 54.6375 9.17035 58.2707 12.8046 61.1935L13.0293 61.3768C13.1003 61.4359 13.1772 61.501 13.254 61.5542C14.1234 62.2344 15.0283 62.8672 15.939 63.4586C16.0869 63.5591 16.2407 63.6537 16.3885 63.7424C21.8364 67.0907 28.1118 68.8495 34.5063 68.8203C40.9008 68.791 47.1598 66.9748 52.5769 63.5769C52.7306 63.4822 52.8844 63.3876 53.0323 63.2811C53.7242 62.8317 54.4043 62.3585 55.0608 61.8558C55.1436 61.8026 55.2146 61.7376 55.2974 61.6844L55.5221 61.5069C59.34 58.5126 62.4793 54.7424 64.7325 50.4453C66.9858 46.1481 68.3018 41.4219 68.5935 36.5786C68.8853 31.7353 68.1462 26.8852 66.4251 22.3486C64.7041 17.8121 62.0401 13.6923 58.6092 10.2613ZM53.878 54.0611C53.0967 54.8474 52.2672 55.5842 51.394 56.267L51.2048 56.4149L51.0215 56.5509C50.4951 56.959 49.9451 57.3375 49.3892 57.6982C49.265 57.7869 49.1408 57.8579 49.0166 57.9407C44.6493 60.6739 39.6059 62.1341 34.4539 62.1571C29.3019 62.18 24.2457 60.7649 19.8542 58.0708L19.4875 57.8402C18.7423 57.3671 18.0208 56.8525 17.3229 56.3084L17.1396 56.1665L16.9681 56.0186C12.6172 52.5053 9.43427 47.755 7.83957 42.3949C6.24487 37.0348 6.31343 31.3171 8.03619 25.9968C9.75895 20.6765 13.0549 16.0038 17.4888 12.5958C21.9226 9.18784 27.2859 7.20482 32.8703 6.90865C38.4548 6.61247 43.9977 8.01705 48.7672 10.9369C53.5366 13.8568 57.3083 18.1546 59.5842 23.2629C61.8601 28.3711 62.533 34.0495 61.5142 39.5482C60.4954 45.0469 57.8328 50.1073 53.878 54.0611Z" fill="#14ACB7"/>
<path d="M60.3538 34.5091C60.355 38.4499 59.4601 42.3394 57.7367 45.8835C56.0134 49.4275 53.5067 52.5333 50.4063 54.9659L50.2348 55.102C50.1697 55.1434 50.1165 55.1966 50.0574 55.2321C49.5606 55.6165 49.0461 55.9713 48.5197 56.3143C48.4073 56.3971 48.2891 56.4681 48.1708 56.5391C44.0638 59.112 39.32 60.4868 34.4737 60.5088C29.6274 60.5307 24.8713 59.1989 20.7412 56.6633L20.4041 56.4445C19.7022 56 19.0232 55.5203 18.3696 55.0073L18.1922 54.8713C18.1397 54.8228 18.0844 54.7774 18.0266 54.7353C14.5969 51.9778 11.9225 48.3955 10.2536 44.3234C8.58467 40.2513 7.97576 35.8225 8.4838 31.4511C8.99184 27.0797 10.6002 22.9086 13.1585 19.3278C15.7169 15.747 19.1415 12.8735 23.1123 10.976C27.083 9.07859 31.4701 8.21918 35.8633 8.47818C40.2565 8.73719 44.5122 10.1061 48.2325 12.457C51.9528 14.8079 55.0161 18.0638 57.136 21.9204C59.2558 25.777 60.3629 30.1083 60.3538 34.5091Z" fill="#14ACB7"/>
<path d="M36.804 25.1352C35.8982 24.0661 35.4015 22.7101 35.4023 21.3088V13.9339H35.8163V21.3088C35.8189 22.6089 36.282 23.8661 37.1233 24.8573L36.804 25.1352Z" fill="white"/>
<path d="M46.6392 19.4518C46.5718 18.7227 46.2364 18.0445 45.6978 17.5485C45.1592 17.0525 44.4557 16.774 43.7235 16.7668H41.8901V16.3469H43.7235C44.5614 16.3496 45.368 16.6653 45.9852 17.232C46.6023 17.7988 46.9853 18.5758 47.0591 19.4104L46.6392 19.4518Z" fill="white"/>
<path d="M46.1482 35.7806L46.095 35.3607C46.9706 35.2565 47.7775 34.8347 48.3628 34.1752C48.9481 33.5157 49.2712 32.6645 49.2708 31.7827V26.8208H49.6848V31.759C49.692 32.7467 49.3355 33.7025 48.6833 34.4441C48.031 35.1858 47.1287 35.6615 46.1482 35.7806Z" fill="white"/>
<path d="M36.3545 42.1501H32.3565C31.8557 42.1527 31.356 42.1011 30.8662 41.9963C28.5411 41.4748 26.484 40.1279 25.0763 38.2054L23.7693 36.4311L24.1064 36.1827L25.4134 37.957C26.7589 39.7996 28.7284 41.0902 30.9549 41.5882C31.4156 41.6861 31.8856 41.7337 32.3565 41.7302H36.3545C36.8235 41.7338 37.2915 41.6862 37.7502 41.5882C39.9774 41.0917 41.9474 39.8008 43.2917 37.957L44.6046 36.1827L44.9417 36.4311L43.6288 38.2054C42.2233 40.1275 40.1682 41.4745 37.8448 41.9963C37.355 42.1011 36.8554 42.1527 36.3545 42.1501Z" fill="white"/>
<path d="M49.6849 25.1411H49.271V22.8938C49.2756 22.3909 49.1199 21.8996 48.8264 21.4912C48.5328 21.0829 48.1168 20.7786 47.6387 20.6228L47.7688 20.2265C48.3276 20.4139 48.8133 20.7723 49.1572 21.251C49.5011 21.7297 49.6857 22.3044 49.6849 22.8938V25.1411Z" fill="white"/>
<path d="M40.7309 15.7673C40.5534 15.0605 40.1453 14.4332 39.5711 13.9844C38.997 13.5356 38.2897 13.291 37.561 13.2893H36.4314V12.8753H37.561C38.0457 12.874 38.5259 12.9691 38.9736 13.1548C39.4213 13.3406 39.8277 13.6135 40.1691 13.9576C40.64 14.4299 40.975 15.0203 41.139 15.6667L40.7309 15.7673Z" fill="white"/>
<path d="M49.4839 30.2451H45.8645V30.665H49.4839V30.2451Z" fill="white"/>
<path d="M44.3978 25.1293L44.3091 24.7212C44.977 24.5849 45.5773 24.222 46.0084 23.6939C46.4395 23.1658 46.6749 22.505 46.6747 21.8233V21.1373H47.0887V21.8233C47.0864 22.5991 46.8179 23.3507 46.3281 23.9524C45.8384 24.5541 45.157 24.9695 44.3978 25.1293Z" fill="white"/>
<path d="M39.9739 29.1864L39.5717 29.074L39.7847 28.3111C40.2052 26.7788 40.2276 25.1645 39.8497 23.6212L39.5481 22.3852L39.9562 22.2905L40.2578 23.5207C40.6544 25.134 40.63 26.8222 40.1868 28.4234L39.9739 29.1864Z" fill="white"/>
<path d="M33.1312 12.0355C32.9202 12.0344 32.7135 12.096 32.5376 12.2125C32.3616 12.329 32.2243 12.4952 32.143 12.69C32.0617 12.8847 32.0401 13.0992 32.081 13.3063C32.1218 13.5133 32.2234 13.7036 32.3726 13.8528C32.5218 14.002 32.712 14.1035 32.9191 14.1444C33.1261 14.1853 33.3407 14.1637 33.5354 14.0824C33.7302 14.0011 33.8964 13.8638 34.0129 13.6878C34.1294 13.5118 34.191 13.3052 34.1899 13.0942C34.1899 12.9551 34.1625 12.8175 34.1093 12.6891C34.0561 12.5606 33.9781 12.4439 33.8798 12.3456C33.7815 12.2473 33.6648 12.1693 33.5363 12.1161C33.4079 12.0629 33.2702 12.0355 33.1312 12.0355Z" fill="white"/>
<path d="M27.6727 17.6185C27.8818 17.6173 28.0859 17.5542 28.2592 17.4372C28.4325 17.3202 28.5673 17.1544 28.6465 16.9609C28.7257 16.7673 28.7459 16.5547 28.7043 16.3497C28.6628 16.1448 28.5615 15.9567 28.4133 15.8092C28.265 15.6618 28.0763 15.5615 27.8711 15.5212C27.666 15.4808 27.4534 15.5021 27.2603 15.5824C27.0672 15.6627 26.9022 15.7984 26.7862 15.9723C26.6701 16.1463 26.6082 16.3507 26.6082 16.5599C26.6082 16.6994 26.6357 16.8375 26.6893 16.9663C26.7429 17.0952 26.8214 17.2121 26.9203 17.3105C27.0192 17.4089 27.1366 17.4867 27.2658 17.5396C27.3949 17.5924 27.5332 17.6193 27.6727 17.6185Z" fill="white"/>
<path d="M19.2333 24.9282C19.0225 24.927 18.8161 24.9885 18.6403 25.1047C18.4644 25.221 18.3271 25.3868 18.2456 25.5813C18.1641 25.7757 18.1422 25.9899 18.1826 26.1968C18.223 26.4037 18.3239 26.5939 18.4725 26.7434C18.6212 26.8928 18.8109 26.9948 19.0175 27.0364C19.2242 27.0779 19.4385 27.0572 19.6334 26.9768C19.8282 26.8964 19.9949 26.76 20.1121 26.5848C20.2293 26.4096 20.2919 26.2036 20.2919 25.9928C20.2919 25.7114 20.1806 25.4416 19.9822 25.2421C19.7839 25.0426 19.5146 24.9298 19.2333 24.9282Z" fill="white"/>
<path d="M22.9059 20.2798C22.9059 20.069 22.8433 19.8629 22.7261 19.6877C22.6089 19.5125 22.4423 19.3761 22.2474 19.2957C22.0525 19.2153 21.8382 19.1946 21.6315 19.2361C21.4249 19.2777 21.2352 19.3797 21.0866 19.5291C20.9379 19.6786 20.837 19.8688 20.7966 20.0757C20.7562 20.2826 20.7781 20.4968 20.8596 20.6912C20.9411 20.8857 21.0784 21.0515 21.2543 21.1678C21.4301 21.284 21.6365 21.3455 21.8473 21.3443C22.1286 21.3427 22.3979 21.2299 22.5962 21.0304C22.7946 20.8309 22.9059 20.5611 22.9059 20.2798Z" fill="white"/>
<path d="M23.6983 29.3993C23.4889 29.3993 23.2842 29.4614 23.1101 29.5777C22.936 29.694 22.8004 29.8594 22.7202 30.0528C22.6401 30.2462 22.6191 30.4591 22.66 30.6644C22.7008 30.8698 22.8017 31.0584 22.9497 31.2065C23.0978 31.3545 23.2864 31.4554 23.4917 31.4962C23.6971 31.5371 23.91 31.5161 24.1034 31.436C24.2968 31.3558 24.4622 31.2202 24.5785 31.0461C24.6948 30.872 24.7569 30.6673 24.7569 30.4579C24.7569 30.1772 24.6454 29.9079 24.4468 29.7094C24.2483 29.5108 23.979 29.3993 23.6983 29.3993Z" fill="white"/>
<path d="M23.438 34.5446C23.2699 34.54 23.1031 34.5756 22.9515 34.6483C22.7998 34.721 22.6677 34.8288 22.566 34.9627C22.4643 35.0967 22.396 35.2529 22.3667 35.4185C22.3375 35.5841 22.3481 35.7543 22.3977 35.915C22.4473 36.0757 22.5344 36.2223 22.6519 36.3426C22.7695 36.4629 22.9139 36.5534 23.0734 36.6068C23.2329 36.6601 23.4028 36.6747 23.5691 36.6493C23.7353 36.6239 23.8931 36.5593 24.0294 36.4607C24.1647 36.361 24.2748 36.2309 24.3508 36.081C24.4268 35.9311 24.4666 35.7654 24.467 35.5973C24.4656 35.3226 24.3575 35.0592 24.1654 34.8628C23.9734 34.6664 23.7126 34.5523 23.438 34.5446Z" fill="white"/>
<path d="M28.0984 29.9612C28.0972 30.1722 28.1588 30.3789 28.2753 30.5548C28.3919 30.7308 28.5581 30.8681 28.7528 30.9494C28.9476 31.0308 29.1621 31.0523 29.3692 31.0114C29.5762 30.9706 29.7664 30.8691 29.9157 30.7198C30.0649 30.5706 30.1664 30.3804 30.2073 30.1733C30.2482 29.9663 30.2266 29.7517 30.1453 29.557C30.064 29.3622 29.9266 29.196 29.7507 29.0795C29.5747 28.963 29.3681 28.9014 29.157 28.9025C28.8763 28.9025 28.607 29.0141 28.4085 29.2126C28.2099 29.4111 28.0984 29.6804 28.0984 29.9612Z" fill="white"/>
<path d="M28.0984 21.4981C28.0972 21.7091 28.1588 21.9158 28.2753 22.0917C28.3919 22.2677 28.5581 22.4051 28.7528 22.4864C28.9476 22.5677 29.1621 22.5893 29.3692 22.5484C29.5762 22.5075 29.7664 22.406 29.9157 22.2567C30.0649 22.1075 30.1664 21.9173 30.2073 21.7102C30.2482 21.5032 30.2266 21.2886 30.1453 21.0939C30.064 20.8991 29.9266 20.7329 29.7507 20.6164C29.5747 20.4999 29.3681 20.4383 29.157 20.4395C28.8763 20.4395 28.607 20.551 28.4085 20.7495C28.2099 20.9481 28.0984 21.2173 28.0984 21.4981Z" fill="white"/>
<path d="M31.3038 36.5672C31.2161 36.5378 31.1241 36.5238 31.0317 36.5258C30.7913 36.5275 30.5584 36.6101 30.3707 36.7603C30.1829 36.9105 30.0512 37.1196 29.9967 37.3538C29.5846 37.3043 29.1923 37.1486 28.8585 36.9018C28.5246 36.655 28.2606 36.3257 28.0924 35.9462C28.3277 35.8387 28.5148 35.648 28.6177 35.4107C28.7207 35.1734 28.7321 34.9064 28.6499 34.6612C28.5676 34.416 28.3975 34.2099 28.1723 34.0827C27.9471 33.9555 27.6828 33.9161 27.4303 33.9722C27.1778 34.0283 26.9551 34.1759 26.8049 34.3865C26.6548 34.5972 26.588 34.8559 26.6174 35.1129C26.6467 35.3699 26.7702 35.6069 26.9639 35.7782C27.1576 35.9496 27.408 36.0431 27.6666 36.0408C27.8576 36.5112 28.1734 36.9206 28.5798 37.2249C28.9862 37.5292 29.4679 37.7169 29.9731 37.7678C30.0162 38.0143 30.1447 38.2377 30.3361 38.3988C30.5276 38.56 30.7697 38.6485 31.0199 38.649C31.2224 38.6486 31.4205 38.5898 31.5904 38.4796C31.7603 38.3695 31.8949 38.2127 31.978 38.028C32.0451 37.8898 32.0795 37.738 32.0785 37.5844C32.0799 37.3531 32.0047 37.1278 31.8645 36.9438C31.7243 36.7597 31.5271 36.6273 31.3038 36.5672Z" fill="white"/>
<path d="M31.1737 24.538C30.9627 24.5368 30.756 24.5984 30.5801 24.7149C30.4041 24.8314 30.2667 24.9976 30.1854 25.1924C30.1041 25.3872 30.0826 25.6017 30.1234 25.8087C30.1643 26.0158 30.2658 26.206 30.4151 26.3552C30.5643 26.5045 30.7545 26.606 30.9616 26.6469C31.1686 26.6877 31.3832 26.6662 31.5779 26.5849C31.7727 26.5036 31.9389 26.3662 32.0554 26.1902C32.1719 26.0143 32.2335 25.8076 32.2323 25.5966C32.2308 25.3163 32.1187 25.0479 31.9205 24.8497C31.7224 24.6516 31.454 24.5395 31.1737 24.538Z" fill="white"/>
<path d="M25.2005 23.9406C24.9911 23.9406 24.7864 24.0027 24.6123 24.119C24.4382 24.2353 24.3026 24.4006 24.2224 24.5941C24.1423 24.7875 24.1213 25.0004 24.1622 25.2057C24.203 25.4111 24.3039 25.5997 24.4519 25.7478C24.6 25.8958 24.7886 25.9966 24.9939 26.0375C25.1993 26.0783 25.4121 26.0574 25.6056 25.9772C25.799 25.8971 25.9644 25.7614 26.0807 25.5873C26.197 25.4132 26.2591 25.2086 26.2591 24.9992C26.2591 24.7184 26.1476 24.4492 25.949 24.2506C25.7505 24.0521 25.4812 23.9406 25.2005 23.9406Z" fill="white"/>
<path d="M35.5797 12.0355C35.3687 12.0344 35.162 12.096 34.9861 12.2125C34.8101 12.329 34.6727 12.4952 34.5914 12.69C34.5101 12.8847 34.4886 13.0992 34.5294 13.3063C34.5703 13.5133 34.6718 13.7036 34.8211 13.8528C34.9703 14.002 35.1605 14.1035 35.3676 14.1444C35.5746 14.1853 35.7892 14.1637 35.9839 14.0824C36.1787 14.0011 36.3449 13.8638 36.4614 13.6878C36.5779 13.5118 36.6395 13.3052 36.6383 13.0942C36.6368 12.8139 36.5248 12.5455 36.3266 12.3473C36.1284 12.1491 35.86 12.0371 35.5797 12.0355Z" fill="white"/>
<path d="M41.0386 17.6184C41.248 17.6184 41.4527 17.5563 41.6267 17.44C41.8008 17.3237 41.9365 17.1583 42.0167 16.9649C42.0968 16.7715 42.1177 16.5586 42.0769 16.3532C42.036 16.1479 41.9352 15.9593 41.7872 15.8112C41.6391 15.6632 41.4505 15.5624 41.2451 15.5215C41.0398 15.4807 40.8269 15.5016 40.6335 15.5817C40.44 15.6619 40.2747 15.7975 40.1584 15.9716C40.0421 16.1457 39.98 16.3504 39.98 16.5598C39.98 16.6988 40.0074 16.8365 40.0606 16.9649C40.1138 17.0933 40.1917 17.21 40.29 17.3083C40.3883 17.4066 40.505 17.4846 40.6335 17.5378C40.7619 17.591 40.8996 17.6184 41.0386 17.6184Z" fill="white"/>
<path d="M49.4779 24.9282C49.2671 24.927 49.0607 24.9885 48.8849 25.1047C48.7091 25.221 48.5717 25.3868 48.4902 25.5813C48.4087 25.7757 48.3868 25.9899 48.4272 26.1968C48.4676 26.4037 48.5685 26.5939 48.7172 26.7434C48.8658 26.8928 49.0555 26.9948 49.2621 27.0364C49.4688 27.0779 49.6831 27.0572 49.878 26.9768C50.0729 26.8964 50.2395 26.76 50.3567 26.5848C50.474 26.4096 50.5365 26.2036 50.5365 25.9928C50.5365 25.7114 50.4252 25.4416 50.2268 25.2421C50.0285 25.0426 49.7592 24.9298 49.4779 24.9282Z" fill="white"/>
<path d="M46.858 19.2211C46.647 19.2199 46.4404 19.2815 46.2644 19.398C46.0884 19.5146 45.9511 19.6807 45.8698 19.8755C45.7885 20.0703 45.7669 20.2848 45.8078 20.4918C45.8487 20.6989 45.9502 20.8891 46.0994 21.0384C46.2486 21.1876 46.4388 21.2891 46.6459 21.33C46.8529 21.3709 47.0675 21.3493 47.2622 21.268C47.457 21.1867 47.6232 21.0493 47.7397 20.8733C47.8562 20.6974 47.9178 20.4908 47.9166 20.2797C47.9166 19.9989 47.8051 19.7297 47.6066 19.5312C47.4081 19.3326 47.1388 19.2211 46.858 19.2211Z" fill="white"/>
<path d="M45.0069 31.5165C45.2162 31.5165 45.4209 31.4544 45.595 31.3381C45.7691 31.2218 45.9048 31.0565 45.9849 30.863C46.065 30.6696 46.086 30.4567 46.0451 30.2514C46.0043 30.046 45.9035 29.8574 45.7554 29.7094C45.6074 29.5613 45.4187 29.4605 45.2134 29.4196C45.008 29.3788 44.7952 29.3997 44.6017 29.4799C44.4083 29.56 44.243 29.6957 44.1267 29.8698C44.0103 30.0439 43.9482 30.2485 43.9482 30.4579C43.9498 30.7382 44.0618 31.0066 44.26 31.2047C44.4582 31.4029 44.7266 31.515 45.0069 31.5165Z" fill="white"/>
<path d="M45.2731 34.5445C45.134 34.5438 44.9962 34.5704 44.8675 34.6229C44.7387 34.6753 44.6216 34.7527 44.5228 34.8504C44.4239 34.9482 44.3453 35.0644 44.2914 35.1926C44.2374 35.3207 44.2093 35.4582 44.2085 35.5973C44.2077 35.7373 44.2347 35.876 44.2879 36.0056C44.3412 36.1351 44.4195 36.2527 44.5186 36.3517C44.6176 36.4508 44.7352 36.5291 44.8647 36.5823C44.9943 36.6356 45.133 36.6626 45.2731 36.6618C45.5538 36.6618 45.8231 36.5503 46.0216 36.3517C46.2201 36.1532 46.3317 35.8839 46.3317 35.6032C46.3317 35.3224 46.2201 35.0531 46.0216 34.8546C45.8231 34.6561 45.5538 34.5445 45.2731 34.5445Z" fill="white"/>
<path d="M39.5481 28.9025C39.3387 28.9025 39.1341 28.9646 38.96 29.0809C38.7859 29.1973 38.6502 29.3626 38.5701 29.556C38.49 29.7495 38.469 29.9623 38.5098 30.1677C38.5507 30.373 38.6515 30.5617 38.7996 30.7097C38.9476 30.8578 39.1362 30.9586 39.3416 30.9994C39.5469 31.0403 39.7598 31.0193 39.9532 30.9392C40.1467 30.8591 40.312 30.7234 40.4283 30.5493C40.5447 30.3752 40.6067 30.1705 40.6067 29.9612C40.6067 29.6804 40.4952 29.4111 40.2967 29.2126C40.0982 29.0141 39.8289 28.9025 39.5481 28.9025Z" fill="white"/>
<path d="M39.5481 22.5803C39.7575 22.5803 39.9622 22.5183 40.1363 22.4019C40.3104 22.2856 40.446 22.1203 40.5262 21.9268C40.6063 21.7334 40.6272 21.5206 40.5864 21.3152C40.5456 21.1099 40.4447 20.9212 40.2967 20.7732C40.1486 20.6251 39.96 20.5243 39.7546 20.4834C39.5493 20.4426 39.3364 20.4636 39.143 20.5437C38.9496 20.6238 38.7842 20.7595 38.6679 20.9336C38.5516 21.1077 38.4895 21.3124 38.4895 21.5217C38.4895 21.8025 38.601 22.0718 38.7996 22.2703C38.9981 22.4688 39.2674 22.5803 39.5481 22.5803Z" fill="white"/>
<path d="M41.0385 33.9177C40.7953 33.9173 40.5593 34.0007 40.3703 34.1539C40.1813 34.3071 40.0509 34.5207 40.0009 34.7588C39.9509 34.9969 39.9845 35.2449 40.0959 35.4612C40.2073 35.6775 40.3898 35.8487 40.6127 35.9462C40.4462 36.3264 40.1825 36.656 39.8482 36.902C39.514 37.1481 39.1209 37.3018 38.7084 37.3478C38.6549 37.1147 38.5241 36.9066 38.3373 36.7573C38.1504 36.608 37.9185 36.5264 37.6793 36.5258C37.5874 36.5248 37.4958 36.5367 37.4073 36.5613C37.1822 36.6222 36.9834 36.7552 36.8413 36.9401C36.6992 37.1249 36.6217 37.3513 36.6207 37.5844C36.6185 37.7356 36.6509 37.8853 36.7153 38.0221C36.7979 38.2088 36.933 38.3675 37.1042 38.4788C37.2753 38.5901 37.4752 38.6492 37.6793 38.649C37.9285 38.6471 38.1692 38.558 38.3594 38.3969C38.5496 38.2359 38.6773 38.0133 38.7202 37.7678C39.2254 37.7169 39.7071 37.5292 40.1135 37.2249C40.5199 36.9206 40.8356 36.5112 41.0267 36.0408C41.1694 36.0473 41.3119 36.0246 41.4455 35.9742C41.5791 35.9238 41.7011 35.8467 41.804 35.7477C41.9069 35.6487 41.9886 35.5297 42.0441 35.3981C42.0996 35.2665 42.1277 35.125 42.1267 34.9822C42.1276 34.8402 42.0998 34.6994 42.0451 34.5683C41.9905 34.4372 41.9099 34.3185 41.8084 34.2191C41.7069 34.1198 41.5864 34.0419 41.4541 33.9901C41.3219 33.9384 41.1805 33.9137 41.0385 33.9177Z" fill="white"/>
<path d="M37.5374 26.6611C37.7482 26.6623 37.9546 26.6008 38.1304 26.4846C38.3063 26.3683 38.4436 26.2024 38.5251 26.008C38.6066 25.8136 38.6285 25.5994 38.5881 25.3925C38.5477 25.1856 38.4468 24.9954 38.2981 24.8459C38.1495 24.6964 37.9598 24.5945 37.7532 24.5529C37.5465 24.5113 37.3322 24.5321 37.1373 24.6125C36.9424 24.6929 36.7758 24.8293 36.6586 25.0045C36.5413 25.1797 36.4788 25.3857 36.4788 25.5965C36.4788 25.8778 36.5901 26.1477 36.7885 26.3472C36.9868 26.5467 37.2561 26.6595 37.5374 26.6611Z" fill="white"/>
<path d="M44.5633 24.9992C44.5633 24.7898 44.5012 24.5852 44.3849 24.4111C44.2686 24.237 44.1032 24.1013 43.9098 24.0212C43.7163 23.941 43.5035 23.9201 43.2981 23.9609C43.0928 24.0018 42.9042 24.1026 42.7561 24.2506C42.6081 24.3987 42.5072 24.5873 42.4664 24.7927C42.4255 24.998 42.4465 25.2109 42.5266 25.4043C42.6067 25.5978 42.7424 25.7631 42.9165 25.8794C43.0906 25.9957 43.2953 26.0578 43.5047 26.0578C43.7854 26.0578 44.0547 25.9463 44.2532 25.7478C44.4518 25.5492 44.5633 25.28 44.5633 24.9992Z" fill="white"/>
<path d="M37.3125 51.2933L37.1292 50.9089C35.9676 48.4238 35.3622 45.7153 35.355 42.9722V37.7264H37.005C37.0879 37.7238 37.1684 37.6981 37.2374 37.6521C37.3064 37.6061 37.3611 37.5417 37.3953 37.4662C37.4335 37.3917 37.4503 37.3081 37.4441 37.2246C37.4378 37.1412 37.4087 37.061 37.3598 36.993L36.7684 36.1592L36.5969 35.9403L36.4313 35.757L36.2835 35.5973C36.2125 35.5263 36.1356 35.4495 36.0528 35.3785C35.97 35.3075 35.7216 35.0946 35.5501 34.9586L35.4732 34.8935C35.1586 34.6305 34.9146 34.2931 34.7636 33.9118C34.6332 33.6072 34.5667 33.2791 34.5684 32.9478V30.2214C34.5684 28.7843 35.5797 27.3176 36.6738 25.9514L36.9991 26.2116C35.9582 27.5187 34.9883 28.9144 34.9883 30.2214V32.9478C34.9896 33.2589 35.0585 33.566 35.1902 33.8479C35.322 34.1297 35.5134 34.3795 35.7512 34.5801L35.7867 34.6156C35.9878 34.7752 36.1593 34.9113 36.3308 35.065C36.5023 35.2188 36.5023 35.2247 36.5851 35.3075L36.7389 35.4731C36.7921 35.5263 36.8394 35.5855 36.8926 35.6446L37.1055 35.9108L37.6969 36.7446C37.7922 36.8744 37.8496 37.028 37.8627 37.1885C37.8758 37.3489 37.8441 37.5098 37.7711 37.6533C37.6981 37.7967 37.5868 37.9171 37.4494 38.001C37.3121 38.085 37.1541 38.1291 36.9932 38.1285H35.763V42.9544C35.7676 45.635 36.3548 48.2826 37.484 50.7137L37.6674 51.0981L37.3125 51.2933Z" fill="white"/>
<path d="M31.422 51.2341H31.0022V51.1868L31.2032 50.761C32.327 48.328 32.9139 45.6817 32.9242 43.0017V38.1758H31.6941C31.5794 38.1758 31.4659 38.1531 31.36 38.1091C31.2542 38.065 31.1581 38.0005 31.0773 37.9191C30.9965 37.8378 30.9325 37.7412 30.8892 37.635C30.8459 37.5289 30.8239 37.4152 30.8247 37.3005C30.8263 37.118 30.8841 36.9404 30.9903 36.7919L31.5817 35.9639C31.604 35.928 31.6298 35.8943 31.6586 35.8634C31.7969 35.6804 31.9492 35.5084 32.114 35.3489C32.1968 35.2602 32.2914 35.1715 32.386 35.0887L32.6699 34.8462L32.7882 34.7516L32.8887 34.6747C33.1421 34.4742 33.3466 34.2189 33.4869 33.928C33.6273 33.6371 33.6998 33.3181 33.699 32.9951V30.2687C33.699 28.9617 32.735 27.5659 31.6882 26.2589L32.0135 25.9987C33.1076 27.3648 34.1189 28.8315 34.1189 30.2687V32.9951C34.1197 33.3472 34.0472 33.6956 33.906 34.0182C33.7343 34.4053 33.4703 34.7444 33.1371 35.0059L33.0484 35.0768L32.9301 35.1715L32.664 35.4021L32.4097 35.6387C32.2512 35.7948 32.1049 35.9629 31.9721 36.1414L31.9247 36.2005L31.3333 37.0403C31.2754 37.1146 31.2442 37.2063 31.2446 37.3005C31.2438 37.3601 31.2549 37.4191 31.2771 37.4744C31.2994 37.5296 31.3323 37.5798 31.3742 37.6222C31.416 37.6646 31.4658 37.6982 31.5207 37.7212C31.5756 37.7441 31.6346 37.7559 31.6941 37.7559H33.3441V43.0017C33.3349 45.7446 32.7295 48.4527 31.5699 50.9384L31.422 51.2341Z" fill="white"/>
<path d="M31.9309 25.1352L31.6174 24.8632C32.4571 23.8715 32.9181 22.6142 32.9185 21.3147V13.9339H33.3384V21.3088C33.3376 22.7108 32.8388 24.0669 31.9309 25.1352Z" fill="white"/>
<path d="M22.0661 19.4518L21.6521 19.4163C21.7244 18.5832 22.1053 17.8071 22.7202 17.2404C23.3351 16.6736 24.1396 16.3571 24.9758 16.3528H26.8092V16.7668H24.9758C24.2447 16.7754 23.5426 17.0546 23.0053 17.5505C22.4679 18.0463 22.1333 18.7237 22.0661 19.4518Z" fill="white"/>
<path d="M22.5629 35.7806C21.5843 35.6647 20.6824 35.1935 20.0283 34.4566C19.3741 33.7196 19.0134 32.7681 19.0144 31.7827V26.8208H19.4343V31.759C19.4325 32.6403 19.7543 33.4915 20.3386 34.1511C20.923 34.8107 21.7292 35.2327 22.6043 35.3371L22.5629 35.7806Z" fill="white"/>
<path d="M19.4402 25.1411H19.0203V22.8938C19.0195 22.3044 19.2041 21.7297 19.548 21.251C19.8919 20.7723 20.3776 20.4139 20.9364 20.2265L21.0725 20.6228C20.5943 20.7786 20.1783 21.0829 19.8848 21.4912C19.5913 21.8996 19.4355 22.3909 19.4402 22.8938V25.1411Z" fill="white"/>
<path d="M27.9742 15.7673L27.572 15.6668C27.7719 14.8748 28.2286 14.1714 28.8705 13.6664C29.5125 13.1613 30.3037 12.8832 31.1205 12.8754H32.256V13.2893H31.1205C30.6912 13.288 30.2659 13.3726 29.8698 13.5382C29.4736 13.7037 29.1147 13.9469 28.814 14.2533C28.4031 14.6734 28.113 15.1964 27.9742 15.7673Z" fill="white"/>
<path d="M22.8526 30.2451H19.2332V30.665H22.8526V30.2451Z" fill="white"/>
<path d="M24.3134 25.1293C23.5563 24.9672 22.8777 24.5507 22.3902 23.9492C21.9028 23.3478 21.636 22.5975 21.6343 21.8233V21.1373H22.0542V21.8233C22.054 22.505 22.2894 23.1658 22.7205 23.6939C23.1516 24.222 23.7519 24.5849 24.4198 24.7212L24.3134 25.1293Z" fill="white"/>
<path d="M28.7312 29.1864L28.5183 28.4234C28.0799 26.8213 28.0575 25.1339 28.4532 23.5207L28.7548 22.2905L29.157 22.3852L28.8554 23.6212C28.4774 25.1645 28.4998 26.7788 28.9204 28.3111L29.1333 29.074L28.7312 29.1864Z" fill="white"/>
<path d="M41.2336 34.1897L40.8374 34.0655L41.5766 31.7768C41.6339 31.5913 41.647 31.3949 41.6147 31.2035C41.5824 31.012 41.5056 30.8308 41.3906 30.6744C41.2756 30.5179 41.1255 30.3907 40.9524 30.3027C40.7793 30.2148 40.588 30.1687 40.3938 30.1681V29.7778C40.6534 29.7754 40.9098 29.8354 41.1413 29.9527C41.3729 30.07 41.5729 30.2413 41.7245 30.452C41.8787 30.6619 41.9811 30.9052 42.0232 31.1622C42.0653 31.4192 42.0461 31.6825 41.9669 31.9306L41.2336 34.1897Z" fill="white"/>
<path d="M43.7176 24.1476H43.3095C43.3095 23.5076 43.0553 22.8938 42.6028 22.4413C42.1503 21.9888 41.5365 21.7346 40.8966 21.7346H40.4116V21.3147H40.8966C41.6454 21.3194 42.362 21.6197 42.8903 22.1503C43.4187 22.6809 43.7161 23.3988 43.7176 24.1476Z" fill="white"/>
<path d="M39.3471 20.7352L38.6256 18.5056C38.5453 18.2589 38.5246 17.9969 38.565 17.7407C38.6054 17.4845 38.7059 17.2416 38.8581 17.0316C39.0104 16.8217 39.2101 16.6508 39.4411 16.5328C39.672 16.4148 39.9276 16.3532 40.1869 16.3528V16.7668C39.9921 16.7638 39.7994 16.8074 39.6249 16.8939C39.4503 16.9803 39.2989 17.1072 39.1832 17.2639C39.0676 17.4207 38.991 17.6028 38.9598 17.795C38.9286 17.9873 38.9438 18.1843 39.0041 18.3695L39.7611 20.611L39.3471 20.7352Z" fill="white"/>
<path d="M41.8901 35.1892V34.7752C42.264 34.7737 42.622 34.624 42.8858 34.3591C43.1496 34.0942 43.2977 33.7356 43.2977 33.3617V25.8508H43.7176V33.3617C43.7176 33.8464 43.5251 34.3112 43.1823 34.6539C42.8396 34.9967 42.3748 35.1892 41.8901 35.1892Z" fill="white"/>
<path d="M25.4016 24.1476H24.9758C24.9758 23.3962 25.2743 22.6757 25.8056 22.1444C26.3368 21.6132 27.0574 21.3147 27.8087 21.3147H28.2936V21.7346H27.8087C27.1702 21.7377 26.5589 21.9931 26.108 22.4451C25.6571 22.8972 25.4032 23.5091 25.4016 24.1476Z" fill="white"/>
<path d="M29.3521 20.7352L28.9559 20.611L29.6833 18.3695C29.7424 18.1846 29.7567 17.9883 29.725 17.7968C29.6933 17.6053 29.6165 17.4241 29.5009 17.2681C29.3854 17.1122 29.2344 16.9859 29.0605 16.8998C28.8865 16.8136 28.6946 16.7701 28.5005 16.7727V16.3528C28.7588 16.3521 29.0136 16.4128 29.244 16.5297C29.4743 16.6467 29.6736 16.8167 29.8254 17.0257C29.9773 17.2347 30.0773 17.4768 30.1174 17.732C30.1575 17.9872 30.1364 18.2483 30.0559 18.4937L29.3521 20.7352Z" fill="white"/>
<path d="M26.8209 35.1892C26.5804 35.19 26.3422 35.1433 26.1198 35.0518C25.8974 34.9603 25.6952 34.8258 25.5249 34.656C25.3546 34.4863 25.2194 34.2846 25.1272 34.0625C25.035 33.8403 24.9875 33.6022 24.9875 33.3617V25.8508H25.4015V33.3617C25.4015 33.7366 25.5505 34.0961 25.8155 34.3612C26.0806 34.6263 26.4401 34.7752 26.815 34.7752L26.8209 35.1892Z" fill="white"/>
<path d="M37.6792 39.7608H37.4722V31.8359C37.4721 31.4452 37.5833 31.0624 37.7928 30.7325C38.0022 30.4026 38.3013 30.1392 38.655 29.973C38.9384 29.8271 39.2529 29.7521 39.5717 29.7542V30.1682C39.3166 30.1679 39.0651 30.2287 38.8383 30.3456C38.5592 30.4811 38.3243 30.6931 38.1609 30.957C37.9976 31.2208 37.9126 31.5256 37.9157 31.8359V39.335C38.7164 39.2853 39.4681 38.9322 40.0175 38.3476C40.567 37.763 40.8728 36.991 40.8728 36.1887V35.0059H41.2868V36.1887C41.29 36.6617 41.1986 37.1306 41.018 37.5677C40.8374 38.0049 40.5712 38.4015 40.2351 38.7344C39.899 39.0672 39.4997 39.3294 39.0608 39.5057C38.6218 39.682 38.1521 39.7687 37.6792 39.7608Z" fill="white"/>
<path d="M31.2388 39.7608H31.0319C30.0907 39.7608 29.1882 39.387 28.5227 38.7215C27.8572 38.056 27.4834 37.1535 27.4834 36.2124V35.0295H27.9033V36.2124C27.9033 37.0146 28.2091 37.7867 28.7585 38.3713C29.308 38.9559 30.0596 39.309 30.8603 39.3587V31.83C30.8572 31.3902 30.6812 30.9693 30.3702 30.6583C30.0592 30.3473 29.6383 30.1713 29.1985 30.1682V29.7778C29.519 29.7764 29.8353 29.8514 30.1211 29.9966C30.4752 30.1607 30.7748 30.4228 30.9845 30.7519C31.1941 31.0811 31.305 31.4634 31.3039 31.8537L31.2388 39.7608Z" fill="white"/>
<path d="M37.8803 50.8911C37.8629 50.794 37.818 50.7038 37.7509 50.6315C37.6838 50.5591 37.5973 50.5076 37.5017 50.4831C37.4546 50.4769 37.4069 50.4769 37.3598 50.4831C37.2618 50.4818 37.1661 50.5129 37.0878 50.5718C37.0115 50.6179 36.9485 50.683 36.905 50.7607C36.8614 50.8385 36.8388 50.9262 36.8394 51.0153C36.8409 51.1529 36.8962 51.2844 36.9935 51.3816C37.0908 51.4789 37.2223 51.5342 37.3598 51.5358C37.4463 51.5372 37.5317 51.5168 37.6082 51.4765C37.6847 51.4362 37.7498 51.3772 37.7974 51.3051C37.8249 51.2649 37.8468 51.2211 37.8625 51.175V51.1158V51.039C37.8755 50.9908 37.8815 50.941 37.8803 50.8911ZM37.3598 51.1158C37.3308 51.1095 37.3048 51.0935 37.2861 51.0704C37.2675 51.0472 37.2573 51.0184 37.2573 50.9887C37.2573 50.959 37.2675 50.9302 37.2861 50.907C37.3048 50.8839 37.3308 50.8678 37.3598 50.8615C37.3788 50.8574 37.3985 50.8576 37.4174 50.8621C37.4363 50.8666 37.4539 50.8752 37.4691 50.8874C37.4842 50.8996 37.4964 50.915 37.5048 50.9326C37.5131 50.9501 37.5175 50.9693 37.5175 50.9887C37.5175 51.0081 37.5131 51.0273 37.5048 51.0448C37.4964 51.0624 37.4842 51.0778 37.4691 51.09C37.4539 51.1022 37.4363 51.1108 37.4174 51.1153C37.3985 51.1198 37.3788 51.12 37.3598 51.1158Z" fill="white"/>
<path d="M31.6174 50.5482C31.5368 50.4893 31.4392 50.4582 31.3394 50.4595C31.2942 50.4538 31.2485 50.4538 31.2034 50.4595C31.1222 50.4806 31.0474 50.5213 30.9856 50.578C30.9237 50.6347 30.8767 50.7057 30.8485 50.7847C30.8296 50.844 30.8197 50.9058 30.819 50.9681C30.8162 50.9797 30.8162 50.9919 30.819 51.0036V51.0804C30.8323 51.1066 30.8423 51.1345 30.8485 51.1632C30.9002 51.2694 30.9861 51.3551 31.0923 51.4065C31.1986 51.458 31.319 51.4723 31.4344 51.447C31.5497 51.4218 31.6532 51.3585 31.7282 51.2673C31.8032 51.1762 31.8454 51.0624 31.848 50.9444C31.8428 50.865 31.8193 50.7879 31.7793 50.7192C31.7392 50.6504 31.6838 50.5919 31.6174 50.5482ZM31.2152 50.9917C31.2152 50.9582 31.2281 50.926 31.2512 50.9017C31.2743 50.8775 31.3059 50.8631 31.3394 50.8616C31.3562 50.8616 31.3729 50.865 31.3883 50.8716C31.4038 50.8782 31.4178 50.8879 31.4294 50.9C31.441 50.9122 31.45 50.9266 31.4559 50.9424C31.4618 50.9581 31.4644 50.9749 31.4636 50.9917C31.4636 51.0247 31.4505 51.0562 31.4272 51.0795C31.4039 51.1028 31.3723 51.1159 31.3394 51.1159C31.3069 51.1145 31.2762 51.1009 31.2532 51.0779C31.2302 51.0549 31.2167 51.0242 31.2152 50.9917Z" fill="white"/>
<path d="M50.4064 54.966L50.3355 54.9246C46.5043 52.7692 42.2824 51.3981 37.9158 50.8912H37.8863C37.8233 50.8853 37.76 50.8853 37.697 50.8912V51.0686V51.2637H37.8271H37.8804C42.1586 51.7599 46.2957 53.1007 50.0516 55.2084L50.4064 54.966Z" fill="white"/>
<path d="M31.0199 50.7965V51.1987H30.8662C26.4839 51.6012 22.2298 52.8932 18.3638 54.9956L18.1863 54.8595C18.1338 54.811 18.0785 54.7656 18.0208 54.7235L18.0917 54.6821C22.0207 52.5389 26.3451 51.2189 30.8011 50.8024H30.8484L31.0199 50.7965Z" fill="white"/>
<path d="M12.5148 9.72308V9.75857L12.4675 9.84137C12.4333 9.9047 12.4189 9.97679 12.4261 10.0484C12.429 10.1202 12.4561 10.189 12.503 10.2435L13.7508 11.7339C13.9372 11.9609 14.0283 12.2513 14.0051 12.5441C13.9902 12.688 13.9502 12.8281 13.8869 12.9581C13.8166 13.0889 13.7223 13.2052 13.6089 13.3011L13.3664 13.5081C13.2512 13.6021 13.1186 13.6725 12.9761 13.7151C12.8385 13.7581 12.6935 13.7722 12.5503 13.7565C12.2584 13.7299 11.9887 13.5897 11.7992 13.3662L10.5513 11.8758C10.5049 11.8213 10.443 11.7821 10.3739 11.7635C10.3048 11.74 10.23 11.74 10.161 11.7635L10.0723 11.793V11.7635L10.9298 11.0478V11.0774L10.8825 11.1661C10.8484 11.2295 10.8339 11.3015 10.8411 11.3731C10.8485 11.445 10.8774 11.513 10.9239 11.5683L12.1659 13.0586C12.2398 13.1446 12.3231 13.2219 12.4142 13.2893C12.4968 13.348 12.5888 13.392 12.6863 13.4194C12.7885 13.4515 12.8975 13.4553 13.0016 13.4303C13.1058 13.4053 13.2012 13.3525 13.2777 13.2775L13.4788 13.1119C13.5689 13.0379 13.6416 12.945 13.6917 12.8398C13.7443 12.7411 13.7746 12.6321 13.7804 12.5205C13.8006 12.411 13.8006 12.2987 13.7804 12.1893C13.7465 12.0784 13.6901 11.9758 13.6148 11.8876L12.3728 10.3973C12.3264 10.3428 12.2645 10.3036 12.1954 10.2849C12.126 10.2642 12.052 10.2642 11.9825 10.2849L11.8938 10.3145V10.2849L12.5148 9.72308Z" fill="white"/>
<path d="M22.6515 5.79025C22.7639 5.79025 22.8821 5.83165 23.0004 5.84347C23.2257 5.87922 23.4332 5.98714 23.5918 6.15101C23.6906 6.26037 23.7652 6.38935 23.8107 6.52951C23.8518 6.64711 23.864 6.77288 23.8461 6.89618C23.8205 7.01834 23.7724 7.13466 23.7042 7.2392C23.6279 7.34833 23.5363 7.44593 23.4322 7.529C23.316 7.61336 23.1886 7.68105 23.0537 7.73007C22.9298 7.77473 22.8005 7.80258 22.6692 7.81287C22.4955 7.81921 22.3228 7.78264 22.1665 7.70641L22.1311 7.85426H22.0956L21.8708 7.26285H21.9063C21.9991 7.34692 22.1025 7.41849 22.2139 7.47576C22.3206 7.52589 22.4342 7.55979 22.551 7.57631C22.6931 7.59853 22.8387 7.58007 22.9709 7.52308C23.1336 7.4739 23.2726 7.36654 23.3612 7.22146C23.3999 7.14124 23.4201 7.05329 23.4201 6.9642C23.4201 6.8751 23.3999 6.78716 23.3612 6.70694C23.3362 6.64319 23.2979 6.58545 23.249 6.53754C23.2001 6.48963 23.1416 6.45264 23.0773 6.42897C22.9074 6.35469 22.7284 6.30299 22.545 6.2752L22.202 6.22198C22.095 6.20492 21.99 6.17719 21.8886 6.13918C21.79 6.10326 21.6981 6.0513 21.6165 5.98542C21.5316 5.90263 21.4669 5.80146 21.4273 5.68971C21.3822 5.57984 21.3641 5.46078 21.3744 5.34248C21.3847 5.22417 21.4231 5.11004 21.4864 5.00959C21.6253 4.79169 21.8337 4.62707 22.0778 4.54238C22.1872 4.50626 22.3003 4.48246 22.4149 4.47141C22.5329 4.45931 22.6518 4.45931 22.7698 4.47141V4.32947H22.8053L23.1128 4.92088H23.0714C22.9962 4.8567 22.9101 4.80662 22.8171 4.77302C22.5975 4.69251 22.3565 4.69251 22.137 4.77302C22.071 4.80074 22.0076 4.83439 21.9477 4.87356C21.8843 4.91276 21.8266 4.96053 21.7762 5.01551C21.7284 5.0708 21.6922 5.13516 21.6698 5.20475C21.6463 5.27379 21.6463 5.34862 21.6698 5.41766C21.6961 5.49079 21.7434 5.55455 21.8058 5.60099C21.8688 5.65054 21.9412 5.68677 22.0187 5.70745C22.1072 5.73618 22.1983 5.75599 22.2907 5.76659L22.5924 5.8139L22.6515 5.79025Z" fill="white"/>
<path d="M35.6625 3.01654H35.6211L35.3608 2.72675C35.3253 2.68918 35.282 2.65971 35.2341 2.64032C35.1861 2.62094 35.1346 2.61209 35.0829 2.61439H34.3495L34.3909 5.30529C34.3917 5.37737 34.4144 5.44752 34.456 5.50638C34.5007 5.56412 34.5599 5.609 34.6275 5.63648H34.7162V5.67789H33.6044V5.63648L33.6931 5.601C33.7495 5.59057 33.8023 5.56617 33.8468 5.53003C33.89 5.47223 33.9109 5.4009 33.906 5.32896L33.8646 2.63804H33.1253C33.0746 2.63815 33.0245 2.64932 32.9785 2.67077C32.9326 2.69222 32.8918 2.72344 32.8592 2.76224L32.6049 3.05794H32.5635L32.6463 2.40739L35.5501 2.36008L35.6625 3.01654Z" fill="white"/>
<path d="M48.2006 5.34668C48.1431 5.38913 48.0981 5.44635 48.0705 5.51228L47.1893 7.87791C47.1686 7.94737 47.1686 8.02136 47.1893 8.09082C47.2069 8.16209 47.2461 8.22614 47.3016 8.27416L47.3726 8.33921V8.3747L46.3258 7.98436V7.94888H46.4204C46.4922 7.94641 46.5619 7.92387 46.6215 7.88382C46.6825 7.84241 46.7282 7.78217 46.7516 7.71232L47.1715 6.59456L45.5097 5.97357L45.0898 7.09134C45.0691 7.1608 45.0691 7.23479 45.0898 7.30425C45.1096 7.37455 45.1485 7.43799 45.2021 7.48758L45.2731 7.55264V7.58812L44.2263 7.20371V7.1623H44.3209C44.3944 7.15886 44.4657 7.13644 44.5279 7.09725C44.587 7.05521 44.6306 6.99496 44.6521 6.92574L45.5392 4.56011C45.56 4.49065 45.56 4.41666 45.5392 4.3472C45.5194 4.2769 45.4805 4.21345 45.4269 4.16386L45.3559 4.09881V4.06332L46.3968 4.44774V4.48914H46.3022C46.2287 4.49259 46.1574 4.515 46.0952 4.55419C46.0361 4.59623 45.9925 4.65648 45.971 4.7257L45.5866 5.74884L47.2484 6.34025L47.6269 5.31711C47.6508 5.25018 47.6508 5.17704 47.6269 5.11011C47.6106 5.03972 47.5735 4.97585 47.5205 4.92678L47.4495 4.86172V4.82624L48.4904 5.21066V5.25205H48.3898C48.3186 5.26362 48.2526 5.29663 48.2006 5.34668Z" fill="white"/>
<path d="M57.3968 12.7571C57.5225 12.9288 57.5907 13.1357 57.592 13.3485C57.5877 13.5469 57.5097 13.7367 57.3731 13.8807C57.2887 13.9869 57.1789 14.0702 57.0538 14.1229C56.9288 14.1756 56.7925 14.196 56.6575 14.1824C56.3211 14.1305 56.0091 13.9755 55.7645 13.7388L54.7236 12.8339V12.8044L54.8183 12.8339C54.8877 12.8547 54.9617 12.8547 55.0312 12.8339C55.1013 12.8176 55.1638 12.778 55.2086 12.7216L56.9118 10.8527C56.9584 10.7974 56.9872 10.7294 56.9946 10.6576C57.0018 10.586 56.9874 10.5139 56.9532 10.4506L56.9118 10.3619V10.3323L57.8581 11.1543C57.9717 11.2513 58.0784 11.356 58.1775 11.4678C58.2635 11.5655 58.3315 11.6776 58.3785 11.799C58.4083 11.9134 58.4083 12.0335 58.3785 12.1479C58.3381 12.2937 58.263 12.4276 58.1597 12.5382C58.0689 12.6468 57.9472 12.7252 57.8108 12.763C57.6727 12.7957 57.5289 12.7957 57.3909 12.763L57.3968 12.7571ZM55.9242 13.5614C55.9986 13.6271 56.0799 13.6846 56.1667 13.7329C56.247 13.7843 56.3381 13.8166 56.4328 13.8275C56.5289 13.8391 56.6264 13.8269 56.7167 13.792C56.8312 13.7408 56.9324 13.6639 57.0124 13.5673C57.0843 13.498 57.1405 13.4141 57.1773 13.3213C57.214 13.2285 57.2304 13.1288 57.2253 13.0291C57.1667 12.8106 57.0352 12.6187 56.8527 12.485L56.4091 12.1065L55.4865 13.1711L55.9242 13.5555V13.5614ZM56.5688 11.9232L56.9118 12.2189C56.9695 12.2669 57.0308 12.3104 57.0952 12.349C57.1619 12.3909 57.2363 12.419 57.314 12.4318C57.3966 12.443 57.4806 12.4307 57.5565 12.3963C57.6554 12.355 57.7413 12.2875 57.8049 12.2011C57.8827 12.1249 57.9379 12.0288 57.9646 11.9232C57.9823 11.8453 57.9823 11.7645 57.9646 11.6866C57.9414 11.6108 57.9031 11.5404 57.8522 11.4796C57.8051 11.4188 57.7516 11.3633 57.6925 11.314L57.3554 11.0183L56.5688 11.9232Z" fill="white"/>
<path d="M5.40598 36.5968C5.42311 36.8353 5.40114 37.075 5.34092 37.3065C5.27844 37.5328 5.17413 37.7454 5.03339 37.9334C4.88833 38.1232 4.70497 38.2804 4.49521 38.3947C4.25664 38.524 3.99159 38.5968 3.72046 38.6076C3.45209 38.6347 3.18106 38.6004 2.92797 38.507C2.70617 38.4216 2.50471 38.2906 2.33656 38.1226C2.16911 37.9528 2.03651 37.7519 1.94623 37.5312C1.85239 37.3095 1.79642 37.0736 1.78063 36.8333C1.7638 36.5929 1.78576 36.3512 1.84569 36.1177C1.90817 35.8914 2.01248 35.6788 2.15322 35.4909C2.29854 35.3013 2.48185 35.1442 2.69141 35.0296C2.9282 34.9011 3.19112 34.8283 3.46024 34.8166C3.72861 34.7895 3.99964 34.8239 4.25273 34.9172C4.47493 35.0019 4.67655 35.1329 4.84414 35.3016C5.01269 35.4705 5.14545 35.6716 5.23447 35.893C5.33098 36.1162 5.38897 36.3542 5.40598 36.5968ZM2.03494 36.8333C2.0476 37.0288 2.10421 37.2188 2.20053 37.3893C2.29126 37.5505 2.41403 37.6914 2.56129 37.8033C2.72131 37.9205 2.90184 38.0067 3.09356 38.0576C3.28615 38.1093 3.48624 38.1273 3.68497 38.1108C3.88912 38.1 4.08957 38.0519 4.27638 37.9689C4.45217 37.8946 4.61262 37.7883 4.74951 37.6554C4.88046 37.5261 4.98316 37.371 5.05113 37.2C5.12071 37.0111 5.14894 36.8094 5.13393 36.6086C5.12126 36.4132 5.06466 36.2232 4.96833 36.0527C4.87761 35.8915 4.75483 35.7506 4.60757 35.6387C4.45309 35.5245 4.27857 35.4402 4.09305 35.3903C3.9003 35.3395 3.70036 35.3215 3.50164 35.3371C3.29747 35.3477 3.097 35.3959 2.91023 35.479C2.73444 35.5533 2.57399 35.6595 2.4371 35.7925C2.306 35.9239 2.20334 36.081 2.13548 36.2538C2.06152 36.4377 2.02726 36.6352 2.03494 36.8333Z" fill="white"/>
<path d="M5.09247 40.0624C5.12864 40.2274 5.1406 40.3967 5.12795 40.5651C5.11501 40.6796 5.07878 40.7903 5.0215 40.8904C4.96561 40.9702 4.89294 41.0368 4.80859 41.0855C4.62588 41.1774 4.42046 41.2144 4.21718 41.192C4.12247 41.1805 4.03259 41.1437 3.95696 41.0855C3.86497 41.0144 3.79018 40.9234 3.73814 40.8194C3.66696 40.6694 3.61719 40.5101 3.59029 40.3463L3.51932 39.9619L2.51984 40.1511C2.4593 40.1615 2.4035 40.1904 2.36016 40.2339C2.31908 40.279 2.29053 40.3341 2.27736 40.3936V40.4764H2.24187L2.06445 39.536H2.09994L2.14725 39.607C2.17745 39.6611 2.22555 39.7029 2.28327 39.7253C2.34263 39.746 2.40726 39.746 2.46661 39.7253L4.60751 39.3231C4.66706 39.31 4.72212 39.2814 4.76719 39.2403C4.80971 39.194 4.83839 39.1366 4.84999 39.0747V38.9919H4.88547L5.08064 40.0506L5.09247 40.0624ZM3.80319 40.3108C3.8162 40.3751 3.834 40.4384 3.85642 40.5C3.87909 40.564 3.91779 40.621 3.96879 40.6656C4.02189 40.7178 4.08682 40.7564 4.15804 40.778C4.25502 40.8031 4.35677 40.8031 4.45375 40.778C4.55102 40.7625 4.64381 40.7262 4.7258 40.6716C4.78424 40.6261 4.83089 40.5673 4.86182 40.5C4.89137 40.4391 4.90751 40.3726 4.90913 40.3049C4.90913 40.2339 4.90913 40.1689 4.90913 40.1038L4.83816 39.7194L3.7618 39.9264L3.83277 40.3049L3.80319 40.3108Z" fill="white"/>
<path d="M3.77974 44.3856L3.18833 44.4566L2.59692 42.4694H2.63241L2.67972 42.5345C2.71748 42.5863 2.77168 42.6239 2.83348 42.641C2.8908 42.6617 2.95359 42.6617 3.01091 42.641L5.11041 42.0496C5.16906 42.0325 5.22081 41.9973 5.25827 41.949C5.2987 41.9003 5.32343 41.8405 5.32923 41.7775V41.6947H5.36472L5.88516 43.5163L5.37063 43.7469L5.54806 43.463C5.57271 43.426 5.5887 43.3839 5.59484 43.3399C5.60099 43.2959 5.59712 43.251 5.58354 43.2087L5.36472 42.4399L4.35932 42.7297L4.4776 43.1437C4.49594 43.2034 4.5308 43.2567 4.57815 43.2974C4.62393 43.3388 4.68219 43.3638 4.74374 43.3684V43.398L4.15233 43.5695V43.534C4.20279 43.4974 4.24012 43.4456 4.25878 43.3861C4.27952 43.3268 4.27952 43.2622 4.25878 43.2028L4.1405 42.7829L2.95768 43.12L3.22382 44.0544C3.23647 44.0966 3.25771 44.1357 3.28621 44.1693C3.3147 44.2029 3.34984 44.2302 3.38941 44.2496L3.69103 44.3915L3.77974 44.3856Z" fill="white"/>
<path d="M4.50721 47.7094H4.47173L4.22333 47.0825L4.32387 46.9819L4.47173 46.8341L4.69054 46.6034L4.90937 46.3787C4.97201 46.3169 5.03124 46.2518 5.08679 46.1835C5.13243 46.1311 5.16846 46.0711 5.19325 46.0061C5.21362 45.9569 5.21362 45.9016 5.19325 45.8523L5.06314 45.5389L4.12279 45.9115C4.06447 45.9354 4.01493 45.9767 3.98085 46.0298C3.94502 46.0797 3.92635 46.1399 3.92763 46.2013V46.2841H3.89806L3.54321 45.391L3.60235 45.4502C3.64376 45.4973 3.70017 45.5286 3.76203 45.5389C3.81935 45.5597 3.88214 45.5597 3.93946 45.5389L5.96799 44.7346C6.02466 44.7108 6.07375 44.6719 6.10993 44.6222C6.14074 44.5682 6.15704 44.507 6.15724 44.4448V44.362H6.19273L6.59488 45.3674C6.65764 45.5228 6.69941 45.6859 6.71908 45.8523C6.73425 45.9683 6.72001 46.0863 6.67768 46.1954C6.64362 46.2854 6.58652 46.3649 6.51209 46.426C6.37034 46.5319 6.20664 46.6047 6.03305 46.6389C5.96058 46.6507 5.88669 46.6507 5.81422 46.6389C5.73858 46.6222 5.66649 46.5921 5.60132 46.5502C5.54302 46.4872 5.49512 46.4153 5.45938 46.3373C5.40695 46.4465 5.33703 46.5464 5.25239 46.633L5.004 46.911L4.82066 47.0943L4.66689 47.2481C4.56536 47.3504 4.50802 47.4884 4.50721 47.6325V47.7094ZM5.53626 46.0534C5.59597 46.128 5.67613 46.1835 5.76691 46.2131C5.89209 46.2439 6.02413 46.2292 6.1395 46.1717C6.23447 46.1403 6.31993 46.0854 6.38789 46.012C6.43389 45.9564 6.46809 45.892 6.48843 45.8228C6.50314 45.7546 6.50314 45.684 6.48843 45.6158C6.47226 45.5516 6.45252 45.4885 6.42929 45.4265L6.28735 45.0658L5.26421 45.4739L5.41206 45.8346C5.42531 45.8731 5.44112 45.9106 5.45938 45.947L5.53035 46.0593L5.53626 46.0534Z" fill="white"/>
<path d="M6.10992 50.8853L5.61905 49.939L5.76099 50.0573C5.776 50.0714 5.79368 50.0823 5.81298 50.0894C5.83228 50.0965 5.85281 50.0996 5.87335 50.0987C5.89324 50.099 5.91287 50.0943 5.93045 50.085C5.94802 50.0757 5.96296 50.0621 5.9739 50.0455L6.53573 49.4127L6.09218 48.5551L5.23464 48.6497C5.21371 48.6515 5.19339 48.6576 5.17504 48.6678C5.15668 48.678 5.14071 48.692 5.12818 48.7089C5.11339 48.7449 5.11339 48.7853 5.12818 48.8212V48.9809H5.09269L4.73193 48.289H4.76742V48.3185C4.82299 48.3706 4.88965 48.4094 4.96239 48.4319C5.03513 48.4545 5.11205 48.4602 5.18732 48.4487L7.86641 48.147L7.97286 48.3422L6.19863 50.3471C6.14551 50.4021 6.10564 50.4685 6.08207 50.5413C6.0585 50.6141 6.05184 50.6912 6.06261 50.767L6.10992 50.8853ZM6.70133 49.2411L7.43468 48.4073L6.32874 48.5314L6.70133 49.2411Z" fill="white"/>
<path d="M9.51629 51.9735L9.61091 51.6482C9.62359 51.6064 9.62645 51.5622 9.61927 51.5192C9.61209 51.4761 9.59506 51.4352 9.56952 51.3998L9.2265 50.8616L7.23345 52.0918C7.18041 52.1258 7.13912 52.1754 7.11517 52.2337C7.09725 52.2935 7.09725 52.3572 7.11517 52.417V52.4939L6.59473 51.6837L6.6657 51.731C6.71579 51.7672 6.77546 51.7878 6.83721 51.7901C6.90004 51.7954 6.96276 51.7787 7.01463 51.7428L9.00768 50.4772L8.66466 49.939C8.64175 49.9012 8.6108 49.8689 8.574 49.8444C8.53721 49.8198 8.49548 49.8037 8.45175 49.7971L8.12056 49.7498V49.7143L8.62918 49.4777L9.98351 51.5891L9.51629 51.9735Z" fill="white"/>
<path d="M10.6932 52.8783C10.6308 52.882 10.5709 52.9047 10.5217 52.9434L8.79479 54.2681C8.74301 54.3033 8.70532 54.3557 8.68833 54.416C8.6676 54.4753 8.6676 54.5399 8.68833 54.5993V54.6762L8.09692 53.9133H8.1265L8.19746 53.9606C8.25153 53.9914 8.31266 54.0077 8.37489 54.0079C8.43647 54.0004 8.49531 53.978 8.5464 53.9428L10.2733 52.6181C10.3251 52.5829 10.3628 52.5305 10.3798 52.4702C10.3946 52.41 10.3946 52.3471 10.3798 52.2869V52.2041L10.9712 52.967L10.9002 52.9256C10.839 52.8858 10.7656 52.869 10.6932 52.8783Z" fill="white"/>
<path d="M12.367 54.5815C12.4949 54.7211 12.5988 54.881 12.6745 55.0546C12.7514 55.2258 12.7917 55.4111 12.7928 55.5987C12.7977 55.7876 12.7613 55.9753 12.6863 56.1487C12.6017 56.3439 12.4744 56.5177 12.3138 56.6573C12.1583 56.8041 11.9726 56.9151 11.7697 56.9826C11.5903 57.0398 11.4011 57.0599 11.2137 57.0417C11.029 57.022 10.8501 56.9657 10.6874 56.8762C10.5193 56.783 10.3675 56.6631 10.2379 56.5213C10.1093 56.38 10.0053 56.2181 9.93038 56.0423C9.85443 55.8726 9.81224 55.6898 9.80618 55.5041C9.80082 55.3132 9.83715 55.1235 9.91264 54.9482C9.99833 54.7535 10.1255 54.5799 10.2852 54.4396C10.4377 54.2918 10.6217 54.1805 10.8234 54.1143C11.0036 54.0558 11.1939 54.0356 11.3823 54.0549C11.5707 54.0743 11.753 54.1328 11.9175 54.2266C12.0847 54.321 12.2363 54.4407 12.367 54.5815ZM10.3917 56.3557C10.4933 56.4724 10.6209 56.5636 10.7643 56.6219C10.9015 56.6764 11.0484 56.7025 11.196 56.6987C11.3466 56.6907 11.4947 56.6567 11.6336 56.5982C11.7813 56.532 11.9171 56.4421 12.0358 56.3321C12.1573 56.2241 12.2593 56.0961 12.3374 55.9536C12.4122 55.8202 12.4604 55.6736 12.4794 55.5218C12.4979 55.3766 12.4838 55.2291 12.438 55.0901C12.3924 54.9421 12.3135 54.8065 12.2073 54.6939C12.1072 54.5805 11.983 54.4908 11.8439 54.4315C11.7047 54.3722 11.5541 54.3446 11.403 54.3508C11.252 54.3561 11.1035 54.3902 10.9653 54.4514C10.8169 54.5162 10.6809 54.6062 10.5632 54.7175C10.4417 54.8255 10.3397 54.9535 10.2616 55.096C10.1875 55.2276 10.1393 55.3721 10.1196 55.5218C10.1008 55.669 10.1149 55.8185 10.161 55.9595C10.2025 56.1197 10.2816 56.2677 10.3917 56.3912V56.3557Z" fill="white"/>
<path d="M15.5665 57.8343C15.5055 57.8502 15.4502 57.883 15.4068 57.9289L13.9756 59.573C13.9342 59.6188 13.9093 59.6771 13.9047 59.7386C13.8871 59.7984 13.8871 59.8621 13.9047 59.9219L13.946 59.9929V60.0225L13.5853 59.7031L13.8751 56.5746L12.432 58.2364C12.3892 58.2819 12.3623 58.34 12.3552 58.402C12.3486 58.4634 12.3609 58.5253 12.3906 58.5794L12.4261 58.6563V58.6859L11.8347 58.1891H11.9116C11.971 58.2094 12.0355 58.2094 12.0949 58.1891C12.1548 58.1744 12.2086 58.1413 12.2487 58.0945L13.6858 56.4504C13.7272 56.4046 13.7522 56.3463 13.7568 56.2848C13.7634 56.2234 13.751 56.1615 13.7213 56.1073L13.6858 56.0305V56.0009L14.2772 56.5036L14.0288 59.159L15.2117 57.7869C15.2523 57.74 15.2789 57.6827 15.2886 57.6213C15.2948 57.56 15.2824 57.4982 15.2531 57.4439L15.2117 57.367L15.8031 57.8579V57.8875L15.7262 57.8579C15.6758 57.8367 15.6209 57.8286 15.5665 57.8343Z" fill="white"/>
<path d="M16.5423 59.8036C16.5837 59.8982 16.6251 59.987 16.6724 60.0816C16.7187 60.1681 16.7488 60.2623 16.7611 60.3595C16.7815 60.4591 16.7815 60.5617 16.7611 60.6612C16.7355 60.7846 16.6807 60.9002 16.6015 60.9983C16.5411 61.0882 16.4572 61.1598 16.359 61.2053C16.2601 61.2484 16.1534 61.2705 16.0455 61.2703C15.9309 61.2729 15.8167 61.2549 15.7084 61.2171C15.5904 61.1788 15.4787 61.1229 15.3772 61.0515C15.2864 60.9836 15.2049 60.904 15.1348 60.8149C15.0408 60.6975 14.9814 60.5562 14.9633 60.4069L14.845 60.4542L15.1702 59.9988H15.1998C15.1719 60.2004 15.2027 60.4057 15.2885 60.5902C15.3454 60.6997 15.4287 60.7932 15.531 60.8622C15.646 60.9551 15.7916 61.0015 15.9391 60.9924C16.0144 60.9797 16.0862 60.951 16.1495 60.9081C16.2127 60.8652 16.266 60.8093 16.3057 60.744C16.3382 60.6937 16.3602 60.6375 16.3704 60.5785C16.3805 60.5196 16.3787 60.4592 16.3649 60.4009C16.3325 60.2434 16.2808 60.0905 16.2111 59.9456L16.0869 59.6794C16.0457 59.5938 16.0121 59.5048 15.9864 59.4133C15.9687 59.3255 15.9687 59.235 15.9864 59.1472C16.0011 59.0458 16.0418 58.9501 16.1047 58.8692C16.1606 58.7837 16.2357 58.7125 16.324 58.6612C16.4123 58.6098 16.5113 58.5798 16.6133 58.5735C16.8399 58.5681 17.0614 58.6412 17.2402 58.7805C17.321 58.8386 17.3928 58.9083 17.4531 58.9875C17.5186 59.0661 17.5724 59.1537 17.6128 59.2477L17.7251 59.1826H17.7606L17.5004 59.6853H17.4649C17.4823 59.6015 17.4823 59.5149 17.4649 59.431C17.4446 59.3472 17.4106 59.2673 17.3644 59.1945C17.3074 59.0952 17.2285 59.0102 17.1337 58.9461L16.9681 58.8574C16.9087 58.8342 16.8474 58.8164 16.7848 58.8041C16.7243 58.7922 16.662 58.7922 16.6015 58.8041C16.539 58.8232 16.4848 58.8628 16.4477 58.9165C16.4096 58.9705 16.3871 59.0339 16.3826 59.0998C16.3716 59.1684 16.3716 59.2383 16.3826 59.3068C16.4071 59.3817 16.4367 59.4549 16.4713 59.5257C16.5068 59.6025 16.5482 59.6794 16.5837 59.7622L16.5423 59.8036Z" fill="white"/>
<path d="M21.2795 64.4403V64.4817L20.5225 64.0973C20.5225 64.0559 20.5225 63.9909 20.5225 63.914C20.5225 63.8371 20.5225 63.7661 20.5225 63.6597C20.5225 63.5532 20.5225 63.4172 20.5225 63.2575C20.5225 63.0978 20.5225 62.9914 20.5225 62.8672C20.5225 62.743 20.5225 62.6306 20.5225 62.5301C20.521 62.4433 20.505 62.3573 20.4752 62.2758C20.4563 62.2131 20.4139 62.1602 20.357 62.1279L19.9725 61.9387L19.3811 63.0801C19.3461 63.1516 19.3337 63.2321 19.3456 63.3108C19.3536 63.3883 19.3869 63.461 19.4403 63.5177L19.5112 63.5946V63.636L18.429 63.0978V63.0564H18.5295C18.61 63.063 18.6906 63.0444 18.7601 63.0032C18.8258 62.9633 18.879 62.906 18.9139 62.8376L20.1381 60.3714C20.1726 60.2998 20.187 60.22 20.1795 60.1408C20.1669 60.0635 20.1319 59.9915 20.079 59.9338L20.008 59.8569V59.8155L21.2263 60.4069C21.4187 60.4962 21.5978 60.6116 21.7586 60.7499C21.8682 60.847 21.9533 60.9686 22.007 61.1048C22.0527 61.2171 22.067 61.3398 22.0484 61.4596C22.026 61.5848 21.9862 61.7063 21.9301 61.8204C21.885 61.905 21.8336 61.986 21.7763 62.0629C21.7192 62.1362 21.649 62.1983 21.5693 62.2462C21.4849 62.2934 21.3928 62.3254 21.2973 62.3408C21.1799 62.3611 21.0599 62.3611 20.9424 62.3408C20.9787 62.4879 20.9966 62.6389 20.9957 62.7903C20.9957 62.95 20.9957 63.1097 20.9957 63.2634C20.9957 63.4172 20.9957 63.4823 20.9957 63.5828C20.9957 63.6833 20.9957 63.778 20.9957 63.8608C20.9893 63.9513 21.0018 64.0422 21.0323 64.1278C21.0628 64.2133 21.1108 64.2915 21.1731 64.3575L21.2795 64.4403ZM20.8656 62.0274C20.9821 62.0462 21.1015 62.0297 21.2086 61.9801C21.3512 61.9019 21.4621 61.7764 21.522 61.6252C21.5843 61.5149 21.6188 61.3911 21.6226 61.2645C21.6263 61.1714 21.6037 61.0792 21.5575 60.9983C21.5165 60.9241 21.46 60.8596 21.3919 60.8091C21.3251 60.7575 21.2539 60.712 21.179 60.6731L20.7355 60.4542L20.144 61.6962L20.5876 61.915C20.679 61.9669 20.7793 62.001 20.8833 62.0156L20.8656 62.0274Z" fill="white"/>
<path d="M24.2188 65.0021L23.9468 65.493L22.0188 64.7774V64.7419H22.1016C22.1641 64.744 22.2251 64.7229 22.2731 64.6828C22.3245 64.6484 22.3638 64.5987 22.3855 64.5408L23.1425 62.5005C23.1601 62.4406 23.1601 62.377 23.1425 62.3171C23.1265 62.2561 23.0937 62.2008 23.0479 62.1575L22.9828 62.1042V62.0688L24.757 62.7311L24.6328 63.2811H24.5973L24.4791 62.9677C24.4641 62.9261 24.4398 62.8885 24.408 62.8577C24.3762 62.827 24.3378 62.8039 24.2957 62.7903L23.5446 62.5123L23.2016 63.4881L23.6038 63.6419C23.664 63.6565 23.7269 63.6565 23.7871 63.6419C23.8464 63.6258 23.8998 63.593 23.9409 63.5473H23.9705L23.7575 64.1387C23.7596 64.0762 23.7385 64.0151 23.6984 63.9672C23.664 63.9158 23.6144 63.8765 23.5565 63.8548L23.1543 63.707L22.7344 64.8365L23.6452 65.1737C23.6845 65.1939 23.7281 65.2044 23.7723 65.2044C23.8166 65.2044 23.8601 65.1939 23.8995 65.1737L24.1952 65.0199L24.2188 65.0021Z" fill="white"/>
<path d="M26.3597 64.4285L26.5786 64.6414C26.6513 64.7083 26.7131 64.7861 26.7619 64.872C26.8092 64.9628 26.8411 65.0607 26.8565 65.1618C26.8727 65.2871 26.8605 65.4144 26.821 65.5344C26.7934 65.6379 26.7382 65.7319 26.6614 65.8065C26.5867 65.883 26.4957 65.9416 26.3952 65.978C26.2874 66.0197 26.1736 66.0436 26.0581 66.0489C25.9343 66.0507 25.8108 66.0348 25.6914 66.0016C25.5805 65.973 25.4747 65.9271 25.378 65.8656C25.2494 65.7897 25.1448 65.679 25.0764 65.5462L24.9817 65.629H24.9758L25.1237 65.079H25.1592C25.1802 65.1841 25.2161 65.2856 25.2656 65.3807C25.3158 65.4708 25.3797 65.5525 25.4549 65.6231C25.545 65.7065 25.6549 65.7656 25.7742 65.7946C25.9113 65.8475 26.063 65.8475 26.2001 65.7946C26.2677 65.7578 26.3261 65.7063 26.3712 65.6438C26.4162 65.5814 26.4466 65.5096 26.4603 65.4339C26.4868 65.3162 26.4655 65.1928 26.4011 65.0909C26.316 64.9549 26.2147 64.8298 26.0995 64.7183L25.8866 64.5113C25.8205 64.4448 25.7592 64.3736 25.7033 64.2984C25.6516 64.2227 25.6136 64.1387 25.5909 64.05C25.5659 63.953 25.5659 63.8513 25.5909 63.7543C25.6152 63.6546 25.6619 63.5617 25.7275 63.4828C25.7931 63.4039 25.8758 63.341 25.9694 63.2989C26.1838 63.2241 26.4173 63.2241 26.6318 63.2989C26.7274 63.3257 26.819 63.3655 26.9038 63.4172C26.992 63.4702 27.0734 63.5338 27.1463 63.6064L27.2232 63.5118H27.2646L27.1936 64.0677H27.1522C27.1314 63.9859 27.0974 63.908 27.0517 63.8371C27.0008 63.7667 26.9412 63.7031 26.8743 63.6478C26.7853 63.5777 26.6825 63.5273 26.5726 63.5H26.3893C26.3244 63.4936 26.259 63.4936 26.1941 63.5C26.1336 63.5121 26.0769 63.5385 26.0285 63.5768C25.9763 63.6168 25.9388 63.673 25.9221 63.7365C25.9013 63.7999 25.9013 63.8683 25.9221 63.9317C25.9444 63.9983 25.9785 64.0604 26.0226 64.115C26.0687 64.1785 26.1202 64.2378 26.1764 64.2924C26.2414 64.3457 26.3006 64.4107 26.3656 64.4699L26.3597 64.4285Z" fill="white"/>
<path d="M29.707 66.2974L29.5237 66.8356L27.4951 66.4689V66.4452H27.5779C27.6394 66.4347 27.6959 66.405 27.7394 66.3604C27.783 66.3157 27.8113 66.2585 27.8204 66.1968L28.2048 64.0559C28.2227 63.9961 28.2227 63.9324 28.2048 63.8726C28.1766 63.8168 28.1336 63.7698 28.0806 63.7366L28.0096 63.6952V63.6597L29.8785 63.9909V64.5527H29.843L29.6656 64.2688C29.6427 64.231 29.6117 64.1987 29.5749 64.1742C29.5381 64.1497 29.4964 64.1335 29.4527 64.1269L28.672 63.985L28.4828 65.014L28.9086 65.0909C28.9688 65.1057 29.0317 65.1057 29.0919 65.0909C29.1485 65.0666 29.196 65.0253 29.228 64.9726H29.2634L29.157 65.564H29.1156C29.1053 65.5022 29.074 65.4458 29.0269 65.4043C28.9866 65.3568 28.9292 65.3271 28.8672 65.3216L28.4414 65.2447L28.2285 66.4275L29.1865 66.599C29.2297 66.6092 29.2746 66.6092 29.3178 66.5989C29.3609 66.5887 29.401 66.5684 29.4349 66.5399L29.6952 66.3329L29.707 66.2974Z" fill="white"/>
<path d="M33.4683 67.1372V67.1726L32.4097 67.1017V67.0662L32.5871 67.007C32.607 67.0023 32.6256 66.9935 32.6419 66.9812C32.6582 66.969 32.6717 66.9535 32.6817 66.9357C32.6917 66.9179 32.698 66.8983 32.7 66.878C32.702 66.8577 32.6998 66.8372 32.6936 66.8178L32.4452 66.0076L31.4812 65.9366L31.1086 66.7172C31.0997 66.7357 31.0951 66.7559 31.0951 66.7764C31.0951 66.7969 31.0997 66.8171 31.1086 66.8355C31.122 66.8738 31.1495 66.9055 31.1855 66.9242L31.3333 66.9952V67.0366L30.5586 66.9775V66.942H30.5941C30.6687 66.9228 30.7379 66.8866 30.7964 66.8364C30.8549 66.7861 30.901 66.7231 30.9312 66.6522L32.0726 64.1978H32.2914L33.0721 66.7527C33.0925 66.8261 33.1291 66.894 33.1793 66.9513C33.2295 67.0086 33.2918 67.0539 33.3619 67.0839L33.4683 67.1372ZM32.3742 65.7887L32.0726 64.7301L31.5936 65.7355L32.3742 65.7887Z" fill="white"/>
<path d="M36.7389 67.0366V67.0721H36.0706C36.0453 67.0306 36.0236 66.9871 36.0055 66.942L35.9168 66.7586C35.8754 66.6818 35.8281 66.5871 35.7749 66.4689C35.7217 66.3506 35.6803 66.2855 35.6389 66.1909L35.5147 65.9602C35.4807 65.8983 35.4367 65.8423 35.3846 65.7946C35.346 65.7591 35.2951 65.74 35.2426 65.7414H34.8996L34.9351 66.7527C34.9393 66.8141 34.9597 66.8733 34.9942 66.9242C35.0308 66.9747 35.0826 67.012 35.1421 67.0307L35.2249 67.0603V67.0957L34.2668 67.1312V67.0957L34.3437 67.0603C34.4002 67.036 34.4478 66.9946 34.4797 66.942C34.5156 66.8901 34.5323 66.8274 34.527 66.7646L34.4561 64.5882C34.4523 64.5257 34.4296 64.4659 34.391 64.4167C34.3551 64.3656 34.303 64.3281 34.2431 64.3102L34.1663 64.2806V64.2451L35.2426 64.2097C35.4113 64.1964 35.5811 64.2104 35.7453 64.2511C35.8579 64.279 35.9629 64.3315 36.0529 64.4048C36.1269 64.4675 36.1821 64.5493 36.2125 64.6414C36.2483 64.7359 36.2663 64.8361 36.2658 64.9371C36.2777 65.0115 36.2777 65.0874 36.2658 65.1618C36.2552 65.2346 36.2311 65.3048 36.1948 65.3688C36.1536 65.4342 36.1016 65.4922 36.041 65.5403C35.9641 65.5948 35.8779 65.6349 35.7867 65.6586C35.867 65.7488 35.9365 65.848 35.9937 65.9543L36.1711 66.2855L36.2776 66.5162L36.3781 66.7172C36.4405 66.8465 36.5508 66.9462 36.6857 66.9952L36.7389 67.0366ZM35.5561 65.5108C35.6489 65.4818 35.7311 65.4263 35.7926 65.3511C35.8594 65.2411 35.8884 65.1124 35.8754 64.9844C35.8778 64.8858 35.8554 64.7882 35.8104 64.7005C35.7741 64.635 35.7235 64.5784 35.6625 64.5349C35.6047 64.4991 35.5404 64.475 35.4733 64.464C35.4083 64.4582 35.343 64.4582 35.2781 64.464H34.8878L34.9233 65.564H35.3136H35.4378L35.562 65.5344L35.5561 65.5108Z" fill="white"/>
<path d="M38.8444 64.1624C38.6868 64.1831 38.5355 64.2375 38.4008 64.322C38.2736 64.403 38.1648 64.5098 38.0815 64.6355C37.9978 64.7631 37.9395 64.9057 37.91 65.0554C37.8833 65.2159 37.8833 65.3798 37.91 65.5403C37.932 65.7008 37.9799 65.8566 38.0519 66.0016C38.1249 66.1357 38.221 66.2559 38.3358 66.3565C38.4491 66.4546 38.5823 66.5272 38.7261 66.5694C38.878 66.6121 39.0372 66.6222 39.1933 66.599C39.336 66.58 39.4741 66.536 39.6014 66.4689C39.7284 66.4004 39.8424 66.3103 39.9385 66.2027L40.0923 66.3387C39.9817 66.4654 39.8495 66.5716 39.7019 66.6522C39.551 66.7325 39.3866 66.7846 39.217 66.8059C39.0045 66.851 38.7849 66.851 38.5723 66.8059C38.2926 66.7431 38.0389 66.5961 37.8454 66.3846C37.6519 66.1731 37.5279 65.9073 37.4901 65.6231C37.4611 65.426 37.4711 65.225 37.5196 65.0317C37.5652 64.8493 37.6477 64.6782 37.7621 64.529C37.8842 64.3793 38.0325 64.253 38.1998 64.1564C38.3834 64.055 38.5837 63.9869 38.7912 63.9554C39.0695 63.9131 39.3541 63.9564 39.6073 64.0796L39.6546 63.9376H39.6901L39.8439 64.4758H39.8084C39.7304 64.4015 39.6429 64.3379 39.5482 64.2866C39.4511 64.2357 39.3477 64.1979 39.2406 64.1742C39.102 64.1466 38.9593 64.1466 38.8207 64.1742L38.8444 64.1624Z" fill="white"/>
<path d="M43.0374 63.2161C43.0196 63.2739 43.0196 63.3357 43.0374 63.3935L43.5815 65.5049C43.5955 65.5651 43.6287 65.6191 43.6761 65.6587C43.7231 65.6993 43.7804 65.7259 43.8417 65.7355H43.9009V65.771L42.9724 66.0135V65.978L43.0433 65.9307C43.092 65.8923 43.1288 65.8411 43.1498 65.7828C43.1705 65.7235 43.1705 65.6589 43.1498 65.5995L42.8896 64.6L41.411 64.9844L41.6654 65.9839C41.6817 66.0446 41.7169 66.0984 41.7659 66.1377C41.8128 66.1783 41.8702 66.205 41.9315 66.2146H42.0143V66.2501L41.0799 66.4925V66.4452L41.1449 66.392C41.1963 66.3576 41.2356 66.308 41.2573 66.2501C41.2749 66.1902 41.2749 66.1266 41.2573 66.0667L40.7132 63.9554C40.6969 63.8948 40.6616 63.8409 40.6126 63.8016C40.5669 63.7602 40.5086 63.7353 40.4471 63.7307H40.3643V63.6952L41.2928 63.4527V63.4882L41.2277 63.5414C41.1763 63.5758 41.137 63.6254 41.1153 63.6833C41.0978 63.7432 41.0978 63.8068 41.1153 63.8667L41.3519 64.7774L42.8363 64.399L42.5998 63.4882C42.5851 63.4266 42.5521 63.371 42.5052 63.3285C42.4571 63.2871 42.397 63.2622 42.3337 63.2575H42.2509V63.222L43.1794 62.9855V63.021L43.1084 63.0683C43.072 63.1104 43.0475 63.1614 43.0374 63.2161Z" fill="white"/>
<path d="M46.8579 62.3053L47.2423 62.3467C47.3676 62.3582 47.4909 62.3861 47.609 62.4295C47.7283 62.477 47.8384 62.5451 47.9343 62.6306C48.0443 62.7458 48.1325 62.8801 48.1945 63.0268C48.2504 63.1489 48.2728 63.2836 48.2595 63.4172C48.2425 63.5519 48.2004 63.6823 48.1353 63.8016C48.0614 63.9282 47.9676 64.042 47.8574 64.1387C47.7384 64.2423 47.6049 64.328 47.4611 64.393C47.3256 64.4468 47.1849 64.4864 47.0412 64.5113C46.8529 64.5377 46.6609 64.5132 46.4853 64.4403V64.6H46.4439L46.1541 63.9494H46.1955C46.2992 64.0423 46.4196 64.1146 46.5503 64.1624C46.6687 64.2126 46.7946 64.2426 46.9229 64.2511C47.0804 64.2597 47.2374 64.2271 47.3783 64.1564C47.5499 64.0914 47.6911 63.9649 47.7746 63.8016C47.8115 63.7126 47.828 63.6165 47.8229 63.5203C47.8178 63.4241 47.7912 63.3302 47.745 63.2457C47.7117 63.1792 47.6652 63.1202 47.6082 63.0724C47.5512 63.0246 47.4851 62.9889 47.4138 62.9677C47.2225 62.9022 47.0239 62.8605 46.8224 62.8435L46.4439 62.808C46.3239 62.8009 46.2049 62.781 46.089 62.7489C45.9808 62.7145 45.8789 62.6626 45.7874 62.5951C45.6848 62.5147 45.6052 62.4086 45.5568 62.2876C45.5037 62.1686 45.4774 62.0394 45.4799 61.9091C45.4798 61.7853 45.5103 61.6634 45.5686 61.5542C45.6312 61.4369 45.7132 61.3309 45.8111 61.2408C45.9274 61.1426 46.0568 61.061 46.1955 60.9983C46.3105 60.9482 46.4319 60.9143 46.5563 60.8978C46.6858 60.88 46.8171 60.88 46.9466 60.8978V60.7322H46.988L47.3724 61.3236H47.331C47.2489 61.2579 47.1544 61.2096 47.053 61.1817C46.9477 61.1493 46.838 61.1334 46.7278 61.1343C46.5821 61.1365 46.4387 61.1708 46.3079 61.2349C46.236 61.2653 46.1684 61.3051 46.1068 61.3532C46.0426 61.4006 45.985 61.4563 45.9353 61.5188C45.8857 61.5787 45.8512 61.6497 45.8347 61.7257C45.8091 61.8005 45.8091 61.8817 45.8347 61.9564C45.8681 62.0339 45.9236 62.0998 45.9944 62.1457C46.0692 62.1922 46.1511 62.2262 46.2369 62.2462C46.3364 62.2666 46.4372 62.2804 46.5385 62.2876L46.8756 62.3172L46.8579 62.3053Z" fill="white"/>
<path d="M49.3064 60.2531C49.4725 60.1593 49.652 60.0915 49.8386 60.052C50.0223 60.0166 50.211 60.0166 50.3946 60.052C50.5794 60.0918 50.7543 60.1682 50.9091 60.2768C51.0806 60.403 51.2242 60.5631 51.3311 60.7473C51.4379 60.9315 51.5057 61.1357 51.5301 61.3472C51.5496 61.5346 51.5294 61.724 51.4709 61.9031C51.4112 62.0798 51.3167 62.2427 51.193 62.3822C51.0697 62.5275 50.9215 62.6497 50.7553 62.7429C50.5907 62.8411 50.4108 62.9111 50.2231 62.9499C50.0395 62.9854 49.8508 62.9854 49.6671 62.9499C49.482 62.9146 49.3065 62.84 49.1526 62.7311C48.9774 62.6069 48.8319 62.4453 48.7268 62.258C48.6195 62.0769 48.5511 61.8755 48.5257 61.6666C48.5039 61.4671 48.5261 61.2652 48.5908 61.0752C48.6505 60.8985 48.745 60.7356 48.8687 60.5961C48.9953 60.459 49.143 60.3432 49.3064 60.2531ZM50.6489 62.5655C50.7822 62.4886 50.8972 62.3837 50.986 62.258C51.0715 62.1385 51.1281 62.0009 51.1516 61.8558C51.1841 61.7058 51.1841 61.5505 51.1516 61.4004C51.119 61.2424 51.0611 61.0906 50.9801 60.951C50.8993 60.8103 50.7953 60.6843 50.6725 60.5784C50.5569 60.4793 50.4248 60.4013 50.2822 60.3477C50.1436 60.3 49.9965 60.2818 49.8505 60.2945C49.6976 60.3083 49.5499 60.3568 49.4187 60.4364C49.2854 60.5155 49.1688 60.62 49.0757 60.744C48.9917 60.8665 48.9352 61.0057 48.9101 61.152C48.8814 61.3005 48.8814 61.4531 48.9101 61.6015C48.9416 61.7599 48.9996 61.9119 49.0816 62.051C49.1612 62.1925 49.2653 62.3186 49.3892 62.4236C49.5019 62.5267 49.6348 62.6053 49.7795 62.6542C49.9182 62.7017 50.0652 62.7198 50.2112 62.7075C50.3661 62.6946 50.5159 62.646 50.6489 62.5655Z" fill="white"/>
<path d="M52.4822 58.3666C52.3535 58.461 52.2466 58.582 52.1688 58.7214C52.0963 58.8528 52.052 58.9978 52.0387 59.1472C52.0273 59.2991 52.0454 59.4517 52.0919 59.5967C52.1934 59.9125 52.4027 60.1826 52.6833 60.3596C52.8115 60.4447 52.9536 60.5068 53.1032 60.5429C53.254 60.5755 53.4101 60.5744 53.5604 60.5397C53.7107 60.5049 53.8514 60.4374 53.9726 60.3419C54.0895 60.2564 54.1897 60.1501 54.2683 60.0284C54.3467 59.9087 54.4047 59.7768 54.4398 59.6381L54.6349 59.6854C54.5998 59.8502 54.5336 60.0067 54.4398 60.1467C54.3494 60.2893 54.233 60.4137 54.0968 60.5134C53.9201 60.6471 53.7193 60.7455 53.5054 60.8032C53.313 60.8563 53.1119 60.8703 52.9139 60.8446C52.7294 60.8212 52.552 60.7587 52.3935 60.6612C52.2293 60.5624 52.0865 60.4317 51.9736 60.2768C51.8589 60.1256 51.7764 59.9525 51.7311 59.7682C51.6832 59.5869 51.6731 59.3976 51.7016 59.2123C51.7354 59.0213 51.8057 58.8386 51.9085 58.6741C52.0261 58.4905 52.1764 58.3301 52.3521 58.201C52.5767 58.032 52.8463 57.9332 53.1269 57.9171V57.7692L53.5231 58.1655L53.4935 58.195C53.3914 58.1664 53.2861 58.1506 53.1801 58.1477C53.0702 58.1553 52.9613 58.1732 52.8548 58.201C52.7164 58.236 52.5873 58.3005 52.4763 58.3902L52.4822 58.3666Z" fill="white"/>
<path d="M54.2919 56.8348C54.2977 56.8978 54.3224 56.9576 54.3629 57.0063L55.8 58.6445C55.8408 58.6914 55.8951 58.7245 55.9554 58.7393C56.0158 58.7541 56.0792 58.7499 56.1371 58.7273L56.2199 58.6978V58.7273L55.522 59.3483H55.4925L55.5339 59.2773C55.563 59.2209 55.5754 59.1573 55.5693 59.094C55.5586 59.033 55.5321 58.976 55.4925 58.9284L54.0613 57.2902C54.0179 57.2443 53.9626 57.2115 53.9016 57.1956C53.8421 57.1753 53.7777 57.1753 53.7182 57.1956H53.6414L54.3629 56.5628L54.3215 56.6397C54.2943 56.7009 54.284 56.7683 54.2919 56.8348Z" fill="white"/>
<path d="M58.0119 56.2375L58.349 56.6869L56.9118 58.1655H56.8823L56.9178 58.0886C56.9357 58.0288 56.9357 57.965 56.9178 57.9052C56.9046 57.8457 56.876 57.7906 56.835 57.7456L55.2796 56.2197C55.2332 56.1772 55.1758 56.1485 55.114 56.1369C55.0541 56.1197 54.9905 56.1197 54.9306 56.1369L54.8597 56.1724H54.8301L56.1607 54.8181L56.6102 55.1493V55.1848H56.2731C56.2288 55.1835 56.1847 55.1918 56.1438 55.2091C56.103 55.2265 56.0664 55.2525 56.0366 55.2853L55.4806 55.8767L56.2258 56.6101L56.5274 56.2966C56.5709 56.2533 56.5999 56.1975 56.6102 56.1369C56.6277 56.0791 56.6277 56.0174 56.6102 55.9595L57.0479 56.3853V56.4149C56.9881 56.397 56.9243 56.397 56.8645 56.4149C56.805 56.4281 56.7499 56.4566 56.7048 56.4977L56.4032 56.8052L57.2667 57.6509L57.9468 56.959C57.9775 56.9281 58.0013 56.891 58.0166 56.8502C58.0319 56.8095 58.0383 56.7659 58.0355 56.7224V56.3853L58.0119 56.2375Z" fill="white"/>
<path d="M58.8872 52.3993V52.4347H58.5501C58.5064 52.4377 58.4639 52.4497 58.4252 52.4701C58.3865 52.4905 58.3525 52.5187 58.3253 52.553L57.9291 53.0498L59.7447 54.5047C59.7963 54.5392 59.8571 54.5577 59.9192 54.5577C59.9813 54.5577 60.042 54.5392 60.0937 54.5047L60.1646 54.4633L59.5732 55.2084H59.5436L59.5732 55.1256C59.5908 55.0658 59.5908 55.0022 59.5732 54.9423C59.5562 54.882 59.5185 54.8297 59.4668 54.7945L57.657 53.3396L57.2608 53.8364C57.2326 53.8707 57.2118 53.9105 57.1996 53.9532C57.1874 53.9959 57.1841 54.0407 57.1898 54.0848L57.249 54.416L56.8586 54.0079L58.4259 52.0503L58.8872 52.3993Z" fill="white"/>
<path d="M60.1588 49.4481V49.525C60.133 49.6368 60.1476 49.7542 60.2002 49.8562L60.7916 51.175L61.6551 51.725C61.7075 51.7602 61.7693 51.7788 61.8325 51.7783C61.8939 51.774 61.953 51.7536 62.004 51.7191L62.075 51.6659L61.5545 52.4702V52.3874C61.5724 52.3276 61.5724 52.2639 61.5545 52.2041C61.5306 52.1458 61.4893 52.0962 61.4362 52.0621L60.6319 51.5476H59.0883C58.9733 51.5484 58.8615 51.5857 58.769 51.6541L58.6803 51.7191H58.6448L59.2066 50.8438H59.2421V50.9385C59.2387 50.9605 59.24 50.983 59.2462 51.0045C59.2523 51.0259 59.263 51.0458 59.2776 51.0627C59.2902 51.0822 59.3079 51.098 59.3287 51.1084C59.3495 51.1188 59.3727 51.1234 59.3959 51.1218H60.5787L60.0996 50.0395C60.0911 50.0179 60.0775 49.9985 60.06 49.9831C60.0425 49.9677 60.0217 49.9566 59.9991 49.9508C59.9574 49.9337 59.9107 49.9337 59.869 49.9508L59.7921 50.0099L60.1588 49.4481Z" fill="white"/>
<path d="M62.0334 46.0652C61.9682 46.2101 61.9359 46.3677 61.9388 46.5265C61.9413 46.676 61.9756 46.8231 62.0393 46.9583C62.1053 47.097 62.1977 47.2216 62.3114 47.325C62.4317 47.4357 62.5696 47.5256 62.7195 47.5911C62.8679 47.6541 63.0258 47.692 63.1867 47.7034C63.3403 47.7102 63.4941 47.6922 63.6421 47.6502C63.7824 47.6023 63.9113 47.5258 64.0206 47.4255C64.1405 47.3184 64.2337 47.1847 64.2926 47.0351C64.3503 46.9042 64.3843 46.764 64.3931 46.6212C64.3988 46.4773 64.3808 46.3334 64.3399 46.1954L64.5351 46.1362C64.6402 46.4607 64.6212 46.8126 64.4819 47.1239C64.4033 47.3283 64.2824 47.5137 64.127 47.668C63.9922 47.8064 63.8314 47.9169 63.6539 47.9932C63.4816 48.0647 63.2962 48.0989 63.1098 48.0938C62.9184 48.0921 62.7293 48.0518 62.5539 47.9755C62.3766 47.9013 62.2158 47.7928 62.0807 47.6561C61.9507 47.5227 61.85 47.3636 61.785 47.1889C61.7101 47.0012 61.6778 46.7992 61.6904 46.5975C61.6985 46.379 61.7487 46.1641 61.8383 45.9647C61.947 45.7062 62.1303 45.4859 62.3646 45.3319L62.27 45.2136V45.1781L62.8141 45.326V45.3615C62.7115 45.3927 62.6124 45.4343 62.5184 45.4857C62.4263 45.5452 62.3411 45.6146 62.2641 45.6927C62.1633 45.7936 62.0847 45.9144 62.0334 46.0475V46.0652Z" fill="white"/>
<path d="M65.3218 43.0549L65.8304 43.2915L65.1917 45.3555H65.1562V45.2727C65.1561 45.2095 65.1329 45.1486 65.0912 45.1012C65.0524 45.053 65.0013 45.0163 64.9433 44.9948L62.8615 44.3442C62.8037 44.3264 62.7419 44.3264 62.6841 44.3442C62.6223 44.3613 62.5681 44.3988 62.5304 44.4506L62.4771 44.5157H62.4417L62.7314 43.599H62.7669V43.6818C62.7681 43.7448 62.7911 43.8054 62.832 43.8533C62.8694 43.9016 62.9212 43.9368 62.9798 43.9539L65.1976 44.6517L65.5111 43.6404C65.5304 43.6008 65.5405 43.5573 65.5405 43.5133C65.5405 43.4692 65.5304 43.4257 65.5111 43.3861L65.3336 43.0963L65.3218 43.0549Z" fill="white"/>
<path d="M63.8196 39.0393H63.8551V39.1162C63.8614 39.1797 63.8909 39.2386 63.9379 39.2818C63.9793 39.3289 64.0357 39.3602 64.0976 39.3705L65.7358 39.7017C65.861 39.7229 65.9801 39.7714 66.0847 39.8436C66.1885 39.9139 66.277 40.0044 66.3449 40.1098C66.415 40.2111 66.4633 40.3259 66.4869 40.4469C66.5164 40.5733 66.5164 40.7048 66.4869 40.8313L66.4336 41.0974C66.4118 41.2254 66.3613 41.3467 66.2858 41.4523C66.216 41.5528 66.1277 41.6391 66.0256 41.7066C65.9211 41.7761 65.8049 41.8262 65.6825 41.8544C65.5575 41.8781 65.4291 41.8781 65.304 41.8544L63.6658 41.5232C63.606 41.5053 63.5423 41.5053 63.4825 41.5232C63.4242 41.5472 63.3746 41.5885 63.3405 41.6415L63.2992 41.7125H63.2637L63.4529 40.7721H63.4884V40.8549C63.5 40.9168 63.5287 40.9741 63.5712 41.0205C63.6163 41.0616 63.6713 41.0902 63.7309 41.1033L65.375 41.4345C65.4713 41.446 65.5685 41.446 65.6648 41.4345C65.7521 41.4281 65.8379 41.4081 65.9191 41.3754C65.9963 41.3417 66.0635 41.2888 66.1143 41.2216C66.1736 41.1483 66.2124 41.0605 66.2266 40.9673L66.268 40.7544C66.2917 40.6552 66.2917 40.5519 66.268 40.4528C66.2491 40.3591 66.2108 40.2705 66.1557 40.1925C66.1028 40.1111 66.0345 40.0408 65.9546 39.9856C65.8733 39.9273 65.7806 39.8869 65.6825 39.8673L64.0384 39.542C63.9777 39.5299 63.9147 39.5364 63.8577 39.5607C63.8007 39.5849 63.7524 39.6258 63.7191 39.678L63.6777 39.749H63.6422L63.8196 39.0393Z" fill="white"/>
<path d="M65.3631 37.0108C65.4217 36.8354 65.5333 36.6824 65.6825 36.5731C65.8252 36.4783 65.9975 36.4384 66.1674 36.4608C66.2884 36.463 66.4067 36.497 66.5105 36.5593C66.6143 36.6215 66.6999 36.7099 66.7588 36.8156C66.8925 37.076 66.9401 37.3721 66.8949 37.6613L66.7825 38.8441H66.747V38.7673C66.7299 38.707 66.6949 38.6533 66.6465 38.6135C66.6 38.5732 66.5421 38.5484 66.4809 38.5425L64.3104 38.3296C64.249 38.323 64.1871 38.3354 64.133 38.3651C64.0783 38.3981 64.0334 38.4451 64.0029 38.5011L63.9674 38.5721H63.9319L64.0383 37.4957C64.0485 37.3663 64.0682 37.2378 64.0975 37.1113C64.1235 37.0031 64.1697 36.9008 64.2335 36.8097C64.2946 36.7272 64.3761 36.6619 64.4701 36.6205C64.5933 36.5774 64.7249 36.5632 64.8545 36.5791C64.9742 36.5903 65.0877 36.6377 65.1798 36.7151C65.276 36.7916 65.3513 36.8913 65.3986 37.0049L65.3631 37.0108ZM65.1857 38.0103L65.2212 37.6199C65.2302 37.5552 65.2302 37.4895 65.2212 37.4248C65.2161 37.3569 65.198 37.2907 65.1679 37.2296C65.1317 37.1708 65.0833 37.1204 65.026 37.0818C64.946 37.0315 64.8543 37.003 64.7599 36.9989C64.6681 36.9857 64.5746 36.9959 64.4878 37.0285C64.4225 37.0545 64.3638 37.095 64.3163 37.1468C64.2739 37.2008 64.2437 37.2634 64.2276 37.3301C64.2101 37.394 64.1982 37.4593 64.1921 37.5253L64.1507 37.9097L65.1857 38.0103ZM66.6642 37.6436C66.6701 37.5589 66.6701 37.4739 66.6642 37.3893C66.6596 37.3059 66.6353 37.2248 66.5932 37.1527C66.5548 37.0783 66.4977 37.0152 66.4276 36.9694C66.3327 36.917 66.228 36.8848 66.1201 36.8748C66.0355 36.8579 65.9483 36.8598 65.8645 36.8802C65.7808 36.9007 65.7025 36.9392 65.6351 36.993C65.5129 37.1458 65.4462 37.3356 65.4459 37.5312L65.3927 38.028L66.5755 38.1463L66.6287 37.6436H66.6642Z" fill="white"/>
<g opacity="0.75">
<path opacity="0.75" d="M85.1926 14.549C85.1926 18.1507 82.3893 20.0964 79.4263 20.0964C76.4634 20.0964 73.6423 18.1507 73.6423 14.549C73.6423 10.9473 76.4575 8.98383 79.4263 8.98383C82.3952 8.98383 85.1926 10.9237 85.1926 14.549ZM83.6372 14.549C83.6372 11.929 81.9694 9.81772 79.4263 9.81772C76.8833 9.81772 75.1977 11.9409 75.1977 14.549C75.1977 17.1571 76.8833 19.2803 79.4263 19.2803C81.9694 19.2803 83.6372 17.163 83.6372 14.549Z" fill="black"/>
<path opacity="0.75" d="M89.8417 11.2903C92.3138 11.2903 92.8756 12.3312 92.8756 13.6146C92.8756 14.898 92.3138 15.9211 89.8417 15.9211H88.6589V19.0142C88.6596 19.203 88.7162 19.3873 88.8214 19.5441C88.9266 19.7009 89.0758 19.8231 89.2503 19.8954L89.4868 19.9841V20.0964H86.5298V19.9841L86.7663 19.8954C86.9412 19.8238 87.0909 19.7017 87.1962 19.5448C87.3015 19.3879 87.3578 19.2031 87.3578 19.0142V12.3667C87.3582 12.1784 87.302 11.9942 87.1966 11.8382C87.0911 11.6821 86.9412 11.5613 86.7663 11.4914L86.5298 11.3968V11.2903H89.8062H89.8417ZM89.8417 15.3001C90.6105 15.3001 91.6159 15.0754 91.6159 13.6146C91.6159 12.1538 90.6105 11.9291 89.8417 11.9291H88.6589V15.2765H89.8417V15.3001Z" fill="black"/>
<path opacity="0.75" d="M101.268 18.3932L101.013 20.0964H94.7266V19.9841L94.9631 19.8954C95.138 19.8238 95.2877 19.7017 95.393 19.5448C95.4983 19.3879 95.5545 19.2031 95.5545 19.0142V12.3667C95.5549 12.1784 95.4988 11.9942 95.3934 11.8382C95.2879 11.6821 95.138 11.5613 94.9631 11.4914L94.7266 11.3968V11.2903H100.511L100.747 12.9877H100.641L99.9605 12.2189C99.87 12.1193 99.7594 12.0399 99.6361 11.9859C99.5128 11.9319 99.3795 11.9045 99.2449 11.9054H96.8142V15.1109H98.1331C98.3211 15.1097 98.5045 15.0529 98.6603 14.9477C98.816 14.8424 98.9371 14.6934 99.0084 14.5195H99.1207V16.3883H99.0084C98.9378 16.2139 98.8168 16.0644 98.6609 15.9591C98.505 15.8537 98.3213 15.7973 98.1331 15.7969H96.8142V19.4755H99.7713C99.9055 19.4775 100.039 19.4512 100.162 19.3982C100.285 19.3452 100.396 19.2667 100.487 19.1679L101.161 18.3932H101.268Z" fill="black"/>
<path opacity="0.75" d="M110.689 19.9131V20.0196H108.637C108.637 20.0196 108.435 19.5642 107.797 18.1507C107.264 16.9679 106.862 15.862 106.259 15.862H105.212V18.9609C105.212 19.1493 105.268 19.3334 105.373 19.4895C105.479 19.6455 105.629 19.7663 105.804 19.8362L106.046 19.9309V20.0373H103.089V19.9309L103.326 19.8362C103.5 19.7657 103.65 19.6447 103.755 19.4888C103.86 19.3329 103.917 19.1491 103.917 18.9609V12.3135C103.916 12.1247 103.86 11.9403 103.755 11.7835C103.649 11.6268 103.5 11.5046 103.326 11.4323L103.089 11.3436V11.2312H106.383C108.855 11.2312 109.423 12.278 109.423 13.5555C109.478 14.0501 109.345 14.5475 109.051 14.9485C108.756 15.3496 108.321 15.625 107.832 15.72C108.283 16.3154 108.653 16.9676 108.932 17.6599C109.151 18.1744 109.352 18.6298 109.524 18.9964C109.705 19.3952 110.034 19.7087 110.44 19.8717L110.689 19.9131ZM107.14 15.1345C107.473 15.0384 107.759 14.826 107.948 14.5362C108.137 14.2464 108.216 13.8983 108.169 13.5555C108.169 12.0947 107.158 11.8759 106.395 11.8759H105.212V15.2232H106.395C106.654 15.2282 106.913 15.1983 107.164 15.1345H107.14Z" fill="black"/>
<path opacity="0.75" d="M120.536 19.9308V20.0373H117.295V19.9308L117.827 19.7298C117.94 19.6847 118.03 19.5983 118.081 19.4883C118.132 19.3782 118.138 19.253 118.099 19.1383L117.165 16.7195H114.208L113.256 19.1738C113.217 19.2885 113.223 19.4137 113.274 19.5237C113.324 19.6338 113.415 19.7202 113.528 19.7652L113.989 19.9486V20.055H111.623V19.9486L111.736 19.9131C111.953 19.8306 112.15 19.7031 112.314 19.5389C112.478 19.3748 112.605 19.1778 112.688 18.9609L115.645 11.2726H116.325L119.282 18.8663C119.364 19.0838 119.491 19.2813 119.655 19.4455C119.819 19.6098 120.017 19.7369 120.234 19.8185L120.536 19.9308ZM116.91 16.0689L115.68 12.899L114.456 16.0689H116.91Z" fill="black"/>
<path opacity="0.75" d="M128.041 12.9877H127.928L127.248 12.2189C127.159 12.1197 127.049 12.0406 126.927 11.9866C126.805 11.9326 126.672 11.9049 126.539 11.9054H124.599V19.0023C124.599 19.1913 124.655 19.376 124.76 19.533C124.866 19.6899 125.015 19.8119 125.19 19.8835L125.427 19.9722V20.0846H122.499V19.9722L122.736 19.8835C122.911 19.8119 123.06 19.6899 123.166 19.533C123.271 19.376 123.327 19.1913 123.327 19.0023V11.9054H121.387C121.253 11.9048 121.12 11.9324 120.996 11.9864C120.873 12.0404 120.763 12.1196 120.672 12.2189L119.998 12.9877H119.885L120.122 11.2903H127.775L128.041 12.9877Z" fill="black"/>
<path opacity="0.75" d="M131.956 12.3667V19.0142C131.956 19.2031 132.012 19.3879 132.118 19.5448C132.223 19.7017 132.372 19.8238 132.547 19.8954L132.784 19.9841V20.0964H129.856V19.9841L130.093 19.8954C130.268 19.8238 130.418 19.7017 130.523 19.5448C130.628 19.3879 130.684 19.2031 130.684 19.0142V12.3667C130.685 12.1784 130.629 11.9942 130.523 11.8382C130.418 11.6821 130.268 11.5613 130.093 11.4914L129.856 11.3968V11.2903H132.784V11.3968L132.547 11.4914C132.372 11.5613 132.223 11.6821 132.117 11.8382C132.012 11.9942 131.956 12.1784 131.956 12.3667Z" fill="black"/>
<path opacity="0.75" d="M143.778 15.6845C143.778 18.5351 141.56 20.0787 139.201 20.0787C136.841 20.0787 134.605 18.5351 134.605 15.6845C134.605 12.8339 136.841 11.2903 139.201 11.2903C141.56 11.2903 143.778 12.828 143.778 15.6845ZM142.536 15.6845C142.536 13.6146 141.217 11.9291 139.201 11.9291C137.184 11.9291 135.853 13.6146 135.853 15.6845C135.853 17.7545 137.19 19.4341 139.201 19.4341C141.212 19.4341 142.536 17.7486 142.536 15.6845Z" fill="black"/>
<path opacity="0.75" d="M152.839 12.3667V19.0142C152.839 19.2031 152.895 19.3879 153 19.5448C153.105 19.7017 153.255 19.8238 153.43 19.8954L153.667 19.9841V20.0964H152.206L146.599 12.3135V19.0319C146.6 19.2207 146.657 19.4051 146.762 19.5619C146.867 19.7186 147.016 19.8408 147.191 19.9131L147.427 20.0018V20.1142H145.138V20.0018L145.375 19.9131C145.55 19.8415 145.7 19.7195 145.805 19.5625C145.91 19.4056 145.966 19.2209 145.966 19.0319V12.3845C145.966 12.1963 145.91 12.0125 145.804 11.8566C145.699 11.7007 145.549 11.5797 145.375 11.5092L145.138 11.4146V11.3081H147.445L152.206 17.9141V12.3667C152.206 12.1784 152.15 11.9942 152.045 11.8382C151.939 11.6821 151.789 11.5613 151.614 11.4914L151.372 11.3968V11.2903H153.661V11.3968L153.424 11.4914C153.25 11.5622 153.102 11.6834 152.997 11.8394C152.893 11.9954 152.838 12.179 152.839 12.3667Z" fill="black"/>
<path opacity="0.75" d="M158.747 14.892C159.847 15.5189 161 15.9743 161 17.7899C161 19.1443 159.593 20.0787 158.043 20.0787C157.64 20.093 157.239 20.0236 156.865 19.875C156.49 19.7264 156.15 19.5017 155.867 19.2152L155.648 19.5464H155.536V17.8254H155.648C155.861 18.2879 156.197 18.6827 156.619 18.9665C157.042 19.2503 157.535 19.4121 158.043 19.434C158.27 19.4618 158.501 19.4381 158.718 19.3647C158.935 19.2912 159.132 19.1699 159.296 19.0097C159.459 18.8495 159.585 18.6546 159.663 18.4393C159.741 18.2241 159.769 17.9941 159.746 17.7663C159.746 17.0921 159.09 16.5066 158.12 15.9566C157.056 15.3651 155.885 14.9157 155.885 13.5022C155.885 12.0887 157.002 11.2726 158.558 11.2726C159.182 11.2773 159.794 11.4466 160.332 11.7635L160.498 11.4145H160.61L160.846 13.1178H160.734C160.516 12.7387 160.197 12.4276 159.813 12.2188C159.429 12.01 158.994 11.9117 158.558 11.935C157.86 11.935 156.837 12.2661 156.837 13.1178C156.837 13.9694 157.807 14.3834 158.759 14.9275L158.747 14.892Z" fill="black"/>
<path opacity="0.75" d="M83.1764 33.1607V33.3263H80.5978L79.5333 30.9606C78.8591 29.4585 78.3504 28.0686 77.6112 28.0686H76.2923V31.966C76.289 32.2066 76.3591 32.4425 76.4933 32.6422C76.6275 32.842 76.8194 32.996 77.0434 33.0838L77.3391 33.1962V33.3263H73.6428V33.1843L73.9326 33.072C74.1566 32.9842 74.3486 32.8301 74.4828 32.6304C74.617 32.4307 74.6871 32.1948 74.6837 31.9542V23.5444C74.6859 23.3048 74.6152 23.0702 74.4811 22.8716C74.3469 22.6731 74.1557 22.52 73.9326 22.4325L73.6428 22.3202V22.1723H77.7827C80.9172 22.1723 81.6269 23.4734 81.6269 25.082C81.6269 26.3122 81.207 27.3708 79.6161 27.8143C80.1925 28.5609 80.6604 29.3852 81.0059 30.2628C81.3016 30.9074 81.5559 31.4752 81.757 31.9306C81.9924 32.4417 82.4161 32.8422 82.9398 33.0483L83.1764 33.1607ZM78.7467 27.1342C79.4268 26.9331 80.0123 26.4009 80.0123 25.1412C80.0123 23.2901 78.7467 23.018 77.7768 23.018H76.2746V27.2466H77.7768C78.0988 27.2503 78.4197 27.2065 78.7289 27.1165L78.7467 27.1342Z" fill="black"/>
<path opacity="0.75" d="M91.1192 31.6052L90.8649 33.3026H84.5664V33.1961L84.803 33.1015C84.9774 33.0309 85.1268 32.91 85.2322 32.7541C85.3375 32.5982 85.394 32.4144 85.3944 32.2262V25.5788C85.3936 25.3899 85.3371 25.2056 85.2318 25.0488C85.1266 24.892 84.9774 24.7698 84.803 24.6976L84.5664 24.6089V24.4965H90.3504L90.6224 26.2293H90.5101L89.8359 25.4605C89.7445 25.3623 89.6337 25.2842 89.5105 25.2312C89.3873 25.1783 89.2544 25.1516 89.1203 25.1529H86.6837V28.3525H88.0025C88.1915 28.3525 88.3762 28.2962 88.5331 28.1909C88.6901 28.0856 88.8121 27.936 88.8837 27.7611H88.9902V29.6299H88.8482C88.7766 29.455 88.6546 29.3054 88.4977 29.2001C88.3407 29.0947 88.156 29.0385 87.967 29.0385H86.6482V32.7171H89.6052C89.7389 32.7176 89.8712 32.6899 89.9934 32.6359C90.1157 32.5819 90.2252 32.5028 90.3149 32.4036L90.995 31.6348L91.1192 31.6052Z" fill="black"/>
<path opacity="0.75" d="M96.2112 28.1041C97.3053 28.7251 98.4586 29.1864 98.4586 30.9961C98.4586 32.3504 97.051 33.2848 95.5015 33.2848C95.0982 33.3007 94.696 33.2327 94.3204 33.0851C93.9447 32.9375 93.6038 32.7135 93.3192 32.4273L93.1004 32.7526H92.988V31.0375H93.0945C93.3077 31.5008 93.6447 31.8962 94.0684 32.1801C94.4921 32.464 94.986 32.6252 95.4956 32.6461C95.7229 32.6739 95.9535 32.6502 96.1703 32.5767C96.3871 32.5033 96.5847 32.382 96.7483 32.2218C96.9118 32.0616 97.0373 31.8667 97.1153 31.6514C97.1933 31.4362 97.2219 31.2061 97.1989 30.9783C97.1989 30.3041 96.5365 29.7186 95.5666 29.1686C94.508 28.5772 93.337 28.1218 93.337 26.7143C93.337 25.3067 94.4488 24.4788 96.0042 24.4788C96.6291 24.4852 97.2411 24.6566 97.7785 24.9755L97.9441 24.6266H98.0505L98.2871 26.3299H98.1806C97.9621 25.9499 97.6424 25.6381 97.2571 25.4292C96.8717 25.2204 96.4359 25.1227 95.9983 25.1471C95.3064 25.1471 94.2773 25.4723 94.2773 26.3299C94.2773 27.1874 95.2472 27.5896 96.1994 28.1396L96.2112 28.1041Z" fill="black"/>
<path opacity="0.75" d="M106.809 31.6052L106.549 33.3026H100.25V33.1961L100.493 33.1015C100.667 33.0309 100.817 32.91 100.922 32.7541C101.028 32.5982 101.084 32.4144 101.084 32.2262V25.5788C101.083 25.3901 101.026 25.2061 100.921 25.0495C100.816 24.8928 100.667 24.7705 100.493 24.6976L100.25 24.6089V24.4965H106.04L106.277 26.1998H106.165L105.49 25.4309C105.399 25.3327 105.288 25.2546 105.165 25.2017C105.042 25.1487 104.909 25.122 104.775 25.1234H102.338V28.3229H103.633C103.822 28.3229 104.007 28.2667 104.164 28.1614C104.321 28.056 104.443 27.9064 104.515 27.7315H104.621V29.6004H104.515C104.443 29.4255 104.321 29.2758 104.164 29.1705C104.007 29.0652 103.822 29.0089 103.633 29.0089H102.315V32.6875H105.272C105.405 32.6884 105.538 32.6609 105.66 32.6069C105.782 32.5528 105.892 32.4735 105.981 32.3741L106.661 31.6052H106.809Z" fill="black"/>
<path opacity="0.75" d="M117.567 33.1429V33.2494H114.326V33.1429L114.858 32.9418C114.97 32.8956 115.061 32.8094 115.112 32.7C115.163 32.5906 115.172 32.4659 115.136 32.3504L114.202 29.9375H111.245L110.293 32.3918C110.256 32.5073 110.264 32.6325 110.315 32.7423C110.367 32.852 110.458 32.9382 110.571 32.9833L111.026 33.1666V33.273H108.66V33.1666L108.767 33.1252C108.985 33.0454 109.184 32.9188 109.348 32.7544C109.513 32.5899 109.639 32.3915 109.719 32.173L112.676 24.4847H113.35L116.307 32.0843C116.388 32.3024 116.515 32.5004 116.679 32.6648C116.843 32.8292 117.041 32.956 117.26 33.0365L117.567 33.1429ZM113.942 29.2751L112.717 26.1111L111.493 29.2751H113.942Z" fill="black"/>
<path opacity="0.75" d="M126.521 33.1193V33.2317H124.469C124.469 33.2317 124.268 32.7763 123.629 31.3628C123.097 30.18 122.694 29.0741 122.085 29.0741H121.044V32.1435C121.044 32.3325 121.101 32.5172 121.206 32.6741C121.311 32.8311 121.461 32.9531 121.636 33.0247L121.872 33.1193V33.2258H118.945V33.1193L119.181 33.0247C119.356 32.9531 119.506 32.8311 119.611 32.6741C119.717 32.5172 119.773 32.3325 119.773 32.1435V25.5256C119.773 25.3366 119.717 25.1519 119.611 24.995C119.506 24.8381 119.356 24.716 119.181 24.6444L118.945 24.5557V24.4552H122.239C124.711 24.4552 125.279 25.502 125.279 26.7794C125.334 27.2734 125.201 27.7699 124.906 28.17C124.611 28.5701 124.176 28.8444 123.688 28.938C124.138 29.5355 124.508 30.1897 124.788 30.8838C125.007 31.3924 125.208 31.8537 125.379 32.2204C125.56 32.6177 125.886 32.9309 126.29 33.0957L126.521 33.1193ZM122.972 28.3407C123.304 28.2458 123.591 28.0346 123.78 27.7457C123.969 27.4569 124.047 27.1097 124.001 26.7676C124.001 25.3068 122.99 25.0821 122.227 25.0821H121.044V28.4354H122.227C122.487 28.4408 122.746 28.4089 122.996 28.3407H122.972Z" fill="black"/>
<path opacity="0.75" d="M133.068 25.1589C131.004 25.1589 129.626 26.8444 129.626 28.9084C129.626 30.9724 131.004 32.6639 133.068 32.6639C133.952 32.6623 134.808 32.3504 135.487 31.7827L135.889 32.2617C135.092 32.9245 134.087 33.2865 133.05 33.2848C130.158 33.2848 128.348 31.3095 128.348 28.8907C128.348 26.4718 130.158 24.4965 133.05 24.4965C133.911 24.4984 134.752 24.7534 135.469 25.2298L135.67 24.8099H135.782L136.019 26.5132H135.907C135.576 26.0717 135.144 25.7164 134.646 25.4775C134.149 25.2387 133.601 25.1233 133.05 25.1411L133.068 25.1589Z" fill="black"/>
<path opacity="0.75" d="M145.866 25.5788V32.2262C145.865 32.4146 145.922 32.5987 146.027 32.7547C146.132 32.9108 146.282 33.0316 146.457 33.1015L146.694 33.1961V33.3262H143.766V33.2198L144.003 33.1252C144.178 33.0553 144.328 32.9345 144.433 32.7784C144.539 32.6223 144.595 32.4382 144.594 32.2499V29.0977H139.928V32.2499C139.928 32.4382 139.984 32.6223 140.089 32.7784C140.195 32.9345 140.345 33.0553 140.52 33.1252L140.756 33.2198V33.3262H137.829V33.2198L138.065 33.1252C138.24 33.0553 138.39 32.9345 138.495 32.7784C138.601 32.6223 138.657 32.4382 138.657 32.2499V25.5788C138.657 25.3898 138.6 25.2051 138.495 25.0481C138.39 24.8912 138.24 24.7692 138.065 24.6976L137.829 24.6089V24.4965H140.756V24.6089L140.52 24.6976C140.345 24.7692 140.195 24.8912 140.09 25.0481C139.984 25.2051 139.928 25.3898 139.928 25.5788V28.453H144.594V25.5788C144.594 25.3898 144.538 25.2051 144.433 25.0481C144.327 24.8912 144.178 24.7692 144.003 24.6976L143.766 24.6089V24.4965H146.694V24.6089L146.457 24.6976C146.282 24.7692 146.133 24.8912 146.027 25.0481C145.922 25.2051 145.866 25.3898 145.866 25.5788Z" fill="black"/>
<path opacity="0.75" d="M77.7059 39.9087C79.078 40.6953 80.5447 41.2808 80.5447 43.5695C80.5447 45.2728 78.7705 46.4615 76.807 46.4615C76.2958 46.4815 75.7858 46.3974 75.308 46.2144C74.8302 46.0314 74.3945 45.7533 74.0274 45.397L73.7494 45.7991H73.6016V43.6227H73.7494C74.0193 44.2091 74.4461 44.7095 74.9825 45.0685C75.519 45.4275 76.1443 45.6313 76.7893 45.6572C78.0549 45.6572 78.9302 45.0125 78.9302 43.5695C78.9302 42.7238 78.0904 41.9904 76.8602 41.2985C75.5059 40.5297 74.0274 39.9796 74.0274 38.1877C74.0274 36.3957 75.4349 35.3844 77.4102 35.3844C78.1929 35.3936 78.961 35.5968 79.6458 35.9758L79.8646 35.5204H80.0124L80.3259 37.6791H80.178C79.9051 37.1961 79.5036 36.7984 79.018 36.53C78.5325 36.2617 77.9821 36.1333 77.428 36.1591C76.5704 36.1591 75.2871 36.5613 75.2871 37.6258C75.2871 38.6904 76.5172 39.2345 77.7237 39.9323L77.7059 39.9087Z" fill="black"/>
<path opacity="0.75" d="M91.5448 42.1028C91.5448 44.9593 89.327 46.497 86.9673 46.497C84.6076 46.497 82.3721 44.9593 82.3721 42.1028C82.3721 39.2463 84.6017 37.7086 86.9673 37.7086C89.333 37.7086 91.5448 39.2404 91.5448 42.1028ZM90.297 42.1028C90.297 40.0329 88.9781 38.3474 86.9673 38.3474C84.9565 38.3474 83.614 40.0329 83.614 42.1028C83.614 44.1728 84.9506 45.8583 86.9673 45.8583C88.984 45.8583 90.297 44.1728 90.297 42.1028Z" fill="black"/>
<path opacity="0.75" d="M98.0918 38.371C96.0278 38.371 94.6498 40.0506 94.6498 42.1206C94.6498 44.1905 96.0278 45.876 98.0918 45.876C98.9764 45.8744 99.8323 45.5626 100.511 44.9948L100.913 45.4739C100.115 46.1366 99.1109 46.4987 98.0741 46.497C95.1821 46.497 93.3428 44.5217 93.3428 42.1028C93.3428 39.684 95.1525 37.7087 98.0741 37.7087C98.9352 37.7078 99.7772 37.963 100.493 38.442L100.694 38.0221H100.806L101.043 39.7254H100.931C100.6 39.2827 100.168 38.9263 99.6711 38.6864C99.1738 38.4465 98.6259 38.3302 98.0741 38.3474L98.0918 38.371Z" fill="black"/>
<path opacity="0.75" d="M104.958 38.7909V45.4384C104.959 45.6264 105.016 45.8098 105.121 45.9656C105.227 46.1213 105.376 46.2424 105.55 46.3137L105.786 46.4083V46.5147H102.829V46.4083L103.066 46.3137C103.24 46.2424 103.389 46.1213 103.494 45.9656C103.599 45.8098 103.656 45.6264 103.657 45.4384V38.7909C103.657 38.6019 103.601 38.4172 103.496 38.2603C103.39 38.1034 103.241 37.9813 103.066 37.9097L102.829 37.821V37.7086H105.786V37.821L105.55 37.9097C105.375 37.9813 105.225 38.1034 105.12 38.2603C105.014 38.4172 104.958 38.6019 104.958 38.7909Z" fill="black"/>
<path opacity="0.75" d="M114.184 44.8115L113.924 46.5147H107.625V46.4083L107.868 46.3137C108.042 46.2424 108.191 46.1213 108.296 45.9656C108.401 45.8098 108.458 45.6264 108.459 45.4384V38.7909C108.459 38.6019 108.403 38.4172 108.298 38.2603C108.192 38.1034 108.043 37.9813 107.868 37.9097L107.625 37.821V37.7086H113.415L113.652 39.4119H113.539L112.865 38.6431C112.775 38.5435 112.664 38.4641 112.541 38.4101C112.417 38.3561 112.284 38.3287 112.15 38.3296H109.713V41.5351H111.032C111.221 41.5351 111.405 41.4788 111.562 41.3735C111.719 41.2682 111.841 41.1186 111.913 40.9437H112.019V42.7889H111.913C111.841 42.614 111.719 42.4643 111.562 42.359C111.405 42.2537 111.221 42.1974 111.032 42.1974H109.713V45.876H112.67C112.805 45.8766 112.938 45.849 113.061 45.795C113.184 45.741 113.295 45.6619 113.386 45.5626L114.06 44.7937L114.184 44.8115Z" fill="black"/>
<path opacity="0.75" d="M124.155 39.4119H124.049L123.369 38.6431C123.279 38.5439 123.169 38.4648 123.047 38.4108C122.925 38.3568 122.793 38.3291 122.659 38.3296H120.713V45.4265C120.715 45.6143 120.772 45.7974 120.877 45.9531C120.983 46.1087 121.131 46.23 121.305 46.3018L121.541 46.3965V46.5029H118.614V46.3965L118.85 46.3018C119.024 46.2306 119.173 46.1095 119.279 45.9537C119.384 45.7979 119.441 45.6145 119.442 45.4265V38.3296H117.531C117.397 38.3287 117.264 38.3561 117.14 38.4101C117.017 38.4641 116.906 38.5435 116.816 38.6431L116.136 39.4119H116.029L116.266 37.7086H123.919L124.155 39.4119Z" fill="black"/>
<path opacity="0.75" d="M133.529 37.7264V37.8388L133.293 37.9275C132.967 38.0509 132.691 38.2772 132.506 38.5721L130.087 42.2329L130.034 42.3039V45.4384C130.035 45.6264 130.092 45.8098 130.197 45.9656C130.302 46.1213 130.451 46.2424 130.625 46.3137L130.862 46.4083V46.5147H127.934V46.4083L128.171 46.3137C128.345 46.2424 128.494 46.1213 128.599 45.9656C128.704 45.8098 128.761 45.6264 128.762 45.4384V42.5227L126.166 38.5898C125.979 38.2946 125.701 38.0683 125.374 37.9452L125.048 37.821V37.7086H128.212V37.821L127.94 37.9275C127.875 37.9536 127.817 37.9939 127.77 38.0453C127.722 38.0967 127.687 38.1579 127.666 38.2247C127.645 38.2914 127.639 38.362 127.649 38.4312C127.658 38.5005 127.683 38.5668 127.722 38.6253L129.715 41.6474L131.714 38.6253C131.752 38.5664 131.776 38.4998 131.785 38.4302C131.795 38.3606 131.788 38.2899 131.767 38.2231C131.745 38.1563 131.709 38.0951 131.661 38.044C131.613 37.9928 131.554 37.953 131.489 37.9275L131.217 37.821V37.7086L133.529 37.7264Z" fill="black"/>
<path opacity="0.75" d="M79.6103 49.4185C76.9904 49.4185 75.2694 51.5417 75.2694 54.1498C75.2694 56.7579 76.9904 58.8811 79.6103 58.8811C80.7286 58.8763 81.8102 58.481 82.6679 57.7633L83.1765 58.3547C82.1817 59.1891 80.9264 59.6493 79.628 59.6558C75.9672 59.6558 73.6785 57.166 73.6785 54.1084C73.6785 51.0508 75.9672 48.561 79.628 48.561C80.7079 48.5651 81.7636 48.8814 82.6679 49.4717L82.9222 48.9454H83.07L83.3776 51.104H83.2356C82.8147 50.5452 82.2657 50.0956 81.6348 49.793C81.0039 49.4904 80.3096 49.3438 79.6103 49.3653V49.4185Z" fill="black"/>
<path opacity="0.75" d="M92.0002 58.0058L91.7636 59.709H85.1694V59.5967L85.4119 59.508C85.5859 59.4351 85.7347 59.3127 85.8398 59.1561C85.9449 58.9994 86.0018 58.8154 86.0033 58.6268V51.9793C86.0022 51.7913 85.9454 51.6079 85.8401 51.4521C85.7349 51.2964 85.5859 51.1753 85.4119 51.104L85.1694 51.0094V50.903H88.1265V51.0094L87.884 51.104C87.7096 51.1746 87.5601 51.2956 87.4548 51.4515C87.3494 51.6074 87.293 51.7912 87.2926 51.9793V59.0762H90.5335C90.6626 59.0719 90.7895 59.0414 90.9064 58.9865C91.0233 58.9316 91.1279 58.8535 91.2136 58.7569L91.8878 57.988L92.0002 58.0058Z" fill="black"/>
<path opacity="0.75" d="M102.232 50.9207V51.0272L101.995 51.1218C101.821 51.193 101.672 51.3141 101.567 51.4699C101.462 51.6257 101.405 51.8091 101.404 51.9971V57.1069C101.404 57.8911 101.092 58.6433 100.538 59.1978C99.983 59.7524 99.2309 60.0639 98.4466 60.0639H97.6068C96.8225 60.0639 96.0704 59.7524 95.5158 59.1978C94.9613 58.6433 94.6497 57.8911 94.6497 57.1069V51.9971C94.6478 51.8093 94.5907 51.6262 94.4856 51.4706C94.3804 51.3149 94.2319 51.1937 94.0583 51.1218L93.8218 51.0272V50.9207H96.7788V51.0272L96.5423 51.1218C96.3683 51.193 96.2193 51.3141 96.114 51.4699C96.0088 51.6257 95.952 51.8091 95.9508 51.9971V57.1069C95.9508 58.3725 96.5423 59.3956 97.7842 59.3956H98.4584C99.0654 59.3956 99.6476 59.1545 100.077 58.7253C100.506 58.296 100.747 57.7139 100.747 57.1069V51.9971C100.746 51.8091 100.689 51.6257 100.584 51.4699C100.479 51.3141 100.33 51.193 100.156 51.1218L99.9192 51.0272V50.9207H102.232Z" fill="black"/>
<path opacity="0.75" d="M108.725 54.9659C109.261 55.0642 109.744 55.3471 110.092 55.7653C110.44 56.1836 110.63 56.7106 110.63 57.2547C110.63 58.8101 109.335 59.7445 107.188 59.7445H103.545V59.6321L103.787 59.5434C103.962 59.4718 104.112 59.3498 104.217 59.1929C104.322 59.0359 104.379 58.8512 104.379 58.6622V52.0207C104.379 51.8317 104.322 51.647 104.217 51.4901C104.112 51.3331 103.962 51.2111 103.787 51.1395L103.545 51.0508V50.9384H106.845C108.524 50.9384 109.861 51.2519 109.861 53.1562C109.857 53.5286 109.748 53.8924 109.548 54.2061C109.347 54.5199 109.062 54.7708 108.725 54.9304V54.9659ZM105.632 54.7471H106.815C107.59 54.7471 108.589 54.546 108.589 53.1739C108.589 51.8019 107.602 51.5949 106.815 51.5949H105.632V54.7471ZM107.188 59.1058C108.199 59.1058 109.352 58.7923 109.352 57.2369C109.352 55.9003 108.761 55.3681 107.17 55.3681H105.632V59.088H107.182L107.188 59.1058Z" fill="black"/>
</g>
</svg>
