<svg  viewBox="0 0 586 302" fill="none" xmlns="http://www.w3.org/2000/svg">
<path opacity="0.5" d="M498.137 9.93954C431.123 -20.9962 392.233 29.679 319.556 34.9528C246.879 40.2266 233.717 4.70417 162.891 13.0491C99.4682 20.521 78.4023 68.2142 49.0633 119.893C19.7243 171.572 15.3656 154.078 2.02867 205.049C-11.3082 256.019 45.4555 301.001 45.4555 301.001H528.459C557.132 298.892 584.379 270.801 585.823 227.905C588.591 145.681 558.15 147.4 556.817 111.892C555.483 76.3854 565.151 40.8783 498.137 9.93954Z" fill="#14ACB7"/>
<path d="M186.853 71.4619H94.5951C92.9868 71.4619 91.6831 72.7695 91.6831 74.3824V274.018C91.6831 275.631 92.9868 276.939 94.5951 276.939H186.853C188.461 276.939 189.765 275.631 189.765 274.018V74.3824C189.765 72.7695 188.461 71.4619 186.853 71.4619Z" fill="#14ACB7"/>
<path d="M183.902 88.2194H97.5652V134.586H183.902V88.2194Z" fill="#036A71"/>
<path d="M183.902 138.81H97.5652V185.177H183.902V138.81Z" fill="#036A71"/>
<path d="M183.902 189.401H97.5652V235.767H183.902V189.401Z" fill="#036A71"/>
<path d="M380.429 71.4619H210.967C209.359 71.4619 208.055 72.7695 208.055 74.3824V274.018C208.055 275.631 209.359 276.939 210.967 276.939H380.429C382.037 276.939 383.341 275.631 383.341 274.018V74.3824C383.341 72.7695 382.037 71.4619 380.429 71.4619Z" fill="#14ACB7"/>
<path d="M372.867 88.2194H218.569V134.586H372.867V88.2194Z" fill="#036A71"/>
<path d="M372.867 138.81H218.569V185.177H372.867V138.81Z" fill="#036A71"/>
<path d="M372.867 189.401H218.569V235.767H372.867V189.401Z" fill="#036A71"/>
<path d="M288.309 231.002V235.767H314.24V231.002H288.309Z" fill="#AFDBFE"/>
<path d="M291.894 226.765V231.002H315.086V226.765H291.894Z" fill="white"/>
<path d="M288.317 222.527V226.765H311.509V222.527H288.317Z" fill="#70C0FD"/>
<path d="M337.03 206.728H331.753V235.767H337.03V206.728Z" fill="#AFDBFE"/>
<path d="M342.445 211.646H338.279V235.767H342.445V211.646Z" fill="#70C0FD"/>
<path d="M324.832 206.728H319.555V235.767H324.832V206.728Z" fill="#AFDBFE"/>
<path d="M330.248 211.646H326.082V235.767H330.248V211.646Z" fill="#70C0FD"/>
<path d="M242.55 212.574H233.339V235.767H242.55V212.574Z" fill="#AFDBFE"/>
<path d="M231.765 214.846H229.173V235.766H231.765V214.846Z" fill="white"/>
<path d="M228.341 211.507H224.221V235.767H228.341V211.507Z" fill="#70C0FD"/>
<path d="M283.84 211.507H279.721V235.767H283.84V211.507Z" fill="#70C0FD"/>
<path d="M258.428 214.846H250.049V235.766H258.428V214.846Z" fill="white"/>
<path d="M264.584 206.728H259.308V235.767H264.584V206.728Z" fill="#AFDBFE"/>
<path d="M269.999 211.646H265.833V235.767H269.999V211.646Z" fill="#70C0FD"/>
<path d="M248.475 209.929H243.615V235.766H248.475V209.929Z" fill="#70C0FD"/>
<path d="M278.472 214.011H270.834V235.767H278.472V214.011Z" fill="white"/>
<path d="M109.797 214.831H107.205V235.752H109.797V214.831Z" fill="white"/>
<path d="M106.372 211.49H102.252V235.75H106.372V211.49Z" fill="#A2CFF6"/>
<path d="M181.22 212.557H172.009V235.75H181.22V212.557Z" fill="#AFDBFE"/>
<path d="M170.434 214.831H167.842V235.752H170.434V214.831Z" fill="white"/>
<path d="M167.01 211.49H162.89V235.75H167.01V211.49Z" fill="#70C0FD"/>
<path d="M146.874 206.712H141.597V235.75H146.874V206.712Z" fill="#AFDBFE"/>
<path d="M111.209 230.985V235.75H137.139V230.985H111.209Z" fill="#B0C1EC"/>
<path d="M114.793 226.748V230.985H137.985V226.748H114.793Z" fill="white"/>
<path d="M111.216 222.512V226.749H134.408V222.512H111.216Z" fill="#A2CFF6"/>
<path d="M152.291 211.629H148.125V235.751H152.291V211.629Z" fill="#70C0FD"/>
<path d="M161.64 213.994H154.003V235.751H161.64V213.994Z" fill="white"/>
<path d="M228.721 113.666H226.129V134.588H228.721V113.666Z" fill="white"/>
<path d="M225.295 110.326H221.176V134.586H225.295V110.326Z" fill="#14ACB7"/>
<path d="M300.143 111.393H290.932V134.586H300.143V111.393Z" fill="#AFDBFE"/>
<path d="M289.358 113.666H286.766V134.588H289.358V113.666Z" fill="white"/>
<path d="M285.934 110.326H281.814V134.586H285.934V110.326Z" fill="#14ACB7"/>
<path d="M265.798 105.547H260.521V134.586H265.798V105.547Z" fill="#AFDBFE"/>
<path d="M230.132 129.821V134.586H256.063V129.821H230.132Z" fill="#AFDBFE"/>
<path d="M233.717 125.583V129.821H256.909V125.583H233.717Z" fill="white"/>
<path d="M230.14 121.347V125.585H253.332V121.347H230.14Z" fill="#70C0FD"/>
<path d="M271.214 110.464H267.049V134.586H271.214V110.464Z" fill="#14ACB7"/>
<path d="M280.563 112.83H272.926V134.586H280.563V112.83Z" fill="white"/>
<path d="M415.69 111.035H413.099V131.955H415.69V111.035Z" fill="white"/>
<path d="M412.265 107.696H408.145V131.956H412.265V107.696Z" fill="#14ACB7"/>
<path d="M472.903 107.696H468.783V131.956H472.903V107.696Z" fill="#14ACB7"/>
<path opacity="0.5" d="M452.769 102.917H447.492V131.956H452.769V102.917Z" fill="#14ACB7"/>
<path d="M417.103 127.19V131.955H443.034V127.19H417.103Z" fill="#AFDBFE"/>
<path d="M420.687 122.953V127.191H443.878V122.953H420.687Z" fill="white"/>
<path opacity="0.5" d="M417.111 118.715V122.953H440.303V118.715H417.111Z" fill="#14ACB7"/>
<path d="M458.184 107.834H454.018V131.956H458.184V107.834Z" fill="#14ACB7"/>
<path d="M467.534 110.2H459.897V131.956H467.534V110.2Z" fill="white"/>
<path d="M355.051 105.547H349.774V134.586H355.051V105.547Z" fill="#AFDBFE"/>
<path d="M360.465 110.464H356.3V134.586H360.465V110.464Z" fill="#70C0FD"/>
<path d="M369.816 112.83H362.179V134.586H369.816V112.83Z" fill="white"/>
<path d="M120.582 111.393H111.371V134.586H120.582V111.393Z" fill="#AFDBFE"/>
<path d="M109.797 113.666H107.205V134.588H109.797V113.666Z" fill="white"/>
<path d="M106.372 110.326H102.252V134.586H106.372V110.326Z" fill="#70C0FD"/>
<path d="M176.961 111.393H167.75V134.586H176.961V111.393Z" fill="#AFDBFE"/>
<path d="M166.176 113.666H163.584V134.588H166.176V113.666Z" fill="white"/>
<path d="M162.751 110.326H158.631V134.586H162.751V110.326Z" fill="#70C0FD"/>
<path d="M136.46 113.666H128.081V134.588H136.46V113.666Z" fill="white"/>
<path d="M142.615 105.547H137.338V134.586H142.615V105.547Z" fill="#AFDBFE"/>
<path d="M148.032 110.464H143.866V134.586H148.032V110.464Z" fill="#70C0FD"/>
<path d="M126.507 108.749H121.647V134.586H126.507V108.749Z" fill="#70C0FD"/>
<path d="M320.819 111.393H311.608V134.586H320.819V111.393Z" fill="#AFDBFE"/>
<path d="M310.034 113.666H307.443V134.588H310.034V113.666Z" fill="white"/>
<path d="M306.609 110.326H302.489V134.586H306.609V110.326Z" fill="#14ACB7"/>
<path d="M336.697 113.666H328.318V134.588H336.697V113.666Z" fill="white"/>
<path d="M342.852 105.547H337.576V134.586H342.852V105.547Z" fill="#AFDBFE"/>
<path d="M348.269 110.464H344.103V134.586H348.269V110.464Z" fill="#14ACB7"/>
<path d="M326.744 108.749H321.884V134.586H326.744V108.749Z" fill="#14ACB7"/>
<path opacity="0.5" d="M430.089 61.3678H424.812V90.4067H430.089V61.3678Z" fill="#14ACB7"/>
<path d="M435.505 66.2834H431.34V90.4052H435.505V66.2834Z" fill="#036A71"/>
<path d="M444.854 68.6505H437.217V90.4067H444.854V68.6505Z" fill="white"/>
<path d="M411.736 69.4852H403.357V90.4067H411.736V69.4852Z" fill="white"/>
<path opacity="0.5" d="M417.893 61.3678H412.616V90.4067H417.893V61.3678Z" fill="#14ACB7"/>
<path d="M423.307 66.2834H419.142V90.4052H423.307V66.2834Z" fill="#14ACB7"/>
<path d="M401.783 64.568H396.923V90.4051H401.783V64.568Z" fill="#14ACB7"/>
<path d="M339.007 161.983H329.796V185.177H339.007V161.983Z" fill="#AFDBFE"/>
<path d="M328.222 164.257H325.63V185.177H328.222V164.257Z" fill="white"/>
<path d="M324.797 160.917H320.677V185.177H324.797V160.917Z" fill="#70C0FD"/>
<path d="M359.682 161.983H350.471V185.177H359.682V161.983Z" fill="#AFDBFE"/>
<path d="M348.897 164.257H346.305V185.177H348.897V164.257Z" fill="white"/>
<path d="M345.472 160.917H341.352V185.177H345.472V160.917Z" fill="#70C0FD"/>
<path d="M365.607 159.34H360.747V185.177H365.607V159.34Z" fill="#70C0FD"/>
<path d="M157.382 112.83H149.745V134.586H157.382V112.83Z" fill="white"/>
<path d="M242.55 161.983H233.339V185.177H242.55V161.983Z" fill="#AFDBFE"/>
<path d="M231.765 164.257H229.173V185.177H231.765V164.257Z" fill="white"/>
<path d="M228.341 160.917H224.221V185.177H228.341V160.917Z" fill="#70C0FD"/>
<path d="M298.929 161.983H289.718V185.177H298.929V161.983Z" fill="#AFDBFE"/>
<path d="M288.144 164.257H285.552V185.177H288.144V164.257Z" fill="white"/>
<path d="M284.718 160.917H280.599V185.177H284.718V160.917Z" fill="#70C0FD"/>
<path d="M258.428 164.257H250.049V185.177H258.428V164.257Z" fill="white"/>
<path d="M264.584 156.138H259.308V185.177H264.584V156.138Z" fill="#AFDBFE"/>
<path d="M269.999 161.055H265.833V185.177H269.999V161.055Z" fill="#70C0FD"/>
<path d="M248.475 159.34H243.615V185.177H248.475V159.34Z" fill="#70C0FD"/>
<path d="M279.35 163.421H271.713V185.177H279.35V163.421Z" fill="white"/>
<path d="M120.582 159.862H111.371V185.177H120.582V159.862Z" fill="white"/>
<path d="M109.797 164.257H107.205V185.177H109.797V164.257Z" fill="#70C0FD"/>
<path d="M106.372 160.917H102.252V185.177H106.372V160.917Z" fill="#AFDBFE"/>
<path d="M166.176 164.257H163.584V185.177H166.176V164.257Z" fill="#70C0FD"/>
<path d="M162.751 158.297H158.631V185.177H162.751V158.297Z" fill="white"/>
<path d="M136.46 158.297H128.081V185.177H136.46V158.297Z" fill="#70C0FD"/>
<path d="M142.615 161.983H137.338V185.177H142.615V161.983Z" fill="white"/>
<path d="M148.032 154.647H143.866V185.177H148.032V154.647Z" fill="#AFDBFE"/>
<path d="M126.507 162.6H121.647V185.177H126.507V162.6Z" fill="#AFDBFE"/>
<path d="M157.382 159.34H149.745V185.177H157.382V159.34Z" fill="#70C0FD"/>
<path d="M172.199 158.356L165.006 160.93L173.666 185.267L180.859 182.693L172.199 158.356Z" fill="white"/>
<path d="M305.771 158.355L298.579 160.929L307.239 185.266L314.431 182.692L305.771 158.355Z" fill="white"/>
<path d="M310.253 159.543L306.657 160.83L315.317 185.167L318.913 183.88L310.253 159.543Z" fill="#70C0FD"/>
<path d="M447.497 64.6865L443.901 65.9734L452.561 90.3103L456.157 89.0234L447.497 64.6865Z" fill="#14ACB7"/>
<path d="M423.54 286.905L422.575 294.666L417.382 295.07L417.463 287.874L423.54 286.905Z" fill="#FFC0BB"/>
<path d="M332.006 213.195H382.258L376.768 251.274L335.295 244.503L332.006 213.195Z" fill="#F9537F"/>
<path d="M409.491 300.75L423.677 300.845C423.749 300.847 423.821 300.834 423.889 300.807C423.956 300.781 424.018 300.741 424.07 300.69C424.121 300.639 424.163 300.578 424.191 300.511C424.219 300.444 424.233 300.372 424.233 300.3V299.891C424.23 299.743 424.169 299.602 424.063 299.498C423.957 299.395 423.815 299.337 423.668 299.337L409.482 299.241C409.409 299.239 409.337 299.252 409.27 299.279C409.203 299.306 409.141 299.346 409.09 299.396C409.038 299.447 408.997 299.508 408.968 299.575C408.94 299.642 408.926 299.714 408.925 299.786V300.197C408.929 300.345 408.99 300.485 409.096 300.589C409.202 300.692 409.343 300.75 409.491 300.75Z" fill="#3D3A55"/>
<path d="M423.487 294.751L424.031 298.952C424.097 299.47 423.805 299.937 423.418 299.935L409.931 299.843C409.74 299.836 409.555 299.775 409.398 299.666C409.241 299.557 409.118 299.405 409.045 299.228C408.852 298.815 408.809 298.192 409.405 297.359C410.599 295.696 414.564 295.315 416.492 293.901L422.775 293.942C423.131 293.931 423.425 294.283 423.487 294.751Z" fill="#09083C"/>
<path d="M417.46 296.335C417.51 296.296 417.545 296.24 417.559 296.178C417.572 296.116 417.563 296.051 417.534 295.994C417.264 295.418 416.424 294.011 414.743 294.288C414.69 294.308 414.645 294.347 414.618 294.397C414.592 294.447 414.584 294.506 414.597 294.561C414.614 294.689 414.703 294.772 414.797 294.757C416.305 294.515 417.019 295.754 417.238 296.237C417.289 296.343 417.384 296.391 417.46 296.335Z" fill="white"/>
<path d="M416.067 296.867C416.117 296.828 416.152 296.772 416.165 296.71C416.178 296.648 416.17 296.583 416.141 296.526C415.871 295.948 415.031 294.543 413.348 294.818C413.295 294.838 413.251 294.877 413.225 294.928C413.198 294.978 413.191 295.037 413.204 295.092C413.221 295.218 413.31 295.301 413.404 295.286C414.91 295.044 415.626 296.283 415.844 296.766C415.893 296.873 415.988 296.915 416.067 296.867Z" fill="white"/>
<path d="M414.769 297.362C414.819 297.323 414.854 297.267 414.867 297.205C414.88 297.143 414.872 297.078 414.843 297.021C414.573 296.443 413.733 295.038 412.05 295.315C411.997 295.334 411.953 295.373 411.926 295.423C411.9 295.473 411.893 295.532 411.906 295.587C411.925 295.713 412.012 295.796 412.107 295.782C413.614 295.539 414.329 296.778 414.547 297.262C414.552 297.285 414.563 297.307 414.578 297.325C414.593 297.343 414.612 297.358 414.634 297.367C414.655 297.377 414.678 297.382 414.702 297.381C414.726 297.38 414.749 297.374 414.769 297.362Z" fill="white"/>
<g style="mix-blend-mode:multiply" opacity="0.3">
<path d="M419.818 299.911C420.851 296.529 422.679 296.165 423.68 296.251L424.031 298.952C424.097 299.47 423.806 299.937 423.418 299.935L419.818 299.911Z" fill="#E87B50"/>
</g>
<path d="M446.666 286.423L447.106 294.56L441.821 294.597L441.317 287.071L446.666 286.423Z" fill="#FFC0BB"/>
<path d="M434.23 300.888L448.416 300.985C448.489 300.987 448.561 300.974 448.629 300.947C448.696 300.92 448.758 300.88 448.81 300.829C448.861 300.778 448.903 300.717 448.931 300.65C448.959 300.583 448.974 300.511 448.974 300.438V300.029C448.971 299.881 448.91 299.74 448.804 299.637C448.698 299.533 448.556 299.475 448.409 299.476L434.223 299.379C434.15 299.377 434.078 299.391 434.011 299.417C433.943 299.444 433.882 299.484 433.83 299.535C433.778 299.586 433.737 299.647 433.709 299.714C433.681 299.781 433.666 299.853 433.666 299.926V300.335C433.669 300.483 433.73 300.624 433.836 300.727C433.941 300.83 434.083 300.888 434.23 300.888Z" fill="#3D3A55"/>
<path d="M448.225 294.89L448.769 299.09C448.835 299.608 448.544 300.077 448.156 300.074L434.669 299.983C434.477 299.975 434.292 299.912 434.135 299.801C433.978 299.691 433.856 299.537 433.783 299.359C433.59 298.945 433.547 298.323 434.143 297.491C435.337 295.827 439.3 295.445 441.23 294.031L447.514 294.074C447.862 294.076 448.164 294.422 448.225 294.89Z" fill="#09083C"/>
<path d="M442.201 296.475C442.251 296.435 442.285 296.379 442.299 296.317C442.312 296.255 442.304 296.189 442.275 296.133C442.005 295.556 441.165 294.151 439.483 294.426C439.429 294.446 439.386 294.485 439.359 294.536C439.332 294.586 439.325 294.645 439.339 294.7C439.355 294.826 439.443 294.909 439.538 294.894C441.044 294.652 441.76 295.891 441.978 296.374C442.027 296.481 442.122 296.523 442.201 296.475Z" fill="white"/>
<path d="M440.805 297.006C440.855 296.966 440.89 296.91 440.903 296.848C440.917 296.786 440.908 296.721 440.879 296.664C440.609 296.088 439.769 294.681 438.086 294.958C437.99 294.974 437.933 295.1 437.942 295.23C437.959 295.356 438.047 295.441 438.142 295.425C439.648 295.183 440.364 296.421 440.582 296.906C440.587 296.929 440.598 296.951 440.613 296.969C440.628 296.987 440.647 297.002 440.669 297.012C440.69 297.021 440.714 297.026 440.738 297.025C440.761 297.024 440.785 297.017 440.805 297.006Z" fill="white"/>
<path d="M439.507 297.5C439.556 297.461 439.591 297.405 439.604 297.343C439.617 297.281 439.609 297.216 439.581 297.159C439.311 296.583 438.471 295.176 436.788 295.453C436.735 295.473 436.691 295.511 436.664 295.561C436.638 295.612 436.631 295.67 436.644 295.725C436.661 295.853 436.75 295.936 436.843 295.92C438.352 295.677 439.066 296.916 439.285 297.401C439.29 297.424 439.301 297.445 439.316 297.463C439.331 297.481 439.35 297.496 439.371 297.506C439.393 297.515 439.416 297.52 439.44 297.519C439.463 297.518 439.486 297.512 439.507 297.5Z" fill="white"/>
<g style="mix-blend-mode:multiply" opacity="0.3">
<path d="M444.556 300.049C445.589 296.667 447.417 296.303 448.418 296.389L448.769 299.09C448.835 299.608 448.544 300.077 448.156 300.074L444.556 300.049Z" fill="#E87B50"/>
</g>
<path d="M341.468 271.762H513.357C513.51 271.762 513.658 271.823 513.766 271.932C513.875 272.041 513.936 272.189 513.936 272.343V274.113C513.936 274.268 513.875 274.416 513.766 274.525C513.657 274.635 513.509 274.696 513.355 274.696H341.468C341.315 274.696 341.167 274.635 341.059 274.526C340.95 274.417 340.889 274.269 340.889 274.115V272.344C340.889 272.268 340.904 272.192 340.933 272.121C340.962 272.051 341.004 271.987 341.058 271.932C341.112 271.878 341.176 271.835 341.246 271.806C341.317 271.777 341.392 271.762 341.468 271.762Z" fill="#3D3A55"/>
<path d="M524.376 187.621C523.729 187.665 412.456 187.635 375.902 187.621C374.393 187.619 372.899 187.915 371.504 188.493C370.11 189.07 368.843 189.918 367.775 190.987C366.708 192.056 365.861 193.326 365.283 194.723C364.705 196.121 364.407 197.619 364.407 199.132V246.127H501.965L523.303 224.743L524.376 187.621Z" fill="#FF5B7E"/>
<path d="M520.977 231.777H527.776C529.008 231.777 530.007 230.775 530.007 229.539V189.857C530.007 188.621 529.008 187.619 527.776 187.619H520.977C519.744 187.619 518.745 188.621 518.745 189.857V229.539C518.745 230.775 519.744 231.777 520.977 231.777Z" fill="#E03268"/>
<path d="M335.296 267.289H476.636V239.101L335.296 239.101V267.289Z" fill="#E03268"/>
<path d="M445.34 228.526C445.34 228.526 419.277 228.621 415.255 233.861C411.233 239.101 408.176 274.49 415.255 289.966C415.255 289.966 424.426 290.288 426.517 288.999C426.517 288.999 425.873 262.879 426.195 255.951C426.517 249.023 431.345 248.05 431.987 247.406C432.629 246.762 445.34 228.526 445.34 228.526Z" fill="#2B1C35"/>
<path d="M485.265 174.265L486.254 182.305L478.301 182.032L478.529 172.832L485.265 174.265Z" fill="#FFC0BB"/>
<path opacity="0.6" d="M478.425 177.067L478.529 172.831L485.363 175.026L485.555 176.614C484.039 177.182 481.158 177.88 478.425 177.067Z" fill="#FC8D84"/>
<path d="M468.94 161.533L469.97 167.017L470.964 167.314L470.714 160.356L468.94 161.533Z" fill="#FEE4CB"/>
<path d="M471.409 166.018C471.977 167.167 471.695 168.468 470.777 168.925C469.859 169.382 468.653 168.82 468.083 167.672C467.513 166.524 467.796 165.224 468.714 164.767C469.632 164.311 470.843 164.87 471.409 166.018Z" fill="#F99893"/>
<path d="M472.262 172.921C471.928 172.428 471.639 171.904 471.4 171.357C470.769 169.927 470.324 168.422 470.075 166.879C470.023 166.572 469.954 166.281 469.881 165.986C469.547 164.651 469.493 163.26 469.722 161.903C469.952 160.546 470.46 159.251 471.215 158.101C471.969 156.951 472.954 155.971 474.106 155.222C475.258 154.474 476.553 153.974 477.908 153.753C479.263 153.533 480.649 153.598 481.978 153.943C483.307 154.288 484.55 154.906 485.628 155.758C486.706 156.61 487.596 157.677 488.242 158.892C488.887 160.107 489.274 161.444 489.377 162.817C489.97 162.426 490.659 162.295 491.29 162.523C492.502 162.959 493.04 164.544 492.495 166.058C491.949 167.572 490.521 168.45 489.31 168.013C489.146 167.952 488.992 167.869 488.85 167.766C488.714 172.646 485.018 176.681 480.267 176.956C478.014 177.085 475.797 176.349 474.065 174.898C473.941 174.808 473.822 174.712 473.708 174.609C473.155 174.112 472.669 173.545 472.262 172.921Z" fill="#FFC0BB"/>
<path d="M480.565 164.332C480.574 164.503 480.634 164.668 480.737 164.805C480.84 164.942 480.981 165.045 481.143 165.102C481.304 165.158 481.479 165.165 481.644 165.122C481.81 165.08 481.959 164.988 482.073 164.86C482.186 164.732 482.26 164.573 482.284 164.404C482.307 164.234 482.28 164.061 482.206 163.906C482.132 163.752 482.014 163.623 481.866 163.536C481.719 163.449 481.549 163.408 481.378 163.418C481.265 163.424 481.154 163.452 481.051 163.501C480.949 163.551 480.857 163.62 480.782 163.705C480.706 163.79 480.648 163.889 480.611 163.997C480.573 164.104 480.558 164.218 480.565 164.332Z" fill="#333333"/>
<path d="M473.173 165.25C473.182 165.421 473.242 165.586 473.345 165.724C473.448 165.861 473.589 165.965 473.751 166.022C473.912 166.079 474.087 166.086 474.253 166.043C474.419 166 474.569 165.909 474.683 165.781C474.797 165.653 474.871 165.494 474.895 165.324C474.919 165.153 474.892 164.98 474.817 164.825C474.743 164.67 474.625 164.541 474.477 164.454C474.329 164.367 474.159 164.325 473.988 164.335C473.875 164.341 473.764 164.37 473.661 164.419C473.559 164.469 473.467 164.538 473.391 164.623C473.316 164.708 473.257 164.807 473.22 164.914C473.182 165.022 473.166 165.136 473.173 165.25Z" fill="#333333"/>
<path d="M479.423 162.678C479.813 162.487 480.217 162.326 480.632 162.197C481.02 162.079 481.423 162.017 481.829 162.013C482.233 162.006 482.636 162.062 483.023 162.177L483.176 162.216C483.227 162.229 483.274 162.252 483.33 162.269L483.636 162.375C483.84 162.451 484.033 162.554 484.258 162.626C484.12 162.442 483.967 162.27 483.799 162.113C483.621 161.96 483.427 161.829 483.219 161.721C482.796 161.492 482.321 161.376 481.84 161.384C481.357 161.389 480.884 161.513 480.46 161.745C480.04 161.962 479.683 162.283 479.423 162.678Z" fill="#07085B"/>
<path d="M475.958 163.058C475.625 162.728 475.213 162.489 474.762 162.365C474.299 162.231 473.81 162.212 473.338 162.311C472.865 162.407 472.424 162.623 472.057 162.938C471.878 163.09 471.717 163.261 471.576 163.448C471.444 163.637 471.33 163.838 471.236 164.048C471.439 163.929 471.605 163.788 471.789 163.67L472.062 163.5C472.108 163.473 472.147 163.441 472.195 163.416L472.334 163.345C472.688 163.149 473.07 163.008 473.466 162.926C473.863 162.843 474.269 162.818 474.673 162.849C475.106 162.884 475.536 162.954 475.958 163.058Z" fill="#07085B"/>
<path d="M467.559 155.013C467.559 155.013 464.596 155.256 467.588 152.59C470.58 149.925 478.796 146.568 484.294 149.133C484.294 149.133 485.253 146.802 486.829 147.269C488.404 147.736 485.924 149.432 485.924 149.432C485.924 149.432 487.9 149.269 488.55 150.211C489.031 150.906 487.822 150.998 487.158 150.998C488.294 151.133 492.075 153.128 490.332 161.947C489.555 161.814 483.337 156.704 483.337 156.704C483.337 156.704 475.204 162.143 476.158 159.247C476.158 159.247 466.457 164.781 467.671 159.346C467.669 159.346 463.663 159.839 467.559 155.013Z" fill="#07085B"/>
<path d="M477.294 162.829C477.512 163.418 477.646 164.035 477.692 164.661C477.722 164.98 477.722 165.3 477.692 165.619C477.663 165.966 477.558 166.303 477.386 166.606L477.3 166.724L477.222 166.827C477.183 166.87 477.148 166.917 477.118 166.967C477.057 167.059 477.02 167.164 477.007 167.274C476.999 167.39 477.015 167.507 477.054 167.617C477.093 167.727 477.155 167.827 477.234 167.912C477.576 168.313 478.161 168.527 478.767 168.627C478.169 168.764 477.453 168.71 476.906 168.239C476.759 168.118 476.642 167.965 476.562 167.792C476.483 167.619 476.443 167.43 476.446 167.239C476.448 167.139 476.465 167.04 476.497 166.945C476.523 166.851 476.562 166.76 476.612 166.676C476.659 166.593 476.714 166.516 476.776 166.444C476.811 166.401 476.817 166.387 476.836 166.363L476.883 166.297C477.009 166.062 477.093 165.808 477.131 165.545C477.181 165.256 477.214 164.964 477.231 164.672C477.268 164.06 477.274 163.451 477.294 162.829Z" fill="#F99893"/>
<path d="M483.336 156.703C483.336 156.703 486.773 162.146 486.85 165.365C486.85 165.365 488.301 162.481 490.695 162.408C490.695 162.408 491.474 156.986 490.012 153.599L484.605 154.759L483.336 156.703Z" fill="#07085B"/>
<path d="M476.391 178.956C476.391 178.956 478.805 182.745 486.848 178.956C486.848 178.956 501.408 174.926 502.535 192.258L503.099 208.381C503.099 208.381 495.577 208.407 491.716 208.55L491.595 211.932L469.634 229.834C469.634 229.834 456.607 228.706 453.948 227.416C453.948 227.416 458.614 218.146 459.338 216.042C460.061 213.937 460.584 193.712 461.349 191.616C462.113 189.519 464.359 179.25 476.391 178.956Z" fill="#F7A92F"/>
<path d="M465.585 191.099C465.297 191.582 465.054 192.09 464.857 192.616C464.746 192.873 464.662 193.141 464.563 193.403L464.313 194.204C463.998 195.28 463.758 196.376 463.594 197.484C463.396 198.588 463.306 199.709 463.211 200.826C463.171 201.387 463.148 201.948 463.116 202.517C463.083 203.086 463.091 203.642 463.065 204.208C463.028 203.645 463.011 203.081 462.984 202.517C462.984 201.954 462.984 201.389 463.002 200.826C463.046 199.694 463.154 198.564 463.327 197.444C463.502 196.326 463.765 195.223 464.113 194.146C464.472 193.07 464.906 192.006 465.585 191.099Z" fill="#452B52"/>
<path d="M453.131 203.099C452.933 203.099 444.969 198.27 444.969 198.27L443.481 198.586L444.01 198.978L443.119 198.754L441.671 198.978C441.671 198.978 446.458 204.638 446.539 204.799C446.62 204.961 448.711 205.768 448.871 205.848C449.032 205.928 453.131 203.099 453.131 203.099Z" fill="#DAEEF7"/>
<path d="M465.874 199.246L465.151 198.785L464.819 199.012V198.588L464.366 198.271L452.783 202.866C452.783 202.866 456.493 205.225 456.614 205.133C456.735 205.041 463.343 203.834 463.462 203.653C463.582 203.471 465.874 199.246 465.874 199.246Z" fill="#DAEEF7"/>
<path d="M465.692 199.023L452.558 203.284L441.97 198.673C441.824 198.608 441.663 198.584 441.504 198.602C441.346 198.62 441.195 198.679 441.066 198.774C440.937 198.869 440.836 198.997 440.772 199.143C440.708 199.29 440.683 199.451 440.701 199.61L442.723 217.691C442.739 217.839 442.791 217.981 442.875 218.104C442.959 218.227 443.071 218.327 443.202 218.397L453.368 223.767L462.576 220.352L462.814 220.003L464.006 219.822L467.868 218.389C468.036 218.326 468.179 218.21 468.274 218.059C468.37 217.907 468.414 217.728 468.399 217.55L466.88 199.816C466.869 199.679 466.826 199.546 466.757 199.428C466.687 199.309 466.591 199.208 466.477 199.132C466.363 199.055 466.233 199.006 466.097 198.987C465.961 198.968 465.823 198.981 465.692 199.023Z" fill="#E03268"/>
<g style="mix-blend-mode:multiply" opacity="0.5">
<path d="M465.692 199.023C465.822 198.981 465.961 198.968 466.096 198.987C466.232 199.005 466.362 199.055 466.476 199.131C466.59 199.206 466.686 199.307 466.756 199.425C466.826 199.544 466.868 199.676 466.88 199.813L468.396 217.523C468.412 217.709 468.367 217.895 468.268 218.052C468.168 218.209 468.02 218.329 467.845 218.393L464.006 219.818L462.814 220L462.576 220.349L454.181 223.364L452.558 203.284L465.692 199.023Z" fill="#E03268"/>
</g>
<path d="M450.602 205.447L442.415 201.857L442.677 205.586L450.7 209.314L450.602 205.447Z" fill="#C1215B"/>
<path d="M470.077 217.207C470.112 217.087 470.184 216.915 470.022 216.793L469.888 216.704C469.265 216.295 468.771 215.715 468.466 215.033C468.401 214.854 468.319 214.682 468.221 214.519C468.158 214.445 468.141 214.549 468.141 214.549L468.294 216.24L466.337 216.955C466.337 216.955 462.909 217.496 461.22 216.75C461.22 216.75 460.335 216.126 460.616 217.255C460.648 217.368 460.709 217.472 460.794 217.554C460.669 217.631 460.535 217.829 460.777 218.59C460.786 218.62 460.799 218.649 460.814 218.676C460.752 219.128 460.8 219.696 461.298 220C461.369 220.235 461.5 220.448 461.679 220.616C461.858 220.784 462.078 220.902 462.317 220.957C463.191 221.21 465.189 221.489 466.455 221.651C467.563 221.821 468.363 221.898 468.805 221.804L469.264 221.88C469.264 221.757 470.466 220.035 470.593 219.296C470.72 218.557 469.876 217.925 470.077 217.207Z" fill="#FFC0BB"/>
<path d="M470.029 216.793C470.029 216.793 481.909 216.179 485.228 215.038C488.548 213.897 491.603 211.933 491.603 211.933V208.551L502.874 208.382C502.874 208.382 504.293 218.729 501.096 219.938C497.899 221.148 475.922 223.082 468.803 221.812L470.029 216.793Z" fill="#FFC0BB"/>
<path d="M460.786 218.613C460.997 218.846 461.248 219.039 461.527 219.184C461.803 219.332 462.097 219.448 462.4 219.529C462.704 219.607 463.014 219.655 463.327 219.671C463.481 219.682 463.634 219.671 463.795 219.671C463.956 219.671 464.101 219.646 464.255 219.626C463.948 219.612 463.642 219.602 463.335 219.563C463.031 219.526 462.729 219.47 462.432 219.394C462.137 219.316 461.849 219.213 461.571 219.087C461.291 218.962 461.027 218.803 460.786 218.613Z" fill="#F99893"/>
<path d="M461.293 219.997C461.523 220.211 461.788 220.384 462.077 220.506C462.364 220.633 462.666 220.726 462.975 220.782C463.283 220.836 463.597 220.858 463.91 220.848C464.063 220.848 464.216 220.827 464.369 220.816C464.523 220.805 464.676 220.767 464.829 220.736C464.523 220.745 464.216 220.759 463.91 220.744C463.604 220.732 463.299 220.7 462.998 220.648C462.698 220.593 462.402 220.513 462.115 220.41C461.826 220.306 461.55 220.167 461.293 219.997Z" fill="#F99893"/>
<path d="M460.786 217.554C460.998 217.787 461.248 217.98 461.527 218.125C461.803 218.274 462.096 218.389 462.4 218.469C462.703 218.548 463.014 218.596 463.327 218.61C463.481 218.621 463.634 218.61 463.795 218.61C463.956 218.61 464.101 218.584 464.255 218.566C463.948 218.55 463.642 218.541 463.335 218.501C463.031 218.466 462.729 218.41 462.432 218.334C462.137 218.255 461.849 218.152 461.571 218.026C461.291 217.901 461.028 217.743 460.786 217.554Z" fill="#F99893"/>
<path d="M500.069 208.398C499.057 208.398 498.044 208.398 497.033 208.381L493.998 208.338C493.035 208.319 492.071 208.294 491.108 208.261C491.206 207.27 491.284 206.277 491.333 205.282C491.379 204.237 491.423 203.193 491.419 202.149C491.414 201.106 491.406 200.061 491.376 199.017C491.345 197.973 491.288 196.931 491.201 195.892C491.226 196.934 491.245 197.978 491.241 199.02C491.236 200.062 491.241 201.104 491.209 202.146C491.177 203.189 491.146 204.229 491.086 205.268C491.026 206.307 490.933 207.345 490.824 208.378L490.809 208.532H490.954C491.969 208.559 492.982 208.578 493.994 208.587C495.007 208.596 496.02 208.605 497.033 208.587C499.059 208.567 501.085 208.513 503.107 208.386C502.086 208.392 501.074 208.405 500.069 208.398Z" fill="#452B52"/>
<path d="M444.329 207.957C444.192 207.672 441.802 208.086 441.777 207.915C441.753 207.745 444.13 206.549 444.076 206.264C444.007 205.948 441.492 206.799 441.317 206.682C441.143 206.566 443.388 204.715 442.966 204.48C442.646 204.301 441.127 205.351 440.408 205.863C440.296 205.944 440.209 206.056 440.157 206.186C440.106 206.315 440.093 206.457 440.119 206.593L441.087 212.351C441.129 212.595 441.258 212.815 441.451 212.969C441.645 213.123 441.888 213.2 442.134 213.184H442.22L442.084 210.064C442.804 210.039 444.151 209.956 444.035 209.69C443.918 209.425 442.767 209.26 442.042 209.169V209.113C442.051 209.002 444.452 208.213 444.329 207.957Z" fill="#FFC0BB"/>
<path d="M411.086 258.286H348.814C347.474 258.287 346.147 258.022 344.908 257.509C343.67 256.995 342.544 256.241 341.596 255.291C340.648 254.341 339.896 253.213 339.383 251.972C338.869 250.73 338.605 249.399 338.604 248.055V219.805C338.604 218.052 337.91 216.37 336.674 215.131C335.438 213.891 333.761 213.195 332.014 213.195C330.266 213.195 328.59 213.891 327.354 215.131C326.118 216.37 325.423 218.052 325.423 219.805V248.782C325.423 261.469 335.692 271.754 348.347 271.754H411.367C411.032 267.273 410.939 262.777 411.086 258.286Z" fill="#FF85A5"/>
<path d="M426.13 258.286C426.077 261.654 426.115 266.709 426.185 271.754H457.889V258.286H426.13Z" fill="#FF85A5"/>
<path d="M477.57 213.276L524.468 213.613C525.545 213.613 526.612 213.825 527.607 214.238C528.602 214.651 529.506 215.257 530.268 216.02C531.03 216.783 531.635 217.69 532.047 218.688C532.46 219.685 532.672 220.755 532.672 221.835V250.826C532.671 253.576 532.13 256.298 531.08 258.838C530.03 261.377 528.492 263.685 526.553 265.628C524.613 267.572 522.311 269.113 519.778 270.164C517.245 271.215 514.53 271.755 511.789 271.754H463.174C463.174 271.754 472.83 254.887 472.83 254.405C472.83 253.922 477.57 213.276 477.57 213.276Z" fill="#F9537F"/>
<path d="M478.162 213.195C476.414 213.195 474.737 213.891 473.501 215.131C472.266 216.37 471.571 218.052 471.571 219.805V248.055C471.571 248.249 471.571 248.442 471.554 248.633C471.404 251.242 470.265 253.695 468.37 255.489C466.474 257.282 463.967 258.281 461.361 258.28H447.423C447.837 262.302 448.355 267.097 448.865 271.748H461.842C464.851 271.749 467.831 271.156 470.612 270.002C473.392 268.848 475.919 267.157 478.047 265.023C480.176 262.89 481.864 260.357 483.017 257.57C484.169 254.782 484.763 251.794 484.764 248.776V219.805C484.764 218.936 484.593 218.075 484.261 217.272C483.929 216.47 483.443 215.741 482.829 215.127C482.216 214.513 481.488 214.026 480.687 213.695C479.886 213.363 479.028 213.193 478.162 213.195Z" fill="#FF85A5"/>
<path d="M448.286 266.5C448.052 264.321 447.747 261.489 447.417 258.286C446.825 251.995 446.214 247.858 446.871 248.295C449.135 247.474 463.171 248.164 471.547 248.635C471.597 247.251 471.547 225.789 471.562 224.67C416.541 229.262 428.661 238.711 433.821 271.331L433.909 271.749C436.146 282.537 438.258 291.415 438.258 291.415C438.258 291.415 446.303 291.738 450.968 290.61C450.977 290.664 449.521 277.922 448.286 266.5Z" fill="#3A2645"/>
<path d="M355.542 298.126L362.17 294.028L367.894 297.494L365.902 298.921L358.96 299.901C358.96 299.901 356.252 299.554 356.133 299.474C356.013 299.394 355.542 298.126 355.542 298.126Z" fill="#F7AEAA"/>
<path d="M355.543 298.126L353.857 299.202C353.689 299.309 353.56 299.467 353.489 299.654C353.418 299.84 353.41 300.044 353.465 300.236C353.519 300.428 353.635 300.596 353.793 300.717C353.952 300.837 354.145 300.903 354.344 300.904L367.065 300.964C367.172 300.964 367.277 300.944 367.376 300.903C367.475 300.863 367.565 300.803 367.641 300.728C367.716 300.653 367.777 300.564 367.818 300.465C367.86 300.366 367.881 300.261 367.882 300.154L367.894 297.487C359.411 300.157 356.49 299.32 355.543 298.126Z" fill="#FF6088"/>
<path d="M362.772 298.126L369.399 294.028L375.123 297.494L373.123 298.921L366.182 299.901C366.182 299.901 363.474 299.554 363.354 299.474C363.235 299.394 362.772 298.126 362.772 298.126Z" fill="#FFC0BB"/>
<path d="M362.772 298.126L361.086 299.202C360.918 299.309 360.789 299.467 360.718 299.654C360.647 299.84 360.639 300.044 360.694 300.236C360.749 300.428 360.864 300.596 361.023 300.717C361.181 300.837 361.374 300.903 361.573 300.904L374.294 300.964C374.401 300.964 374.507 300.944 374.605 300.903C374.704 300.863 374.794 300.803 374.87 300.728C374.946 300.653 375.006 300.564 375.047 300.465C375.089 300.366 375.11 300.261 375.111 300.154L375.123 297.487C366.642 300.157 363.72 299.32 362.772 298.126Z" fill="#FF6088"/>
<path d="M398.303 181.048C401.721 178.647 399.906 177.683 401.914 175.596C403.477 173.97 403.964 172.754 403.934 171.564C403.972 170.375 403.495 169.156 401.941 167.517C399.949 165.416 401.77 164.466 398.37 162.039C394.971 159.612 391.36 165.496 391.36 165.496L387.633 170.107L388.33 172.502L386.869 177.169C386.869 177.169 394.893 183.448 398.303 181.048Z" fill="#07085B"/>
<path d="M366.372 226.76C366.372 226.76 352.214 232.081 351.409 236.273C350.604 240.465 356.396 293.672 358.89 296.251C358.89 296.251 364.05 297.702 368.107 295.444C372.164 293.186 370.233 275.615 370.233 275.129C370.233 274.644 374.777 248.845 374.757 247.881C374.737 246.917 382.137 235.306 383.907 233.694C385.677 232.081 388.534 224.222 388.534 224.222L366.372 226.76Z" fill="#030321"/>
<path d="M408.081 222.78C408.081 222.78 409.183 236.694 405.305 241.653C401.428 246.612 379.484 246.725 379.484 246.725L375.123 297.5C375.123 297.5 369.292 297.139 365.55 296.414C365.55 296.414 362.47 240.437 366.452 236.688C370.433 232.939 388.534 224.238 388.534 224.238L408.081 222.78Z" fill="#09083C"/>
<path d="M385.237 156.207C385.237 156.207 379.343 153.952 375.86 158.922C373.194 162.727 373.752 167.934 376.998 171.257L378.311 172.602C378.311 172.602 383.675 166.816 383.734 166.538C383.792 166.26 385.237 156.207 385.237 156.207Z" fill="#07085B"/>
<path d="M381.241 184.765C381.241 184.765 389.541 183.228 393.357 183.363C397.173 183.498 391.044 193.437 391.044 193.437L384.811 193.576C384.811 193.576 380.99 189.299 381.241 188.801C381.493 188.303 381.229 185.042 381.229 185.042L381.241 184.765Z" fill="#FFC0BB"/>
<path d="M390.583 176.455L392.072 183.305C392.072 183.305 389.773 187.035 384.14 184.734C384.14 184.734 384.944 183.432 384.349 180.515C383.743 177.534 390.583 176.455 390.583 176.455Z" fill="#FFC0BB"/>
<path opacity="0.6" d="M390.583 176.455L391.283 179.655C390.44 181.854 388.304 183.191 384.529 183.275C384.612 182.349 384.551 181.416 384.35 180.509C383.743 177.534 390.583 176.455 390.583 176.455Z" fill="#FC8D84"/>
<path d="M377.807 170.221C378.166 171.344 377.73 172.49 376.832 172.779C375.934 173.068 374.915 172.388 374.556 171.263C374.198 170.138 374.633 168.994 375.531 168.705C376.429 168.416 377.448 169.096 377.807 170.221Z" fill="#F99893"/>
<path d="M377.626 176.623C377.39 176.129 377.2 175.615 377.059 175.086C376.684 173.696 376.486 172.264 376.472 170.825C376.472 170.544 376.444 170.264 376.418 169.986C376.297 168.725 376.438 167.452 376.834 166.248C377.229 165.045 377.869 163.937 378.714 162.995C379.559 162.053 380.589 161.297 381.741 160.776C382.892 160.255 384.139 159.979 385.402 159.967C386.665 159.955 387.917 160.206 389.079 160.705C390.24 161.204 391.285 161.939 392.148 162.864C393.011 163.79 393.673 164.885 394.091 166.08C394.509 167.276 394.675 168.546 394.578 169.809C394.854 169.669 395.159 169.596 395.469 169.596C395.778 169.596 396.083 169.669 396.359 169.809C397.4 170.375 397.671 171.892 396.965 173.191C396.258 174.489 394.842 175.093 393.8 174.526C393.658 174.448 393.528 174.351 393.414 174.237C392.617 178.661 388.704 181.821 384.337 181.409C382.271 181.211 380.357 180.233 378.984 178.672C378.884 178.574 378.788 178.472 378.699 178.364C378.268 177.833 377.907 177.247 377.626 176.623Z" fill="#FFC0BB"/>
<path d="M383.461 168.85C383.577 169.361 383.622 169.887 383.593 170.411C383.58 170.68 383.542 170.946 383.481 171.208C383.419 171.493 383.296 171.761 383.122 171.995L383.036 172.084L382.961 172.159C382.924 172.191 382.89 172.226 382.858 172.263C382.799 172.333 382.757 172.415 382.734 172.503C382.714 172.599 382.714 172.698 382.735 172.793C382.755 172.889 382.795 172.979 382.852 173.058C383.091 173.43 383.554 173.673 384.046 173.827C383.772 173.862 383.493 173.833 383.232 173.741C382.971 173.649 382.736 173.497 382.544 173.296C382.436 173.179 382.356 173.038 382.309 172.885C382.262 172.732 382.25 172.571 382.273 172.413C382.286 172.33 382.311 172.25 382.348 172.174C382.38 172.098 382.422 172.027 382.472 171.962C382.522 171.9 382.576 171.842 382.635 171.789C382.656 171.769 382.675 171.749 382.693 171.727L382.74 171.676C382.871 171.496 382.969 171.294 383.03 171.08C383.103 170.845 383.163 170.607 383.209 170.365C383.304 169.87 383.376 169.366 383.461 168.85Z" fill="#F99893"/>
<path d="M386.359 169.959C386.344 170.117 386.376 170.274 386.451 170.413C386.526 170.552 386.64 170.666 386.779 170.739C386.918 170.813 387.076 170.844 387.232 170.828C387.389 170.812 387.537 170.749 387.658 170.649C387.779 170.548 387.868 170.414 387.913 170.262C387.958 170.111 387.957 169.95 387.911 169.799C387.864 169.648 387.774 169.515 387.652 169.415C387.53 169.316 387.381 169.255 387.225 169.24C387.121 169.23 387.016 169.241 386.916 169.272C386.816 169.302 386.723 169.353 386.643 169.419C386.562 169.486 386.496 169.568 386.447 169.661C386.398 169.754 386.368 169.855 386.359 169.959Z" fill="#333333"/>
<path d="M379.514 169.766C379.499 169.923 379.531 170.081 379.606 170.22C379.681 170.359 379.795 170.472 379.934 170.546C380.073 170.62 380.231 170.651 380.388 170.634C380.544 170.618 380.692 170.556 380.813 170.455C380.935 170.354 381.023 170.22 381.068 170.069C381.113 169.918 381.113 169.756 381.066 169.606C381.02 169.455 380.93 169.321 380.808 169.222C380.686 169.122 380.537 169.061 380.38 169.046C380.276 169.036 380.171 169.047 380.071 169.078C379.971 169.109 379.879 169.159 379.798 169.226C379.718 169.293 379.651 169.375 379.603 169.467C379.554 169.56 379.524 169.662 379.514 169.766Z" fill="#333333"/>
<g style="mix-blend-mode:multiply" opacity="0.3">
<path d="M385.87 176.003C385.516 175.853 385.134 175.781 384.75 175.792C384.365 175.803 383.988 175.897 383.643 176.068C383.643 176.068 382.57 175.226 381.588 175.82C381.588 175.82 381.83 177.582 383.734 177.665C385.637 177.748 385.87 176.003 385.87 176.003Z" fill="#F99893"/>
</g>
<path d="M386.924 175.491C386.695 175.644 386.454 175.779 386.204 175.896C385.959 176.016 385.705 176.119 385.445 176.203C384.931 176.375 384.392 176.461 383.85 176.457C383.309 176.445 382.776 176.329 382.279 176.114C381.781 175.886 381.317 175.589 380.9 175.233C381.085 175.441 381.287 175.633 381.505 175.807C381.726 175.982 381.963 176.137 382.213 176.268C382.466 176.395 382.731 176.494 383.005 176.563C383.281 176.629 383.563 176.666 383.847 176.673C384.413 176.679 384.974 176.575 385.501 176.366C386.023 176.161 386.505 175.865 386.924 175.491Z" fill="#F99893"/>
<path d="M385.62 168.043C386.014 167.975 386.413 167.937 386.813 167.929C387.183 167.922 387.552 167.966 387.91 168.06C388.267 168.152 388.608 168.297 388.923 168.488C389.096 168.57 389.24 168.701 389.412 168.804C389.584 168.907 389.726 169.054 389.912 169.169C389.84 168.969 389.748 168.775 389.637 168.593C389.518 168.411 389.378 168.244 389.22 168.095C388.899 167.783 388.501 167.561 388.066 167.452C387.635 167.339 387.182 167.334 386.748 167.44C386.326 167.537 385.937 167.745 385.62 168.043Z" fill="#07085B"/>
<path d="M382.095 167.935C381.805 167.612 381.435 167.373 381.022 167.24C380.599 167.097 380.147 167.061 379.707 167.137C379.265 167.209 378.85 167.397 378.503 167.68C378.331 167.814 378.177 167.969 378.043 168.141C377.918 168.314 377.809 168.498 377.719 168.691C377.914 168.593 378.074 168.47 378.248 168.372C378.423 168.273 378.582 168.166 378.763 168.098C379.093 167.934 379.445 167.819 379.808 167.758C380.173 167.695 380.545 167.683 380.913 167.721C381.312 167.764 381.707 167.835 382.095 167.935Z" fill="#07085B"/>
<path d="M371.81 200.967C371.81 200.967 371.054 219.826 368.938 222.78L380.576 220.129V199.604L371.81 200.967Z" fill="#FFC0BB"/>
<path d="M376.769 203.55C376.769 203.55 378.389 208.296 378.684 210.819C379.415 217.079 378.621 221.495 377.327 225.06C375.513 230.059 390.325 228.24 390.629 228.09C390.932 227.939 403.627 223.017 403.627 223.017L406.046 215.974V203.55L405.365 197.863L376.769 203.55Z" fill="#14ACB7"/>
<path d="M412.249 197.863L402.928 201.043C402.928 201.043 404.54 215.988 404.036 218.105C403.605 219.917 396.847 223.521 392.563 225.54C391.874 225.864 391.113 226.002 390.354 225.941C387.914 225.739 383.589 225.361 382.91 225.314C381.838 225.24 378.912 225.314 378.818 225.69C378.731 226.038 381.108 225.655 382.65 225.975C382.867 226.019 382.751 226.31 382.7 226.311C381.882 226.342 379.778 226.431 379.083 226.663C378.234 226.946 381.238 226.722 382.861 227.021C382.976 227.041 383.067 227.364 382.984 227.447C382.791 227.638 382.084 227.805 380.146 228.004C376.91 228.336 380.075 228.737 380.075 228.737C380.075 228.737 380.366 228.654 383.14 228.276C383.243 228.262 383.356 228.551 383.203 228.686C382.699 229.118 382.112 229.441 381.477 229.634C380.437 229.942 381.194 230.212 381.194 230.212C381.194 230.212 383.163 229.625 384.268 229.542C385.096 229.479 388.995 229.797 390.593 229.89L390.716 229.614C392.885 229.551 410.18 229.101 411.842 218.36C413.552 207.303 412.249 197.863 412.249 197.863Z" fill="#FFC0BB"/>
<path d="M344.491 208.565H374.194L382.624 229.162H396.923C397.018 229.162 397.113 229.181 397.201 229.217C397.288 229.254 397.368 229.307 397.436 229.374C397.503 229.442 397.557 229.522 397.593 229.61C397.629 229.698 397.648 229.793 397.648 229.888C397.648 229.983 397.629 230.078 397.593 230.166C397.557 230.254 397.503 230.334 397.436 230.401C397.368 230.469 397.288 230.522 397.201 230.559C397.113 230.595 397.018 230.614 396.923 230.613H354.362L344.491 208.565Z" fill="#07085B"/>
<path d="M359.221 220.321C359.395 221.199 360.159 221.786 360.925 221.632C361.691 221.479 362.171 220.642 361.998 219.765C361.825 218.887 361.06 218.306 360.294 218.46C359.527 218.613 359.044 219.443 359.221 220.321Z" fill="#DAEEF7"/>
<path d="M381.242 184.765C381.242 184.765 386.883 191.364 393.357 183.363C393.357 183.363 400.43 182.787 405.644 186.497C410.858 190.208 413.981 198.543 413.981 198.543C413.981 198.543 404.534 203.308 402.191 203.542H375.966C375.966 203.542 371.961 203.235 368.107 201.27C368.11 201.27 368.772 188.025 381.242 184.765Z" fill="#14ACB7"/>
<path d="M397.996 193.575C398.267 194.385 398.506 195.205 398.747 196.023C398.988 196.84 399.207 197.666 399.428 198.491C399.648 199.317 399.844 200.148 400.025 200.984C400.206 201.82 400.381 202.658 400.514 203.505L400.315 203.305C400.603 203.33 400.893 203.33 401.181 203.305C401.478 203.285 401.777 203.242 402.074 203.199C402.669 203.093 403.265 202.979 403.851 202.813L404.291 202.697L404.727 202.563C405.017 202.472 405.31 202.388 405.598 202.285L406.462 201.977L407.316 201.645C407.888 201.43 408.447 201.184 409.013 200.946L410.685 200.177L412.341 199.375C412.887 199.092 413.434 198.811 413.986 198.537C413.466 198.866 412.941 199.189 412.415 199.509C411.889 199.828 411.342 200.124 410.809 200.431C410.275 200.738 409.716 201.001 409.164 201.278L408.324 201.668C408.044 201.799 407.765 201.931 407.477 202.043C406.34 202.535 405.169 202.945 403.975 203.273L403.526 203.394L403.066 203.497C402.759 203.574 402.453 203.62 402.146 203.674C401.84 203.728 401.533 203.76 401.21 203.779C400.886 203.809 400.559 203.809 400.235 203.779L400.064 203.759L400.036 203.577C399.782 201.903 399.441 200.234 399.087 198.569L398.548 196.072L397.996 193.575Z" fill="white"/>
<path d="M378.054 191.659C377.683 192.627 377.348 193.601 377.048 194.579C376.745 195.555 376.501 196.549 376.319 197.555C376.224 198.054 376.157 198.558 376.118 199.064C376.07 199.569 376.057 200.076 376.08 200.582C376.116 201.593 377.612 206.353 378.054 207.296C377.431 206.459 375.804 201.659 375.693 200.612C375.587 199.563 375.633 198.504 375.83 197.467C375.928 196.952 376.043 196.441 376.185 195.93C376.328 195.42 376.492 194.931 376.682 194.445C377.048 193.474 377.507 192.541 378.054 191.659Z" fill="white"/>
<path d="M394.578 169.801C394.578 169.801 385.183 166.466 381.263 159.423C381.263 159.423 381.523 153.242 390.152 155.781C396.14 157.541 398.229 165.662 394.578 169.801Z" fill="#07085B"/>
<path d="M482.29 170.236C481.587 170.351 480.891 170.427 480.197 170.525C479.502 170.613 478.811 170.739 478.129 170.9C478.742 170.528 479.46 170.358 480.16 170.255C480.866 170.154 481.583 170.148 482.29 170.236Z" fill="#F99893"/>
<path d="M344.178 301.002H341.375L348.364 273.488L350.994 274.16L344.178 301.002Z" fill="#3D3A55"/>
<path d="M510.031 300.985H512.833L505.845 273.471L503.214 274.141L510.031 300.985Z" fill="#3D3A55"/>
<path d="M480.284 300.985H477.483L484.47 273.471L487.101 274.141L480.284 300.985Z" fill="#3D3A55"/>
<path d="M453.16 202.947L454.181 223.364C454.184 223.436 454.172 223.507 454.146 223.573C454.12 223.64 454.08 223.7 454.029 223.749C453.977 223.799 453.916 223.837 453.849 223.86C453.782 223.884 453.711 223.893 453.64 223.887L452.691 223.804C452.569 223.794 452.454 223.74 452.369 223.651C452.284 223.562 452.235 223.444 452.231 223.321L451.638 202.795C451.884 202.688 452.152 202.647 452.419 202.673C452.685 202.7 452.94 202.794 453.16 202.947Z" fill="#C1215B"/>
<path d="M151.921 237.698H92.4493V262.232H151.921V237.698Z" fill="#E03268"/>
<path d="M46.7617 185.987C47.5035 186.039 106.347 185.987 106.347 185.987V241.977H68.2031L47.7824 221.515L46.7617 185.987Z" fill="#FF5B7E"/>
<path d="M150.729 217.445C150.729 217.445 109.92 219.889 109.92 217.445V228.093C109.92 228.093 129.877 231.679 132.124 231.679C134.371 231.679 144.827 237.232 146.212 237.695C147.598 238.158 150.575 225.756 150.729 225.65C150.882 225.544 150.729 217.445 150.729 217.445Z" fill="#F9537F"/>
<path d="M43.6506 185.991H49.8716C50.476 185.991 51.0557 186.232 51.4831 186.661C51.9105 187.09 52.1506 187.671 52.1506 188.277V225.956C52.1506 226.562 51.9105 227.144 51.4831 227.572C51.0557 228.001 50.476 228.242 49.8716 228.242H43.6506C43.3514 228.242 43.0552 228.183 42.7787 228.068C42.5023 227.953 42.2512 227.784 42.0397 227.572C41.8282 227.36 41.6605 227.108 41.5461 226.831C41.4317 226.553 41.373 226.256 41.3732 225.956V188.266C41.376 187.662 41.6172 187.084 42.0439 186.658C42.4707 186.231 43.0483 185.992 43.6506 185.991Z" fill="#E03268"/>
<path d="M90.9903 217.445H42.7985C41.7676 217.445 40.7467 217.648 39.7941 218.043C38.8416 218.439 37.976 219.018 37.2467 219.749C36.5175 220.48 35.9389 221.347 35.544 222.303C35.1492 223.258 34.9457 224.281 34.9453 225.315V253.058C34.9463 255.69 35.4641 258.295 36.4691 260.726C37.4741 263.156 38.9466 265.364 40.8026 267.224C42.6586 269.084 44.8617 270.559 47.286 271.565C49.7104 272.571 52.3086 273.088 54.9323 273.087L104.552 273.394C104.552 273.394 101.107 272.472 100.542 271.48C98.2059 267.386 92.221 256.856 92.221 256.485C92.221 256.02 90.9903 217.445 90.9903 217.445Z" fill="#F9537F"/>
<path d="M144.417 223.772V250.806C144.417 252.093 144.164 253.367 143.673 254.555C143.181 255.744 142.461 256.824 141.554 257.733C140.647 258.642 139.569 259.363 138.384 259.855C137.199 260.347 135.928 260.6 134.645 260.599H107.074C105.791 260.6 104.521 260.347 103.336 259.855C102.15 259.363 101.073 258.642 100.166 257.732C99.2588 256.823 98.539 255.743 98.0478 254.555C97.5566 253.367 97.3035 252.093 97.3031 250.806V223.772C97.3023 222.093 96.6368 220.484 95.4529 219.298C94.2691 218.111 92.6638 217.445 90.9902 217.445C89.3166 217.445 87.7114 218.111 86.5275 219.298C85.3437 220.484 84.6782 222.093 84.6774 223.772V251.507C84.6788 254.395 85.2473 257.255 86.3506 259.922C87.4538 262.59 89.0702 265.013 91.1073 267.054C93.1444 269.096 95.5624 270.714 98.2233 271.818C100.884 272.922 103.736 273.489 106.615 273.488H135.105C140.92 273.49 146.498 271.176 150.612 267.054C154.726 262.932 157.039 257.34 157.042 251.507V223.772C157.041 222.093 156.375 220.484 155.191 219.298C154.008 218.111 152.402 217.445 150.729 217.445C149.9 217.445 149.08 217.608 148.314 217.926C147.548 218.244 146.853 218.71 146.267 219.298C145.681 219.885 145.216 220.583 144.898 221.35C144.581 222.118 144.418 222.941 144.417 223.772Z" fill="#FF85A5"/>
<path d="M145.204 286.349L146.208 294.426L151.612 294.846L151.529 287.356L145.204 286.349Z" fill="#FFC0BB"/>
<path d="M159.827 300.758L145.063 300.857C144.987 300.859 144.912 300.846 144.842 300.818C144.772 300.79 144.708 300.748 144.654 300.695C144.6 300.642 144.557 300.579 144.528 300.509C144.498 300.439 144.483 300.364 144.483 300.289V299.863C144.487 299.709 144.551 299.562 144.661 299.454C144.771 299.346 144.919 299.286 145.073 299.287L159.837 299.187C159.913 299.185 159.988 299.199 160.058 299.226C160.128 299.254 160.192 299.296 160.246 299.349C160.3 299.402 160.343 299.465 160.372 299.535C160.402 299.605 160.417 299.68 160.417 299.755V300.181C160.413 300.336 160.35 300.483 160.239 300.591C160.129 300.698 159.981 300.758 159.827 300.758Z" fill="#3D3A55"/>
<path d="M145.267 294.514L144.701 298.885C144.631 299.425 144.934 299.912 145.339 299.909L159.379 299.814C159.578 299.805 159.77 299.74 159.933 299.625C160.096 299.511 160.223 299.351 160.298 299.167C160.498 298.735 160.544 298.091 159.923 297.221C158.68 295.488 154.559 295.092 152.548 293.621L146.007 293.664C145.639 293.667 145.325 294.027 145.267 294.514Z" fill="#E03268"/>
<path d="M151.529 296.163C151.477 296.122 151.441 296.064 151.428 295.999C151.414 295.935 151.422 295.867 151.452 295.808C151.733 295.207 152.608 293.745 154.364 294.033C154.42 294.053 154.467 294.092 154.495 294.145C154.523 294.197 154.531 294.258 154.517 294.316C154.499 294.448 154.407 294.535 154.309 294.519C152.741 294.266 151.996 295.556 151.769 296.056C151.711 296.171 151.613 296.214 151.529 296.163Z" fill="white"/>
<path d="M152.982 296.717C152.93 296.675 152.894 296.617 152.88 296.552C152.866 296.487 152.875 296.419 152.905 296.36C153.187 295.76 154.061 294.297 155.817 294.585C155.873 294.605 155.92 294.645 155.948 294.697C155.977 294.75 155.985 294.811 155.971 294.869C155.952 295 155.86 295.087 155.762 295.072C154.194 294.82 153.449 296.108 153.223 296.609C153.217 296.634 153.206 296.658 153.19 296.678C153.174 296.698 153.153 296.714 153.13 296.724C153.106 296.735 153.08 296.74 153.055 296.738C153.029 296.737 153.004 296.73 152.982 296.717Z" fill="white"/>
<path d="M154.334 297.232C154.282 297.19 154.246 297.132 154.232 297.068C154.218 297.003 154.227 296.935 154.257 296.876C154.537 296.275 155.413 294.812 157.169 295.101C157.27 295.116 157.337 295.255 157.322 295.384C157.304 295.516 157.212 295.602 157.114 295.587C155.546 295.335 154.801 296.624 154.574 297.124C154.516 297.239 154.418 297.282 154.334 297.232Z" fill="white"/>
<g style="mix-blend-mode:multiply" opacity="0.3">
<path d="M149.08 299.885C148.007 296.363 146.102 295.986 145.06 296.074L144.695 298.886C144.624 299.425 144.928 299.912 145.332 299.909L149.08 299.885Z" fill="#E87B50"/>
</g>
<path d="M134.911 286.521L137.3 294.316L142.801 294.353L141.843 288.664L134.911 286.521Z" fill="#FFC0BB"/>
<path d="M86.1809 168.31C86.1809 168.31 84.5379 160.01 89.3381 157.08C94.1382 154.15 99.0871 154.676 102.393 156.642C105.699 158.608 107.471 165.125 105.812 168.756L94.7344 164.847L86.1809 168.31Z" fill="#07085B"/>
<path d="M150.701 300.902L135.937 301.002C135.862 301.004 135.787 300.99 135.717 300.962C135.646 300.934 135.583 300.893 135.529 300.84C135.475 300.787 135.432 300.724 135.402 300.654C135.373 300.584 135.358 300.509 135.358 300.433V300.008C135.362 299.853 135.426 299.706 135.536 299.599C135.646 299.491 135.794 299.431 135.948 299.431L150.712 299.331C150.787 299.33 150.863 299.343 150.933 299.371C151.003 299.399 151.067 299.441 151.121 299.493C151.175 299.546 151.218 299.61 151.247 299.68C151.276 299.749 151.291 299.824 151.291 299.9V300.326C151.288 300.48 151.225 300.628 151.114 300.736C151.004 300.844 150.855 300.903 150.701 300.902Z" fill="#3D3A55"/>
<path d="M136.138 294.658L135.571 299.03C135.502 299.569 135.806 300.057 136.209 300.054L150.249 299.958C150.448 299.95 150.64 299.884 150.803 299.77C150.966 299.655 151.093 299.496 151.169 299.311C151.37 298.879 151.414 298.235 150.793 297.365C149.552 295.633 145.429 295.236 143.418 293.765L136.877 293.81C136.515 293.811 136.201 294.171 136.138 294.658Z" fill="#F9537F"/>
<path d="M142.405 296.308C142.354 296.266 142.318 296.209 142.304 296.144C142.29 296.079 142.299 296.012 142.329 295.953C142.609 295.352 143.484 293.89 145.241 294.177C145.297 294.197 145.343 294.237 145.372 294.29C145.4 294.342 145.408 294.404 145.394 294.462C145.375 294.594 145.283 294.68 145.185 294.665C143.617 294.412 142.873 295.702 142.646 296.202C142.588 296.315 142.489 296.358 142.405 296.308Z" fill="white"/>
<path d="M143.858 296.861C143.807 296.819 143.771 296.761 143.757 296.696C143.743 296.631 143.752 296.564 143.782 296.504C144.064 295.905 144.937 294.442 146.694 294.729C146.75 294.749 146.796 294.789 146.825 294.842C146.853 294.894 146.861 294.955 146.847 295.013C146.828 295.144 146.736 295.232 146.64 295.216C145.07 294.964 144.326 296.252 144.099 296.753C144.094 296.779 144.082 296.802 144.066 296.822C144.05 296.842 144.029 296.858 144.006 296.869C143.982 296.879 143.957 296.884 143.931 296.883C143.905 296.881 143.88 296.874 143.858 296.861Z" fill="white"/>
<path d="M145.21 297.376C145.158 297.335 145.123 297.277 145.109 297.212C145.095 297.147 145.103 297.08 145.133 297.021C145.415 296.42 146.289 294.957 148.045 295.244C148.101 295.264 148.148 295.304 148.176 295.357C148.204 295.409 148.212 295.47 148.199 295.528C148.18 295.661 148.088 295.747 147.99 295.731C146.422 295.479 145.677 296.769 145.451 297.268C145.392 297.384 145.294 297.427 145.21 297.376Z" fill="white"/>
<g style="mix-blend-mode:multiply" opacity="0.3">
<path d="M139.956 300.029C138.883 296.507 136.978 296.129 135.936 296.218L135.571 299.03C135.502 299.569 135.806 300.057 136.209 300.054L139.956 300.029Z" fill="#E87B50"/>
</g>
<path d="M91.2554 175.871L90.4523 185.148L98.8495 184.757L97.8824 176.541L91.2554 175.871Z" fill="#FFC0BB"/>
<path d="M98.3438 180.447L97.884 176.541L91.2569 175.87L90.9795 179.082C92.296 180.363 94.6655 181.689 98.3438 180.447Z" fill="#F99893"/>
<path d="M103.492 169.62C102.988 170.637 103.254 171.782 104.09 172.176C104.925 172.569 106.012 172.064 106.517 171.046C107.023 170.029 106.755 168.883 105.92 168.488C105.084 168.093 103.998 168.601 103.492 169.62Z" fill="#F99893"/>
<path d="M102.787 175.714C103.084 175.278 103.341 174.815 103.553 174.331C104.109 173.067 104.498 171.735 104.71 170.37C104.755 170.104 104.814 169.843 104.879 169.58C105.153 168.479 105.205 167.335 105.032 166.214C104.45 162.417 101.317 159.39 97.4165 158.865C92.1627 158.158 87.5342 161.95 87.2062 166.973C86.9549 166.802 86.6679 166.692 86.3673 166.651C86.0668 166.609 85.7607 166.637 85.4728 166.733C84.38 167.13 83.9065 168.531 84.4153 169.863C84.9241 171.194 86.2222 171.952 87.315 171.553C87.4638 171.498 87.6046 171.423 87.7334 171.331C87.902 175.634 91.2784 179.154 95.5927 179.351C97.625 179.443 99.6189 178.774 101.187 177.474C101.298 177.394 101.405 177.308 101.507 177.216C101.997 176.774 102.427 176.269 102.787 175.714Z" fill="#FFC0BB"/>
<path d="M95.1927 168.223C95.1901 168.379 95.1409 168.531 95.0516 168.659C94.9623 168.787 94.8368 168.886 94.6913 168.942C94.5458 168.998 94.3868 169.01 94.2348 168.975C94.0827 168.94 93.9446 168.86 93.838 168.746C93.7314 168.632 93.6612 168.488 93.6364 168.334C93.6116 168.18 93.6334 168.021 93.6989 167.879C93.7644 167.737 93.8707 167.618 94.0041 167.537C94.1376 167.456 94.2921 167.417 94.4478 167.425C94.6518 167.432 94.8445 167.52 94.984 167.67C95.1235 167.819 95.1985 168.018 95.1927 168.223Z" fill="#333333"/>
<path d="M101.893 168.965C101.88 169.17 101.786 169.362 101.633 169.498C101.479 169.634 101.278 169.704 101.073 169.692C100.923 169.681 100.779 169.626 100.659 169.534C100.54 169.441 100.45 169.315 100.402 169.172C100.354 169.028 100.349 168.874 100.388 168.728C100.426 168.581 100.507 168.45 100.62 168.35C100.733 168.249 100.874 168.185 101.023 168.164C101.173 168.143 101.325 168.167 101.461 168.233C101.597 168.299 101.71 168.403 101.787 168.534C101.864 168.664 101.901 168.814 101.893 168.965Z" fill="#333333"/>
<path d="M96.1767 166.505C95.8015 166.389 95.4183 166.299 95.0303 166.238C94.6707 166.181 94.3052 166.174 93.9436 166.215C93.5836 166.254 93.231 166.345 92.8969 166.486C92.716 166.539 92.5582 166.639 92.3758 166.719C92.1934 166.799 92.0355 166.913 91.8394 166.997C91.9382 166.817 92.0548 166.646 92.1873 166.489C92.6244 166.002 93.224 165.692 93.8731 165.617C94.3095 165.567 94.7513 165.625 95.1605 165.785C95.5566 165.931 95.9071 166.18 96.1767 166.505Z" fill="#07085B"/>
<path d="M52.1659 272.895H144.511C144.668 272.895 144.818 272.957 144.929 273.068C145.04 273.18 145.103 273.331 145.103 273.488V275.108C145.103 275.266 145.04 275.417 144.929 275.529C144.818 275.64 144.667 275.703 144.509 275.703H52.1659C52.0086 275.703 51.8577 275.64 51.7465 275.529C51.6352 275.417 51.5728 275.266 51.5728 275.108V273.488C51.5732 273.33 51.6358 273.18 51.747 273.068C51.8582 272.957 52.0088 272.895 52.1659 272.895Z" fill="#3D3A55"/>
<path d="M99.6266 166.878C99.9549 166.608 100.348 166.43 100.767 166.361C101.199 166.282 101.643 166.31 102.062 166.441C102.481 166.568 102.86 166.801 103.162 167.117C103.309 167.268 103.437 167.435 103.544 167.615C103.642 167.795 103.722 167.984 103.783 168.18C103.607 168.06 103.467 167.923 103.313 167.806C103.158 167.689 103.006 167.565 102.853 167.477C102.552 167.277 102.224 167.122 101.88 167.016C101.532 166.907 101.171 166.845 100.807 166.833C100.413 166.819 100.018 166.834 99.6266 166.878Z" fill="#07085B"/>
<path d="M87.3335 167.091C86.8354 166.63 86.4399 166.655 86.4399 166.655L86.7787 164L87.6982 162.428C87.6982 162.428 91.1957 158.237 91.3183 158.134C91.4409 158.031 94.0326 156.733 94.1919 156.667C94.3513 156.6 97.8856 157.26 97.8856 157.26C97.8856 157.26 104.188 156.252 103.005 159.4C101.821 162.548 97.1775 164.046 96.9491 163.892C97.7154 163.207 97.8687 161.181 97.8687 161.181C94.5061 164.475 88.2944 166.75 87.3335 167.091Z" fill="#07085B"/>
<path d="M97.9621 168.16C98.1878 168.519 98.3886 168.894 98.5629 169.282C98.7451 169.667 98.8988 170.066 99.0227 170.474C99.0808 170.684 99.1183 170.9 99.1346 171.117C99.1391 171.176 99.1391 171.235 99.1346 171.294C99.1346 171.324 99.1208 171.357 99.1147 171.389C99.103 171.425 99.0871 171.46 99.0671 171.492L99.0273 171.543L98.9921 171.57C98.9706 171.589 98.9476 171.609 98.9246 171.626C98.8788 171.659 98.8312 171.69 98.7821 171.718C98.5914 171.828 98.3895 171.918 98.1798 171.985C97.9737 172.053 97.7625 172.105 97.5483 172.139C97.9384 171.974 98.3128 171.775 98.6671 171.543C98.7085 171.514 98.7453 171.481 98.7836 171.45L98.8373 171.401L98.8633 171.377C98.8625 171.372 98.8625 171.367 98.8633 171.363C98.8899 171.286 98.8968 171.204 98.8832 171.125C98.8588 170.924 98.8162 170.727 98.756 170.534C98.6442 170.136 98.5031 169.743 98.3667 169.346C98.2303 168.95 98.0909 168.564 97.9621 168.16Z" fill="#F99893"/>
<path d="M99.7338 182.86C99.7338 182.86 106.309 183.139 109.746 187.335C113.184 191.531 122.927 232.679 122.927 232.679L111.963 231.504C111.963 231.504 97.7092 211.955 97.7092 211.452C97.7092 210.949 99.7338 182.86 99.7338 182.86Z" fill="#050849"/>
<path d="M86.8109 182.926C86.8109 182.926 99.3983 182.9 99.5914 182.914C99.7845 182.928 100.752 182.824 101.107 183.197C101.463 183.571 102.076 185.626 100.326 186.632C98.5753 187.639 102.296 187.681 97.5469 188.52C92.7973 189.359 94.2211 190.491 90.621 189.023C87.0208 187.555 86.558 188.183 86.4338 186.883C86.3097 185.583 86.8109 182.926 86.8109 182.926Z" fill="#FFC0BB"/>
<path d="M111.828 201.608C111.097 194.999 109.331 190.575 107.351 187.607C105.881 185.417 103.658 183.847 101.107 183.197C101.096 183.24 100.47 185.586 97.2357 185.964C93.9697 186.342 86.9365 182.922 86.8139 182.929C83.18 183.157 80.0381 183.841 78.4013 185.756C75.1322 189.562 64.3318 216.226 64.5832 219.997C64.8345 223.767 67.7235 223.763 67.7235 223.763L97.3031 223.776V230.603L118.76 232.072C118.161 231.668 113.895 220.318 111.828 201.608Z" fill="#07085B"/>
<path d="M114.203 199.017C114.392 199.017 122.02 194.395 122.02 194.395L123.445 194.702L122.939 195.076L123.791 194.862L125.171 195.076C125.171 195.076 120.59 200.494 120.513 200.648C120.437 200.801 118.435 201.57 118.28 201.651C118.125 201.733 114.203 199.017 114.203 199.017Z" fill="#DAEEF7"/>
<path d="M102.008 195.32L102.701 194.887L103.018 195.103V194.698L103.452 194.39L114.537 198.788C114.537 198.788 110.986 201.044 110.87 200.957C110.753 200.869 104.433 199.713 104.318 199.539C104.203 199.366 102.008 195.32 102.008 195.32Z" fill="#DAEEF7"/>
<path d="M102.183 195.114L114.751 199.194L124.883 194.771C125.023 194.71 125.177 194.687 125.329 194.704C125.481 194.721 125.626 194.778 125.749 194.869C125.872 194.96 125.969 195.082 126.031 195.223C126.092 195.364 126.115 195.518 126.098 195.671L124.169 212.978C124.153 213.12 124.102 213.255 124.022 213.373C123.942 213.491 123.835 213.587 123.709 213.653L113.98 218.793L105.167 215.524L104.94 215.19L103.798 215.017L100.103 213.645C99.943 213.586 99.8066 213.475 99.715 213.33C99.6234 213.185 99.5816 213.014 99.596 212.843L101.049 195.872C101.06 195.741 101.101 195.615 101.167 195.502C101.234 195.389 101.325 195.292 101.434 195.219C101.543 195.147 101.667 195.099 101.797 195.081C101.926 195.063 102.058 195.074 102.183 195.114Z" fill="#FEB546"/>
<path d="M102.183 195.114C102.058 195.074 101.926 195.062 101.796 195.08C101.666 195.098 101.541 195.145 101.432 195.218C101.323 195.291 101.231 195.387 101.164 195.501C101.097 195.614 101.057 195.741 101.046 195.872L99.5944 212.82C99.5793 212.998 99.6227 213.175 99.7179 213.326C99.8131 213.476 99.9549 213.591 100.122 213.653L103.8 215.017L104.942 215.19L105.169 215.524L111.089 217.723C112.453 217.459 113.806 217.205 113.806 217.205L114.746 199.194L102.183 195.114Z" fill="#F4A640"/>
<path d="M116.622 201.262L124.458 197.829L124.207 201.396L116.528 204.964L116.622 201.262Z" fill="#F4A640"/>
<path d="M120.855 230.638C120.855 230.638 147.385 229.799 153.412 235.505C159.44 241.21 153.581 283.339 152.576 287.277C152.576 287.277 148.897 290.711 144.538 289.369C140.18 288.027 141.859 269.233 141.859 269.233C141.859 269.233 142.361 251.278 141.691 248.761C141.021 246.243 131.812 244.398 131.812 244.398C131.812 244.398 117.58 234.498 118.416 234.498C119.253 234.498 120.855 230.638 120.855 230.638Z" fill="#2B1C35"/>
<path d="M97.3031 229.834C97.3031 229.834 132.817 225.607 137.672 241.716C142.528 257.825 146.212 289.707 146.212 289.707C146.212 289.707 141.524 292.56 135.162 289.707C135.162 289.707 126.161 255.476 122.792 252.119C119.423 248.762 97.3031 250.81 97.3031 250.81V229.834Z" fill="#3A2645"/>
<path d="M106.431 219.589C106.291 218.822 106.109 218.063 105.886 217.316C105.665 216.567 105.426 215.831 105.127 215.104L105.095 215.023H105.006L81.3086 213.833C81.4168 213.109 81.6002 212.398 81.8558 211.712C82.1071 210.992 82.3937 210.285 82.6941 209.583C83.2995 208.181 83.9631 206.805 84.6498 205.433C86.0291 202.706 87.4928 200.022 89.0193 197.375L88.9947 197.36C87.4499 199.998 85.9663 202.671 84.5685 205.391C83.8712 206.752 83.1984 208.126 82.5761 209.526C82.2696 210.227 81.9769 210.936 81.7178 211.656C81.4427 212.377 81.2489 213.126 81.1401 213.89L81.1309 213.967H81.2105L104.893 215.286C105.165 215.97 105.401 216.669 105.611 217.387C105.83 218.125 106.01 218.874 106.148 219.631C106.291 220.385 106.372 221.149 106.388 221.917C106.41 222.646 106.329 223.374 106.148 224.081L99.1346 223.884L95.5758 223.784L92.0155 223.724V223.758L95.5728 223.899L99.13 224.053L106.246 224.348H106.343L106.372 224.255C106.591 223.495 106.694 222.707 106.678 221.917C106.66 221.135 106.578 220.357 106.431 219.589Z" fill="white"/>
<path d="M113.931 198.946L113.022 217.925L114.401 217.723L115.38 198.946C115.38 198.946 114.652 198.436 113.931 198.946Z" fill="#ED9935"/>
<path d="M114.942 216.899C113.184 217.676 109.616 217.112 109.616 217.112L106.916 216.171C106.537 216.428 106.149 216.689 105.772 216.939C105.811 217.062 105.849 217.187 105.886 217.311C106.108 218.059 106.291 218.818 106.431 219.585C106.578 220.353 106.661 221.133 106.678 221.915C106.678 222.044 106.678 222.172 106.669 222.301L107.049 222.159C107.509 222.252 108.341 222.173 109.501 221.995C110.816 221.826 112.898 221.534 113.806 221.273C114.055 221.215 114.284 221.092 114.47 220.917C114.656 220.742 114.793 220.521 114.867 220.276C115.385 219.96 115.434 219.37 115.371 218.893C115.386 218.864 115.399 218.833 115.409 218.802C115.662 218.011 115.521 217.805 115.391 217.726C115.479 217.642 115.543 217.536 115.577 217.419C115.863 216.249 114.942 216.899 114.942 216.899Z" fill="#FFC0BB"/>
<path d="M115.38 218.841C115.162 219.083 114.903 219.283 114.614 219.434C114.326 219.589 114.021 219.71 113.705 219.794C113.389 219.878 113.066 219.929 112.74 219.948C112.577 219.958 112.415 219.948 112.254 219.948C112.093 219.948 111.93 219.92 111.77 219.901C112.093 219.885 112.413 219.874 112.73 219.834C113.047 219.796 113.36 219.738 113.668 219.659C113.976 219.578 114.276 219.471 114.565 219.339C114.857 219.208 115.13 219.04 115.38 218.841Z" fill="#F99893"/>
<path d="M114.865 220.284C114.627 220.508 114.352 220.687 114.052 220.814C113.752 220.946 113.438 221.042 113.117 221.1C112.795 221.157 112.469 221.181 112.143 221.171C111.981 221.171 111.819 221.148 111.658 221.137C111.497 221.127 111.337 221.085 111.179 221.053C111.503 221.062 111.823 221.077 112.142 221.062C112.46 221.05 112.777 221.016 113.091 220.962C113.403 220.905 113.711 220.821 114.01 220.713C114.312 220.606 114.599 220.462 114.865 220.284Z" fill="#F99893"/>
<path d="M115.38 217.736C115.162 217.977 114.903 218.178 114.614 218.329C114.326 218.484 114.021 218.605 113.705 218.689C113.389 218.772 113.066 218.823 112.74 218.842C112.577 218.855 112.415 218.842 112.254 218.842C112.093 218.842 111.93 218.816 111.77 218.796C112.093 218.781 112.413 218.77 112.73 218.73C113.047 218.692 113.36 218.634 113.668 218.555C113.975 218.473 114.275 218.366 114.565 218.235C114.856 218.102 115.13 217.935 115.38 217.736Z" fill="#F99893"/>
<path d="M94.7866 173.701C95.5238 173.787 96.2411 173.913 96.9629 174.008C97.684 174.12 98.4105 174.194 99.1393 174.23C98.4174 174.423 97.6526 174.383 96.9231 174.288C96.1882 174.188 95.4699 173.99 94.7866 173.701Z" fill="#F99893"/>
<path d="M53.4669 300.948H50.7864L57.4732 274.618L59.9913 275.26L53.4669 300.948Z" fill="#3D3A55"/>
<path d="M102.63 300.948H99.9484L106.635 274.618L109.153 275.26L102.63 300.948Z" fill="#3D3A55"/>
<path d="M86.1272 300.948H88.8077L82.1209 274.618L79.6028 275.26L86.1272 300.948Z" fill="#3D3A55"/>
<path d="M475.201 90.4052H392.814V95.1317H475.201V90.4052Z" fill="#036A71"/>
<path d="M487.317 130.662H404.931V135.388H487.317V130.662Z" fill="#036A71"/>
<path d="M188.416 87.2817H186.08V278.534H188.416V87.2817Z" fill="#09083C"/>
<path d="M213.436 87.2817H211.1V278.534H213.436V87.2817Z" fill="#09083C"/>
<path d="M212.267 90.1931H187.247V92.1729H212.267V90.1931Z" fill="#09083C"/>
<path d="M212.267 103.029H187.247V105.009H212.267V103.029Z" fill="#09083C"/>
<path d="M212.267 115.864H187.247V117.844H212.267V115.864Z" fill="#09083C"/>
<path d="M212.267 128.701H187.247V130.68H212.267V128.701Z" fill="#09083C"/>
<path d="M212.267 141.537H187.247V143.517H212.267V141.537Z" fill="#09083C"/>
<path d="M212.267 154.373H187.247V156.353H212.267V154.373Z" fill="#09083C"/>
<path d="M212.267 167.21H187.247V169.189H212.267V167.21Z" fill="#09083C"/>
<path d="M212.267 180.046H187.247V182.026H212.267V180.046Z" fill="#09083C"/>
<path d="M212.267 192.882H187.247V194.862H212.267V192.882Z" fill="#09083C"/>
<path d="M212.267 205.719H187.247V207.698H212.267V205.719Z" fill="#09083C"/>
<path d="M212.267 218.553H187.247V220.533H212.267V218.553Z" fill="#09083C"/>
<path d="M212.267 231.39H187.247V233.37H212.267V231.39Z" fill="#09083C"/>
<path d="M212.267 244.226H187.247V246.206H212.267V244.226Z" fill="#09083C"/>
<path d="M503.214 85.5264C515.705 85.5264 525.83 75.3785 525.83 62.8603C525.83 50.3422 515.705 40.1942 503.214 40.1942C490.723 40.1942 480.597 50.3422 480.597 62.8603C480.597 75.3785 490.723 85.5264 503.214 85.5264Z" fill="#14ACB7"/>
<path d="M523.098 61.6092C523.348 65.5541 522.426 69.4849 520.449 72.9042C518.471 76.3236 515.527 79.0778 511.988 80.8186C508.449 82.5593 504.475 83.2084 500.569 82.6835C496.662 82.1587 492.999 80.4836 490.042 77.8702C487.085 75.2568 484.967 71.8225 483.956 68.0017C482.946 64.1809 483.088 60.1453 484.364 56.4055C485.641 52.6657 487.995 49.3897 491.128 46.9919C494.262 44.594 498.034 43.1822 501.968 42.9349C504.578 42.7692 507.195 43.1208 509.67 43.9697C512.144 44.8185 514.428 46.148 516.39 47.8821C518.352 49.6163 519.955 51.7211 521.106 54.0764C522.257 56.4317 522.934 58.9914 523.098 61.6092Z" fill="white"/>
<path d="M490.356 62.5022H483.65V63.0187H490.356V62.5022Z" fill="#14ACB7"/>
<path d="M522.821 62.5022H516.114V63.0187H522.821V62.5022Z" fill="#14ACB7"/>
<path d="M503.444 43.3914H502.929V50.1116H503.444V43.3914Z" fill="#14ACB7"/>
<path d="M503.444 75.795H502.929V82.5153H503.444V75.795Z" fill="#14ACB7"/>
<path d="M503.77 62.8603C503.77 62.9703 503.737 63.0779 503.676 63.1694C503.616 63.2609 503.529 63.3322 503.427 63.3743C503.326 63.4165 503.215 63.4275 503.107 63.406C502.999 63.3845 502.9 63.3315 502.823 63.2537C502.745 63.1759 502.692 63.0768 502.671 62.9688C502.65 62.8609 502.661 62.749 502.703 62.6473C502.745 62.5457 502.816 62.4587 502.907 62.3976C502.998 62.3365 503.105 62.3038 503.215 62.3038C503.362 62.3038 503.503 62.3625 503.607 62.4668C503.712 62.5712 503.77 62.7127 503.77 62.8603Z" fill="#14ACB7"/>
<path d="M503.215 63.1093C503.183 63.1094 503.15 63.1029 503.12 63.0902C503.09 63.0775 503.062 63.0589 503.039 63.0355L493.065 53.0444C493.042 53.0213 493.023 52.9939 493.011 52.9637C492.998 52.9335 492.991 52.9011 492.991 52.8684C492.991 52.8356 492.998 52.8032 493.011 52.773C493.023 52.7428 493.042 52.7154 493.065 52.6924C493.111 52.6457 493.174 52.6195 493.24 52.6195C493.306 52.6195 493.369 52.6457 493.416 52.6924L503.39 62.6835C503.437 62.7302 503.463 62.7935 503.463 62.8595C503.463 62.9255 503.437 62.9888 503.39 63.0355C503.367 63.0589 503.34 63.0775 503.31 63.0901C503.28 63.1028 503.248 63.1093 503.215 63.1093Z" fill="#14ACB7"/>
<path d="M506.422 72.9621C506.401 72.9515 506.382 72.9367 506.367 72.9188C506.351 72.9009 506.34 72.88 506.333 72.8576L503.114 63.0985C503.107 63.076 503.104 63.0523 503.106 63.0286C503.107 63.005 503.114 62.9819 503.124 62.9607C503.135 62.9395 503.149 62.9206 503.167 62.9051C503.185 62.8896 503.206 62.8777 503.228 62.8703C503.251 62.8628 503.275 62.8598 503.298 62.8616C503.322 62.8633 503.345 62.8696 503.366 62.8803C503.387 62.8909 503.406 62.9056 503.421 62.9235C503.437 62.9415 503.449 62.9623 503.456 62.9848L506.674 72.7439C506.685 72.7779 506.686 72.8144 506.677 72.8488C506.667 72.8832 506.647 72.914 506.62 72.9374C506.593 72.9607 506.56 72.9755 506.525 72.9799C506.489 72.9843 506.453 72.9781 506.422 72.9621Z" fill="#14ACB7"/>
</svg>
