<svg  viewBox="0 0 553 343" fill="none" xmlns="http://www.w3.org/2000/svg">
<path d="M517.286 134.77C517.286 134.77 510.619 134.289 511.234 149.221C511.849 164.153 513.378 172.107 513.378 172.107C513.378 172.107 513.181 175.422 510.611 174.768C508.042 174.115 503.22 170.894 500.832 173.304C498.444 175.713 499.256 179.604 502.518 184.148C505.781 188.692 512.621 198.812 513.236 199.733C513.85 200.654 514.079 202.332 512.259 202.167C510.438 202.001 498.168 197.843 496.537 203.781C494.906 209.719 506.12 220.799 507.317 222.028C508.515 223.257 508.586 224.044 508.105 224.792C507.625 225.54 503.621 223.753 500.083 222.713C496.545 221.674 492.258 221.083 491.604 224.587C490.949 228.092 495.891 238.353 514.37 249.135L523.26 253.569L531.676 248.205C549.013 235.605 552.859 224.934 551.866 221.508C550.873 218.082 546.657 219.098 543.237 220.484C539.817 221.871 536.026 224.052 535.467 223.359C534.907 222.666 534.891 221.878 535.963 220.532C537.035 219.185 547.075 207.049 544.86 201.3C542.646 195.551 530.857 200.922 529.099 201.261C527.342 201.6 527.373 199.898 527.886 198.938C528.398 197.977 534.19 187.18 536.988 182.36C539.785 177.541 540.29 173.642 537.579 171.406C534.868 169.169 530.486 172.933 527.996 173.839C525.506 174.745 524.986 171.477 524.986 171.477C524.986 171.477 525.703 163.412 524.82 148.489C523.937 133.565 517.16 134.77 517.16 134.77" fill="#EBEBEB"/>
<path d="M517.806 148.142C517.813 148.247 517.813 148.352 517.806 148.457L517.877 149.371C517.932 150.158 518.011 151.379 518.114 152.899C518.319 155.962 518.586 160.396 518.902 165.869C519.509 176.832 520.226 191.976 520.951 208.703C521.676 225.43 522.361 240.59 522.905 251.545C523.189 257.018 523.409 261.444 523.567 264.523C523.646 266.051 523.701 267.232 523.74 268.059C523.74 268.445 523.74 268.752 523.74 268.973C523.746 269.078 523.746 269.183 523.74 269.288C523.74 269.288 523.74 269.185 523.74 268.973C523.74 268.76 523.74 268.453 523.669 268.059C523.614 267.272 523.528 266.051 523.425 264.531C523.22 261.475 522.96 257.042 522.637 251.56C522.022 240.598 521.313 225.454 520.58 208.719C519.847 191.984 519.178 176.848 518.626 165.885C518.35 160.42 518.122 155.986 517.972 152.907C517.893 151.387 517.83 150.198 517.791 149.379C517.791 148.985 517.791 148.678 517.791 148.457C517.791 148.237 517.806 148.142 517.806 148.142Z" fill="#E0E0E0"/>
<path d="M507.404 178.084C507.605 178.215 507.79 178.368 507.956 178.541C508.302 178.856 508.744 179.328 509.366 179.895C510.54 181.061 512.125 182.707 513.827 184.557C515.529 186.408 516.979 188.03 518.177 189.283L519.501 190.716C519.676 190.879 519.832 191.061 519.966 191.259C519.966 191.259 519.745 191.118 519.406 190.81C519.067 190.503 518.618 190.023 518.003 189.448C516.837 188.275 515.285 186.605 513.575 184.723L509.201 179.998C508.673 179.439 508.232 178.958 507.869 178.564C507.697 178.422 507.541 178.261 507.404 178.084Z" fill="#E0E0E0"/>
<path d="M520.84 190.999C520.777 190.936 524.032 187.534 528.106 183.4C532.18 179.265 535.545 175.973 535.608 176.044C535.671 176.115 532.456 179.509 528.35 183.644C524.245 187.778 520.911 191.07 520.84 190.999Z" fill="#E0E0E0"/>
<path d="M520.809 216.744C520.999 216.591 521.205 216.459 521.423 216.35L523.165 215.373C524.631 214.586 526.656 213.405 528.839 212.066C531.022 210.727 532.968 209.451 534.355 208.514L536.01 207.404C536.204 207.25 536.419 207.125 536.649 207.033C536.478 207.211 536.291 207.372 536.089 207.514C535.719 207.805 535.175 208.215 534.513 208.711C533.15 209.695 531.227 211.01 528.997 212.357C526.767 213.704 524.757 214.814 523.26 215.586C522.472 215.972 521.896 216.271 521.463 216.468C521.257 216.586 521.037 216.679 520.809 216.744Z" fill="#E0E0E0"/>
<path d="M506.08 207.711C506.295 207.786 506.501 207.883 506.695 208.002C507.081 208.207 507.632 208.514 508.271 208.892C509.626 209.68 511.486 210.743 513.527 211.955C515.568 213.168 517.404 214.318 518.728 215.106C519.39 215.523 519.918 215.854 520.304 216.098C520.503 216.206 520.686 216.341 520.848 216.5C520.633 216.426 520.427 216.329 520.234 216.208C519.847 216.003 519.296 215.696 518.657 215.318C517.31 214.531 515.45 213.468 513.409 212.255C511.368 211.042 509.532 209.892 508.208 209.105C507.546 208.695 507.018 208.356 506.632 208.112C506.246 207.868 506.064 207.758 506.08 207.711Z" fill="#E0E0E0"/>
<path d="M503.156 230.462C503.434 230.555 503.699 230.682 503.944 230.84L506.017 231.982C507.759 232.951 510.146 234.345 512.779 235.849C515.411 237.353 517.783 238.787 519.493 239.787L521.502 241.023C521.76 241.161 522 241.327 522.219 241.519C521.946 241.416 521.683 241.29 521.431 241.141L519.359 239.999C517.625 239.023 515.229 237.637 512.597 236.125C509.965 234.613 507.593 233.195 505.891 232.187L503.874 230.951C503.622 230.808 503.382 230.644 503.156 230.462Z" fill="#E0E0E0"/>
<path d="M521.833 241.149C522.075 240.947 522.34 240.772 522.621 240.629L524.781 239.314C526.609 238.204 529.123 236.66 531.873 234.88C534.623 233.1 537.035 231.439 538.784 230.218L540.865 228.777C541.108 228.582 541.372 228.416 541.653 228.281C541.431 228.497 541.194 228.697 540.944 228.879C540.471 229.249 539.785 229.777 538.926 230.415C537.208 231.683 534.797 233.392 532.054 235.14C529.312 236.888 526.782 238.432 524.962 239.487C524.032 240.015 523.275 240.432 522.74 240.716C522.45 240.886 522.147 241.031 521.833 241.149Z" fill="#E0E0E0"/>
<path d="M535.191 256.482H510.596L518.626 317.201H527.168L535.191 256.482Z" fill="#E0E0E0"/>
<path d="M511.872 263.94C511.872 263.94 511.872 264.027 512.006 264.161C512.167 264.347 512.37 264.492 512.597 264.586C513.027 264.734 513.484 264.782 513.935 264.726C514.386 264.67 514.818 264.512 515.198 264.263C516.191 263.72 517.058 262.641 518.35 262.168C519.823 261.694 521.412 261.725 522.866 262.255C524.35 262.759 525.766 263.444 527.082 264.295C528.179 264.984 529.321 265.597 530.502 266.13C531.307 266.49 532.158 266.737 533.032 266.862C533.269 266.897 533.509 266.913 533.749 266.909C533.906 266.909 533.993 266.909 533.993 266.909C532.827 266.73 531.691 266.388 530.62 265.893C529.468 265.33 528.349 264.699 527.271 264.003C525.94 263.122 524.502 262.416 522.992 261.901C521.452 261.344 519.769 261.324 518.216 261.845C517.559 262.111 516.951 262.487 516.419 262.956C515.973 263.348 515.502 263.711 515.009 264.043C514.668 264.278 514.28 264.437 513.872 264.509C513.464 264.581 513.046 264.564 512.645 264.46C512.355 264.34 512.093 264.163 511.872 263.94Z" fill="#F5F5F5"/>
<path d="M512.771 275.131C512.771 275.131 512.968 274.879 513.354 274.477C513.908 273.922 514.578 273.497 515.316 273.233C516.411 272.835 517.573 272.659 518.736 272.713C520.173 272.825 521.602 273.019 523.015 273.296C524.458 273.577 525.936 273.638 527.397 273.477C528.59 273.323 529.754 272.992 530.849 272.493C531.584 272.164 532.28 271.751 532.921 271.264C533.167 271.1 533.387 270.901 533.575 270.674C532.668 271.269 531.717 271.796 530.73 272.249C529.653 272.7 528.518 272.997 527.358 273.131C525.928 273.26 524.488 273.188 523.079 272.918C521.648 272.637 520.2 272.45 518.744 272.359C517.537 272.322 516.335 272.533 515.214 272.981C514.453 273.286 513.776 273.767 513.236 274.383C513.094 274.554 512.97 274.738 512.865 274.934C512.822 274.993 512.79 275.06 512.771 275.131Z" fill="#F5F5F5"/>
<path d="M532.409 281.116C532.208 280.956 531.978 280.836 531.731 280.762C531.075 280.52 530.388 280.374 529.69 280.329C528.66 280.263 527.625 280.322 526.609 280.502C525.466 280.691 524.245 281.006 522.944 281.289C521.743 281.568 520.513 281.706 519.28 281.699C518.28 281.674 517.293 281.46 516.372 281.069C515.532 280.68 514.781 280.123 514.166 279.431C514.259 279.67 514.401 279.887 514.583 280.069C515.047 280.599 515.616 281.028 516.254 281.329C517.198 281.774 518.221 282.026 519.264 282.069C520.529 282.099 521.792 281.967 523.023 281.675C524.331 281.4 525.553 281.077 526.672 280.888C527.661 280.697 528.667 280.613 529.674 280.636C530.602 280.681 531.521 280.842 532.409 281.116Z" fill="#F5F5F5"/>
<path d="M514.946 289.535C515.691 289.215 516.516 289.132 517.31 289.299C518.176 289.51 519.015 289.821 519.808 290.228C520.827 290.719 521.928 291.02 523.055 291.118C525.11 291.303 527.17 290.826 528.934 289.755C529.463 289.436 529.954 289.058 530.399 288.629C530.699 288.314 530.849 288.133 530.833 288.109C530.181 288.617 529.5 289.085 528.792 289.511C527.052 290.47 525.066 290.89 523.086 290.716C520.762 290.59 518.973 289.196 517.357 289.015C516.737 288.907 516.099 288.961 515.505 289.173C515.111 289.338 514.93 289.519 514.946 289.535Z" fill="#F5F5F5"/>
<path d="M516.317 301.19C517.022 301.208 517.722 301.068 518.366 300.781C519.603 300.371 521.132 299.426 522.921 298.717C523.75 298.378 524.634 298.191 525.529 298.166C526.258 298.167 526.977 298.331 527.633 298.646C528.23 298.966 528.749 299.412 529.154 299.954C529.121 299.766 529.04 299.589 528.918 299.442C528.623 299.006 528.229 298.647 527.767 298.394C527.081 298.022 526.317 297.817 525.537 297.796C524.591 297.798 523.655 297.982 522.779 298.339C520.927 299.08 519.446 300.056 518.263 300.521C517.081 300.985 516.309 301.127 516.317 301.19Z" fill="#F5F5F5"/>
<path d="M517.523 306.616C518.022 306.858 518.552 307.027 519.099 307.12C520.379 307.43 521.68 307.648 522.992 307.774C524.301 307.904 525.618 307.944 526.932 307.892C527.48 307.909 528.027 307.843 528.555 307.695C528.555 307.577 526.065 307.695 523.039 307.372C520.013 307.05 517.554 306.498 517.523 306.616Z" fill="#F5F5F5"/>
<path d="M314.63 60.1673C314.63 60.5059 310.785 60.7815 306.041 60.7815C301.297 60.7815 297.451 60.5059 297.451 60.1673C297.451 59.8286 301.297 59.553 306.041 59.553C310.785 59.553 314.63 59.8286 314.63 60.1673Z" fill="#455A64"/>
<path d="M357.075 59.4663C357.075 59.805 349.462 60.0806 340.069 60.0806C330.675 60.0806 323.062 59.805 323.062 59.4663C323.062 59.1277 330.675 58.8521 340.069 58.8521C349.462 58.8521 357.075 59.1277 357.075 59.4663Z" fill="#455A64"/>
<path d="M357.075 71.7673C357.075 72.106 342.165 72.3816 323.772 72.3816C305.379 72.3816 290.461 72.106 290.461 71.7673C290.461 71.4287 305.371 71.1531 323.772 71.1531C342.173 71.1531 357.075 71.4208 357.075 71.7673Z" fill="#455A64"/>
<path d="M357.075 82.6983C357.075 83.037 350.44 83.3126 342.244 83.3126C334.048 83.3126 327.413 83.037 327.413 82.6983C327.413 82.3597 334.056 82.0762 342.244 82.0762C350.432 82.0762 357.075 82.3518 357.075 82.6983Z" fill="#455A64"/>
<path d="M320.935 65.0657C323.443 65.0657 325.848 66.0613 327.622 67.8336C329.395 69.6059 330.392 72.0096 330.392 74.516V93.8656H302.179V75.9966C302.178 74.5608 302.46 73.1389 303.01 71.8123C303.559 70.4856 304.365 69.2802 305.381 68.265C306.397 67.2497 307.603 66.4446 308.93 65.8956C310.258 65.3467 311.681 65.0646 313.117 65.0657H320.935Z" fill="#263238"/>
<path d="M292.683 149.733C292.683 150.071 288.648 150.347 283.676 150.347C278.703 150.347 274.66 150.071 274.66 149.733C274.66 149.394 278.695 149.118 283.676 149.118C288.656 149.118 292.683 149.433 292.683 149.733Z" fill="#455A64"/>
<path d="M458.142 264.277L457.705 307.938L512.349 308.484L512.786 264.823L458.142 264.277Z" fill="#F5F5F5"/>
<path d="M458.118 266.029L457.871 304.191L508.676 304.519L508.923 266.356L458.118 266.029Z" fill="#14ACB7"/>
<path opacity="0.2" d="M457.859 304.183L475.756 280.573L486.655 295.481L494.165 287.598L508.665 304.506L457.859 304.183Z" fill="black"/>
<g opacity="0.2">
<path opacity="0.2" d="M491.438 277.801C491.435 278.592 491.197 279.365 490.754 280.021C490.311 280.678 489.684 281.188 488.95 281.488C488.217 281.787 487.412 281.863 486.635 281.705C485.859 281.547 485.147 281.162 484.59 280.6C484.033 280.037 483.655 279.322 483.504 278.545C483.354 277.768 483.438 276.964 483.745 276.234C484.052 275.504 484.568 274.882 485.23 274.446C485.891 274.01 486.666 273.78 487.458 273.784C488.519 273.79 489.533 274.217 490.279 274.97C491.026 275.723 491.442 276.741 491.438 277.801Z" fill="black"/>
</g>
<path d="M448.242 258.71L447.959 302.37L502.602 302.722L502.884 259.063L448.242 258.71Z" fill="#F5F5F5"/>
<path d="M450.115 261.463L449.868 299.626L500.673 299.954L500.92 261.791L450.115 261.463Z" fill="#14ACB7"/>
<path opacity="0.2" d="M449.845 299.623L467.741 276.013L478.64 290.921L486.15 283.038L500.65 299.946L449.845 299.623Z" fill="black"/>
<g opacity="0.2">
<path opacity="0.2" d="M483.424 273.209C483.419 274.002 483.178 274.776 482.733 275.432C482.287 276.088 481.657 276.597 480.921 276.894C480.185 277.191 479.378 277.263 478.601 277.101C477.825 276.939 477.114 276.55 476.559 275.983C476.004 275.416 475.63 274.698 475.485 273.918C475.339 273.139 475.429 272.334 475.742 271.605C476.056 270.877 476.579 270.258 477.245 269.827C477.911 269.396 478.69 269.173 479.483 269.185C480.538 269.202 481.544 269.634 482.282 270.387C483.02 271.141 483.43 272.155 483.424 273.209Z" fill="black"/>
</g>
<path d="M441.111 254.945L440.829 298.604L495.471 298.957L495.754 255.297L441.111 254.945Z" fill="#F5F5F5"/>
<path d="M442.969 257.697L442.722 295.86L493.527 296.188L493.773 258.025L442.969 257.697Z" fill="#14ACB7"/>
<path opacity="0.2" d="M442.713 295.851L460.609 272.241L471.508 287.157L479.011 279.273L493.519 296.182L442.713 295.851Z" fill="black"/>
<g opacity="0.2">
<path opacity="0.2" d="M476.284 269.437C476.279 270.23 476.039 271.004 475.593 271.66C475.147 272.316 474.517 272.825 473.781 273.122C473.046 273.419 472.238 273.491 471.462 273.329C470.685 273.167 469.974 272.778 469.419 272.211C468.864 271.644 468.49 270.925 468.345 270.146C468.2 269.367 468.289 268.561 468.603 267.833C468.916 267.105 469.439 266.486 470.105 266.055C470.771 265.624 471.55 265.4 472.344 265.413C473.398 265.429 474.404 265.861 475.142 266.615C475.88 267.369 476.29 268.383 476.284 269.437Z" fill="black"/>
</g>
<path d="M434.891 260.618L434.455 304.279L489.098 304.825L489.535 261.164L434.891 260.618Z" fill="#F5F5F5"/>
<path d="M434.965 262.39L434.719 300.553L485.523 300.881L485.77 262.718L434.965 262.39Z" fill="#455A64"/>
<path opacity="0.2" d="M434.698 300.544L452.595 276.934L463.494 291.842L470.996 283.959L485.504 300.867L434.698 300.544Z" fill="black"/>
<g opacity="0.2">
<path opacity="0.2" d="M468.301 274.131C468.296 274.924 468.056 275.697 467.61 276.353C467.164 277.009 466.534 277.518 465.798 277.816C465.063 278.113 464.255 278.185 463.479 278.023C462.702 277.86 461.991 277.471 461.436 276.905C460.881 276.338 460.507 275.619 460.362 274.84C460.217 274.06 460.306 273.255 460.62 272.527C460.933 271.798 461.456 271.179 462.122 270.748C462.788 270.317 463.567 270.094 464.36 270.106C465.417 270.119 466.425 270.55 467.164 271.304C467.902 272.059 468.311 273.075 468.301 274.131Z" fill="black"/>
</g>
<path d="M519.264 275.855H487.719V318.012H519.264V275.855Z" fill="#263238"/>
<path d="M427.322 275.855V318.004H490.366V275.855H427.322ZM465.582 285.826H452.185C451.416 285.826 450.678 285.52 450.134 284.977C449.591 284.433 449.285 283.696 449.285 282.927C449.285 282.159 449.591 281.422 450.134 280.878C450.678 280.335 451.416 280.029 452.185 280.029H465.582C466.351 280.029 467.089 280.335 467.633 280.878C468.177 281.422 468.482 282.159 468.482 282.927C468.482 283.696 468.177 284.433 467.633 284.977C467.089 285.52 466.351 285.826 465.582 285.826Z" fill="#14ACB7"/>
<path d="M41.7826 37.1162C41.7826 37.1162 31.5379 36.3838 32.4993 59.3087C33.4607 82.2337 35.7776 94.4404 35.7776 94.4404C35.7776 94.4404 35.4782 99.5278 31.5379 98.5276C27.5976 97.5275 20.1899 92.5818 16.5649 96.2832C12.7743 100.118 14.1219 106.001 19.1576 112.932C24.1932 119.862 34.6271 135.439 35.5648 136.833C36.5026 138.227 36.8651 140.818 34.0675 140.566C31.27 140.314 12.4276 133.935 9.92946 143.054C7.43133 152.174 24.6345 169.169 26.4786 171.067C28.3226 172.965 28.4251 174.154 27.6764 175.304C26.9278 176.454 20.7967 173.729 15.3592 172.106C9.92159 170.484 3.34922 169.634 2.34839 175.02C1.34756 180.407 8.92076 196.15 37.2907 212.704L50.9398 219.524L63.856 211.286C90.4291 191.984 96.3947 175.548 94.858 170.334C93.3213 165.121 86.8671 166.633 81.6187 168.759C76.3703 170.886 70.586 174.233 69.6876 173.162C68.7892 172.091 68.8049 170.902 70.4756 168.83C72.1463 166.759 87.5291 148.126 84.1326 139.306C80.7361 130.486 62.6266 138.715 59.8684 139.243C57.1102 139.771 57.2284 137.148 58.0086 135.675C58.7888 134.203 67.6623 117.625 71.9808 110.222C76.2993 102.82 77.048 96.8344 72.8871 93.4087C68.8759 90.0932 61.9962 95.7713 58.182 97.1416C54.3678 98.5119 53.5561 93.5032 53.5561 93.5032C53.5561 93.5032 54.6594 81.1154 53.3039 58.214C51.9485 35.3127 41.5698 37.1162 41.5698 37.1162" fill="#EBEBEB"/>
<path d="M42.5864 57.655C42.6134 57.8114 42.6318 57.9692 42.6416 58.1275C42.6416 58.4662 42.7046 58.9151 42.7519 59.5372C42.8386 60.7973 42.9647 62.6165 43.1223 64.9475C43.4296 69.6727 43.8394 76.4612 44.3044 84.872C45.2343 101.694 46.3297 124.949 47.4566 150.631C48.5835 176.312 49.608 199.576 50.4512 216.374C50.8767 224.769 51.2392 231.573 51.4678 236.298C51.5781 238.661 51.6727 240.456 51.7357 241.716C51.7357 242.323 51.7357 242.787 51.7909 243.126C51.8461 243.465 51.7909 243.606 51.7909 243.606C51.7909 243.606 51.7909 243.449 51.7357 243.134C51.6806 242.819 51.6727 242.346 51.6333 241.724C51.5466 240.464 51.4205 238.645 51.2629 236.314C50.9477 231.589 50.5458 224.808 50.0808 216.389C49.143 199.568 48.0555 176.312 46.9286 150.623C45.8017 124.934 44.7693 101.717 43.934 84.8563C43.5006 76.4612 43.1459 69.657 42.9174 64.9318C42.7992 62.5692 42.7125 60.7736 42.6495 59.5136C42.6495 58.9072 42.6022 58.4426 42.5943 58.1039C42.5864 57.7653 42.5864 57.655 42.5864 57.655Z" fill="#E0E0E0"/>
<path d="M26.6125 103.623C26.6125 103.623 26.9435 103.844 27.4636 104.324C27.9838 104.804 28.7245 105.513 29.6308 106.403C31.4354 108.191 33.8548 110.719 36.4711 113.554L43.1538 120.854L45.1791 123.059C45.4527 123.309 45.6936 123.592 45.8962 123.902C45.5823 123.704 45.2938 123.469 45.0372 123.201C44.5171 122.721 43.7764 122.012 42.8859 121.106C41.097 119.311 38.7092 116.751 36.0928 113.908L29.355 106.663L27.3139 104.466C27.0482 104.213 26.8128 103.93 26.6125 103.623Z" fill="#E0E0E0"/>
<path d="M47.2438 123.445C47.1413 123.343 52.1376 118.114 58.3948 111.774C64.6519 105.434 69.8137 100.371 69.9161 100.473C70.0186 100.575 65.0302 105.797 58.7651 112.144C52.5001 118.492 47.3462 123.548 47.2438 123.445Z" fill="#E0E0E0"/>
<path d="M47.1887 162.971C47.4812 162.734 47.8013 162.533 48.1422 162.373L50.8137 160.876C53.0675 159.608 56.1725 157.852 59.4823 155.789C62.7921 153.726 65.7867 151.772 67.9775 150.331L70.5229 148.638C70.8184 148.403 71.1445 148.21 71.4922 148.063C71.2407 148.345 70.9547 148.593 70.6411 148.804C70.0737 149.245 69.2384 149.882 68.1824 150.638C66.0862 152.151 63.131 154.174 59.7581 156.23C56.3852 158.285 53.2488 160.01 50.9477 161.199C49.7971 161.782 48.8515 162.247 48.1974 162.554C47.8801 162.735 47.5412 162.875 47.1887 162.971Z" fill="#E0E0E0"/>
<path d="M24.5794 149.142C24.9128 149.247 25.2308 149.395 25.5251 149.583C26.1161 149.898 26.9593 150.371 27.9996 150.961C30.0721 152.143 32.9249 153.796 36.0614 155.686C39.1978 157.577 42.019 159.262 44.0443 160.522C45.0609 161.152 45.8805 161.672 46.4085 162.034C46.7136 162.203 46.9945 162.412 47.2438 162.656C46.9104 162.552 46.5924 162.403 46.2982 162.215C45.715 161.9 44.8639 161.428 43.8237 160.837C41.7511 159.656 38.8983 157.994 35.7619 156.112C32.6254 154.23 29.8042 152.536 27.7789 151.276C26.7623 150.646 25.9427 150.126 25.4147 149.756C25.1104 149.589 24.8296 149.383 24.5794 149.142Z" fill="#E0E0E0"/>
<path d="M20.0953 184.03C20.5141 184.181 20.9156 184.377 21.2932 184.613L24.4454 186.361C27.1169 187.857 30.7498 189.96 34.8319 192.307C38.9141 194.654 42.5076 196.811 45.1318 198.386L48.2682 200.284C48.6599 200.508 49.0271 200.772 49.3636 201.072C48.9466 200.916 48.5455 200.721 48.1658 200.489L45.0136 198.741C42.3421 197.245 38.7092 195.142 34.627 192.795C30.5449 190.448 26.9514 188.29 24.3272 186.715L21.2301 184.817C20.8247 184.596 20.4443 184.332 20.0953 184.03Z" fill="#E0E0E0"/>
<path d="M48.7648 200.434C49.1345 200.137 49.5301 199.873 49.9469 199.646L53.2646 197.63C56.07 195.929 59.9315 193.559 64.1161 190.826C68.3006 188.093 72.0439 185.542 74.7311 183.667L77.8834 181.455C78.2576 181.152 78.6616 180.888 79.0891 180.667C78.7543 181.005 78.3904 181.314 78.0016 181.588C77.2844 182.163 76.2284 182.967 74.9045 183.951C72.2724 185.904 68.6001 188.519 64.3604 191.251C60.1206 193.984 56.267 196.307 53.4143 197.937C51.9879 198.725 50.8295 199.387 50.0099 199.812C49.6148 200.057 49.198 200.265 48.7648 200.434Z" fill="#E0E0E0"/>
<path d="M69.2778 223.973H31.5143L43.8394 317.201H56.9526L69.2778 223.973Z" fill="#E0E0E0"/>
<path d="M33.4765 235.432C33.4765 235.432 33.4765 235.565 33.6814 235.77C33.929 236.053 34.2393 236.274 34.5877 236.416C35.2453 236.645 35.9469 236.72 36.6383 236.636C37.3297 236.551 37.9924 236.309 38.5752 235.928C40.104 235.085 41.428 233.439 43.4769 232.707C45.7429 231.984 48.1851 232.034 50.4197 232.848C52.6936 233.633 54.8636 234.69 56.8817 235.999C58.5703 237.052 60.3261 237.994 62.138 238.818C63.3713 239.371 64.6766 239.748 66.0152 239.936C66.3778 239.99 66.744 240.017 67.1106 240.015C67.2383 240.038 67.3691 240.038 67.4968 240.015C65.7069 239.73 63.9647 239.2 62.3193 238.44C60.5496 237.568 58.8315 236.595 57.1733 235.526C55.1286 234.175 52.92 233.09 50.6009 232.297C48.2375 231.441 45.6533 231.414 43.272 232.218C42.2625 232.625 41.3297 233.2 40.5138 233.92C39.8277 234.521 39.1067 235.081 38.3545 235.597C37.8239 235.963 37.22 236.21 36.5846 236.32C35.9492 236.43 35.2974 236.401 34.6743 236.235C34.2269 236.047 33.8201 235.774 33.4765 235.432Z" fill="#F5F5F5"/>
<path d="M34.8713 252.6C34.9186 252.6 35.1708 252.214 35.7618 251.6C36.6157 250.752 37.6425 250.1 38.7722 249.686C40.4541 249.075 42.2414 248.807 44.0285 248.898C46.2349 249.066 48.4295 249.363 50.6009 249.788C52.8152 250.215 55.0806 250.311 57.323 250.072C59.1532 249.832 60.9379 249.322 62.6187 248.56C63.7351 248.046 64.7921 247.412 65.7709 246.67C66.1482 246.417 66.4878 246.112 66.7796 245.764C65.3835 246.656 63.9244 247.446 62.4138 248.127C60.7557 248.812 59.0107 249.265 57.2284 249.473C55.036 249.677 52.8257 249.568 50.6639 249.15C48.4689 248.715 46.2467 248.431 44.0128 248.3C42.1561 248.234 40.3062 248.558 38.5831 249.253C37.416 249.72 36.3763 250.457 35.5491 251.403C35.3356 251.666 35.1457 251.948 34.9817 252.245C34.8713 252.482 34.8713 252.6 34.8713 252.6Z" fill="#F5F5F5"/>
<path d="M64.9987 261.798C64.6913 261.55 64.3378 261.365 63.9585 261.255C62.9453 260.882 61.8837 260.656 60.8062 260.585C59.2248 260.491 57.6378 260.584 56.0779 260.861C54.3127 261.144 52.4292 261.648 50.4433 262.05C48.6029 262.487 46.7161 262.698 44.8245 262.68C43.2984 262.641 41.7932 262.315 40.3878 261.719C39.0963 261.122 37.9425 260.264 36.9991 259.199C37.1435 259.567 37.3606 259.902 37.6375 260.184C38.3544 260.994 39.2284 261.65 40.2065 262.113C41.6542 262.797 43.2247 263.182 44.8245 263.247C46.7679 263.3 48.7097 263.098 50.601 262.649C52.6105 262.223 54.4782 261.727 56.204 261.42C57.7216 261.119 59.2674 260.985 60.8141 261.018C62.2356 261.107 63.6409 261.369 64.9987 261.798Z" fill="#F5F5F5"/>
<path d="M38.1891 274.729C39.3427 274.23 40.6232 274.1 41.8535 274.359C43.1837 274.684 44.4716 275.163 45.6914 275.785C47.2556 276.537 48.9428 277.001 50.6719 277.155C53.8278 277.438 56.9918 276.707 59.703 275.068C60.5153 274.578 61.2689 273.997 61.9489 273.335C62.4139 272.847 62.6503 272.548 62.6187 272.548C61.6072 273.32 60.5549 274.038 59.4665 274.698C56.795 276.166 53.7492 276.812 50.7113 276.556C47.1335 276.352 44.4068 274.194 41.9166 273.934C40.96 273.765 39.976 273.852 39.0638 274.186C38.7263 274.28 38.4228 274.469 38.1891 274.729Z" fill="#F5F5F5"/>
<path d="M40.2932 292.622C41.3772 292.652 42.4544 292.44 43.4454 292C45.3446 291.362 47.693 289.905 50.4354 288.85C51.712 288.333 53.0702 288.048 54.4466 288.007C55.5633 288.006 56.6654 288.26 57.6698 288.747C58.5965 289.234 59.4038 289.92 60.0339 290.755C60.0339 290.755 59.9866 290.44 59.6793 289.968C59.2169 289.314 58.6103 288.775 57.9062 288.393C56.8575 287.814 55.6839 287.498 54.486 287.471C53.0321 287.473 51.5922 287.756 50.2463 288.306C47.4014 289.44 45.1318 290.937 43.3193 291.653C41.5068 292.37 40.2774 292.519 40.2932 292.622Z" fill="#F5F5F5"/>
<path d="M42.1451 300.946C42.8923 301.318 43.6882 301.583 44.5093 301.734C46.4773 302.206 48.4759 302.54 50.4906 302.734C52.5039 302.937 54.529 302.998 56.5508 302.915C57.3908 302.932 58.2291 302.832 59.041 302.616C59.041 302.427 55.2189 302.616 50.5458 302.127C45.8726 301.639 42.1924 300.765 42.1451 300.946Z" fill="#F5F5F5"/>
<path d="M542.575 318.004C542.575 318.122 421.104 318.209 271.303 318.209C121.502 318.209 0 318.122 0 318.004C0 317.886 121.447 317.799 271.303 317.799C421.159 317.799 542.575 317.894 542.575 318.004Z" fill="#263238"/>
<path d="M204.374 0H366.997V154.781C366.997 158.169 365.65 161.418 363.253 163.813C360.856 166.209 357.604 167.555 354.214 167.555H204.374V0Z" fill="#EBEBEB"/>
<path d="M353.568 49.8662C353.568 50.2049 324.182 50.4805 287.931 50.4805C251.681 50.4805 222.278 50.2049 222.278 49.8662C222.278 49.5276 251.665 49.252 287.931 49.252C324.197 49.252 353.568 49.5276 353.568 49.8662Z" fill="#455A64"/>
<path d="M288.703 61.2302C288.703 61.5689 274.188 61.8445 256.275 61.8445C238.363 61.8445 223.839 61.5689 223.839 61.2302C223.839 60.8916 238.363 60.616 256.275 60.616C274.188 60.616 288.703 60.8758 288.703 61.2302Z" fill="#455A64"/>
<path d="M283.289 72.0747C283.289 72.4212 269.633 72.6969 252.784 72.6969C235.935 72.6969 222.278 72.4212 222.278 72.0747C222.278 71.7282 235.935 71.4604 252.784 71.4604C269.633 71.4604 283.289 71.7361 283.289 72.0747Z" fill="#455A64"/>
<path d="M295.717 37.699C295.717 38.0376 279.625 38.3133 259.782 38.3133C239.939 38.3133 223.839 38.0376 223.839 37.699C223.839 37.3604 239.931 37.0847 259.782 37.0847C279.633 37.0847 295.717 37.3604 295.717 37.699Z" fill="#14ACB7"/>
<path d="M395.69 93.8499H80.8385C74.4972 93.8499 69.3566 98.9871 69.3566 105.324V305.616C69.3566 311.953 74.4972 317.091 80.8385 317.091H395.69C402.031 317.091 407.171 311.953 407.171 305.616V105.324C407.171 98.9871 402.031 93.8499 395.69 93.8499Z" fill="#263238"/>
<path d="M55.7075 300.584H421.695V306.097C421.695 309.814 420.217 313.38 417.587 316.009C414.956 318.638 411.388 320.115 407.668 320.115H69.727C66.0067 320.115 62.4388 318.638 59.8082 316.009C57.1775 313.38 55.6996 309.814 55.6996 306.097V300.584H55.7075Z" fill="#263238"/>
<path d="M397.628 102.717H78.8999V291.244H397.628V102.717Z" fill="#455A64"/>
<path d="M205.438 300.576H206.864H211.025L226.463 300.513L278.104 300.403H278.482L278.293 300.734L276.244 304.246L274.077 307.955L274.014 308.065H273.888L209.977 307.947H209.922V307.9L206.572 302.458L205.729 301.08L205.461 300.623C205.461 300.623 205.58 300.789 205.777 301.104L206.675 302.482C207.463 303.703 208.598 305.482 210.087 307.79L210.001 307.743L273.912 307.624L273.723 307.735L275.89 304.025L277.939 300.513L278.128 300.844L226.699 300.734L211.159 300.639H206.935H205.824L205.438 300.576Z" fill="#455A64"/>
<path d="M407.172 300.576C407.172 300.694 331.518 300.781 238.276 300.781C145.033 300.781 69.3645 300.694 69.3645 300.576C69.3645 300.458 144.97 300.371 238.276 300.371C331.581 300.371 407.172 300.466 407.172 300.576Z" fill="#455A64"/>
<path d="M320.935 65.0657C320.935 65.1838 294.314 65.2468 261.476 65.2232C228.638 65.1996 202.018 65.0736 202.018 64.9633C202.018 64.8531 228.63 64.7822 261.476 64.8058C294.322 64.8294 320.935 64.9554 320.935 65.0657Z" fill="#263238"/>
<path d="M320.714 65.0419L308.941 64.9631L291.848 65.0655H166.279C161.159 65.0655 156.248 67.0983 152.627 70.7167C149.006 74.3351 146.972 79.2428 146.972 84.36V291.693H309.595V75.642C310.075 65.0655 320.714 65.0419 320.714 65.0419Z" fill="#FAFAFA"/>
<path d="M320.714 65.042L222.657 65.2546H173.632H167.501C166.476 65.2546 165.468 65.2546 164.459 65.3412C163.456 65.4476 162.463 65.6293 161.488 65.8846C158.544 66.6434 155.826 68.0984 153.563 70.1269C151.3 72.1554 149.559 74.6979 148.485 77.5401C148.327 78.0205 148.107 78.4772 147.996 78.9655L147.626 80.4303C147.434 81.4203 147.315 82.4232 147.271 83.4308C147.185 87.4865 147.271 91.5896 147.271 95.669L147.405 291.645L147.011 291.252L309.634 291.362L309.35 291.645L309.429 175.091L309.524 116.814L309.579 87.6756V80.3909V76.7447C309.555 76.1373 309.579 75.5291 309.65 74.9255C309.692 74.3193 309.789 73.7182 309.941 73.1299C310.449 70.7229 311.859 68.6012 313.882 67.1998C314.88 66.5024 315.984 65.9706 317.152 65.6248C318.309 65.2761 319.506 65.0802 320.714 65.042ZM320.714 65.042C319.499 65.0962 318.296 65.3107 317.136 65.6799C315.973 66.0308 314.872 66.5623 313.874 67.2549C311.866 68.662 310.473 70.7839 309.981 73.185C309.831 73.7708 309.736 74.3693 309.697 74.9727C309.633 75.5768 309.612 76.1848 309.634 76.7919V87.7149L309.697 116.853L309.784 175.131L309.863 291.685V291.976H309.571L146.948 292.079H146.562V291.685L146.688 95.7083C146.688 91.6211 146.688 87.5495 146.743 83.4465C146.789 82.4127 146.911 81.3836 147.106 80.3673L147.5 78.871C147.61 78.367 147.839 77.8944 147.996 77.4062C149.101 74.4926 150.891 71.887 153.214 69.8092C155.537 67.7314 158.326 66.2423 161.346 65.4672C162.348 65.2085 163.367 65.0243 164.396 64.916C165.428 64.8608 166.461 64.8057 167.477 64.8293H173.608H222.633L320.714 65.042Z" fill="#263238"/>
<path d="M171.473 102.371H199.843L199.89 111.868H198.526C198.085 108.472 196.814 106.172 194.712 104.97C193.054 104.206 191.241 103.837 189.417 103.891V128.698C189.417 130.438 189.716 131.588 190.323 132.155C190.93 132.722 192.191 133.006 194.113 133.006V134.203H177.32V133.006C179.156 133.006 180.385 132.714 180.984 132.139C181.583 131.565 181.899 130.423 181.899 128.698V103.891C180.075 103.847 178.264 104.216 176.603 104.97C174.349 106.206 173.072 108.498 172.781 111.868H171.425L171.473 102.371Z" fill="#14ACB7"/>
<path d="M287.277 104.544C287.277 104.883 271.626 105.159 252.319 105.159C233.012 105.159 217.361 104.883 217.361 104.544C217.361 104.206 233.012 103.93 252.319 103.93C271.626 103.93 287.277 104.174 287.277 104.544Z" fill="#14ACB7"/>
<path d="M245.794 115.68C245.794 116.019 239.742 116.294 232.279 116.294C224.816 116.294 218.764 116.019 218.764 115.68C218.764 115.341 224.816 115.058 232.279 115.058C239.742 115.058 245.794 115.333 245.794 115.68Z" fill="#455A64"/>
<path d="M211.718 149.733C211.718 150.071 200.229 150.347 186.052 150.347C171.874 150.347 160.377 150.071 160.377 149.733C160.377 149.394 171.867 149.118 186.052 149.118C200.237 149.118 211.718 149.433 211.718 149.733Z" fill="#455A64"/>
<path d="M269.861 149.733C269.861 150.071 258.363 150.347 244.194 150.347C230.025 150.347 218.519 150.071 218.519 149.733C218.519 149.394 230.009 149.118 244.194 149.118C258.379 149.118 269.861 149.433 269.861 149.733Z" fill="#14ACB7"/>
<path d="M211.718 158.829C211.718 159.168 200.229 159.443 186.052 159.443C171.874 159.443 160.377 159.168 160.377 158.829C160.377 158.49 171.867 158.215 186.052 158.215C200.237 158.215 211.718 158.49 211.718 158.829Z" fill="#455A64"/>
<path d="M211.718 167.925C211.718 168.263 200.229 168.539 186.052 168.539C171.874 168.539 160.377 168.263 160.377 167.925C160.377 167.586 171.867 167.302 186.052 167.302C200.237 167.302 211.718 167.547 211.718 167.925Z" fill="#14ACB7"/>
<path d="M245.794 134.203C245.794 134.541 239.742 134.817 232.279 134.817C224.816 134.817 218.764 134.541 218.764 134.203C218.764 133.864 224.816 133.588 232.279 133.588C239.742 133.588 245.794 133.864 245.794 134.203Z" fill="#455A64"/>
<path d="M297.506 115.68C297.506 116.019 287.119 116.294 274.314 116.294C261.508 116.294 251.121 116.019 251.121 115.68C251.121 115.341 261.5 115.058 274.314 115.058C287.127 115.058 297.506 115.333 297.506 115.68Z" fill="#455A64"/>
<path d="M295.41 124.548C295.41 124.886 278.254 125.162 257.087 125.162C235.92 125.162 218.764 124.886 218.764 124.548C218.764 124.209 235.92 123.933 257.087 123.933C278.254 123.933 295.41 124.233 295.41 124.548Z" fill="#455A64"/>
<path d="M292.683 158.829C292.683 159.168 276.079 159.443 255.645 159.443C235.21 159.443 218.559 159.168 218.559 158.829C218.559 158.49 235.155 158.215 255.645 158.215C276.134 158.215 292.683 158.49 292.683 158.829Z" fill="#455A64"/>
<path d="M292.683 185.156C292.683 185.494 277.103 185.77 257.891 185.77C238.678 185.77 223.09 185.494 223.09 185.156C223.09 184.817 238.67 184.542 257.891 184.542C277.111 184.542 292.683 184.817 292.683 185.156Z" fill="#14ACB7"/>
<path d="M292.683 194.008C292.683 194.346 277.103 194.622 257.891 194.622C238.678 194.622 223.09 194.346 223.09 194.008C223.09 193.669 238.67 193.393 257.891 193.393C277.111 193.393 292.683 193.669 292.683 194.008Z" fill="#455A64"/>
<path d="M292.683 202.859C292.683 203.198 277.103 203.474 257.891 203.474C238.678 203.474 223.09 203.198 223.09 202.859C223.09 202.521 238.67 202.245 257.891 202.245C277.111 202.245 292.683 202.521 292.683 202.859Z" fill="#455A64"/>
<path d="M292.683 211.711C292.683 212.05 277.103 212.325 257.891 212.325C238.678 212.325 223.09 212.05 223.09 211.711C223.09 211.373 238.67 211.097 257.891 211.097C277.111 211.097 292.683 211.373 292.683 211.711Z" fill="#455A64"/>
<path d="M263.155 220.563C263.155 220.728 260.909 220.886 257.284 220.996C253.659 221.106 248.615 221.177 243.099 221.177C237.582 221.177 232.555 221.106 228.914 220.996C225.273 220.886 223.051 220.728 223.051 220.563C223.051 220.398 225.289 220.24 228.914 220.13C232.539 220.02 237.582 219.949 243.099 219.949C248.615 219.949 253.635 220.02 257.284 220.13C260.932 220.24 263.155 220.39 263.155 220.563Z" fill="#455A64"/>
<path d="M280.074 168.397C280.074 168.736 266.677 169.012 250.128 169.012C233.579 169.012 220.182 168.736 220.182 168.397C220.182 168.059 233.579 167.783 250.128 167.783C266.677 167.783 280.074 168.059 280.074 168.397Z" fill="#455A64"/>
<path d="M210.505 186.156L214.201 254.482L147.342 262.846L147.295 185.581L210.505 186.156Z" fill="#E0E0E0"/>
<path d="M123.95 181.43L123.481 253.912L214.2 254.498L214.668 182.015L123.95 181.43Z" fill="#F5F5F5"/>
<path d="M127.048 186.01L126.639 249.365L210.983 249.91L211.392 186.554L127.048 186.01Z" fill="#14ACB7"/>
<g opacity="0.2">
<path opacity="0.2" d="M126.632 249.355L156.35 210.168L174.436 234.92L186.903 221.831L210.978 249.899L126.632 249.355Z" fill="black"/>
</g>
<g opacity="0.2">
<path opacity="0.2" d="M182.371 205.506C182.364 206.819 181.966 208.1 181.229 209.188C180.492 210.276 179.449 211.12 178.232 211.615C177.015 212.11 175.678 212.233 174.391 211.969C173.103 211.704 171.923 211.064 171 210.13C170.077 209.195 169.452 208.008 169.204 206.718C168.956 205.428 169.097 204.094 169.608 202.884C170.119 201.674 170.978 200.643 172.076 199.92C173.174 199.198 174.461 198.818 175.775 198.827C176.647 198.832 177.51 199.009 178.313 199.348C179.117 199.686 179.846 200.18 180.459 200.8C181.071 201.42 181.555 202.155 181.884 202.963C182.212 203.77 182.378 204.634 182.371 205.506Z" fill="black"/>
</g>
<path d="M222.932 271.579C222.932 271.856 222.85 272.127 222.696 272.358C222.542 272.588 222.323 272.768 222.066 272.874C221.81 272.98 221.528 273.008 221.256 272.954C220.984 272.9 220.734 272.766 220.538 272.57C220.342 272.374 220.208 272.124 220.154 271.853C220.1 271.581 220.128 271.299 220.234 271.043C220.34 270.786 220.52 270.568 220.75 270.414C220.981 270.259 221.252 270.177 221.53 270.177C221.714 270.176 221.897 270.212 222.068 270.282C222.238 270.352 222.393 270.455 222.524 270.586C222.654 270.716 222.758 270.871 222.828 271.041C222.898 271.212 222.933 271.395 222.932 271.579Z" fill="#263238"/>
<path d="M231.262 271.579C231.262 271.857 231.18 272.128 231.026 272.358C230.872 272.589 230.653 272.768 230.396 272.874C230.14 272.98 229.858 273.008 229.586 272.954C229.314 272.9 229.064 272.767 228.868 272.57C228.671 272.374 228.538 272.125 228.484 271.853C228.43 271.581 228.457 271.299 228.564 271.043C228.67 270.787 228.849 270.568 229.08 270.414C229.311 270.26 229.582 270.177 229.859 270.177C230.231 270.177 230.588 270.325 230.851 270.588C231.114 270.851 231.262 271.208 231.262 271.579Z" fill="#263238"/>
<path d="M239.584 271.579C239.584 271.857 239.502 272.128 239.348 272.358C239.193 272.589 238.974 272.768 238.718 272.874C238.462 272.98 238.18 273.008 237.908 272.954C237.636 272.9 237.386 272.767 237.189 272.57C236.993 272.374 236.86 272.125 236.806 271.853C236.751 271.581 236.779 271.299 236.885 271.043C236.992 270.787 237.171 270.568 237.402 270.414C237.633 270.26 237.904 270.177 238.181 270.177C238.553 270.177 238.91 270.325 239.173 270.588C239.436 270.851 239.584 271.208 239.584 271.579Z" fill="#263238"/>
<path d="M270.255 239.007C270.255 239.346 258.757 239.621 244.58 239.621C230.403 239.621 218.906 239.346 218.906 239.007C218.906 238.668 230.403 238.393 244.58 238.393C258.757 238.393 270.255 238.668 270.255 239.007Z" fill="#14ACB7"/>
<path d="M293.077 248.103C293.077 248.442 276.473 248.717 255.991 248.717C235.51 248.717 218.906 248.442 218.906 248.103C218.906 247.764 235.51 247.489 255.991 247.489C276.473 247.489 293.077 247.764 293.077 248.103Z" fill="#455A64"/>
<path d="M386.383 313.602L327.712 310.011C327.342 309.168 327.097 308.68 327.097 308.68L311.194 309.003L306.017 308.68L305.812 309.105L252.429 310.168C241.783 310.168 230.592 316.657 230.592 324.95C230.458 332.825 234.288 341.409 243.824 341.212L316.553 340.968L389.291 341.212C398.826 341.409 401.348 335.7 401.364 328.84C402.475 316.145 394.515 313.704 386.383 313.602Z" fill="#455A64"/>
<path d="M250.499 341.22H250.845H251.878L255.818 341.181L270.46 341.118L319.319 341.055L319.114 341.267C319.012 339.692 318.909 337.968 318.799 336.251C318.578 332.739 318.366 329.273 318.161 326.013L318.342 326.202L273.344 321.115L260.01 319.595L256.417 319.162L255.487 319.043C255.383 319.035 255.28 319.016 255.18 318.988H255.495L256.425 319.075L260.026 319.429L273.376 320.831L318.381 325.698H318.547V325.863C318.76 329.155 318.973 332.613 319.193 336.101C319.303 337.818 319.406 339.527 319.508 341.118V341.338H319.296L270.436 341.267L255.794 341.204H251.854H250.822L250.499 341.22Z" fill="#263238"/>
<path d="M265.495 320.367C265.448 320.422 264.707 319.831 263.438 319.051C261.768 318.035 259.971 317.241 258.095 316.689C256.216 316.153 254.273 315.867 252.319 315.838C250.822 315.838 249.892 315.933 249.884 315.838C250.09 315.756 250.308 315.705 250.53 315.689C251.122 315.597 251.72 315.545 252.319 315.531C256.323 315.414 260.264 316.546 263.596 318.768C264.097 319.098 264.577 319.461 265.03 319.855C265.346 320.178 265.511 320.327 265.495 320.367Z" fill="#263238"/>
<path d="M381.828 317.248C381.828 317.358 370.283 320.154 355.987 323.493C341.692 326.832 330.068 329.447 330.045 329.337C330.021 329.226 341.59 326.431 355.893 323.091C370.196 319.752 381.804 317.177 381.828 317.248Z" fill="#263238"/>
<path d="M372.048 316.114C370.462 316.676 368.941 317.405 367.509 318.288C366.158 319.286 364.924 320.433 363.829 321.705C364.004 321.23 364.272 320.794 364.617 320.422C366.148 318.502 368.229 317.095 370.582 316.39C371.05 316.211 371.547 316.118 372.048 316.114Z" fill="#263238"/>
<path d="M350.203 249.544L368.793 281.88C369.923 283.846 370.549 286.061 370.613 288.327C370.678 290.593 370.18 292.84 369.164 294.866C367.992 297.206 366.176 299.162 363.93 300.505C361.684 301.848 359.1 302.523 356.484 302.45L327.941 301.663L327.192 291.291L352.323 286.464L335.38 257.152L350.203 249.544Z" fill="#FFBE9D"/>
<path d="M280.933 304.876L307.175 311.822L307.751 303.947L283.565 289.913L301.233 257.152L286.41 249.544L267.82 281.88C266.764 283.839 266.154 286.007 266.032 288.229C265.91 290.451 266.28 292.672 267.115 294.735C267.95 296.797 269.231 298.651 270.864 300.163C272.498 301.675 274.445 302.808 276.567 303.482L280.933 304.876Z" fill="#FFBE9D"/>
<path d="M342.315 270.303L360.251 260.853C358.044 256.382 355.474 252.099 352.567 248.048C347.011 240.369 338.382 235.006 328.61 232.959L307.979 233.203C305.459 233.425 302.982 233.995 300.619 234.896V234.817C289.421 237.282 276.977 261.688 276.977 261.688L293.353 270.28L293.715 272.847C294.195 276.249 295.677 279.432 297.971 281.99L293.243 313.232L346.153 314.326L339.43 291.976L342.315 270.303Z" fill="#14ACB7"/>
<path d="M298.436 282.164C298.148 282 297.883 281.799 297.648 281.565C296.968 280.967 296.362 280.291 295.843 279.549C294.143 277.052 293.36 274.044 293.629 271.036C293.896 269.429 294.302 267.848 294.842 266.311C295.315 264.885 295.804 263.625 296.221 262.57C296.639 261.515 297.009 260.672 297.262 260.097C297.377 259.788 297.53 259.494 297.719 259.223C297.646 259.544 297.543 259.858 297.411 260.16C297.167 260.829 296.86 261.672 296.489 262.672C296.119 263.672 295.654 265.035 295.205 266.429C294.686 267.953 294.296 269.518 294.038 271.107C293.907 272.696 294.059 274.296 294.488 275.832C294.827 277.095 295.358 278.298 296.064 279.399C296.776 280.385 297.569 281.31 298.436 282.164Z" fill="#263238"/>
<path d="M290.492 320.776L287.498 285.928H352.023L347.752 321.209L290.492 320.776Z" fill="#263238"/>
<path d="M323.874 304.514C323.876 305.327 323.636 306.123 323.184 306.801C322.733 307.478 322.09 308.006 321.338 308.318C320.586 308.63 319.759 308.712 318.96 308.554C318.161 308.395 317.428 308.004 316.852 307.428C316.276 306.853 315.884 306.12 315.726 305.322C315.567 304.523 315.649 303.696 315.962 302.945C316.274 302.193 316.802 301.551 317.48 301.1C318.158 300.649 318.954 300.409 319.768 300.411C320.857 300.411 321.902 300.843 322.672 301.612C323.442 302.382 323.874 303.426 323.874 304.514Z" fill="#FAFAFA"/>
<path d="M346.46 241.519C346.47 241.577 346.47 241.635 346.46 241.692V242.181C346.42 242.637 346.357 243.275 346.287 244.087C346.113 245.78 345.869 248.197 345.569 251.237V251.418L345.404 251.332L335.837 246.299L336.065 246.236L330.896 254.962L330.786 255.143L330.612 255.017L321.944 248.347H322.196L318.405 251.316L313.236 255.356L313.046 255.506L312.936 255.293L308.011 246.197L308.255 246.276L297.821 250.922L297.624 251.009V250.804L296.048 241.527L296.206 241.622L290.201 243.937L288.625 244.52L288.215 244.669L288.073 244.709C288.073 244.709 288.112 244.709 288.199 244.638L288.601 244.465L290.177 243.819L296.111 241.456L296.245 241.409V241.551C296.71 244.134 297.262 247.245 297.9 250.812L297.679 250.694L308.09 245.969L308.255 245.898L308.342 246.047C309.918 248.93 311.557 251.97 313.283 255.143L312.975 255.08L318.145 251.033L321.936 248.064L322.062 247.969L322.188 248.064L330.856 254.75L330.573 254.805L335.782 246.142L335.861 246.008L336.002 246.079L345.459 251.166L345.278 251.261L346.113 244.126C346.216 243.338 346.294 242.685 346.35 242.228C346.35 242.031 346.405 241.874 346.42 241.74C346.428 241.665 346.441 241.591 346.46 241.519Z" fill="#F5F5F5"/>
<path d="M354.12 250.292C354.115 250.37 354.102 250.446 354.08 250.521C354.033 250.694 353.978 250.915 353.915 251.19C353.749 251.797 353.529 252.663 353.237 253.765C352.63 256.033 351.748 259.278 350.66 263.35L350.613 263.507L350.471 263.436L339.352 258.113L339.572 258.05C336.727 262.097 333.575 266.594 330.21 271.398L330.068 271.595L329.903 271.422L320.935 262.302L319.043 260.389H319.296L307.175 267.988L307.002 268.098L306.9 267.925L300.359 256.38L300.564 256.459L288.097 260.751L287.978 260.79L287.939 260.672C286.757 257.254 285.819 254.537 285.173 252.655C284.866 251.741 284.621 251.025 284.456 250.521C284.377 250.292 284.322 250.111 284.275 249.97C284.249 249.909 284.233 249.846 284.227 249.781C284.262 249.837 284.289 249.898 284.306 249.962L284.519 250.497C284.7 251.001 284.96 251.702 285.307 252.608C285.977 254.482 286.954 257.183 288.183 260.593L288.026 260.515L300.445 256.159L300.579 256.112L300.65 256.238L307.231 267.752L306.955 267.681L319.075 260.066L319.209 259.979L319.327 260.097C319.952 260.738 320.583 261.376 321.219 262.011L330.21 271.138H329.903L339.312 257.821L339.391 257.703L339.525 257.766L350.605 263.168L350.424 263.255L353.119 253.702L353.86 251.143C353.946 250.875 354.009 250.655 354.065 250.489C354.075 250.422 354.094 250.356 354.12 250.292Z" fill="#F5F5F5"/>
<path d="M346.153 195.354C344.572 195.52 342.974 195.358 341.458 194.88C339.942 194.402 338.541 193.617 337.342 192.574C340.211 194.024 344.033 192.031 345.049 188.983C346.066 185.936 345.23 180.257 342.724 178.241C341.521 177.284 340.112 176.619 338.608 176.296C337.104 175.974 335.546 176.003 334.056 176.383C331.101 177.17 327.972 181.667 327.003 184.565L327.058 184.652C326.609 184.471 326.144 184.305 325.687 184.148C322.417 182.993 318.933 182.571 315.481 182.911C312.021 183.27 308.76 184.705 306.159 187.014L326.199 219.201C329.84 218.886 333.063 216.429 334.97 213.318C336.877 210.207 337.61 206.498 337.791 202.852C337.839 201.93 337.831 201.009 337.791 200.087L344.23 201.119C343.075 199.569 341.619 198.268 339.951 197.292C341.054 197.687 342.257 197.712 343.376 197.362C344.496 197.012 345.47 196.308 346.153 195.354Z" fill="#263238"/>
<path d="M320.84 245.307C323.456 245.252 325.948 244.183 327.789 242.325C329.63 240.468 330.677 237.967 330.707 235.353L331.172 195.307C331.195 194.508 330.914 193.729 330.384 193.129C329.854 192.53 329.116 192.154 328.319 192.078L311.392 187.802C305.962 187.235 302.368 193.897 302.022 199.331C301.643 205.372 301.415 212.759 302.132 217.271C303.574 226.328 310.525 227.509 310.525 227.509C310.525 227.509 310.525 231.014 310.525 235.306C310.531 236.643 310.803 237.965 311.325 239.195C311.848 240.426 312.611 241.54 313.568 242.474C314.526 243.407 315.661 244.14 316.905 244.63C318.15 245.121 319.479 245.359 320.817 245.331L320.84 245.307Z" fill="#FFBE9D"/>
<path d="M305.536 205.198C305.534 205.502 305.651 205.795 305.861 206.014C306.072 206.233 306.359 206.362 306.663 206.372C306.811 206.384 306.96 206.366 307.101 206.319C307.241 206.272 307.372 206.198 307.483 206.101C307.595 206.003 307.686 205.884 307.751 205.751C307.816 205.617 307.853 205.472 307.861 205.324C307.865 205.021 307.751 204.729 307.541 204.509C307.332 204.29 307.045 204.161 306.742 204.151C306.594 204.139 306.445 204.157 306.303 204.204C306.162 204.25 306.031 204.324 305.919 204.422C305.807 204.519 305.715 204.638 305.649 204.772C305.584 204.905 305.545 205.05 305.536 205.198Z" fill="#263238"/>
<path d="M303.598 203.175C303.74 203.332 304.622 202.678 305.875 202.678C307.128 202.678 308.042 203.308 308.176 203.159C308.31 203.009 308.097 202.812 307.696 202.521C307.152 202.15 306.509 201.953 305.851 201.954C305.2 201.952 304.564 202.159 304.039 202.545C303.684 202.836 303.598 203.112 303.598 203.175Z" fill="#263238"/>
<path d="M317.444 205.199C317.439 205.503 317.555 205.797 317.766 206.016C317.977 206.236 318.266 206.364 318.571 206.372C318.719 206.384 318.868 206.366 319.009 206.319C319.151 206.273 319.281 206.199 319.393 206.101C319.506 206.004 319.597 205.885 319.663 205.751C319.729 205.618 319.767 205.473 319.776 205.325C319.779 205.021 319.662 204.728 319.452 204.509C319.241 204.29 318.953 204.161 318.649 204.151C318.501 204.138 318.351 204.155 318.21 204.201C318.068 204.247 317.937 204.322 317.824 204.419C317.712 204.517 317.62 204.636 317.555 204.77C317.489 204.904 317.452 205.05 317.444 205.199Z" fill="#263238"/>
<path d="M315.931 203.411C316.073 203.56 316.955 202.915 318.208 202.915C319.461 202.915 320.375 203.545 320.509 203.387C320.643 203.23 320.43 203.048 320.029 202.757C319.487 202.383 318.843 202.185 318.185 202.19C317.534 202.186 316.898 202.39 316.372 202.773C315.986 203.072 315.86 203.34 315.931 203.411Z" fill="#263238"/>
<path d="M311.384 212.688C310.724 212.481 310.041 212.357 309.35 212.318C309.035 212.318 308.736 212.223 308.681 212.003C308.65 211.673 308.725 211.343 308.893 211.058L309.839 208.624C311.147 205.167 312.101 202.324 311.959 202.269C311.817 202.214 310.643 204.978 309.327 208.443L308.42 210.884C308.224 211.271 308.166 211.713 308.255 212.137C308.3 212.251 308.371 212.353 308.463 212.436C308.555 212.518 308.664 212.577 308.783 212.609C308.96 212.657 309.143 212.681 309.327 212.68C310.009 212.77 310.7 212.772 311.384 212.688Z" fill="#263238"/>
<path d="M310.525 227.486C314.794 227.551 318.998 226.43 322.669 224.249C322.669 224.249 319.721 230.47 310.643 229.62L310.525 227.486Z" fill="#EB996E"/>
<path d="M311.919 215.696C312.157 215.398 312.467 215.164 312.82 215.018C313.173 214.872 313.557 214.818 313.937 214.861C314.214 214.89 314.483 214.974 314.727 215.109C314.971 215.245 315.185 215.428 315.355 215.649C315.523 215.856 315.623 216.111 315.642 216.377C315.66 216.643 315.596 216.909 315.458 217.137C315.257 217.361 314.993 217.52 314.702 217.595C314.41 217.669 314.103 217.655 313.819 217.555C313.238 217.34 312.703 217.017 312.243 216.602C312.101 216.503 311.981 216.377 311.888 216.232C311.842 216.163 311.817 216.082 311.817 215.999C311.817 215.917 311.842 215.836 311.888 215.767" fill="#EB996E"/>
<path d="M315.072 213.546C314.867 213.546 314.867 214.893 313.7 215.862C312.534 216.83 311.092 216.649 311.084 216.862C311.076 217.074 311.407 217.13 312.014 217.145C312.814 217.146 313.589 216.868 314.205 216.358C314.795 215.874 315.174 215.179 315.261 214.421C315.316 213.877 315.158 213.546 315.072 213.546Z" fill="#263238"/>
<path d="M315.363 201.221C315.489 201.56 316.734 201.403 318.208 201.576C319.682 201.749 320.864 202.151 321.053 201.851C321.14 201.702 320.935 201.387 320.462 201.064C319.822 200.66 319.098 200.407 318.346 200.324C317.594 200.241 316.833 200.33 316.12 200.583C315.584 200.796 315.308 201.064 315.363 201.221Z" fill="#263238"/>
<path d="M303.803 200.867C304.023 201.151 304.882 200.867 305.922 200.867C306.963 200.867 307.837 201.064 308.034 200.765C308.129 200.615 307.987 200.332 307.601 200.064C307.091 199.733 306.49 199.571 305.883 199.599C305.272 199.61 304.68 199.811 304.189 200.174C303.826 200.442 303.708 200.733 303.803 200.867Z" fill="#263238"/>
<path d="M330.163 206.569C330.53 206.371 330.945 206.277 331.361 206.298C331.778 206.319 332.181 206.453 332.527 206.687C333.365 207.175 334.008 207.938 334.348 208.846C334.687 209.754 334.703 210.751 334.391 211.669C334.08 212.587 333.461 213.369 332.638 213.884C331.816 214.398 330.841 214.612 329.879 214.491" fill="#FFBE9D"/>
<path d="M330.801 211.79C330.801 211.727 331.148 211.861 331.589 211.664C331.863 211.51 332.084 211.277 332.224 210.997C332.365 210.716 332.418 210.4 332.377 210.089C332.376 209.779 332.284 209.476 332.112 209.218C331.939 208.96 331.694 208.759 331.408 208.64C330.951 208.451 330.62 208.545 330.62 208.474C330.62 208.404 330.927 208.191 331.526 208.325C331.873 208.407 332.183 208.601 332.409 208.876C332.683 209.214 332.841 209.631 332.858 210.065C332.906 210.462 332.821 210.862 332.615 211.205C332.409 211.547 332.096 211.811 331.723 211.955C331.085 212.136 330.754 211.821 330.801 211.79Z" fill="#EB996E"/>
<path d="M333.276 213.625C333.276 213.625 333.433 213.712 333.693 213.916L334.805 214.798L338.745 218.122L338.879 218.232L338.768 218.366C337.311 220.114 335.687 222.304 333.867 224.587C333.449 225.107 333.039 225.611 332.637 226.084L332.299 226.477V225.958C332.141 222.272 332.007 219.004 331.936 216.657C331.936 215.547 331.889 214.617 331.873 213.901C331.842 213.565 331.842 213.228 331.873 212.893C331.952 213.22 331.994 213.556 331.999 213.893C332.046 214.609 332.109 215.531 332.188 216.649C332.33 219.012 332.503 222.248 332.685 225.942L332.33 225.816L333.544 224.335C335.364 222.052 337.003 219.878 338.501 218.138V218.382L334.678 214.948L333.622 214.011C333.493 213.895 333.377 213.766 333.276 213.625Z" fill="#455A64"/>
<path d="M314.938 183.841C312.715 183.861 310.5 184.103 308.326 184.565C306.14 185.033 304.147 186.153 302.613 187.778C301.857 188.597 301.317 189.591 301.042 190.67C300.767 191.749 300.765 192.88 301.037 193.96C301.346 195.03 302.013 195.96 302.927 196.597C303.841 197.233 304.945 197.537 306.056 197.457C307.727 197.236 309.327 196 310.942 196.488C312.558 196.977 313.307 198.811 314.883 199.103C316.459 199.394 317.806 198 319.367 197.859C321.1 197.709 322.598 199.126 323.37 200.686C324.142 202.245 324.434 203.993 325.206 205.545C325.42 206.062 325.741 206.527 326.149 206.91C326.556 207.293 327.041 207.584 327.57 207.766C328.071 207.868 328.588 207.851 329.08 207.714C329.572 207.577 330.024 207.325 330.399 206.978C331.14 206.272 331.706 205.404 332.054 204.442C332.873 202.431 333.215 200.257 333.054 198.091C332.892 195.925 332.232 193.826 331.124 191.958C330.016 190.089 328.49 188.502 326.667 187.321C324.843 186.14 322.771 185.396 320.612 185.148" fill="#263238"/>
<path d="M337.035 193.464C336.964 193.464 336.751 192.732 336.199 191.622C334.719 188.726 332.217 186.482 329.178 185.321C328.019 184.88 327.255 184.746 327.263 184.676C327.271 184.605 327.468 184.676 327.815 184.676C328.312 184.744 328.803 184.857 329.28 185.014C330.863 185.536 332.318 186.384 333.552 187.503C334.792 188.616 335.783 189.98 336.46 191.503C336.668 191.959 336.831 192.434 336.948 192.921C337.007 193.096 337.037 193.28 337.035 193.464Z" fill="#E8505B"/>
<path d="M343.97 180.195C343.262 179.908 342.532 179.682 341.787 179.517C339.975 179.21 338.112 179.485 336.467 180.305C334.836 181.157 333.429 182.382 332.362 183.88C331.518 185.022 331.124 185.818 331.061 185.786C331.099 185.578 331.174 185.377 331.282 185.195C331.523 184.682 331.802 184.187 332.117 183.715C333.156 182.117 334.592 180.817 336.286 179.943C337.989 179.082 339.936 178.829 341.802 179.226C342.367 179.346 342.911 179.548 343.418 179.824C343.788 180.029 343.985 180.147 343.97 180.195Z" fill="#455A64"/>
<path d="M335.254 190.834C335.355 191.452 335.355 192.082 335.254 192.7C335.095 194.201 334.713 195.669 334.119 197.055C333.529 198.441 332.731 199.728 331.755 200.875C331.375 201.371 330.914 201.8 330.391 202.143C331.745 200.551 332.881 198.787 333.772 196.898C334.525 194.949 335.023 192.911 335.254 190.834Z" fill="#455A64"/>
<path d="M335.514 191.031C335.618 191.189 335.693 191.365 335.734 191.551C335.898 192.035 336.017 192.533 336.089 193.039C336.345 194.722 336.262 196.44 335.845 198.091C335.429 199.742 334.686 201.294 333.662 202.655C333.355 203.065 333.012 203.447 332.637 203.797C332.369 204.049 332.22 204.175 332.196 204.151C332.172 204.127 332.708 203.537 333.425 202.481C334.353 201.112 335.038 199.594 335.451 197.993C335.846 196.386 335.966 194.725 335.805 193.078C335.671 191.818 335.443 191.047 335.514 191.031Z" fill="#455A64"/>
<path d="M359.36 193.094C358.492 193.367 357.755 193.95 357.288 194.731C356.822 195.513 356.659 196.438 356.831 197.331C357.002 198.225 357.497 199.024 358.219 199.577C358.942 200.13 359.843 200.398 360.751 200.331C361.659 200.263 362.51 199.865 363.143 199.211C363.776 198.557 364.147 197.694 364.184 196.785C364.222 195.876 363.924 194.985 363.347 194.281C362.77 193.577 361.954 193.11 361.055 192.968" fill="#EBEBEB"/>
<path d="M370.015 177.619C369.017 177.932 368.169 178.6 367.632 179.496C367.095 180.393 366.906 181.456 367.102 182.482C367.297 183.509 367.864 184.427 368.693 185.064C369.522 185.7 370.557 186.01 371.6 185.934C372.642 185.858 373.621 185.402 374.349 184.652C375.077 183.902 375.504 182.911 375.549 181.867C375.594 180.823 375.253 179.799 374.591 178.99C373.93 178.18 372.994 177.642 371.961 177.478" fill="#EBEBEB"/>
<path d="M392.766 109.419C385.673 108.821 378.431 110.412 373.537 115.625C371.107 118.262 369.294 121.407 368.231 124.832C367.167 128.256 366.88 131.874 367.391 135.424C359.809 138.574 355.68 148.213 358.62 155.899C361.559 163.586 371.094 167.948 378.833 165.216C380.583 169.646 383.458 173.544 387.176 176.526C390.893 179.507 395.323 181.469 400.03 182.218C404.737 182.967 409.558 182.477 414.018 180.796C418.477 179.116 422.422 176.303 425.462 172.634C432.894 174.312 441.223 174.209 447.528 169.831C453.832 165.452 456.606 155.86 451.846 149.906C460.412 147.819 464.762 137.132 462.225 128.69C459.687 120.248 452.075 114.2 443.958 110.774C438.591 108.506 431.893 107.325 427.314 110.924C425.472 108.092 422.98 105.741 420.044 104.068C417.109 102.394 413.816 101.446 410.439 101.302C407.063 101.157 403.701 101.822 400.634 103.239C397.566 104.657 394.882 106.787 392.805 109.451" fill="#F5F5F5"/>
<path d="M392.766 109.419C392.766 109.419 392.908 109.23 393.199 108.868C393.631 108.337 394.092 107.83 394.578 107.348C396.48 105.478 398.714 103.98 401.167 102.93C402.943 102.161 404.814 101.631 406.73 101.355C409.024 101.036 411.356 101.108 413.626 101.568C416.252 102.096 418.758 103.105 421.018 104.544C423.569 106.171 425.747 108.318 427.409 110.845H427.204C429.15 109.379 431.512 108.568 433.95 108.529C436.534 108.482 439.106 108.893 441.546 109.742C444.139 110.62 446.635 111.763 448.994 113.152C451.498 114.596 453.814 116.345 455.889 118.358C458.085 120.466 459.891 122.946 461.224 125.682C461.886 127.109 462.393 128.604 462.737 130.139C463.051 131.715 463.159 133.324 463.06 134.927C462.863 138.238 461.801 141.44 459.979 144.212C459.03 145.619 457.846 146.852 456.48 147.859C455.087 148.886 453.512 149.639 451.838 150.079L451.941 149.772C452.975 151.091 453.699 152.625 454.061 154.261C454.418 155.924 454.461 157.639 454.187 159.317C453.604 162.765 451.95 165.942 449.458 168.397C446.841 170.836 443.592 172.495 440.081 173.185C436.524 173.911 432.87 174.021 429.276 173.508C427.96 173.343 426.66 173.083 425.383 172.815L425.588 172.744C423.264 175.569 420.399 177.9 417.159 179.601C413.92 181.302 410.373 182.339 406.727 182.649C403.081 182.96 399.41 182.538 395.93 181.409C392.449 180.28 389.23 178.467 386.461 176.076C383.012 173.162 380.323 169.454 378.628 165.271L378.865 165.373C376.686 166.074 374.384 166.313 372.108 166.076C369.831 165.839 367.629 165.13 365.641 163.995C363.751 162.975 362.094 161.575 360.774 159.881C359.454 158.188 358.5 156.239 357.973 154.159C357.084 150.244 357.644 146.14 359.549 142.606C361.235 139.344 363.989 136.759 367.351 135.282L367.272 135.431C366.822 132.311 366.988 129.132 367.761 126.075C368.748 122.121 370.728 118.483 373.514 115.507C374.322 114.664 375.206 113.897 376.154 113.215C377.809 112.025 379.641 111.103 381.583 110.482C385.205 109.369 389.014 109.002 392.782 109.403C392.782 109.403 392.529 109.403 392.041 109.403C391.552 109.403 390.827 109.348 389.866 109.348C387.065 109.35 384.281 109.788 381.615 110.648C379.691 111.274 377.877 112.199 376.24 113.388C375.305 114.065 374.434 114.827 373.64 115.664C372.792 116.581 372.017 117.563 371.323 118.602C369.79 120.913 368.661 123.466 367.982 126.154C367.231 129.18 367.076 132.323 367.525 135.408V135.51L367.422 135.557C364.13 137.02 361.436 139.563 359.786 142.763C357.91 146.227 357.35 150.252 358.21 154.096C358.748 156.134 359.705 158.038 361.022 159.686C362.338 161.334 363.984 162.689 365.854 163.664C367.799 164.771 369.953 165.462 372.179 165.692C374.405 165.923 376.655 165.688 378.786 165.003L378.951 164.948L379.022 165.113C380.747 169.319 383.478 173.039 386.974 175.946C390.47 178.854 394.626 180.862 399.078 181.793C403.885 182.685 408.843 182.292 413.45 180.655C418.056 179.018 422.149 176.194 425.312 172.469L425.391 172.374H425.51C426.778 172.642 428.063 172.902 429.371 173.059C432.914 173.563 436.518 173.456 440.025 172.744C443.466 172.075 446.649 170.454 449.214 168.066C451.639 165.672 453.247 162.575 453.809 159.215C454.108 157.61 454.072 155.961 453.701 154.371C453.331 152.781 452.635 151.285 451.657 149.977L451.468 149.741L451.767 149.662C453.391 149.231 454.919 148.502 456.275 147.512C457.589 146.513 458.724 145.299 459.632 143.921C461.422 141.207 462.465 138.07 462.658 134.825C462.765 133.243 462.662 131.654 462.351 130.1C462.017 128.594 461.52 127.128 460.869 125.729C459.56 123.027 457.783 120.577 455.621 118.492C453.569 116.496 451.277 114.763 448.796 113.333C446.464 111.949 443.995 110.809 441.428 109.931C439.023 109.092 436.489 108.681 433.942 108.718C431.564 108.748 429.257 109.531 427.354 110.955L427.235 111.049L427.149 110.923C424.017 106.186 419.135 102.881 413.57 101.733C411.326 101.268 409.018 101.186 406.746 101.489C402.193 102.135 397.955 104.186 394.626 107.356C393.987 107.986 393.515 108.49 393.223 108.844C392.931 109.199 392.766 109.419 392.766 109.419Z" fill="#263238"/>
<path d="M441.507 133.967C441.507 134.305 427.527 134.581 410.292 134.581C393.057 134.581 379.085 134.305 379.085 133.967C379.085 133.628 393.057 133.352 410.292 133.352C427.527 133.352 441.507 133.628 441.507 133.967Z" fill="#455A64"/>
<path d="M441.507 140.771C441.507 141.109 427.527 141.385 410.292 141.385C393.057 141.385 379.085 141.109 379.085 140.771C379.085 140.432 393.057 140.149 410.292 140.149C427.527 140.149 441.507 140.393 441.507 140.771Z" fill="#455A64"/>
<path d="M441.507 147.504C441.507 147.843 427.527 148.118 410.292 148.118C393.057 148.118 379.085 147.843 379.085 147.504C379.085 147.166 393.057 146.89 410.292 146.89C427.527 146.89 441.507 147.166 441.507 147.504Z" fill="#455A64"/>
<path d="M441.507 154.269C441.507 154.608 427.527 154.883 410.292 154.883C393.057 154.883 379.085 154.608 379.085 154.269C379.085 153.93 393.057 153.655 410.292 153.655C427.527 153.655 441.507 153.93 441.507 154.269Z" fill="#455A64"/>
<path d="M337.681 340.015C337.299 339.03 337.119 337.977 337.153 336.92C337.048 335.858 337.166 334.785 337.5 333.77C337.579 334.803 337.6 335.838 337.563 336.873C337.664 337.917 337.704 338.967 337.681 340.015Z" fill="#263238"/>
<path d="M340.021 339.96C339.764 338.075 339.78 336.163 340.069 334.282C340.259 335.217 340.32 336.174 340.25 337.125C340.306 338.076 340.229 339.03 340.021 339.96Z" fill="#263238"/>
<path d="M342.78 340.433C342.355 338.513 342.201 336.544 342.323 334.582C342.6 335.526 342.746 336.504 342.756 337.488C342.898 338.464 342.906 339.455 342.78 340.433Z" fill="#263238"/>
<path d="M335.553 336.865C335.201 336.819 334.86 336.712 334.545 336.55C333.648 336.175 332.816 335.662 332.078 335.03C331.849 334.833 331.613 334.613 331.377 334.369C331.111 334.119 330.896 333.819 330.746 333.487C330.661 333.287 330.629 333.069 330.653 332.854C330.678 332.638 330.759 332.433 330.888 332.258C331.04 332.073 331.257 331.955 331.495 331.927C331.721 331.903 331.949 331.927 332.165 331.998C333.023 332.307 333.778 332.848 334.346 333.562C334.913 334.276 335.271 335.133 335.378 336.038C335.485 336.944 335.338 337.861 334.953 338.687C334.567 339.513 333.959 340.216 333.197 340.716C332.856 340.961 332.471 341.135 332.062 341.228C331.852 341.279 331.634 341.279 331.424 341.228C331.315 341.192 331.215 341.135 331.13 341.059C331.044 340.983 330.976 340.891 330.927 340.787C330.857 340.601 330.834 340.4 330.858 340.203C330.883 340.005 330.955 339.816 331.069 339.653C331.241 339.362 331.453 339.097 331.7 338.866C332.4 338.19 333.224 337.656 334.127 337.291C334.446 337.136 334.79 337.04 335.143 337.007C335.143 337.007 334.797 337.149 334.19 337.44C333.338 337.851 332.565 338.409 331.905 339.086C331.684 339.294 331.496 339.532 331.345 339.795C331.264 339.915 331.212 340.052 331.191 340.195C331.171 340.338 331.183 340.484 331.227 340.622C331.307 340.751 331.429 340.848 331.573 340.897C331.717 340.946 331.873 340.943 332.015 340.889C332.37 340.799 332.704 340.641 333 340.425C333.697 339.959 334.252 339.31 334.604 338.55C334.955 337.789 335.09 336.946 334.993 336.114C334.896 335.282 334.571 334.493 334.054 333.833C333.537 333.174 332.848 332.669 332.062 332.376C331.919 332.306 331.759 332.28 331.601 332.303C331.444 332.325 331.297 332.395 331.18 332.502C331.089 332.627 331.033 332.774 331.017 332.927C331 333.08 331.024 333.235 331.085 333.377C331.385 333.936 331.795 334.428 332.291 334.826C333.27 335.665 334.369 336.353 335.553 336.865Z" fill="#263238"/>
<path d="M353.923 341.961C354.172 341.74 354.376 341.473 354.522 341.173C354.666 340.763 354.711 340.325 354.655 339.894C354.599 339.464 354.443 339.052 354.199 338.692C353.489 337.592 352.411 336.779 351.157 336.401C349.762 335.897 348.107 335.66 346.428 335.133C343.56 334.273 340.821 333.028 338.288 331.431C337.326 330.817 336.578 330.266 336.073 329.856C335.798 329.666 335.547 329.444 335.325 329.195C335.622 329.344 335.904 329.52 336.168 329.722C336.696 330.077 337.46 330.589 338.445 331.172C340.992 332.68 343.712 333.876 346.547 334.731C348.194 335.243 349.841 335.519 351.275 336.031C352.596 336.459 353.716 337.351 354.427 338.543C354.676 338.942 354.825 339.395 354.861 339.864C354.896 340.333 354.818 340.804 354.632 341.236C354.508 341.458 354.335 341.649 354.128 341.795C354.033 341.937 353.931 341.976 353.923 341.961Z" fill="#263238"/>
<path d="M318.634 327.588L329.588 329.116V341.016L319.516 340.756L318.634 327.588Z" fill="#FFBE9D"/>
<path d="M329.603 329.108H334.529C335.486 329.108 336.427 329.361 337.255 329.841L339.848 331.353C341.315 332.165 342.831 332.886 344.387 333.51C347.382 334.471 352.417 335.771 353.481 336.59C356.507 338.952 355.585 341.685 353.923 341.969C352.465 342.228 329.595 341.023 329.595 341.023L329.603 329.108Z" fill="#14ACB7"/>
</svg>
