<svg width="21" height="21" viewBox="0 0 21 21" fill="none" xmlns="http://www.w3.org/2000/svg">
<ellipse cx="10.6698" cy="11.0102" rx="8.43344" ry="7.26212" fill="white"/>
<path d="M9.38574 12.2386L12.7386 10.3075L9.38574 8.3764V12.2386Z" fill="#14ACB7"/>
<path d="M10.6698 0C4.97801 0 0.362305 4.61571 0.362305 10.3075C0.362305 15.9994 4.97801 20.6151 10.6698 20.6151C16.3617 20.6151 20.9774 15.9994 20.9774 10.3075C20.9774 4.61571 16.3617 0 10.6698 0ZM17.1105 10.3181C17.1105 10.3181 17.1105 12.4085 16.8453 13.4165C16.6967 13.9682 16.2616 14.4033 15.7099 14.5517C14.7019 14.8171 10.6698 14.8171 10.6698 14.8171C10.6698 14.8171 6.64833 14.8171 5.62978 14.5412C5.07804 14.3927 4.64301 13.9575 4.49438 13.4058C4.22904 12.4085 4.22904 10.3075 4.22904 10.3075C4.22904 10.3075 4.22904 8.21727 4.49438 7.20926C4.64285 6.65752 5.08858 6.21179 5.62978 6.06332C6.63779 5.79799 10.6698 5.79799 10.6698 5.79799C10.6698 5.79799 14.7019 5.79799 15.7099 6.07386C16.2616 6.22233 16.6967 6.65752 16.8453 7.20926C17.1212 8.21727 17.1105 10.3181 17.1105 10.3181Z" fill="#14ACB7"/>
</svg>
